<svg width="108" height="82" viewBox="0 0 108 82" fill="none" xmlns="http://www.w3.org/2000/svg">
<g clip-path="url(#clip0_49_33)">
<path d="M47.6919 27.3333C49.2364 27.3333 50.4884 28.5908 50.4884 30.1421V42.1911C50.4884 43.7424 49.2364 44.9997 47.6919 44.9997C46.1476 44.9997 44.8956 43.7424 44.8956 42.1911V30.1421C44.8956 28.591 46.1476 27.3335 47.6919 27.3335V27.3333Z" fill="black"/>
<path d="M41.3077 12.8472C41.2985 12.9537 41.2904 13.0614 41.2904 13.1702V31.4257C41.2904 33.3889 42.8376 34.9706 44.7583 34.9706H63.2415C65.1624 34.9706 66.7096 33.3887 66.7096 31.4257V13.1702C66.7096 13.0614 66.7057 12.9533 66.6966 12.8472H41.3077Z" fill="black"/>
<path d="M60.3083 27.3334C61.8528 27.3334 63.1048 28.591 63.1048 30.1422V42.1913C63.1048 43.7425 61.8528 44.9999 60.3083 44.9999C58.7641 44.9999 57.512 43.7425 57.512 42.1913V30.1422C57.512 28.5912 58.7641 27.3336 60.3083 27.3336V27.3334ZM36.7973 14.4718C38.3415 14.4718 39.5936 15.7293 39.5936 17.2806V29.3296C39.5936 30.8809 38.3415 32.1384 36.7973 32.1384C35.2528 32.1384 34.0008 30.8809 34.0008 29.3298V17.2808C34.0006 15.7295 35.2526 14.4718 36.7973 14.4718ZM71.2031 14.4718C72.7474 14.4718 73.9994 15.7293 73.9994 17.2806V29.3296C73.9994 30.8809 72.7474 32.1384 71.2031 32.1384C69.6587 32.1384 68.4066 30.8809 68.4066 29.3298V17.2808C68.4066 15.7295 69.6587 14.4718 71.2031 14.4718V14.4718ZM41.3894 11.648C41.4672 6.0406 46.3399 1.44306 52.5947 0.837158H55.4051C61.6603 1.44326 66.5327 6.04099 66.6104 11.648H41.3894Z" fill="black"/>
<path d="M50.2433 6.62271C50.2457 7.40652 49.5998 8.04378 48.8006 8.04595C48.0018 8.04793 47.3522 7.41441 47.3498 6.6306V6.62271C47.3477 5.8387 47.9935 5.20164 48.7926 5.19947C49.5914 5.1973 50.241 5.83062 50.2433 6.61482V6.62271ZM61.0429 6.62271C61.0453 7.40652 60.3994 8.04378 59.6002 8.04595C58.8014 8.04793 58.1518 7.41441 58.1494 6.6306V6.62271C58.1472 5.8387 58.7931 5.20164 59.5921 5.19947C60.391 5.1973 61.0406 5.83062 61.0429 6.61482V6.62271Z" fill="black"/>
<path d="M45.7647 4.34218L42.2353 0.789551" stroke="black"/>
<path d="M61.451 4.34218L64.9804 0.789551" stroke="black"/>
</g>
<path d="M29.4602 62H27.4915L31.076 51.8182H33.353L36.9425 62H34.9737L32.2543 53.9062H32.1747L29.4602 62ZM29.5249 58.0078H34.8942V59.4893H29.5249V58.0078ZM40.0037 57.5256V62H38.204V54.3636H39.9242V55.6612H40.0137C40.1893 55.2337 40.4694 54.8939 40.8539 54.642C41.2417 54.3902 41.7206 54.2642 42.2907 54.2642C42.8176 54.2642 43.2767 54.3769 43.6678 54.6023C44.0622 54.8277 44.3671 55.1541 44.5826 55.5817C44.8013 56.0092 44.909 56.5279 44.9057 57.1378V62H43.106V57.4162C43.106 56.9058 42.9734 56.5064 42.7083 56.218C42.4464 55.9297 42.0835 55.7855 41.6195 55.7855C41.3046 55.7855 41.0246 55.8551 40.7793 55.9943C40.5373 56.1302 40.3468 56.3274 40.2076 56.5859C40.0717 56.8445 40.0037 57.1577 40.0037 57.5256ZM49.5691 62.1342C48.9692 62.1342 48.4322 61.9801 47.9583 61.6719C47.4843 61.3636 47.1098 60.9162 46.8347 60.3295C46.5596 59.7429 46.4221 59.0303 46.4221 58.1918C46.4221 57.3433 46.5613 56.6274 46.8397 56.044C47.1214 55.4574 47.5009 55.0149 47.9782 54.7166C48.4554 54.415 48.9874 54.2642 49.574 54.2642C50.0215 54.2642 50.3894 54.3404 50.6777 54.4929C50.9661 54.642 51.1948 54.8227 51.3638 55.0348C51.5328 55.2436 51.6638 55.4408 51.7566 55.6264H51.8311V51.8182H53.6358V62H51.8659V60.7969H51.7566C51.6638 60.9825 51.5295 61.1797 51.3539 61.3885C51.1782 61.594 50.9462 61.7696 50.6578 61.9155C50.3695 62.0613 50.0066 62.1342 49.5691 62.1342ZM50.0712 60.6577C50.4524 60.6577 50.7772 60.5549 51.0456 60.3494C51.3141 60.1406 51.5179 59.8506 51.6571 59.4794C51.7963 59.1082 51.8659 58.6757 51.8659 58.1818C51.8659 57.688 51.7963 57.2588 51.6571 56.8942C51.5212 56.5296 51.3191 56.2462 51.0506 56.044C50.7855 55.8419 50.459 55.7408 50.0712 55.7408C49.6702 55.7408 49.3354 55.8452 49.0669 56.054C48.7985 56.2628 48.5963 56.5511 48.4604 56.919C48.3245 57.2869 48.2566 57.7079 48.2566 58.1818C48.2566 58.6591 48.3245 59.085 48.4604 59.4595C48.5996 59.8307 48.8034 60.1241 49.0719 60.3395C49.3437 60.5516 49.6768 60.6577 50.0712 60.6577ZM55.5536 62V54.3636H57.2987V55.6364H57.3782C57.5174 55.1955 57.756 54.8558 58.0941 54.6172C58.4355 54.3752 58.8249 54.2543 59.2624 54.2543C59.3619 54.2543 59.4729 54.2592 59.5955 54.2692C59.7215 54.2758 59.8259 54.2874 59.9087 54.304V55.9595C59.8325 55.933 59.7115 55.9098 59.5458 55.8899C59.3834 55.8667 59.226 55.8551 59.0735 55.8551C58.7454 55.8551 58.4504 55.9264 58.1886 56.0689C57.93 56.2081 57.7262 56.402 57.5771 56.6506C57.4279 56.8991 57.3533 57.1858 57.3533 57.5107V62H55.5536ZM64.1209 62.1491C63.3752 62.1491 62.7289 61.9851 62.182 61.657C61.6351 61.3288 61.2109 60.8698 60.9093 60.2798C60.611 59.6899 60.4618 59.0005 60.4618 58.2116C60.4618 57.4228 60.611 56.7318 60.9093 56.1385C61.2109 55.5452 61.6351 55.0845 62.182 54.7564C62.7289 54.4283 63.3752 54.2642 64.1209 54.2642C64.8667 54.2642 65.513 54.4283 66.0598 54.7564C66.6067 55.0845 67.0293 55.5452 67.3276 56.1385C67.6292 56.7318 67.78 57.4228 67.78 58.2116C67.78 59.0005 67.6292 59.6899 67.3276 60.2798C67.0293 60.8698 66.6067 61.3288 66.0598 61.657C65.513 61.9851 64.8667 62.1491 64.1209 62.1491ZM64.1309 60.7074C64.5352 60.7074 64.8733 60.5964 65.1451 60.3743C65.4168 60.1489 65.619 59.8473 65.7516 59.4695C65.8875 59.0916 65.9554 58.6707 65.9554 58.2067C65.9554 57.7393 65.8875 57.3168 65.7516 56.9389C65.619 56.5578 65.4168 56.2545 65.1451 56.0291C64.8733 55.8037 64.5352 55.6911 64.1309 55.6911C63.7166 55.6911 63.3719 55.8037 63.0968 56.0291C62.825 56.2545 62.6212 56.5578 62.4853 56.9389C62.3527 57.3168 62.2864 57.7393 62.2864 58.2067C62.2864 58.6707 62.3527 59.0916 62.4853 59.4695C62.6212 59.8473 62.825 60.1489 63.0968 60.3743C63.3719 60.5964 63.7166 60.7074 64.1309 60.7074ZM69.3075 62V54.3636H71.1072V62H69.3075ZM70.2124 53.2798C69.9273 53.2798 69.6821 53.1854 69.4766 52.9964C69.2711 52.8042 69.1683 52.5739 69.1683 52.3054C69.1683 52.0336 69.2711 51.8033 69.4766 51.6143C69.6821 51.4221 69.9273 51.326 70.2124 51.326C70.5007 51.326 70.746 51.4221 70.9482 51.6143C71.1536 51.8033 71.2564 52.0336 71.2564 52.3054C71.2564 52.5739 71.1536 52.8042 70.9482 52.9964C70.746 53.1854 70.5007 53.2798 70.2124 53.2798ZM75.7917 62.1342C75.1918 62.1342 74.6549 61.9801 74.1809 61.6719C73.707 61.3636 73.3324 60.9162 73.0574 60.3295C72.7823 59.7429 72.6447 59.0303 72.6447 58.1918C72.6447 57.3433 72.7839 56.6274 73.0623 56.044C73.344 55.4574 73.7235 55.0149 74.2008 54.7166C74.6781 54.415 75.21 54.2642 75.7967 54.2642C76.2441 54.2642 76.612 54.3404 76.9004 54.4929C77.1887 54.642 77.4174 54.8227 77.5865 55.0348C77.7555 55.2436 77.8864 55.4408 77.9792 55.6264H78.0538V51.8182H79.8585V62H78.0886V60.7969H77.9792C77.8864 60.9825 77.7522 61.1797 77.5765 61.3885C77.4009 61.594 77.1689 61.7696 76.8805 61.9155C76.5922 62.0613 76.2292 62.1342 75.7917 62.1342ZM76.2939 60.6577C76.675 60.6577 76.9998 60.5549 77.2683 60.3494C77.5368 60.1406 77.7406 59.8506 77.8798 59.4794C78.019 59.1082 78.0886 58.6757 78.0886 58.1818C78.0886 57.688 78.019 57.2588 77.8798 56.8942C77.7439 56.5296 77.5417 56.2462 77.2733 56.044C77.0081 55.8419 76.6816 55.7408 76.2939 55.7408C75.8928 55.7408 75.5581 55.8452 75.2896 56.054C75.0211 56.2628 74.819 56.5511 74.6831 56.919C74.5472 57.2869 74.4792 57.7079 74.4792 58.1818C74.4792 58.6591 74.5472 59.085 74.6831 59.4595C74.8223 59.8307 75.0261 60.1241 75.2946 60.3395C75.5663 60.5516 75.8994 60.6577 76.2939 60.6577ZM13.9358 79H11.9671L15.5516 68.8182H17.8286L21.4181 79H19.4493L16.7298 70.9062H16.6503L13.9358 79ZM14.0004 75.0078H19.3698V76.4893H14.0004V75.0078ZM22.6796 81.8636V71.3636H24.4495V72.6264H24.5539C24.6467 72.4408 24.7776 72.2436 24.9466 72.0348C25.1157 71.8227 25.3444 71.642 25.6327 71.4929C25.9211 71.3404 26.289 71.2642 26.7364 71.2642C27.3264 71.2642 27.8583 71.415 28.3323 71.7166C28.8096 72.0149 29.1874 72.4574 29.4658 73.044C29.7475 73.6274 29.8884 74.3433 29.8884 75.1918C29.8884 76.0303 29.7509 76.7429 29.4758 77.3295C29.2007 77.9162 28.8261 78.3636 28.3522 78.6719C27.8782 78.9801 27.3413 79.1342 26.7414 79.1342C26.3039 79.1342 25.941 79.0613 25.6526 78.9155C25.3643 78.7696 25.1323 78.594 24.9566 78.3885C24.7842 78.1797 24.65 77.9825 24.5539 77.7969H24.4793V81.8636H22.6796ZM24.4445 75.1818C24.4445 75.6757 24.5141 76.1082 24.6533 76.4794C24.7958 76.8506 24.9997 77.1406 25.2648 77.3494C25.5333 77.5549 25.8581 77.6577 26.2393 77.6577C26.637 77.6577 26.9701 77.5516 27.2385 77.3395C27.507 77.1241 27.7092 76.8307 27.8451 76.4595C27.9843 76.085 28.0539 75.6591 28.0539 75.1818C28.0539 74.7079 27.9859 74.2869 27.8501 73.919C27.7142 73.5511 27.512 73.2628 27.2435 73.054C26.9751 72.8452 26.6403 72.7408 26.2393 72.7408C25.8548 72.7408 25.5283 72.8419 25.2599 73.044C24.9914 73.2462 24.7876 73.5296 24.6483 73.8942C24.5125 74.2588 24.4445 74.688 24.4445 75.1818ZM31.4296 81.8636V71.3636H33.1995V72.6264H33.3039C33.3967 72.4408 33.5276 72.2436 33.6966 72.0348C33.8657 71.8227 34.0944 71.642 34.3827 71.4929C34.6711 71.3404 35.039 71.2642 35.4864 71.2642C36.0764 71.2642 36.6083 71.415 37.0823 71.7166C37.5596 72.0149 37.9374 72.4574 38.2158 73.044C38.4975 73.6274 38.6384 74.3433 38.6384 75.1918C38.6384 76.0303 38.5009 76.7429 38.2258 77.3295C37.9507 77.9162 37.5761 78.3636 37.1022 78.6719C36.6282 78.9801 36.0913 79.1342 35.4914 79.1342C35.0539 79.1342 34.691 79.0613 34.4026 78.9155C34.1143 78.7696 33.8823 78.594 33.7066 78.3885C33.5342 78.1797 33.4 77.9825 33.3039 77.7969H33.2293V81.8636H31.4296ZM33.1945 75.1818C33.1945 75.6757 33.2641 76.1082 33.4033 76.4794C33.5458 76.8506 33.7497 77.1406 34.0148 77.3494C34.2833 77.5549 34.6081 77.6577 34.9893 77.6577C35.387 77.6577 35.7201 77.5516 35.9885 77.3395C36.257 77.1241 36.4592 76.8307 36.5951 76.4595C36.7343 76.085 36.8039 75.6591 36.8039 75.1818C36.8039 74.7079 36.7359 74.2869 36.6001 73.919C36.4642 73.5511 36.262 73.2628 35.9935 73.054C35.7251 72.8452 35.3903 72.7408 34.9893 72.7408C34.6048 72.7408 34.2783 72.8419 34.0099 73.044C33.7414 73.2462 33.5376 73.5296 33.3983 73.8942C33.2625 74.2588 33.1945 74.688 33.1945 75.1818ZM41.9793 68.8182V79H40.1796V68.8182H41.9793ZM43.83 79V71.3636H45.6297V79H43.83ZM44.7348 70.2798C44.4498 70.2798 44.2045 70.1854 43.999 69.9964C43.7935 69.8042 43.6908 69.5739 43.6908 69.3054C43.6908 69.0336 43.7935 68.8033 43.999 68.6143C44.2045 68.4221 44.4498 68.326 44.7348 68.326C45.0232 68.326 45.2684 68.4221 45.4706 68.6143C45.6761 68.8033 45.7789 69.0336 45.7789 69.3054C45.7789 69.5739 45.6761 69.8042 45.4706 69.9964C45.2684 70.1854 45.0232 70.2798 44.7348 70.2798ZM50.8113 79.1491C50.049 79.1491 49.3944 78.9818 48.8476 78.647C48.304 78.3123 47.8847 77.8499 47.5898 77.2599C47.2981 76.6667 47.1523 75.9839 47.1523 75.2116C47.1523 74.4361 47.3014 73.7517 47.5997 73.1584C47.898 72.5618 48.3189 72.0978 48.8625 71.7663C49.4094 71.4316 50.0557 71.2642 50.8014 71.2642C51.4212 71.2642 51.9697 71.3786 52.447 71.6072C52.9276 71.8326 53.3104 72.1525 53.5954 72.5668C53.8805 72.9777 54.0429 73.4583 54.0827 74.0085H52.3625C52.2929 73.6406 52.1272 73.334 51.8653 73.0888C51.6068 72.8402 51.2604 72.7159 50.8263 72.7159C50.4584 72.7159 50.1352 72.8153 49.8568 73.0142C49.5784 73.2098 49.3613 73.4915 49.2055 73.8594C49.0531 74.2273 48.9768 74.6681 48.9768 75.1818C48.9768 75.7022 49.0531 76.1496 49.2055 76.5241C49.358 76.8954 49.5718 77.1821 49.8469 77.3842C50.1253 77.5831 50.4517 77.6825 50.8263 77.6825C51.0914 77.6825 51.3284 77.6328 51.5372 77.5334C51.7493 77.4306 51.9266 77.2831 52.0692 77.0909C52.2117 76.8987 52.3095 76.665 52.3625 76.3899H54.0827C54.0396 76.9302 53.8805 77.4091 53.6054 77.8267C53.3303 78.241 52.9558 78.5658 52.4818 78.8011C52.0078 79.0331 51.451 79.1491 50.8113 79.1491ZM57.7579 79.1541C57.274 79.1541 56.8382 79.0679 56.4504 78.8956C56.0659 78.7199 55.761 78.4614 55.5356 78.12C55.3135 77.7786 55.2025 77.3577 55.2025 76.8572C55.2025 76.4264 55.282 76.0701 55.4411 75.7884C55.6002 75.5066 55.8173 75.2812 56.0924 75.1122C56.3675 74.9432 56.6774 74.8156 57.0221 74.7294C57.3701 74.6399 57.7297 74.5753 58.1009 74.5355C58.5484 74.4891 58.9113 74.4477 59.1897 74.4112C59.4681 74.3714 59.6703 74.3118 59.7963 74.2322C59.9255 74.1494 59.9901 74.0218 59.9901 73.8494V73.8196C59.9901 73.4451 59.8791 73.1551 59.657 72.9496C59.435 72.7441 59.1151 72.6413 58.6975 72.6413C58.2567 72.6413 57.907 72.7375 57.6485 72.9297C57.3933 73.1219 57.221 73.349 57.1315 73.6108L55.4511 73.3722C55.5837 72.9081 55.8024 72.5204 56.1073 72.2088C56.4123 71.8939 56.7851 71.6586 57.2259 71.5028C57.6668 71.3438 58.154 71.2642 58.6876 71.2642C59.0555 71.2642 59.4217 71.3073 59.7863 71.3935C60.1509 71.4796 60.484 71.6222 60.7856 71.821C61.0872 72.0166 61.3292 72.2834 61.5115 72.6214C61.6971 72.9595 61.7899 73.3821 61.7899 73.8892V79H60.0597V77.951H60.0001C59.8907 78.1631 59.7366 78.362 59.5377 78.5476C59.3422 78.7299 59.0953 78.8774 58.797 78.9901C58.502 79.0994 58.1556 79.1541 57.7579 79.1541ZM58.2252 77.8317C58.5865 77.8317 58.8997 77.7604 59.1649 77.6179C59.43 77.4721 59.6338 77.2798 59.7764 77.0412C59.9222 76.8026 59.9951 76.5424 59.9951 76.2607V75.3608C59.9388 75.4072 59.8427 75.4503 59.7068 75.4901C59.5742 75.5298 59.425 75.5646 59.2593 75.5945C59.0936 75.6243 58.9295 75.6508 58.7671 75.674C58.6047 75.6972 58.4639 75.7171 58.3445 75.7337C58.0761 75.7701 57.8358 75.8298 57.6237 75.9126C57.4115 75.9955 57.2442 76.1115 57.1215 76.2607C56.9989 76.4065 56.9376 76.5954 56.9376 76.8274C56.9376 77.1589 57.0586 77.4091 57.3005 77.5781C57.5425 77.7472 57.8507 77.8317 58.2252 77.8317ZM67.4127 71.3636V72.7557H63.0228V71.3636H67.4127ZM64.1066 69.5341H65.9063V76.7031C65.9063 76.9451 65.9428 77.1307 66.0157 77.2599C66.0919 77.3859 66.1914 77.4721 66.314 77.5185C66.4366 77.5649 66.5725 77.5881 66.7217 77.5881C66.8344 77.5881 66.9371 77.5798 67.0299 77.5632C67.126 77.5466 67.199 77.5317 67.2487 77.5185L67.5519 78.9254C67.4558 78.9586 67.3183 78.995 67.1393 79.0348C66.9636 79.0746 66.7482 79.0978 66.493 79.1044C66.0422 79.1177 65.6362 79.0497 65.2749 78.9006C64.9137 78.7481 64.627 78.5128 64.4149 78.1946C64.2061 77.8764 64.1033 77.4787 64.1066 77.0014V69.5341ZM68.9179 79V71.3636H70.7176V79H68.9179ZM69.8227 70.2798C69.5377 70.2798 69.2924 70.1854 69.0869 69.9964C68.8814 69.8042 68.7787 69.5739 68.7787 69.3054C68.7787 69.0336 68.8814 68.8033 69.0869 68.6143C69.2924 68.4221 69.5377 68.326 69.8227 68.326C70.1111 68.326 70.3563 68.4221 70.5585 68.6143C70.764 68.8033 70.8667 69.0336 70.8667 69.3054C70.8667 69.5739 70.764 69.8042 70.5585 69.9964C70.3563 70.1854 70.1111 70.2798 69.8227 70.2798ZM75.8992 79.1491C75.1535 79.1491 74.5072 78.9851 73.9603 78.657C73.4134 78.3288 72.9892 77.8698 72.6876 77.2798C72.3893 76.6899 72.2401 76.0005 72.2401 75.2116C72.2401 74.4228 72.3893 73.7318 72.6876 73.1385C72.9892 72.5452 73.4134 72.0845 73.9603 71.7564C74.5072 71.4283 75.1535 71.2642 75.8992 71.2642C76.645 71.2642 77.2913 71.4283 77.8382 71.7564C78.385 72.0845 78.8076 72.5452 79.1059 73.1385C79.4075 73.7318 79.5583 74.4228 79.5583 75.2116C79.5583 76.0005 79.4075 76.6899 79.1059 77.2798C78.8076 77.8698 78.385 78.3288 77.8382 78.657C77.2913 78.9851 76.645 79.1491 75.8992 79.1491ZM75.9092 77.7074C76.3135 77.7074 76.6516 77.5964 76.9234 77.3743C77.1952 77.1489 77.3973 76.8473 77.5299 76.4695C77.6658 76.0916 77.7338 75.6707 77.7338 75.2067C77.7338 74.7393 77.6658 74.3168 77.5299 73.9389C77.3973 73.5578 77.1952 73.2545 76.9234 73.0291C76.6516 72.8037 76.3135 72.6911 75.9092 72.6911C75.4949 72.6911 75.1502 72.8037 74.8751 73.0291C74.6033 73.2545 74.3995 73.5578 74.2636 73.9389C74.131 74.3168 74.0647 74.7393 74.0647 75.2067C74.0647 75.6707 74.131 76.0916 74.2636 76.4695C74.3995 76.8473 74.6033 77.1489 74.8751 77.3743C75.1502 77.5964 75.4949 77.7074 75.9092 77.7074ZM82.8856 74.5256V79H81.0858V71.3636H82.806V72.6612H82.8955C83.0712 72.2337 83.3512 71.8939 83.7357 71.642C84.1235 71.3902 84.6024 71.2642 85.1725 71.2642C85.6995 71.2642 86.1585 71.3769 86.5496 71.6023C86.944 71.8277 87.249 72.1541 87.4644 72.5817C87.6831 73.0092 87.7909 73.5279 87.7876 74.1378V79H85.9878V74.4162C85.9878 73.9058 85.8553 73.5064 85.5901 73.218C85.3283 72.9297 84.9653 72.7855 84.5013 72.7855C84.1865 72.7855 83.9064 72.8551 83.6611 72.9943C83.4192 73.1302 83.2286 73.3274 83.0894 73.5859C82.9535 73.8445 82.8856 74.1577 82.8856 74.5256ZM95.6526 73.3821L94.012 73.5611C93.9656 73.3954 93.8844 73.2396 93.7684 73.0938C93.6557 72.9479 93.5032 72.8303 93.311 72.7408C93.1188 72.6513 92.8834 72.6065 92.605 72.6065C92.2305 72.6065 91.9156 72.6877 91.6604 72.8501C91.4085 73.0125 91.2842 73.223 91.2876 73.4815C91.2842 73.7036 91.3654 73.8842 91.5312 74.0234C91.7002 74.1626 91.9786 74.277 92.3664 74.3665L93.6689 74.6449C94.3915 74.8007 94.9284 75.0476 95.2797 75.3857C95.6344 75.7237 95.8134 76.1662 95.8167 76.7131C95.8134 77.1937 95.6725 77.6179 95.3941 77.9858C95.119 78.3504 94.7362 78.6354 94.2456 78.8409C93.7551 79.0464 93.1917 79.1491 92.5553 79.1491C91.6206 79.1491 90.8683 78.9536 90.2982 78.5625C89.7281 78.1681 89.3884 77.6196 89.279 76.9169L91.034 76.7479C91.1135 77.0926 91.2826 77.3527 91.5411 77.5284C91.7996 77.7041 92.136 77.7919 92.5503 77.7919C92.9779 77.7919 93.3209 77.7041 93.5795 77.5284C93.8413 77.3527 93.9722 77.1357 93.9722 76.8771C93.9722 76.6584 93.8877 76.4777 93.7187 76.3352C93.5529 76.1927 93.2944 76.0833 92.9431 76.0071L91.6405 75.7337C90.9081 75.5812 90.3662 75.3243 90.0148 74.9631C89.6635 74.5985 89.4895 74.1378 89.4928 73.581C89.4895 73.1103 89.6171 72.7027 89.8756 72.358C90.1375 72.0099 90.5004 71.7415 90.9644 71.5526C91.4317 71.3603 91.9703 71.2642 92.5802 71.2642C93.4751 71.2642 94.1794 71.4548 94.6931 71.8359C95.2101 72.2171 95.53 72.7325 95.6526 73.3821Z" fill="black"/>
<defs>
<clipPath id="clip0_49_33">
<rect width="40" height="45" fill="white" transform="translate(34)"/>
</clipPath>
</defs>
</svg>
