<svg width="38" height="38" viewBox="0 0 38 38" fill="none" xmlns="http://www.w3.org/2000/svg">
<g clip-path="url(#clip0_40_3774)">
<rect width="37" height="38" transform="translate(0.5)" fill="#575757"/>
<path d="M0.5 0H37.5V38H0.5V0Z" fill="black"/>
<path d="M12.5322 27.6649L12.5357 27.666L11.2874 29.8865C10.8317 30.6971 9.82252 30.9748 9.03331 30.5068C8.24413 30.0389 7.97371 29.0024 8.42935 28.1919L9.34893 26.5561L9.43716 26.3991C9.59477 26.1664 9.98371 25.765 10.7617 25.8404C10.7617 25.8404 12.5924 26.0445 12.7249 27.0217C12.7249 27.0217 12.743 27.3433 12.5322 27.6649ZM30.2372 21.9934H26.3446C26.0795 21.9752 25.9637 21.8779 25.9183 21.8214L25.9154 21.8163L21.7485 14.4039L21.7431 14.4076L21.4932 14.0396C21.0836 13.3964 20.4333 15.0415 20.4333 15.0415C19.6568 16.8747 20.5434 18.9589 20.8526 19.5889L26.6402 29.8842C27.0958 30.6948 28.1051 30.9725 28.8943 30.5045C29.6835 30.0366 29.9539 29.0001 29.4982 28.1896L28.051 25.6151C28.023 25.5528 27.9742 25.3834 28.271 25.3827H30.2372C31.1485 25.3827 31.8873 24.624 31.8873 23.6881C31.8873 22.7521 31.1485 21.9934 30.2372 21.9934ZM22.6765 24.2972C22.6765 24.2972 22.8843 25.3827 22.0803 25.3827H21.2764V25.3827H7.69039C6.77909 25.3827 6.04032 24.624 6.04032 23.6881C6.04032 22.7521 6.77909 21.9934 7.69039 21.9934H11.3899C11.9872 21.9578 12.1288 21.6037 12.1288 21.6037L12.132 21.6054L16.9611 13.0151L16.9597 13.0148C17.0477 12.8489 16.9744 12.6921 16.9616 12.6673L15.3668 9.83038C14.9112 9.01983 15.1816 7.98337 15.9708 7.51542C16.76 7.04743 17.7692 7.32516 18.2248 8.1357L18.9645 9.45145L19.7028 8.13804C20.1585 7.3275 21.1676 7.04977 21.9569 7.51776C22.7461 7.98574 23.0165 9.02221 22.5608 9.83271L15.841 21.7863C15.8116 21.859 15.8026 21.9733 16.0212 21.9934H20.038L20.0388 22.0336C20.0388 22.0336 22.3604 22.0707 22.6765 24.2972Z" fill="white"/>
</g>
<defs>
<clipPath id="clip0_40_3774">
<rect width="37" height="38" fill="white" transform="translate(0.5)"/>
</clipPath>
</defs>
</svg>
