<svg width="92" height="80" viewBox="0 0 92 80" fill="none" xmlns="http://www.w3.org/2000/svg">
<g clip-path="url(#clip0_49_32)">
<rect width="37" height="38" transform="translate(27.5)" fill="#575757"/>
<path d="M27.5 0H64.5V38H27.5V0Z" fill="black"/>
<path d="M39.5322 27.6649L39.5357 27.666L38.2874 29.8865C37.8317 30.6971 36.8225 30.9748 36.0333 30.5068C35.2441 30.0389 34.9737 29.0024 35.4293 28.1919L36.3489 26.5561L36.4372 26.3991C36.5948 26.1664 36.9837 25.765 37.7617 25.8404C37.7617 25.8404 39.5924 26.0445 39.7249 27.0217C39.7249 27.0217 39.743 27.3433 39.5322 27.6649V27.6649ZM57.2372 21.9934H53.3446C53.0795 21.9752 52.9637 21.8779 52.9183 21.8214L52.9154 21.8163L48.7485 14.4039L48.7431 14.4076L48.4932 14.0396C48.0836 13.3964 47.4333 15.0415 47.4333 15.0415C46.6568 16.8747 47.5434 18.9589 47.8526 19.5889L53.6402 29.8842C54.0958 30.6948 55.1051 30.9725 55.8943 30.5045C56.6835 30.0366 56.9539 29.0001 56.4982 28.1896L55.051 25.6151C55.023 25.5528 54.9742 25.3834 55.271 25.3827H57.2372C58.1485 25.3827 58.8873 24.624 58.8873 23.6881C58.8873 22.7521 58.1485 21.9934 57.2372 21.9934ZM49.6765 24.2972C49.6765 24.2972 49.8843 25.3827 49.0803 25.3827H48.2764V25.3827H34.6904C33.7791 25.3827 33.0403 24.624 33.0403 23.6881C33.0403 22.7521 33.7791 21.9934 34.6904 21.9934H38.3899C38.9872 21.9578 39.1288 21.6037 39.1288 21.6037L39.132 21.6054L43.9611 13.0151L43.9597 13.0148C44.0477 12.8489 43.9744 12.6921 43.9616 12.6673L42.3668 9.83038C41.9112 9.01983 42.1816 7.98337 42.9708 7.51542C43.76 7.04743 44.7692 7.32516 45.2248 8.1357L45.9645 9.45145L46.7028 8.13804C47.1585 7.3275 48.1676 7.04977 48.9569 7.51776C49.7461 7.98574 50.0165 9.02221 49.5608 9.83271L42.841 21.7863C42.8116 21.859 42.8026 21.9733 43.0212 21.9934H47.038L47.0388 22.0336C47.0388 22.0336 49.3604 22.0707 49.6765 24.2972Z" fill="white"/>
</g>
<path d="M2.36124 60V52.3636H4.16096V60H2.36124ZM3.26607 51.2798C2.98103 51.2798 2.73577 51.1854 2.53027 50.9964C2.32478 50.8042 2.22203 50.5739 2.22203 50.3054C2.22203 50.0336 2.32478 49.8033 2.53027 49.6143C2.73577 49.4221 2.98103 49.326 3.26607 49.326C3.55442 49.326 3.79969 49.4221 4.00186 49.6143C4.20736 49.8033 4.3101 50.0336 4.3101 50.3054C4.3101 50.5739 4.20736 50.8042 4.00186 50.9964C3.79969 51.1854 3.55442 51.2798 3.26607 51.2798ZM15.1892 54.9091C15.1892 56.0062 14.9837 56.9458 14.5727 57.728C14.165 58.5069 13.6082 59.1035 12.9023 59.5178C12.1996 59.9321 11.4025 60.1392 10.5109 60.1392C9.61935 60.1392 8.82058 59.9321 8.11461 59.5178C7.41196 59.1001 6.85514 58.5019 6.44416 57.723C6.03649 56.9408 5.83265 56.0028 5.83265 54.9091C5.83265 53.812 6.03649 52.8741 6.44416 52.0952C6.85514 51.313 7.41196 50.7147 8.11461 50.3004C8.82058 49.8861 9.61935 49.679 10.5109 49.679C11.4025 49.679 12.1996 49.8861 12.9023 50.3004C13.6082 50.7147 14.165 51.313 14.5727 52.0952C14.9837 52.8741 15.1892 53.812 15.1892 54.9091ZM13.3348 54.9091C13.3348 54.1368 13.2138 53.4856 12.9719 52.9553C12.7332 52.4216 12.4018 52.0189 11.9775 51.7472C11.5533 51.4721 11.0644 51.3345 10.5109 51.3345C9.95742 51.3345 9.46854 51.4721 9.0443 51.7472C8.62006 52.0189 8.28696 52.4216 8.04501 52.9553C7.80637 53.4856 7.68706 54.1368 7.68706 54.9091C7.68706 55.6813 7.80637 56.3343 8.04501 56.8679C8.28696 57.3982 8.62006 57.8009 9.0443 58.076C9.46854 58.3478 9.95742 58.4837 10.5109 58.4837C11.0644 58.4837 11.5533 58.3478 11.9775 58.076C12.4018 57.8009 12.7332 57.3982 12.9719 56.8679C13.2138 56.3343 13.3348 55.6813 13.3348 54.9091ZM22.4664 52.6172C22.42 52.183 22.2244 51.8449 21.8797 51.603C21.5383 51.361 21.0942 51.2401 20.5473 51.2401C20.1628 51.2401 19.8331 51.2981 19.558 51.4141C19.2829 51.5301 19.0724 51.6875 18.9266 51.8864C18.7807 52.0852 18.7062 52.3123 18.7029 52.5675C18.7029 52.7796 18.7509 52.9635 18.847 53.1193C18.9465 53.2751 19.0807 53.4077 19.2497 53.517C19.4188 53.6231 19.606 53.7126 19.8115 53.7855C20.017 53.8584 20.2242 53.9197 20.433 53.9695L21.3875 54.2081C21.772 54.2976 22.1415 54.4186 22.4962 54.571C22.8541 54.7235 23.174 54.9157 23.4557 55.1477C23.7407 55.3797 23.9661 55.6598 24.1318 55.9879C24.2976 56.3161 24.3804 56.7005 24.3804 57.1413C24.3804 57.7379 24.228 58.2633 23.923 58.7173C23.6181 59.1681 23.1773 59.5211 22.6006 59.7763C22.0272 60.0282 21.3328 60.1541 20.5175 60.1541C19.7253 60.1541 19.0376 60.0315 18.4543 59.7862C17.8743 59.541 17.4202 59.183 17.0921 58.7124C16.7673 58.2417 16.5916 57.6683 16.5651 56.9922H18.3797C18.4062 57.3468 18.5156 57.6418 18.7078 57.8771C18.9001 58.1125 19.1503 58.2881 19.4585 58.4041C19.7701 58.5201 20.1181 58.5781 20.5026 58.5781C20.9036 58.5781 21.2549 58.5185 21.5566 58.3991C21.8615 58.2765 22.1001 58.1075 22.2725 57.892C22.4448 57.6733 22.5326 57.4181 22.536 57.1264C22.5326 56.8613 22.4548 56.6425 22.3023 56.4702C22.1498 56.2945 21.9361 56.1487 21.661 56.0327C21.3892 55.9134 21.071 55.8073 20.7064 55.7145L19.548 55.4162C18.7095 55.2008 18.0466 54.8743 17.5594 54.4368C17.0755 53.996 16.8335 53.411 16.8335 52.6818C16.8335 52.0819 16.9959 51.5566 17.3208 51.1058C17.6489 50.6551 18.0947 50.3054 18.6581 50.0568C19.2216 49.8049 19.8596 49.679 20.5722 49.679C21.2947 49.679 21.9278 49.8049 22.4713 50.0568C23.0182 50.3054 23.4474 50.6518 23.759 51.0959C24.0705 51.5367 24.2313 52.0438 24.2412 52.6172H22.4664ZM32.4605 60.1491C31.7645 60.1491 31.1662 60.0232 30.6657 59.7713C30.1653 59.5194 29.7791 59.1797 29.5074 58.7521C29.2389 58.3213 29.1047 57.8357 29.1047 57.2955C29.1047 56.8878 29.1875 56.5265 29.3532 56.2116C29.5223 55.8968 29.7543 55.6051 30.0493 55.3366C30.3476 55.0682 30.6923 54.8014 31.0834 54.5362L32.8881 53.3082C33.1532 53.1359 33.3537 52.9536 33.4896 52.7614C33.6288 52.5691 33.6984 52.3437 33.6984 52.0852C33.6984 51.8665 33.6056 51.6593 33.42 51.4638C33.2377 51.2682 32.9858 51.1705 32.6643 51.1705C32.4489 51.1705 32.2583 51.2218 32.0926 51.3246C31.9302 51.424 31.8026 51.5549 31.7098 51.7173C31.6203 51.8797 31.5756 52.0521 31.5756 52.2344C31.5756 52.4564 31.6369 52.6818 31.7595 52.9105C31.8854 53.1392 32.0479 53.3762 32.2467 53.6214C32.4489 53.8667 32.6643 54.1269 32.893 54.402L37.6707 60H35.7219L31.7545 55.456C31.4595 55.1113 31.1745 54.7715 30.8994 54.4368C30.6276 54.102 30.4039 53.754 30.2282 53.3928C30.0559 53.0282 29.9697 52.6338 29.9697 52.2095C29.9697 51.7289 30.0808 51.2997 30.3028 50.9219C30.5249 50.5407 30.8348 50.2408 31.2325 50.022C31.6336 49.8033 32.1025 49.6939 32.6395 49.6939C33.1764 49.6939 33.6371 49.8 34.0216 50.0121C34.406 50.2242 34.7027 50.5059 34.9115 50.8572C35.1203 51.2086 35.2247 51.5914 35.2247 52.0057C35.2247 52.4863 35.1054 52.9171 34.8667 53.2983C34.6281 53.6761 34.2967 54.0192 33.8724 54.3274L31.8142 55.8338C31.4761 56.0791 31.2342 56.3277 31.0883 56.5795C30.9425 56.8281 30.8696 57.0402 30.8696 57.2159C30.8696 57.4844 30.9375 57.728 31.0734 57.9467C31.2093 58.1655 31.3999 58.3411 31.6452 58.4737C31.8937 58.603 32.1837 58.6676 32.5152 58.6676C32.8798 58.6676 33.2394 58.5864 33.594 58.424C33.9487 58.2583 34.2718 58.023 34.5635 57.718C34.8551 57.4131 35.0872 57.0485 35.2595 56.6243C35.4318 56.1967 35.518 55.7228 35.518 55.2024H37.0642C37.0642 55.8454 36.9929 56.4055 36.8504 56.8828C36.7079 57.3568 36.5239 57.7578 36.2986 58.0859C36.0732 58.4107 35.8345 58.6709 35.5827 58.8665C35.5031 58.9228 35.4269 58.9792 35.354 59.0355C35.281 59.0919 35.2048 59.1482 35.1253 59.2045C34.7673 59.5294 34.348 59.768 33.8675 59.9205C33.3902 60.0729 32.9212 60.1491 32.4605 60.1491ZM42.1737 60V52.3636H43.9735V60H42.1737ZM43.0786 51.2798C42.7935 51.2798 42.5483 51.1854 42.3428 50.9964C42.1373 50.8042 42.0345 50.5739 42.0345 50.3054C42.0345 50.0336 42.1373 49.8033 42.3428 49.6143C42.5483 49.4221 42.7935 49.326 43.0786 49.326C43.3669 49.326 43.6122 49.4221 43.8144 49.6143C44.0199 49.8033 44.1226 50.0336 44.1226 50.3054C44.1226 50.5739 44.0199 50.8042 43.8144 50.9964C43.6122 51.1854 43.3669 51.2798 43.0786 51.2798ZM45.9037 60V49.8182H49.7219C50.5041 49.8182 51.1603 49.964 51.6906 50.2557C52.2242 50.5473 52.6269 50.9484 52.8987 51.4588C53.1738 51.9659 53.3113 52.5426 53.3113 53.1889C53.3113 53.8419 53.1738 54.4219 52.8987 54.929C52.6236 55.4361 52.2176 55.8355 51.6807 56.1271C51.1437 56.4155 50.4825 56.5597 49.697 56.5597H47.1665V55.0433H49.4484C49.9058 55.0433 50.2803 54.9638 50.572 54.8047C50.8637 54.6456 51.0791 54.4268 51.2183 54.1484C51.3608 53.87 51.4321 53.5502 51.4321 53.1889C51.4321 52.8277 51.3608 52.5095 51.2183 52.2344C51.0791 51.9593 50.862 51.7455 50.567 51.593C50.2754 51.4373 49.8992 51.3594 49.4385 51.3594H47.7481V60H45.9037ZM56.8946 60.1541C56.4107 60.1541 55.9749 60.0679 55.5871 59.8956C55.2026 59.7199 54.8977 59.4614 54.6723 59.12C54.4503 58.7786 54.3392 58.3577 54.3392 57.8572C54.3392 57.4264 54.4188 57.0701 54.5779 56.7884C54.7369 56.5066 54.954 56.2812 55.2291 56.1122C55.5042 55.9432 55.8141 55.8156 56.1588 55.7294C56.5068 55.6399 56.8664 55.5753 57.2377 55.5355C57.6851 55.4891 58.048 55.4477 58.3264 55.4112C58.6048 55.3714 58.807 55.3118 58.933 55.2322C59.0622 55.1494 59.1269 55.0218 59.1269 54.8494V54.8196C59.1269 54.4451 59.0158 54.1551 58.7938 53.9496C58.5717 53.7441 58.2519 53.6413 57.8343 53.6413C57.3934 53.6413 57.0438 53.7375 56.7852 53.9297C56.53 54.1219 56.3577 54.349 56.2682 54.6108L54.5878 54.3722C54.7204 53.9081 54.9391 53.5204 55.2441 53.2088C55.549 52.8939 55.9218 52.6586 56.3627 52.5028C56.8035 52.3438 57.2907 52.2642 57.8243 52.2642C58.1922 52.2642 58.5584 52.3073 58.923 52.3935C59.2876 52.4796 59.6207 52.6222 59.9223 52.821C60.2239 53.0166 60.4659 53.2834 60.6482 53.6214C60.8338 53.9595 60.9266 54.3821 60.9266 54.8892V60H59.1965V58.951H59.1368C59.0274 59.1631 58.8733 59.362 58.6744 59.5476C58.4789 59.7299 58.232 59.8774 57.9337 59.9901C57.6387 60.0994 57.2923 60.1541 56.8946 60.1541ZM57.3619 58.8317C57.7232 58.8317 58.0364 58.7604 58.3016 58.6179C58.5667 58.4721 58.7706 58.2798 58.9131 58.0412C59.0589 57.8026 59.1318 57.5424 59.1318 57.2607V56.3608C59.0755 56.4072 58.9794 56.4503 58.8435 56.4901C58.7109 56.5298 58.5618 56.5646 58.396 56.5945C58.2303 56.6243 58.0663 56.6508 57.9039 56.674C57.7414 56.6972 57.6006 56.7171 57.4813 56.7337C57.2128 56.7701 56.9725 56.8298 56.7604 56.9126C56.5483 56.9955 56.3809 57.1115 56.2583 57.2607C56.1356 57.4065 56.0743 57.5954 56.0743 57.8274C56.0743 58.1589 56.1953 58.4091 56.4372 58.5781C56.6792 58.7472 56.9874 58.8317 57.3619 58.8317ZM65.57 60.1342C64.9701 60.1342 64.4332 59.9801 63.9593 59.6719C63.4853 59.3636 63.1108 58.9162 62.8357 58.3295C62.5606 57.7429 62.423 57.0303 62.423 56.1918C62.423 55.3433 62.5622 54.6274 62.8406 54.044C63.1224 53.4574 63.5019 53.0149 63.9791 52.7166C64.4564 52.415 64.9884 52.2642 65.575 52.2642C66.0225 52.2642 66.3904 52.3404 66.6787 52.4929C66.9671 52.642 67.1958 52.8227 67.3648 53.0348C67.5338 53.2436 67.6647 53.4408 67.7575 53.6264H67.8321V49.8182H69.6368V60H67.8669V58.7969H67.7575C67.6647 58.9825 67.5305 59.1797 67.3548 59.3885C67.1792 59.594 66.9472 59.7696 66.6588 59.9155C66.3705 60.0613 66.0075 60.1342 65.57 60.1342ZM66.0722 58.6577C66.4533 58.6577 66.7781 58.5549 67.0466 58.3494C67.3151 58.1406 67.5189 57.8506 67.6581 57.4794C67.7973 57.1082 67.8669 56.6757 67.8669 56.1818C67.8669 55.688 67.7973 55.2588 67.6581 54.8942C67.5222 54.5296 67.32 54.2462 67.0516 54.044C66.7864 53.8419 66.46 53.7408 66.0722 53.7408C65.6711 53.7408 65.3364 53.8452 65.0679 54.054C64.7994 54.2628 64.5973 54.5511 64.4614 54.919C64.3255 55.2869 64.2575 55.7079 64.2575 56.1818C64.2575 56.6591 64.3255 57.085 64.4614 57.4595C64.6006 57.8307 64.8044 58.1241 65.0729 58.3395C65.3447 58.5516 65.6778 58.6577 66.0722 58.6577ZM80.7322 54.9091C80.7322 56.0062 80.5267 56.9458 80.1157 57.728C79.708 58.5069 79.1512 59.1035 78.4452 59.5178C77.7426 59.9321 76.9455 60.1392 76.0539 60.1392C75.1623 60.1392 74.3635 59.9321 73.6576 59.5178C72.9549 59.1001 72.3981 58.5019 71.9871 57.723C71.5795 56.9408 71.3756 56.0028 71.3756 54.9091C71.3756 53.812 71.5795 52.8741 71.9871 52.0952C72.3981 51.313 72.9549 50.7147 73.6576 50.3004C74.3635 49.8861 75.1623 49.679 76.0539 49.679C76.9455 49.679 77.7426 49.8861 78.4452 50.3004C79.1512 50.7147 79.708 51.313 80.1157 52.0952C80.5267 52.8741 80.7322 53.812 80.7322 54.9091ZM78.8778 54.9091C78.8778 54.1368 78.7568 53.4856 78.5148 52.9553C78.2762 52.4216 77.9448 52.0189 77.5205 51.7472C77.0963 51.4721 76.6074 51.3345 76.0539 51.3345C75.5004 51.3345 75.0115 51.4721 74.5873 51.7472C74.163 52.0189 73.8299 52.4216 73.588 52.9553C73.3493 53.4856 73.23 54.1368 73.23 54.9091C73.23 55.6813 73.3493 56.3343 73.588 56.8679C73.8299 57.3982 74.163 57.8009 74.5873 58.076C75.0115 58.3478 75.5004 58.4837 76.0539 58.4837C76.6074 58.4837 77.0963 58.3478 77.5205 58.076C77.9448 57.8009 78.2762 57.3982 78.5148 56.8679C78.7568 56.3343 78.8778 55.6813 78.8778 54.9091ZM88.0093 52.6172C87.9629 52.183 87.7674 51.8449 87.4227 51.603C87.0813 51.361 86.6372 51.2401 86.0903 51.2401C85.7058 51.2401 85.376 51.2981 85.1009 51.4141C84.8258 51.5301 84.6154 51.6875 84.4695 51.8864C84.3237 52.0852 84.2491 52.3123 84.2458 52.5675C84.2458 52.7796 84.2939 52.9635 84.39 53.1193C84.4894 53.2751 84.6237 53.4077 84.7927 53.517C84.9617 53.6231 85.149 53.7126 85.3545 53.7855C85.56 53.8584 85.7671 53.9197 85.9759 53.9695L86.9305 54.2081C87.315 54.2976 87.6845 54.4186 88.0392 54.571C88.3971 54.7235 88.7169 54.9157 88.9987 55.1477C89.2837 55.3797 89.5091 55.6598 89.6748 55.9879C89.8405 56.3161 89.9234 56.7005 89.9234 57.1413C89.9234 57.7379 89.7709 58.2633 89.466 58.7173C89.1611 59.1681 88.7203 59.5211 88.1436 59.7763C87.5702 60.0282 86.8758 60.1541 86.0605 60.1541C85.2683 60.1541 84.5806 60.0315 83.9972 59.7862C83.4172 59.541 82.9632 59.183 82.635 58.7124C82.3102 58.2417 82.1346 57.6683 82.108 56.9922H83.9227C83.9492 57.3468 84.0586 57.6418 84.2508 57.8771C84.443 58.1125 84.6933 58.2881 85.0015 58.4041C85.3131 58.5201 85.6611 58.5781 86.0455 58.5781C86.4466 58.5781 86.7979 58.5185 87.0995 58.3991C87.4044 58.2765 87.6431 58.1075 87.8154 57.892C87.9878 57.6733 88.0756 57.4181 88.0789 57.1264C88.0756 56.8613 87.9977 56.6425 87.8453 56.4702C87.6928 56.2945 87.479 56.1487 87.2039 56.0327C86.9321 55.9134 86.614 55.8073 86.2494 55.7145L85.091 55.4162C84.2525 55.2008 83.5896 54.8743 83.1024 54.4368C82.6185 53.996 82.3765 53.411 82.3765 52.6818C82.3765 52.0819 82.5389 51.5566 82.8637 51.1058C83.1919 50.6551 83.6376 50.3054 84.2011 50.0568C84.7645 49.8049 85.4026 49.679 86.1151 49.679C86.8377 49.679 87.4707 49.8049 88.0143 50.0568C88.5612 50.3054 88.9904 50.6518 89.3019 51.0959C89.6135 51.5367 89.7742 52.0438 89.7842 52.6172H88.0093ZM5.93581 77H3.96706L7.55158 66.8182H9.82857L13.4181 77H11.4493L8.72985 68.9062H8.6503L5.93581 77ZM6.00044 73.0078H11.3698V74.4893H6.00044V73.0078ZM14.6796 79.8636V69.3636H16.4495V70.6264H16.5539C16.6467 70.4408 16.7776 70.2436 16.9466 70.0348C17.1157 69.8227 17.3444 69.642 17.6327 69.4929C17.9211 69.3404 18.289 69.2642 18.7364 69.2642C19.3264 69.2642 19.8583 69.415 20.3323 69.7166C20.8096 70.0149 21.1874 70.4574 21.4658 71.044C21.7475 71.6274 21.8884 72.3433 21.8884 73.1918C21.8884 74.0303 21.7509 74.7429 21.4758 75.3295C21.2007 75.9162 20.8261 76.3636 20.3522 76.6719C19.8782 76.9801 19.3413 77.1342 18.7414 77.1342C18.3039 77.1342 17.941 77.0613 17.6526 76.9155C17.3643 76.7696 17.1323 76.594 16.9566 76.3885C16.7842 76.1797 16.65 75.9825 16.5539 75.7969H16.4793V79.8636H14.6796ZM16.4445 73.1818C16.4445 73.6757 16.5141 74.1082 16.6533 74.4794C16.7958 74.8506 16.9997 75.1406 17.2648 75.3494C17.5333 75.5549 17.8581 75.6577 18.2393 75.6577C18.637 75.6577 18.9701 75.5516 19.2385 75.3395C19.507 75.1241 19.7092 74.8307 19.8451 74.4595C19.9843 74.085 20.0539 73.6591 20.0539 73.1818C20.0539 72.7079 19.9859 72.2869 19.8501 71.919C19.7142 71.5511 19.512 71.2628 19.2435 71.054C18.9751 70.8452 18.6403 70.7408 18.2393 70.7408C17.8548 70.7408 17.5283 70.8419 17.2599 71.044C16.9914 71.2462 16.7876 71.5296 16.6483 71.8942C16.5125 72.2588 16.4445 72.688 16.4445 73.1818ZM23.4296 79.8636V69.3636H25.1995V70.6264H25.3039C25.3967 70.4408 25.5276 70.2436 25.6966 70.0348C25.8657 69.8227 26.0944 69.642 26.3827 69.4929C26.6711 69.3404 27.039 69.2642 27.4864 69.2642C28.0764 69.2642 28.6083 69.415 29.0823 69.7166C29.5596 70.0149 29.9374 70.4574 30.2158 71.044C30.4975 71.6274 30.6384 72.3433 30.6384 73.1918C30.6384 74.0303 30.5009 74.7429 30.2258 75.3295C29.9507 75.9162 29.5761 76.3636 29.1022 76.6719C28.6282 76.9801 28.0913 77.1342 27.4914 77.1342C27.0539 77.1342 26.691 77.0613 26.4026 76.9155C26.1143 76.7696 25.8823 76.594 25.7066 76.3885C25.5342 76.1797 25.4 75.9825 25.3039 75.7969H25.2293V79.8636H23.4296ZM25.1945 73.1818C25.1945 73.6757 25.2641 74.1082 25.4033 74.4794C25.5458 74.8506 25.7497 75.1406 26.0148 75.3494C26.2833 75.5549 26.6081 75.6577 26.9893 75.6577C27.387 75.6577 27.7201 75.5516 27.9885 75.3395C28.257 75.1241 28.4592 74.8307 28.5951 74.4595C28.7343 74.085 28.8039 73.6591 28.8039 73.1818C28.8039 72.7079 28.7359 72.2869 28.6001 71.919C28.4642 71.5511 28.262 71.2628 27.9935 71.054C27.7251 70.8452 27.3903 70.7408 26.9893 70.7408C26.6048 70.7408 26.2783 70.8419 26.0099 71.044C25.7414 71.2462 25.5376 71.5296 25.3983 71.8942C25.2625 72.2588 25.1945 72.688 25.1945 73.1818ZM33.9793 66.8182V77H32.1796V66.8182H33.9793ZM35.83 77V69.3636H37.6297V77H35.83ZM36.7348 68.2798C36.4498 68.2798 36.2045 68.1854 35.999 67.9964C35.7935 67.8042 35.6908 67.5739 35.6908 67.3054C35.6908 67.0336 35.7935 66.8033 35.999 66.6143C36.2045 66.4221 36.4498 66.326 36.7348 66.326C37.0232 66.326 37.2684 66.4221 37.4706 66.6143C37.6761 66.8033 37.7789 67.0336 37.7789 67.3054C37.7789 67.5739 37.6761 67.8042 37.4706 67.9964C37.2684 68.1854 37.0232 68.2798 36.7348 68.2798ZM42.8113 77.1491C42.049 77.1491 41.3944 76.9818 40.8476 76.647C40.304 76.3123 39.8847 75.8499 39.5898 75.2599C39.2981 74.6667 39.1523 73.9839 39.1523 73.2116C39.1523 72.4361 39.3014 71.7517 39.5997 71.1584C39.898 70.5618 40.3189 70.0978 40.8625 69.7663C41.4094 69.4316 42.0557 69.2642 42.8014 69.2642C43.4212 69.2642 43.9697 69.3786 44.447 69.6072C44.9276 69.8326 45.3104 70.1525 45.5954 70.5668C45.8805 70.9777 46.0429 71.4583 46.0827 72.0085H44.3625C44.2929 71.6406 44.1272 71.334 43.8653 71.0888C43.6068 70.8402 43.2604 70.7159 42.8263 70.7159C42.4584 70.7159 42.1352 70.8153 41.8568 71.0142C41.5784 71.2098 41.3613 71.4915 41.2055 71.8594C41.0531 72.2273 40.9768 72.6681 40.9768 73.1818C40.9768 73.7022 41.0531 74.1496 41.2055 74.5241C41.358 74.8954 41.5718 75.1821 41.8469 75.3842C42.1253 75.5831 42.4517 75.6825 42.8263 75.6825C43.0914 75.6825 43.3284 75.6328 43.5372 75.5334C43.7493 75.4306 43.9266 75.2831 44.0692 75.0909C44.2117 74.8987 44.3095 74.665 44.3625 74.3899H46.0827C46.0396 74.9302 45.8805 75.4091 45.6054 75.8267C45.3303 76.241 44.9558 76.5658 44.4818 76.8011C44.0078 77.0331 43.451 77.1491 42.8113 77.1491ZM49.7579 77.1541C49.274 77.1541 48.8382 77.0679 48.4504 76.8956C48.0659 76.7199 47.761 76.4614 47.5356 76.12C47.3135 75.7786 47.2025 75.3577 47.2025 74.8572C47.2025 74.4264 47.282 74.0701 47.4411 73.7884C47.6002 73.5066 47.8173 73.2812 48.0924 73.1122C48.3675 72.9432 48.6774 72.8156 49.0221 72.7294C49.3701 72.6399 49.7297 72.5753 50.1009 72.5355C50.5484 72.4891 50.9113 72.4477 51.1897 72.4112C51.4681 72.3714 51.6703 72.3118 51.7963 72.2322C51.9255 72.1494 51.9901 72.0218 51.9901 71.8494V71.8196C51.9901 71.4451 51.8791 71.1551 51.657 70.9496C51.435 70.7441 51.1151 70.6413 50.6975 70.6413C50.2567 70.6413 49.907 70.7375 49.6485 70.9297C49.3933 71.1219 49.221 71.349 49.1315 71.6108L47.4511 71.3722C47.5837 70.9081 47.8024 70.5204 48.1073 70.2088C48.4123 69.8939 48.7851 69.6586 49.2259 69.5028C49.6668 69.3438 50.154 69.2642 50.6876 69.2642C51.0555 69.2642 51.4217 69.3073 51.7863 69.3935C52.1509 69.4796 52.484 69.6222 52.7856 69.821C53.0872 70.0166 53.3292 70.2834 53.5115 70.6214C53.6971 70.9595 53.7899 71.3821 53.7899 71.8892V77H52.0597V75.951H52.0001C51.8907 76.1631 51.7366 76.362 51.5377 76.5476C51.3422 76.7299 51.0953 76.8774 50.797 76.9901C50.502 77.0994 50.1556 77.1541 49.7579 77.1541ZM50.2252 75.8317C50.5865 75.8317 50.8997 75.7604 51.1649 75.6179C51.43 75.4721 51.6338 75.2798 51.7764 75.0412C51.9222 74.8026 51.9951 74.5424 51.9951 74.2607V73.3608C51.9388 73.4072 51.8427 73.4503 51.7068 73.4901C51.5742 73.5298 51.425 73.5646 51.2593 73.5945C51.0936 73.6243 50.9295 73.6508 50.7671 73.674C50.6047 73.6972 50.4639 73.7171 50.3445 73.7337C50.0761 73.7701 49.8358 73.8298 49.6237 73.9126C49.4115 73.9955 49.2442 74.1115 49.1215 74.2607C48.9989 74.4065 48.9376 74.5954 48.9376 74.8274C48.9376 75.1589 49.0586 75.4091 49.3005 75.5781C49.5425 75.7472 49.8507 75.8317 50.2252 75.8317ZM59.4127 69.3636V70.7557H55.0228V69.3636H59.4127ZM56.1066 67.5341H57.9063V74.7031C57.9063 74.9451 57.9428 75.1307 58.0157 75.2599C58.0919 75.3859 58.1914 75.4721 58.314 75.5185C58.4366 75.5649 58.5725 75.5881 58.7217 75.5881C58.8344 75.5881 58.9371 75.5798 59.0299 75.5632C59.126 75.5466 59.199 75.5317 59.2487 75.5185L59.5519 76.9254C59.4558 76.9586 59.3183 76.995 59.1393 77.0348C58.9636 77.0746 58.7482 77.0978 58.493 77.1044C58.0422 77.1177 57.6362 77.0497 57.2749 76.9006C56.9137 76.7481 56.627 76.5128 56.4149 76.1946C56.2061 75.8764 56.1033 75.4787 56.1066 75.0014V67.5341ZM60.9179 77V69.3636H62.7176V77H60.9179ZM61.8227 68.2798C61.5377 68.2798 61.2924 68.1854 61.0869 67.9964C60.8814 67.8042 60.7787 67.5739 60.7787 67.3054C60.7787 67.0336 60.8814 66.8033 61.0869 66.6143C61.2924 66.4221 61.5377 66.326 61.8227 66.326C62.1111 66.326 62.3563 66.4221 62.5585 66.6143C62.764 66.8033 62.8667 67.0336 62.8667 67.3054C62.8667 67.5739 62.764 67.8042 62.5585 67.9964C62.3563 68.1854 62.1111 68.2798 61.8227 68.2798ZM67.8992 77.1491C67.1535 77.1491 66.5072 76.9851 65.9603 76.657C65.4134 76.3288 64.9892 75.8698 64.6876 75.2798C64.3893 74.6899 64.2401 74.0005 64.2401 73.2116C64.2401 72.4228 64.3893 71.7318 64.6876 71.1385C64.9892 70.5452 65.4134 70.0845 65.9603 69.7564C66.5072 69.4283 67.1535 69.2642 67.8992 69.2642C68.645 69.2642 69.2913 69.4283 69.8382 69.7564C70.385 70.0845 70.8076 70.5452 71.1059 71.1385C71.4075 71.7318 71.5583 72.4228 71.5583 73.2116C71.5583 74.0005 71.4075 74.6899 71.1059 75.2798C70.8076 75.8698 70.385 76.3288 69.8382 76.657C69.2913 76.9851 68.645 77.1491 67.8992 77.1491ZM67.9092 75.7074C68.3135 75.7074 68.6516 75.5964 68.9234 75.3743C69.1952 75.1489 69.3973 74.8473 69.5299 74.4695C69.6658 74.0916 69.7338 73.6707 69.7338 73.2067C69.7338 72.7393 69.6658 72.3168 69.5299 71.9389C69.3973 71.5578 69.1952 71.2545 68.9234 71.0291C68.6516 70.8037 68.3135 70.6911 67.9092 70.6911C67.4949 70.6911 67.1502 70.8037 66.8751 71.0291C66.6033 71.2545 66.3995 71.5578 66.2636 71.9389C66.131 72.3168 66.0647 72.7393 66.0647 73.2067C66.0647 73.6707 66.131 74.0916 66.2636 74.4695C66.3995 74.8473 66.6033 75.1489 66.8751 75.3743C67.1502 75.5964 67.4949 75.7074 67.9092 75.7074ZM74.8856 72.5256V77H73.0858V69.3636H74.806V70.6612H74.8955C75.0712 70.2337 75.3512 69.8939 75.7357 69.642C76.1235 69.3902 76.6024 69.2642 77.1725 69.2642C77.6995 69.2642 78.1585 69.3769 78.5496 69.6023C78.944 69.8277 79.249 70.1541 79.4644 70.5817C79.6831 71.0092 79.7909 71.5279 79.7876 72.1378V77H77.9878V72.4162C77.9878 71.9058 77.8553 71.5064 77.5901 71.218C77.3283 70.9297 76.9653 70.7855 76.5013 70.7855C76.1865 70.7855 75.9064 70.8551 75.6611 70.9943C75.4192 71.1302 75.2286 71.3274 75.0894 71.5859C74.9535 71.8445 74.8856 72.1577 74.8856 72.5256ZM87.6526 71.3821L86.012 71.5611C85.9656 71.3954 85.8844 71.2396 85.7684 71.0938C85.6557 70.9479 85.5032 70.8303 85.311 70.7408C85.1188 70.6513 84.8834 70.6065 84.605 70.6065C84.2305 70.6065 83.9156 70.6877 83.6604 70.8501C83.4085 71.0125 83.2842 71.223 83.2876 71.4815C83.2842 71.7036 83.3654 71.8842 83.5312 72.0234C83.7002 72.1626 83.9786 72.277 84.3664 72.3665L85.6689 72.6449C86.3915 72.8007 86.9284 73.0476 87.2797 73.3857C87.6344 73.7237 87.8134 74.1662 87.8167 74.7131C87.8134 75.1937 87.6725 75.6179 87.3941 75.9858C87.119 76.3504 86.7362 76.6354 86.2456 76.8409C85.7551 77.0464 85.1917 77.1491 84.5553 77.1491C83.6206 77.1491 82.8683 76.9536 82.2982 76.5625C81.7281 76.1681 81.3884 75.6196 81.279 74.9169L83.034 74.7479C83.1135 75.0926 83.2826 75.3527 83.5411 75.5284C83.7996 75.7041 84.136 75.7919 84.5503 75.7919C84.9779 75.7919 85.3209 75.7041 85.5795 75.5284C85.8413 75.3527 85.9722 75.1357 85.9722 74.8771C85.9722 74.6584 85.8877 74.4777 85.7187 74.3352C85.5529 74.1927 85.2944 74.0833 84.9431 74.0071L83.6405 73.7337C82.9081 73.5812 82.3662 73.3243 82.0148 72.9631C81.6635 72.5985 81.4895 72.1378 81.4928 71.581C81.4895 71.1103 81.6171 70.7027 81.8756 70.358C82.1375 70.0099 82.5004 69.7415 82.9644 69.5526C83.4317 69.3603 83.9703 69.2642 84.5802 69.2642C85.4751 69.2642 86.1794 69.4548 86.6931 69.8359C87.2101 70.2171 87.53 70.7325 87.6526 71.3821Z" fill="black"/>
<defs>
<clipPath id="clip0_49_32">
<rect width="37" height="38" fill="white" transform="translate(27.5)"/>
</clipPath>
</defs>
</svg>
