<svg width="114" height="79" viewBox="0 0 114 79" fill="none" xmlns="http://www.w3.org/2000/svg">
<path d="M46.2964 22.6776C46.2777 19.2856 47.8257 16.7253 50.9589 14.8398C49.2058 12.3535 46.5575 10.9856 43.0605 10.7175C39.7501 10.4587 36.1319 12.6308 34.8077 12.6308C33.4089 12.6308 30.2011 10.81 27.6833 10.81C22.4798 10.8931 16.95 14.923 16.95 23.1213C16.95 25.5429 17.3976 28.0446 18.2928 30.6264C19.4864 34.0185 23.7947 42.337 28.2894 42.1983C30.6394 42.1429 32.2993 40.5439 35.3579 40.5439C38.3233 40.5439 39.862 42.1983 42.4824 42.1983C47.0144 42.1336 50.9123 34.5731 52.05 31.1717C45.97 28.3342 46.2964 22.8533 46.2964 22.6776V22.6776ZM41.0183 7.50104C43.5641 4.50639 43.3309 1.77978 43.2563 0.800049C41.009 0.929447 38.4072 2.31586 36.9245 4.02577C35.2926 5.85583 34.3321 8.12031 34.5373 10.6713C36.9712 10.8562 39.1906 9.61764 41.0183 7.50104V7.50104Z" fill="black"/>
<g clip-path="url(#clip0_49_34)">
<path d="M56.55 6.53103L73.1012 4.28613L73.1083 20.1872L56.565 20.2809L56.55 6.53119V6.53103ZM73.0933 22.0191L73.1059 37.934L56.5628 35.6686L56.5619 21.9124L73.0931 22.0191H73.0933ZM75.0996 3.99226L97.0449 0.802246V19.9849L75.0996 20.1582V3.99241V3.99226ZM97.05 22.1688L97.0448 41.2649L75.0995 38.18L75.0688 22.133L97.05 22.1688Z" fill="black"/>
</g>
<path d="M4.08922 48.0181H6.34632L9.36905 55.396H9.48837L12.5111 48.0181H14.7682V58.2H12.9983V51.2049H12.9039L10.0899 58.1701H8.76749L5.95357 51.19H5.85911V58.2H4.08922V48.0181ZM18.8946 58.3541C18.4107 58.3541 17.9749 58.2679 17.5871 58.0955C17.2026 57.9199 16.8977 57.6614 16.6723 57.32C16.4503 56.9786 16.3392 56.5577 16.3392 56.0572C16.3392 55.6263 16.4188 55.27 16.5779 54.9883C16.7369 54.7066 16.954 54.4812 17.2291 54.3122C17.5042 54.1431 17.8141 54.0155 18.1588 53.9294C18.5068 53.8399 18.8664 53.7752 19.2377 53.7355C19.6851 53.6891 20.048 53.6476 20.3264 53.6112C20.6048 53.5714 20.807 53.5117 20.933 53.4322C21.0622 53.3493 21.1269 53.2217 21.1269 53.0494V53.0196C21.1269 52.645 21.0158 52.355 20.7938 52.1495C20.5717 51.944 20.2519 51.8413 19.8343 51.8413C19.3934 51.8413 19.0438 51.9374 18.7852 52.1296C18.53 52.3219 18.3577 52.5489 18.2682 52.8107L16.5878 52.5721C16.7204 52.1081 16.9391 51.7203 17.2441 51.4088C17.549 51.0939 17.9218 50.8586 18.3627 50.7028C18.8035 50.5437 19.2907 50.4642 19.8243 50.4642C20.1922 50.4642 20.5584 50.5072 20.923 50.5934C21.2876 50.6796 21.6207 50.8221 21.9223 51.021C22.2239 51.2165 22.4659 51.4833 22.6482 51.8214C22.8338 52.1595 22.9266 52.5821 22.9266 53.0892V58.2H21.1965V57.1509H21.1368C21.0274 57.3631 20.8733 57.5619 20.6744 57.7475C20.4789 57.9298 20.232 58.0773 19.9337 58.19C19.6387 58.2994 19.2923 58.3541 18.8946 58.3541ZM19.3619 57.0316C19.7232 57.0316 20.0364 56.9604 20.3016 56.8178C20.5667 56.672 20.7706 56.4798 20.9131 56.2411C21.0589 56.0025 21.1318 55.7423 21.1318 55.4606V54.5607C21.0755 54.6071 20.9794 54.6502 20.8435 54.69C20.7109 54.7298 20.5618 54.7646 20.396 54.7944C20.2303 54.8242 20.0663 54.8508 19.9039 54.874C19.7414 54.8972 19.6006 54.917 19.4813 54.9336C19.2128 54.9701 18.9725 55.0297 18.7604 55.1126C18.5483 55.1955 18.3809 55.3115 18.2583 55.4606C18.1356 55.6064 18.0743 55.7954 18.0743 56.0274C18.0743 56.3588 18.1953 56.609 18.4372 56.7781C18.6792 56.9471 18.9874 57.0316 19.3619 57.0316ZM28.0672 58.3491C27.3049 58.3491 26.6503 58.1817 26.1034 57.847C25.5599 57.5122 25.1406 57.0499 24.8456 56.4599C24.5539 55.8666 24.4081 55.1839 24.4081 54.4116C24.4081 53.636 24.5573 52.9516 24.8556 52.3583C25.1539 51.7617 25.5748 51.2977 26.1183 50.9663C26.6652 50.6315 27.3115 50.4642 28.0573 50.4642C28.6771 50.4642 29.2256 50.5785 29.7029 50.8072C30.1834 51.0326 30.5663 51.3524 30.8513 51.7667C31.1363 52.1777 31.2987 52.6583 31.3385 53.2085H29.6183C29.5487 52.8406 29.383 52.534 29.1212 52.2887C28.8627 52.0401 28.5163 51.9159 28.0821 51.9159C27.7142 51.9159 27.3911 52.0153 27.1127 52.2142C26.8343 52.4097 26.6172 52.6914 26.4614 53.0593C26.3089 53.4272 26.2327 53.868 26.2327 54.3818C26.2327 54.9021 26.3089 55.3496 26.4614 55.7241C26.6138 56.0953 26.8276 56.382 27.1027 56.5842C27.3811 56.783 27.7076 56.8825 28.0821 56.8825C28.3473 56.8825 28.5843 56.8328 28.7931 56.7333C29.0052 56.6306 29.1825 56.4831 29.325 56.2909C29.4675 56.0986 29.5653 55.865 29.6183 55.5899H31.3385C31.2954 56.1301 31.1363 56.609 30.8612 57.0267C30.5861 57.441 30.2116 57.7658 29.7377 58.0011C29.2637 58.2331 28.7069 58.3491 28.0672 58.3491ZM39.3316 58.3491C38.6356 58.3491 38.0373 58.2232 37.5368 57.9713C37.0364 57.7194 36.6502 57.3796 36.3785 56.9521C36.11 56.5212 35.9758 56.0357 35.9758 55.4954C35.9758 55.0877 36.0586 54.7265 36.2243 54.4116C36.3934 54.0967 36.6254 53.8051 36.9204 53.5366C37.2187 53.2681 37.5634 53.0013 37.9545 52.7362L39.7591 51.5082C40.0243 51.3358 40.2248 51.1535 40.3607 50.9613C40.4999 50.7691 40.5695 50.5437 40.5695 50.2852C40.5695 50.0664 40.4767 49.8593 40.2911 49.6637C40.1088 49.4682 39.8569 49.3704 39.5354 49.3704C39.32 49.3704 39.1294 49.4218 38.9637 49.5245C38.8013 49.624 38.6737 49.7549 38.5809 49.9173C38.4914 50.0797 38.4466 50.252 38.4466 50.4343C38.4466 50.6564 38.508 50.8818 38.6306 51.1105C38.7565 51.3392 38.9189 51.5761 39.1178 51.8214C39.32 52.0667 39.5354 52.3268 39.7641 52.6019L44.5418 58.2H42.593L38.6256 53.6559C38.3306 53.3112 38.0456 52.9715 37.7705 52.6367C37.4987 52.302 37.275 51.954 37.0993 51.5927C36.927 51.2281 36.8408 50.8337 36.8408 50.4095C36.8408 49.9289 36.9519 49.4997 37.1739 49.1218C37.396 48.7407 37.7059 48.4407 38.1036 48.222C38.5046 48.0032 38.9736 47.8938 39.5106 47.8938C40.0475 47.8938 40.5082 47.9999 40.8927 48.212C41.2771 48.4241 41.5738 48.7059 41.7826 49.0572C41.9914 49.4085 42.0958 49.7913 42.0958 50.2056C42.0958 50.6862 41.9765 51.1171 41.7378 51.4982C41.4992 51.8761 41.1678 52.2191 40.7435 52.5274L38.6853 54.0338C38.3472 54.279 38.1053 54.5276 37.9594 54.7795C37.8136 55.0281 37.7407 55.2402 37.7407 55.4159C37.7407 55.6843 37.8086 55.9279 37.9445 56.1467C38.0804 56.3654 38.271 56.5411 38.5162 56.6737C38.7648 56.8029 39.0548 56.8676 39.3863 56.8676C39.7509 56.8676 40.1105 56.7864 40.4651 56.624C40.8198 56.4582 41.1429 56.2229 41.4346 55.918C41.7262 55.6131 41.9582 55.2485 42.1306 54.8242C42.3029 54.3967 42.3891 53.9227 42.3891 53.4024H43.9353C43.9353 54.0454 43.864 54.6055 43.7215 55.0828C43.579 55.5567 43.395 55.9578 43.1697 56.2859C42.9443 56.6107 42.7056 56.8709 42.4537 57.0664C42.3742 57.1228 42.298 57.1791 42.2251 57.2355C42.1521 57.2918 42.0759 57.3482 41.9964 57.4045C41.6384 57.7293 41.2191 57.9679 40.7385 58.1204C40.2613 58.2729 39.7923 58.3491 39.3316 58.3491ZM51.2671 58.2L48.3936 48.0181H50.3772L52.2117 55.5004H52.3062L54.265 48.0181H56.0697L58.0335 55.5053H58.123L59.9575 48.0181H61.9411L59.0676 58.2H57.248L55.2096 51.0558H55.1301L53.0867 58.2H51.2671ZM63.1405 58.2V50.5636H64.9403V58.2H63.1405ZM64.0454 49.4798C63.7603 49.4798 63.5151 49.3853 63.3096 49.1964C63.1041 49.0042 63.0013 48.7738 63.0013 48.5053C63.0013 48.2336 63.1041 48.0032 63.3096 47.8143C63.5151 47.6221 63.7603 47.5259 64.0454 47.5259C64.3337 47.5259 64.579 47.6221 64.7812 47.8143C64.9867 48.0032 65.0894 48.2336 65.0894 48.5053C65.0894 48.7738 64.9867 49.0042 64.7812 49.1964C64.579 49.3853 64.3337 49.4798 64.0454 49.4798ZM68.5906 53.7255V58.2H66.7909V50.5636H68.5111V51.8612H68.6006C68.7762 51.4336 69.0563 51.0939 69.4408 50.842C69.8286 50.5901 70.3075 50.4642 70.8776 50.4642C71.4046 50.4642 71.8636 50.5768 72.2547 50.8022C72.6491 51.0276 72.954 51.3541 73.1695 51.7816C73.3882 52.2092 73.4959 52.7279 73.4926 53.3377V58.2H71.6929V53.6161C71.6929 53.1057 71.5603 52.7063 71.2952 52.418C71.0334 52.1296 70.6704 51.9855 70.2064 51.9855C69.8915 51.9855 69.6115 52.0551 69.3662 52.1943C69.1243 52.3302 68.9337 52.5274 68.7945 52.7859C68.6586 53.0444 68.5906 53.3576 68.5906 53.7255ZM78.156 58.3342C77.5561 58.3342 77.0191 58.1801 76.5452 57.8718C76.0712 57.5636 75.6967 57.1161 75.4216 56.5295C75.1465 55.9428 75.009 55.2303 75.009 54.3917C75.009 53.5432 75.1482 52.8273 75.4266 52.244C75.7083 51.6573 76.0878 51.2149 76.5651 50.9166C77.0423 50.615 77.5743 50.4642 78.161 50.4642C78.6084 50.4642 78.9763 50.5404 79.2646 50.6928C79.553 50.842 79.7817 51.0226 79.9507 51.2348C80.1198 51.4436 80.2507 51.6408 80.3435 51.8264H80.4181V48.0181H82.2227V58.2H80.4529V56.9968H80.3435C80.2507 57.1824 80.1164 57.3796 79.9408 57.5884C79.7651 57.7939 79.5331 57.9696 79.2448 58.1154C78.9564 58.2613 78.5935 58.3342 78.156 58.3342ZM78.6581 56.8576C79.0393 56.8576 79.3641 56.7549 79.6325 56.5494C79.901 56.3406 80.1048 56.0506 80.2441 55.6794C80.3833 55.3081 80.4529 54.8756 80.4529 54.3818C80.4529 53.8879 80.3833 53.4587 80.2441 53.0941C80.1082 52.7295 79.906 52.4462 79.6375 52.244C79.3724 52.0418 79.0459 51.9407 78.6581 51.9407C78.2571 51.9407 77.9223 52.0451 77.6539 52.2539C77.3854 52.4627 77.1832 52.7511 77.0473 53.119C76.9114 53.4869 76.8435 53.9078 76.8435 54.3818C76.8435 54.859 76.9114 55.2849 77.0473 55.6595C77.1865 56.0307 77.3904 56.324 77.6588 56.5394C77.9306 56.7516 78.2637 56.8576 78.6581 56.8576ZM87.4715 58.3491C86.7258 58.3491 86.0795 58.185 85.5326 57.8569C84.9857 57.5288 84.5615 57.0697 84.2599 56.4798C83.9616 55.8898 83.8124 55.2004 83.8124 54.4116C83.8124 53.6228 83.9616 52.9317 84.2599 52.3384C84.5615 51.7452 84.9857 51.2845 85.5326 50.9563C86.0795 50.6282 86.7258 50.4642 87.4715 50.4642C88.2172 50.4642 88.8635 50.6282 89.4104 50.9563C89.9573 51.2845 90.3799 51.7452 90.6782 52.3384C90.9798 52.9317 91.1306 53.6228 91.1306 54.4116C91.1306 55.2004 90.9798 55.8898 90.6782 56.4798C90.3799 57.0697 89.9573 57.5288 89.4104 57.8569C88.8635 58.185 88.2172 58.3491 87.4715 58.3491ZM87.4814 56.9073C87.8858 56.9073 88.2239 56.7963 88.4956 56.5742C88.7674 56.3489 88.9696 56.0473 89.1022 55.6694C89.2381 55.2916 89.306 54.8706 89.306 54.4066C89.306 53.9393 89.2381 53.5167 89.1022 53.1389C88.9696 52.7577 88.7674 52.4544 88.4956 52.2291C88.2239 52.0037 87.8858 51.891 87.4814 51.891C87.0671 51.891 86.7224 52.0037 86.4474 52.2291C86.1756 52.4544 85.9717 52.7577 85.8358 53.1389C85.7033 53.5167 85.637 53.9393 85.637 54.4066C85.637 54.8706 85.7033 55.2916 85.8358 55.6694C85.9717 56.0473 86.1756 56.3489 86.4474 56.5742C86.7224 56.7963 87.0671 56.9073 87.4814 56.9073ZM94.0154 58.2L91.8577 50.5636H93.6922L95.0345 55.9329H95.1041L96.4763 50.5636H98.2909L99.6631 55.9031H99.7377L101.06 50.5636H102.9L100.737 58.2H98.8627L97.4308 53.0394H97.3264L95.8946 58.2H94.0154ZM110.192 52.5821L108.551 52.761C108.505 52.5953 108.423 52.4395 108.307 52.2937C108.195 52.1479 108.042 52.0302 107.85 51.9407C107.658 51.8512 107.422 51.8065 107.144 51.8065C106.77 51.8065 106.455 51.8877 106.199 52.0501C105.948 52.2125 105.823 52.423 105.827 52.6815C105.823 52.9035 105.905 53.0842 106.07 53.2234C106.239 53.3626 106.518 53.4769 106.905 53.5664L108.208 53.8448C108.931 54.0006 109.467 54.2475 109.819 54.5856C110.173 54.9237 110.352 55.3661 110.356 55.913C110.352 56.3936 110.212 56.8178 109.933 57.1857C109.658 57.5503 109.275 57.8354 108.785 58.0409C108.294 58.2464 107.731 58.3491 107.094 58.3491C106.16 58.3491 105.407 58.1535 104.837 57.7625C104.267 57.368 103.927 56.8195 103.818 56.1169L105.573 55.9478C105.653 56.2925 105.822 56.5527 106.08 56.7284C106.339 56.904 106.675 56.9919 107.089 56.9919C107.517 56.9919 107.86 56.904 108.119 56.7284C108.38 56.5527 108.511 56.3356 108.511 56.0771C108.511 55.8583 108.427 55.6777 108.258 55.5352C108.092 55.3927 107.833 55.2833 107.482 55.2071L106.18 54.9336C105.447 54.7812 104.905 54.5243 104.554 54.163C104.203 53.7984 104.029 53.3377 104.032 52.7809C104.029 52.3103 104.156 51.9026 104.415 51.5579C104.677 51.2099 105.039 50.9414 105.503 50.7525C105.971 50.5603 106.509 50.4642 107.119 50.4642C108.014 50.4642 108.718 50.6547 109.232 51.0359C109.749 51.417 110.069 51.9324 110.192 52.5821ZM16.9358 75.2H14.9671L18.5516 65.0181H20.8286L24.4181 75.2H22.4493L19.7298 67.1062H19.6503L16.9358 75.2ZM17.0004 71.2078H22.3698V72.6893H17.0004V71.2078ZM25.6796 78.0636V67.5636H27.4495V68.8264H27.5539C27.6467 68.6408 27.7776 68.4436 27.9466 68.2348C28.1157 68.0226 28.3444 67.842 28.6327 67.6928C28.9211 67.5404 29.289 67.4642 29.7364 67.4642C30.3264 67.4642 30.8583 67.615 31.3323 67.9166C31.8096 68.2149 32.1874 68.6573 32.4658 69.244C32.7475 69.8273 32.8884 70.5432 32.8884 71.3917C32.8884 72.2303 32.7509 72.9428 32.4758 73.5295C32.2007 74.1161 31.8261 74.5636 31.3522 74.8718C30.8782 75.1801 30.3413 75.3342 29.7414 75.3342C29.3039 75.3342 28.941 75.2613 28.6526 75.1154C28.3643 74.9696 28.1323 74.7939 27.9566 74.5884C27.7842 74.3796 27.65 74.1824 27.5539 73.9968H27.4793V78.0636H25.6796ZM27.4445 71.3818C27.4445 71.8756 27.5141 72.3081 27.6533 72.6794C27.7958 73.0506 27.9997 73.3406 28.2648 73.5494C28.5333 73.7549 28.8581 73.8576 29.2393 73.8576C29.637 73.8576 29.9701 73.7516 30.2385 73.5394C30.507 73.324 30.7092 73.0307 30.8451 72.6595C30.9843 72.2849 31.0539 71.859 31.0539 71.3818C31.0539 70.9078 30.9859 70.4869 30.8501 70.119C30.7142 69.7511 30.512 69.4627 30.2435 69.2539C29.9751 69.0451 29.6403 68.9407 29.2393 68.9407C28.8548 68.9407 28.5283 69.0418 28.2599 69.244C27.9914 69.4462 27.7876 69.7295 27.6483 70.0941C27.5125 70.4587 27.4445 70.8879 27.4445 71.3818ZM34.4296 78.0636V67.5636H36.1995V68.8264H36.3039C36.3967 68.6408 36.5276 68.4436 36.6966 68.2348C36.8657 68.0226 37.0944 67.842 37.3827 67.6928C37.6711 67.5404 38.039 67.4642 38.4864 67.4642C39.0764 67.4642 39.6083 67.615 40.0823 67.9166C40.5596 68.2149 40.9374 68.6573 41.2158 69.244C41.4975 69.8273 41.6384 70.5432 41.6384 71.3917C41.6384 72.2303 41.5009 72.9428 41.2258 73.5295C40.9507 74.1161 40.5761 74.5636 40.1022 74.8718C39.6282 75.1801 39.0913 75.3342 38.4914 75.3342C38.0539 75.3342 37.691 75.2613 37.4026 75.1154C37.1143 74.9696 36.8823 74.7939 36.7066 74.5884C36.5342 74.3796 36.4 74.1824 36.3039 73.9968H36.2293V78.0636H34.4296ZM36.1945 71.3818C36.1945 71.8756 36.2641 72.3081 36.4033 72.6794C36.5458 73.0506 36.7497 73.3406 37.0148 73.5494C37.2833 73.7549 37.6081 73.8576 37.9893 73.8576C38.387 73.8576 38.7201 73.7516 38.9885 73.5394C39.257 73.324 39.4592 73.0307 39.5951 72.6595C39.7343 72.2849 39.8039 71.859 39.8039 71.3818C39.8039 70.9078 39.7359 70.4869 39.6001 70.119C39.4642 69.7511 39.262 69.4627 38.9935 69.2539C38.7251 69.0451 38.3903 68.9407 37.9893 68.9407C37.6048 68.9407 37.2783 69.0418 37.0099 69.244C36.7414 69.4462 36.5376 69.7295 36.3983 70.0941C36.2625 70.4587 36.1945 70.8879 36.1945 71.3818ZM44.9793 65.0181V75.2H43.1796V65.0181H44.9793ZM46.83 75.2V67.5636H48.6297V75.2H46.83ZM47.7348 66.4798C47.4498 66.4798 47.2045 66.3853 46.999 66.1964C46.7935 66.0042 46.6908 65.7738 46.6908 65.5053C46.6908 65.2336 46.7935 65.0032 46.999 64.8143C47.2045 64.6221 47.4498 64.5259 47.7348 64.5259C48.0232 64.5259 48.2684 64.6221 48.4706 64.8143C48.6761 65.0032 48.7789 65.2336 48.7789 65.5053C48.7789 65.7738 48.6761 66.0042 48.4706 66.1964C48.2684 66.3853 48.0232 66.4798 47.7348 66.4798ZM53.8113 75.3491C53.049 75.3491 52.3944 75.1817 51.8476 74.847C51.304 74.5122 50.8847 74.0499 50.5898 73.4599C50.2981 72.8666 50.1523 72.1839 50.1523 71.4116C50.1523 70.636 50.3014 69.9516 50.5997 69.3583C50.898 68.7617 51.3189 68.2977 51.8625 67.9663C52.4094 67.6315 53.0557 67.4642 53.8014 67.4642C54.4212 67.4642 54.9697 67.5785 55.447 67.8072C55.9276 68.0326 56.3104 68.3524 56.5954 68.7667C56.8805 69.1777 57.0429 69.6583 57.0827 70.2085H55.3625C55.2929 69.8406 55.1272 69.534 54.8653 69.2887C54.6068 69.0401 54.2604 68.9159 53.8263 68.9159C53.4584 68.9159 53.1352 69.0153 52.8568 69.2142C52.5784 69.4097 52.3613 69.6914 52.2055 70.0593C52.0531 70.4272 51.9768 70.868 51.9768 71.3818C51.9768 71.9021 52.0531 72.3496 52.2055 72.7241C52.358 73.0953 52.5718 73.382 52.8469 73.5842C53.1253 73.783 53.4517 73.8825 53.8263 73.8825C54.0914 73.8825 54.3284 73.8328 54.5372 73.7333C54.7493 73.6306 54.9266 73.4831 55.0692 73.2909C55.2117 73.0986 55.3095 72.865 55.3625 72.5899H57.0827C57.0396 73.1301 56.8805 73.609 56.6054 74.0267C56.3303 74.441 55.9558 74.7658 55.4818 75.0011C55.0078 75.2331 54.451 75.3491 53.8113 75.3491ZM60.7579 75.3541C60.274 75.3541 59.8382 75.2679 59.4504 75.0955C59.0659 74.9199 58.761 74.6614 58.5356 74.32C58.3135 73.9786 58.2025 73.5577 58.2025 73.0572C58.2025 72.6263 58.282 72.27 58.4411 71.9883C58.6002 71.7066 58.8173 71.4812 59.0924 71.3122C59.3675 71.1431 59.6774 71.0155 60.0221 70.9294C60.3701 70.8399 60.7297 70.7752 61.1009 70.7355C61.5484 70.6891 61.9113 70.6476 62.1897 70.6112C62.4681 70.5714 62.6703 70.5117 62.7963 70.4322C62.9255 70.3493 62.9901 70.2217 62.9901 70.0494V70.0196C62.9901 69.645 62.8791 69.355 62.657 69.1495C62.435 68.944 62.1151 68.8413 61.6975 68.8413C61.2567 68.8413 60.907 68.9374 60.6485 69.1296C60.3933 69.3219 60.221 69.5489 60.1315 69.8107L58.4511 69.5721C58.5837 69.1081 58.8024 68.7203 59.1073 68.4088C59.4123 68.0939 59.7851 67.8586 60.2259 67.7028C60.6668 67.5437 61.154 67.4642 61.6876 67.4642C62.0555 67.4642 62.4217 67.5072 62.7863 67.5934C63.1509 67.6796 63.484 67.8221 63.7856 68.021C64.0872 68.2165 64.3292 68.4833 64.5115 68.8214C64.6971 69.1595 64.7899 69.5821 64.7899 70.0892V75.2H63.0597V74.1509H63.0001C62.8907 74.3631 62.7366 74.5619 62.5377 74.7475C62.3422 74.9298 62.0953 75.0773 61.797 75.19C61.502 75.2994 61.1556 75.3541 60.7579 75.3541ZM61.2252 74.0316C61.5865 74.0316 61.8997 73.9604 62.1649 73.8178C62.43 73.672 62.6338 73.4798 62.7764 73.2411C62.9222 73.0025 62.9951 72.7423 62.9951 72.4606V71.5607C62.9388 71.6071 62.8427 71.6502 62.7068 71.69C62.5742 71.7298 62.425 71.7646 62.2593 71.7944C62.0936 71.8242 61.9295 71.8508 61.7671 71.874C61.6047 71.8972 61.4639 71.917 61.3445 71.9336C61.0761 71.9701 60.8358 72.0297 60.6237 72.1126C60.4115 72.1955 60.2442 72.3115 60.1215 72.4606C59.9989 72.6064 59.9376 72.7954 59.9376 73.0274C59.9376 73.3588 60.0586 73.609 60.3005 73.7781C60.5425 73.9471 60.8507 74.0316 61.2252 74.0316ZM70.4127 67.5636V68.9556H66.0228V67.5636H70.4127ZM67.1066 65.734H68.9063V72.9031C68.9063 73.145 68.9428 73.3306 69.0157 73.4599C69.0919 73.5858 69.1914 73.672 69.314 73.7184C69.4366 73.7648 69.5725 73.788 69.7217 73.788C69.8344 73.788 69.9371 73.7797 70.0299 73.7632C70.126 73.7466 70.199 73.7317 70.2487 73.7184L70.5519 75.1254C70.4558 75.1585 70.3183 75.195 70.1393 75.2348C69.9636 75.2745 69.7482 75.2977 69.493 75.3044C69.0422 75.3176 68.6362 75.2497 68.2749 75.1005C67.9137 74.9481 67.627 74.7127 67.4149 74.3946C67.2061 74.0764 67.1033 73.6786 67.1066 73.2014V65.734ZM71.9179 75.2V67.5636H73.7176V75.2H71.9179ZM72.8227 66.4798C72.5377 66.4798 72.2924 66.3853 72.0869 66.1964C71.8814 66.0042 71.7787 65.7738 71.7787 65.5053C71.7787 65.2336 71.8814 65.0032 72.0869 64.8143C72.2924 64.6221 72.5377 64.5259 72.8227 64.5259C73.1111 64.5259 73.3563 64.6221 73.5585 64.8143C73.764 65.0032 73.8667 65.2336 73.8667 65.5053C73.8667 65.7738 73.764 66.0042 73.5585 66.1964C73.3563 66.3853 73.1111 66.4798 72.8227 66.4798ZM78.8992 75.3491C78.1535 75.3491 77.5072 75.185 76.9603 74.8569C76.4134 74.5288 75.9892 74.0697 75.6876 73.4798C75.3893 72.8898 75.2401 72.2004 75.2401 71.4116C75.2401 70.6228 75.3893 69.9317 75.6876 69.3384C75.9892 68.7452 76.4134 68.2845 76.9603 67.9563C77.5072 67.6282 78.1535 67.4642 78.8992 67.4642C79.645 67.4642 80.2913 67.6282 80.8382 67.9563C81.385 68.2845 81.8076 68.7452 82.1059 69.3384C82.4075 69.9317 82.5583 70.6228 82.5583 71.4116C82.5583 72.2004 82.4075 72.8898 82.1059 73.4798C81.8076 74.0697 81.385 74.5288 80.8382 74.8569C80.2913 75.185 79.645 75.3491 78.8992 75.3491ZM78.9092 73.9073C79.3135 73.9073 79.6516 73.7963 79.9234 73.5742C80.1952 73.3489 80.3973 73.0473 80.5299 72.6694C80.6658 72.2916 80.7338 71.8706 80.7338 71.4066C80.7338 70.9393 80.6658 70.5167 80.5299 70.1389C80.3973 69.7577 80.1952 69.4544 79.9234 69.2291C79.6516 69.0037 79.3135 68.891 78.9092 68.891C78.4949 68.891 78.1502 69.0037 77.8751 69.2291C77.6033 69.4544 77.3995 69.7577 77.2636 70.1389C77.131 70.5167 77.0647 70.9393 77.0647 71.4066C77.0647 71.8706 77.131 72.2916 77.2636 72.6694C77.3995 73.0473 77.6033 73.3489 77.8751 73.5742C78.1502 73.7963 78.4949 73.9073 78.9092 73.9073ZM85.8856 70.7255V75.2H84.0858V67.5636H85.806V68.8612H85.8955C86.0712 68.4336 86.3512 68.0939 86.7357 67.842C87.1235 67.5901 87.6024 67.4642 88.1725 67.4642C88.6995 67.4642 89.1585 67.5768 89.5496 67.8022C89.944 68.0276 90.249 68.3541 90.4644 68.7816C90.6831 69.2092 90.7909 69.7279 90.7876 70.3377V75.2H88.9878V70.6161C88.9878 70.1057 88.8553 69.7063 88.5901 69.418C88.3283 69.1296 87.9653 68.9855 87.5013 68.9855C87.1865 68.9855 86.9064 69.0551 86.6611 69.1943C86.4192 69.3302 86.2286 69.5274 86.0894 69.7859C85.9535 70.0444 85.8856 70.3576 85.8856 70.7255ZM98.6526 69.5821L97.012 69.761C96.9656 69.5953 96.8844 69.4395 96.7684 69.2937C96.6557 69.1479 96.5032 69.0302 96.311 68.9407C96.1188 68.8512 95.8834 68.8065 95.605 68.8065C95.2305 68.8065 94.9156 68.8877 94.6604 69.0501C94.4085 69.2125 94.2842 69.423 94.2876 69.6815C94.2842 69.9035 94.3654 70.0842 94.5312 70.2234C94.7002 70.3626 94.9786 70.4769 95.3664 70.5664L96.6689 70.8448C97.3915 71.0006 97.9284 71.2475 98.2797 71.5856C98.6344 71.9237 98.8134 72.3661 98.8167 72.913C98.8134 73.3936 98.6725 73.8178 98.3941 74.1857C98.119 74.5503 97.7362 74.8354 97.2456 75.0409C96.7551 75.2464 96.1917 75.3491 95.5553 75.3491C94.6206 75.3491 93.8683 75.1535 93.2982 74.7625C92.7281 74.368 92.3884 73.8195 92.279 73.1169L94.034 72.9478C94.1135 73.2925 94.2826 73.5527 94.5411 73.7284C94.7996 73.904 95.136 73.9919 95.5503 73.9919C95.9779 73.9919 96.3209 73.904 96.5795 73.7284C96.8413 73.5527 96.9722 73.3356 96.9722 73.0771C96.9722 72.8583 96.8877 72.6777 96.7187 72.5352C96.5529 72.3927 96.2944 72.2833 95.9431 72.2071L94.6405 71.9336C93.9081 71.7812 93.3662 71.5243 93.0148 71.163C92.6635 70.7984 92.4895 70.3377 92.4928 69.7809C92.4895 69.3103 92.6171 68.9026 92.8756 68.5579C93.1375 68.2099 93.5004 67.9414 93.9644 67.7525C94.4317 67.5603 94.9703 67.4642 95.5802 67.4642C96.4751 67.4642 97.1794 67.6547 97.6931 68.0359C98.2101 68.417 98.53 68.9324 98.6526 69.5821Z" fill="black"/>
<defs>
<clipPath id="clip0_49_34">
<rect width="40.5" height="40.5" fill="white" transform="translate(56.55 0.800049)"/>
</clipPath>
</defs>
</svg>
