<svg width="362" height="362" viewBox="0 0 362 362" fill="none" xmlns="http://www.w3.org/2000/svg">
<path d="M66.6587 261.675C66.6587 261.675 97.8558 301.184 151.164 302.791C204.472 304.399 252.147 271.167 291.475 245.262C330.803 219.357 343.712 176.033 324.055 140.282C304.399 104.531 268.778 116.774 225.975 91.6439C183.172 66.5139 175.613 53.3443 125.976 55.6032C76.3386 57.8621 35.295 110.866 37.105 170.263C38.915 229.66 66.6587 261.675 66.6587 261.675Z" fill="#407BFF"/>
<path opacity="0.8" d="M66.6587 261.675C66.6587 261.675 97.8558 301.184 151.164 302.791C204.472 304.399 252.147 271.167 291.475 245.262C330.803 219.357 343.712 176.033 324.055 140.282C304.399 104.531 268.778 116.774 225.975 91.6439C183.172 66.5139 175.613 53.3443 125.976 55.6032C76.3386 57.8621 35.295 110.866 37.105 170.263C38.915 229.66 66.6587 261.675 66.6587 261.675Z" fill="white"/>
<path d="M245.972 303.869C245.972 306.678 214.746 308.937 176.222 308.937C137.698 308.937 106.479 306.663 106.479 303.869C106.479 301.074 137.705 298.801 176.222 298.801C214.738 298.801 245.972 301.059 245.972 303.869Z" fill="#407BFF"/>
<path opacity="0.4" d="M245.972 303.869C245.972 306.678 214.746 308.937 176.222 308.937C137.698 308.937 106.479 306.663 106.479 303.869C106.479 301.074 137.705 298.801 176.222 298.801C214.738 298.801 245.972 301.059 245.972 303.869Z" fill="white"/>
<path d="M187.994 93.677C187.994 93.677 190.441 97.2029 190.593 100.265C190.745 103.328 190.745 105.934 191.208 107.006C191.672 108.077 193.199 108.845 193.047 109.764C192.895 110.684 191.665 111.603 191.665 111.603C191.665 111.603 190.904 115.889 189.493 117.888C188.081 119.886 186.278 119.111 184.743 118.959C183.803 118.858 182.878 118.652 181.985 118.344C180.656 119.968 179.808 121.932 179.538 124.013C179.323 125.7 179.375 127.41 179.69 129.081L168.967 125.866C168.967 125.866 174.035 121.732 173.405 116.823C173.015 113.826 171.969 110.951 170.343 108.403C170.343 108.403 164.674 102.119 166.824 98.4409C168.974 94.763 171.11 91.5484 173.565 90.3249C176.019 89.1013 187.994 93.677 187.994 93.677Z" fill="white" stroke="#263238" stroke-linecap="round" stroke-linejoin="round"/>
<path d="M185.844 110.242C185.844 110.242 188.016 112.414 189.369 112.689" stroke="#263238" stroke-width="0.75" stroke-linecap="round" stroke-linejoin="round"/>
<path d="M186.763 109.475L184.924 111.002" stroke="#263238" stroke-width="0.75" stroke-linecap="round" stroke-linejoin="round"/>
<path d="M189.138 107.324C189.518 107.324 189.826 106.537 189.826 105.565C189.826 104.593 189.518 103.806 189.138 103.806C188.758 103.806 188.45 104.593 188.45 105.565C188.45 106.537 188.758 107.324 189.138 107.324Z" fill="#263238"/>
<path d="M186.307 101.815C186.307 101.815 187.226 99.0561 189.203 99.8236" stroke="#263238" stroke-width="0.75" stroke-linecap="round" stroke-linejoin="round"/>
<path d="M164.855 95.0742C164.855 95.0742 164.131 90.4768 157.81 90.4768C151.49 90.4768 151.374 99.6644 152.909 103.509C154.444 107.353 160.105 108.874 162.712 107.035C165.318 105.196 165.608 101.967 165.608 100.446C165.47 98.6416 165.218 96.8473 164.855 95.0742Z" fill="#263238" stroke="#263238" stroke-linecap="round" stroke-linejoin="round"/>
<path d="M175.273 106.709C175.273 106.709 182.014 105.941 183.085 103.183C184.157 100.425 182.014 98.5856 181.71 97.8254C181.405 97.0652 188.45 97.3621 189.674 91.3891C190.897 85.4161 187.226 84.4966 186.155 85.4161C185.083 86.3356 185.083 90.1655 185.083 90.1655C185.083 90.1655 181.862 85.7202 178.951 85.2568C176.041 84.7934 175.584 85.8722 176.345 86.9437C177.181 87.9425 178.104 88.8656 179.103 89.7022C179.103 89.7022 170.683 86.1835 166.52 90.7809C162.357 95.3783 160.395 100.584 164.073 105.797C166.285 108.925 169.241 111.453 172.674 113.153C172.674 113.153 172.978 108.707 175.273 106.709Z" fill="#263238" stroke="#263238" stroke-linecap="round" stroke-linejoin="round"/>
<path d="M176.193 107.788C176.193 107.788 174.969 102.582 172.978 105.181C170.987 107.781 172.674 110.698 173.898 111.922C175.121 113.145 177.423 112.074 177.423 112.074" fill="white"/>
<path d="M176.193 107.788C176.193 107.788 174.969 102.582 172.978 105.181C170.987 107.781 172.674 110.698 173.898 111.922C175.121 113.145 177.423 112.074 177.423 112.074" stroke="#263238" stroke-linecap="round" stroke-linejoin="round"/>
<path d="M242.069 128.776C242.069 128.776 246.051 131.383 245.132 132.454C244.062 133.452 242.882 134.324 241.613 135.054C241.613 135.054 238.239 133.374 236.712 132.454C235.184 131.535 237.016 130 238.544 129.081C240.071 128.161 241.15 127.705 242.069 128.776Z" fill="white" stroke="#263238" stroke-linecap="round" stroke-linejoin="round"/>
<path d="M178.951 128.161L191.983 132.143C193.974 132.758 198.724 132.606 198.724 132.606C203.062 132.217 207.363 131.491 211.589 130.434C218.177 128.747 231.506 128.132 231.506 128.132C231.506 128.132 237.943 126.445 241.461 126.908L250.96 128.132C250.155 128.757 249.211 129.179 248.209 129.363C246.522 129.667 242.229 128.899 241.309 129.204C240.53 129.613 239.85 130.189 239.318 130.89C239.318 130.89 242.381 133.649 242.381 134.416C242.381 135.184 242.077 136.588 241.157 136.407C240.238 136.226 240.238 135.336 238.985 134.72C237.733 134.105 236.379 133.801 234.692 132.881C233.75 132.383 232.876 131.765 232.093 131.042C231.839 130.796 223.904 134.901 222.978 135.285C219.567 136.742 216.068 137.983 212.501 138.999C205.674 140.918 198.224 142.105 191.187 140.693C186.589 139.774 178.929 137.175 178.929 137.175C178.929 137.175 174.18 135.003 174.491 131.042C174.803 127.082 178.951 128.161 178.951 128.161Z" fill="white" stroke="#263238" stroke-linecap="round" stroke-linejoin="round"/>
<path d="M182.014 131.839C182.014 131.839 178.032 125.099 174.202 123.26C170.372 121.421 166.52 126.474 164.551 130.92C162.581 135.365 162.9 142.257 163.327 148.701C163.754 155.145 166.853 162.457 166.853 162.457C166.853 162.457 160.265 170.421 158.73 177.929C157.195 185.437 159.345 195.24 160.265 201.98C161.184 208.721 161.64 219.906 161.64 219.906C161.64 219.906 157.506 224.504 156.891 230.173C156.275 235.842 154.147 260.32 154.147 263.231C154.147 266.141 153.539 270.434 154.147 271.195C154.755 271.955 154.762 271.919 155.378 271.919C155.993 271.919 170.386 270.543 171.617 269.471C172.848 268.4 173.449 267.633 172.073 267.017C170.697 266.402 159.041 261.949 158.896 260.74C158.751 259.531 169.756 232.12 171.595 227.219C173.434 222.317 175.425 200.865 176.193 197.651C176.96 194.436 178.495 188.608 178.495 188.608C183.91 188.198 189.297 187.488 194.633 186.479C205.051 184.64 214.818 179.645 214.818 179.645C214.818 179.645 209.518 189.614 211.451 196.203C213.385 202.791 214.181 212.131 214.594 218.538C215.006 224.945 214.152 224.33 215.006 224.924C215.861 225.517 222.101 222.6 223.832 222.354C225.562 222.107 231.839 221.383 233.852 220.095C235.865 218.806 227.083 217.524 223.397 216.12C219.712 214.715 219.517 213.948 219.517 213.948C219.517 213.948 219.379 208.989 223.528 188.825C225.591 178.769 226.503 170.522 223.832 169.711C221.16 168.901 199.216 169.349 193.865 170.732C190.672 171.548 187.748 173.188 185.387 175.489C185.387 175.489 182.933 164.919 183.215 161.089C183.498 157.259 184.135 152.198 184.135 152.198C184.135 152.198 188.725 150.518 188.573 146.529C188.421 142.54 185.358 139.484 183.976 137.037C183.104 135.395 182.444 133.648 182.014 131.839Z" fill="white" stroke="#263238" stroke-linecap="round" stroke-linejoin="round"/>
<path d="M172.073 267.082C170.893 266.561 162.198 263.231 159.62 261.515C159.249 261.905 159.044 262.424 159.048 262.963C159.295 263.802 159.603 264.622 159.968 265.417L153.98 267.039C153.857 269.008 153.778 270.767 154.147 271.238C154.762 271.962 154.762 271.962 155.378 271.962C155.993 271.962 170.386 270.586 171.617 269.515C172.848 268.443 173.449 267.698 172.073 267.082Z" fill="#FF4040" stroke="#263238" stroke-linecap="round" stroke-linejoin="round"/>
<path d="M221.276 200.597C221.834 197.419 222.558 193.56 223.528 188.861C225.591 178.805 226.503 170.559 223.832 169.748C221.16 168.937 199.216 169.386 193.865 170.768C190.767 171.565 186.72 172.687 186.517 172.94C186.169 171.413 183.215 165.7 183.215 161.82C176.757 162.233 170.864 162.638 170.524 162.768L164.811 165.194C162.741 168.169 159.743 173.158 158.73 177.936C157.195 185.444 159.345 195.247 160.265 201.987C161.184 208.728 161.64 219.914 161.64 219.914C161.64 219.914 157.506 224.511 156.891 230.18C156.5 233.8 153.77 248.396 153.944 255.122C156.243 255.303 158.556 255.127 160.8 254.6C163.284 247.483 170.343 230.607 171.595 227.269C173.434 222.368 175.425 200.916 176.193 197.701C176.96 194.487 178.495 188.659 178.495 188.659C183.91 188.249 189.297 187.538 194.633 186.53C205.051 184.691 212.711 181.643 212.711 181.643C212.711 181.643 209.518 189.665 211.451 196.253C211.937 197.918 212.356 199.765 212.711 201.691C215.612 201.983 218.542 201.609 221.276 200.597Z" fill="#263238" stroke="#263238" stroke-linecap="round" stroke-linejoin="round"/>
<path d="M183.244 161.103C183.549 157.273 184.164 152.212 184.164 152.212C184.164 152.212 188.754 150.533 188.602 146.543C188.45 142.554 185.387 139.499 184.005 137.052C183.121 135.406 182.452 133.654 182.014 131.839C182.014 131.839 178.032 125.099 174.202 123.26C170.372 121.421 166.52 126.474 164.551 130.92C162.581 135.365 162.9 142.257 163.327 148.701C163.754 155.145 166.853 162.457 166.853 162.457C166.853 162.457 161.626 168.792 159.403 175.489C163.495 177.212 167.933 177.956 172.363 177.661C179.653 177.125 184.613 174.606 186.517 172.969C185.807 169.538 183.042 163.644 183.244 161.103Z" fill="#FF4040" stroke="#263238" stroke-linecap="round" stroke-linejoin="round"/>
<path d="M177.728 141.034C177.728 141.034 173.847 143.995 166.607 145.443" stroke="#263238" stroke-linecap="round" stroke-linejoin="round"/>
<path d="M178.191 142.185C178.191 142.185 174.571 147.253 170.589 148.701" stroke="#263238" stroke-linecap="round" stroke-linejoin="round"/>
<path d="M166.52 172.383C165.738 172.839 164.934 173.274 164.102 173.679" stroke="#263238" stroke-linecap="round" stroke-linejoin="round"/>
<path d="M181.811 157.389C178.538 162.447 174.366 166.864 169.503 170.421" stroke="#263238" stroke-linecap="round" stroke-linejoin="round"/>
<path d="M192.128 102.662V106.086C192.126 106.262 192.188 106.432 192.303 106.565C192.417 106.699 192.577 106.786 192.751 106.81L214.101 109.605C214.203 109.617 214.307 109.608 214.405 109.577C214.503 109.546 214.594 109.495 214.67 109.426C214.747 109.358 214.808 109.274 214.85 109.18C214.892 109.086 214.913 108.984 214.912 108.881L214.948 102.046C214.948 101.854 214.872 101.67 214.736 101.534C214.601 101.399 214.416 101.322 214.224 101.322L192.83 101.894C192.733 101.897 192.638 101.919 192.549 101.96C192.461 102 192.382 102.058 192.316 102.129C192.251 102.201 192.2 102.285 192.168 102.376C192.136 102.468 192.122 102.565 192.128 102.662Z" fill="#263238" stroke="#263238" stroke-linecap="round" stroke-linejoin="round"/>
<path d="M198.716 110.546C198.716 110.546 194.575 109.475 194.271 108.244C194.089 107.533 193.987 106.805 193.967 106.072C193.967 106.072 195.958 106.535 196.573 106.224C197.189 105.913 196.725 97.3404 197.493 96.8843C198.26 96.4282 200.707 95.3494 201.627 97.4925C202.546 99.6355 201.931 99.0274 201.931 99.0274C202.74 98.8573 203.576 98.8573 204.385 99.0274C205.199 99.3267 205.939 99.7956 206.557 100.403C206.557 100.403 208.548 100.099 209.012 101.474C209.475 102.85 207.325 108.678 205.942 111.285C204.559 113.891 204.103 114.955 204.103 114.955C204.103 114.955 202.264 137.942 201.207 142.38C200.15 146.819 198.376 149.425 197.594 149.425C196.812 149.425 183.244 143.148 177.728 141.005C172.211 138.862 168.533 139.412 167.592 133.895C166.65 128.378 170.488 127.061 173.724 127.061C176.96 127.061 193.793 137.197 193.793 137.197C193.793 137.197 199.151 121.269 199.151 116.975C199.207 114.823 199.061 112.671 198.716 110.546Z" fill="white" stroke="#263238" stroke-linecap="round" stroke-linejoin="round"/>
<path d="M233.852 220.16C235.872 218.878 227.083 217.589 223.397 216.185C222.341 215.803 221.325 215.318 220.364 214.737C220.183 214.93 220.045 215.158 219.956 215.407C219.868 215.656 219.832 215.921 219.85 216.185C219.943 217.104 220.137 218.009 220.429 218.885C220.429 218.885 217.113 219.79 214.688 220.529C214.833 224.873 214.253 224.475 215.006 224.981C215.759 225.488 222.101 222.657 223.832 222.411C225.562 222.165 231.839 221.448 233.852 220.16Z" fill="#FF4040" stroke="#263238" stroke-linecap="round" stroke-linejoin="round"/>
<path d="M178.495 188.673L182.173 180.557" stroke="#263238" stroke-width="0.75" stroke-linecap="round" stroke-linejoin="round"/>
<path d="M123.174 197.028H105.588C105.259 197.046 104.93 196.997 104.62 196.883C104.311 196.769 104.028 196.594 103.788 196.367C103.549 196.141 103.358 195.868 103.228 195.565C103.098 195.262 103.03 194.936 103.03 194.606C103.03 194.276 103.098 193.95 103.228 193.647C103.358 193.345 103.549 193.071 103.788 192.845C104.028 192.618 104.311 192.443 104.62 192.329C104.93 192.216 105.259 192.166 105.588 192.184H123.174C123.794 192.218 124.376 192.488 124.803 192.939C125.229 193.389 125.467 193.986 125.467 194.606C125.467 195.226 125.229 195.823 124.803 196.274C124.376 196.724 123.794 196.994 123.174 197.028Z" fill="#263238" stroke="#263238" stroke-linecap="round" stroke-linejoin="round"/>
<path d="M246.356 260.525L196.511 274.021C195.62 274.429 194.571 274.256 193.428 273.512C192.285 272.768 191.072 271.468 189.863 269.693C188.654 267.917 187.474 265.703 186.396 263.185C185.318 260.668 184.364 257.9 183.593 255.05C182.821 252.2 182.248 249.329 181.909 246.612C181.57 243.894 181.471 241.387 181.619 239.244C181.767 237.101 182.159 235.368 182.77 234.148C183.381 232.929 184.2 232.25 185.175 232.153L235.02 218.658C236.855 218.475 239.139 220.361 241.402 223.927C243.665 227.494 245.735 232.47 247.187 237.832C248.639 243.194 249.362 248.535 249.207 252.756C249.053 256.977 248.032 259.757 246.356 260.525Z" fill="#263238" stroke="#263238" stroke-linecap="round" stroke-linejoin="round"/>
<path d="M150.418 103.494H135.917" stroke="#263238" stroke-linecap="round" stroke-linejoin="round"/>
<path d="M120.691 130.391H116.542" stroke="#263238" stroke-linecap="round" stroke-linejoin="round"/>
<path d="M158.78 130.391H126.208" stroke="#263238" stroke-linecap="round" stroke-linejoin="round"/>
<path d="M130.327 211.696H85.099" stroke="#263238" stroke-linecap="round" stroke-linejoin="round"/>
<path d="M113.559 220.341H94.2431" stroke="#263238" stroke-linecap="round" stroke-linejoin="round"/>
<path d="M156.102 180.101H139.471" stroke="#263238" stroke-linecap="round" stroke-linejoin="round"/>
<path d="M211.632 197.976H198.419" stroke="#263238" stroke-linecap="round" stroke-linejoin="round"/>
<path d="M205.03 194.928H187.241" stroke="#263238" stroke-linecap="round" stroke-linejoin="round"/>
</svg>
