<svg width="38" height="35" viewBox="0 0 38 35" fill="none" xmlns="http://www.w3.org/2000/svg">
<g clip-path="url(#clip0_61_670)">
<path d="M10.4817 15.7354C12.7617 19.8625 16.435 23.2312 20.9158 25.3458L24.3992 22.1375C24.8267 21.7438 25.46 21.6125 26.0142 21.7875C27.7875 22.3271 29.7033 22.6188 31.6667 22.6188C32.5375 22.6188 33.25 23.275 33.25 24.0771V29.1667C33.25 29.9688 32.5375 30.625 31.6667 30.625C16.7992 30.625 4.75 19.5271 4.75 5.83333C4.75 5.03125 5.4625 4.375 6.33333 4.375H11.875C12.7458 4.375 13.4583 5.03125 13.4583 5.83333C13.4583 7.65625 13.775 9.40625 14.3608 11.0396C14.535 11.55 14.4083 12.1188 13.965 12.5271L10.4817 15.7354Z" fill="white"/>
</g>
<defs>
<clipPath id="clip0_61_670">
<rect width="38" height="35" fill="white"/>
</clipPath>
</defs>
</svg>
