<svg width="72" height="71" viewBox="0 0 72 71" fill="none" xmlns="http://www.w3.org/2000/svg">
<path d="M18.7072 57.3495C28.7537 62.7114 45.0426 62.7114 55.0891 57.3495C65.1356 51.9876 65.137 43.2915 55.0891 37.9296C45.0411 32.5676 28.7537 32.5662 18.7072 37.9296C8.66074 43.2929 8.66074 51.9861 18.7072 57.3495Z" fill="#EBEBEB"/>
<path d="M58.0441 44.0456L56.5786 43.1936C56.5786 43.1936 56.2194 40.054 56.4579 37.6229C56.7945 34.205 59.0012 30.0969 61.6324 31.0597C64.2637 32.0225 60.424 35.5114 59.572 38.4082C58.72 41.305 58.0441 44.0456 58.0441 44.0456Z" fill="#407BFF"/>
<path opacity="0.1" d="M58.0441 44.0456L56.5786 43.1936C56.5786 43.1936 56.2194 40.054 56.4579 37.6229C56.7945 34.205 59.0012 30.0969 61.6324 31.0597C64.2637 32.0225 60.424 35.5114 59.572 38.4082C58.72 41.305 58.0441 44.0456 58.0441 44.0456Z" fill="black"/>
<path d="M57.2815 43.6608C57.2678 43.661 57.2545 43.6562 57.2441 43.6473C57.2337 43.6385 57.2268 43.6261 57.2247 43.6126C56.7263 39.7786 58.0909 33.9835 60.8457 31.7854C60.8514 31.7808 60.8579 31.7774 60.8649 31.7753C60.872 31.7733 60.8793 31.7726 60.8866 31.7734C60.8938 31.7742 60.9008 31.7764 60.9072 31.7799C60.9136 31.7834 60.9193 31.7882 60.9238 31.7939C60.9332 31.8056 60.9375 31.8205 60.9359 31.8354C60.9343 31.8503 60.9269 31.864 60.9153 31.8734C58.1903 34.0489 56.8428 39.7984 57.3369 43.5969C57.3389 43.6118 57.335 43.6269 57.326 43.6389C57.3169 43.6508 57.3035 43.6587 57.2886 43.6608H57.2815Z" fill="white"/>
<path d="M58.8265 44.652L57.7842 44.0485C57.7842 44.0485 57.6067 41.8943 58.6632 39.2773C59.582 37.0053 61.8639 35.1081 63.0113 35.5057C64.1586 35.9033 64.1302 36.717 63.5707 37.5704C63.0113 38.4238 59.6075 40.4587 58.8265 44.652Z" fill="#407BFF"/>
<path d="M58.1804 44.7073C58.173 44.7069 58.1657 44.7051 58.1591 44.7019C58.1524 44.6987 58.1464 44.6941 58.1415 44.6886C58.1366 44.683 58.1329 44.6765 58.1305 44.6695C58.1282 44.6625 58.1273 44.655 58.1279 44.6477C58.4715 39.2857 61.1837 36.6488 62.8139 36.2469C62.8285 36.2435 62.844 36.2458 62.857 36.2535C62.8699 36.2612 62.8794 36.2736 62.8834 36.2881C62.8869 36.3026 62.8845 36.3179 62.8768 36.3306C62.8691 36.3434 62.8567 36.3526 62.8423 36.3563C61.1255 36.7823 58.5638 39.6365 58.2429 44.6548C58.2423 44.6624 58.2403 44.6698 58.2368 44.6766C58.2334 44.6833 58.2286 44.6894 58.2228 44.6943C58.2169 44.6992 58.2102 44.7028 58.2029 44.7051C58.1956 44.7073 58.188 44.7081 58.1804 44.7073Z" fill="white"/>
<path d="M15.836 44.4631C15.836 44.4631 16.0306 41.315 14.2016 39.1566C12.3726 36.9982 9.99129 37.0067 9.20319 37.4085C8.41509 37.8104 7.88543 38.9592 9.24153 39.7814C10.5976 40.6035 13.4817 42.2493 13.9616 43.7176L15.836 44.4631Z" fill="#407BFF"/>
<path opacity="0.1" d="M15.836 44.4631C15.836 44.4631 16.0306 41.315 14.2016 39.1566C12.3726 36.9982 9.99129 37.0067 9.20319 37.4085C8.41509 37.8104 7.88543 38.9592 9.24153 39.7814C10.5976 40.6035 13.4817 42.2493 13.9616 43.7176L15.836 44.4631Z" fill="black"/>
<path d="M14.9755 43.675C14.9579 43.6747 14.941 43.6681 14.928 43.6564C14.9149 43.6446 14.9066 43.6285 14.9045 43.6111C14.5282 40.1278 11.0464 38.198 9.65901 37.9793C9.64969 37.9779 9.64073 37.9747 9.63265 37.9699C9.62458 37.965 9.61753 37.9586 9.61193 37.951C9.60632 37.9434 9.60227 37.9348 9.59999 37.9257C9.59772 37.9165 9.59727 37.907 9.59866 37.8977C9.60006 37.8884 9.60328 37.8794 9.60814 37.8713C9.613 37.8633 9.61941 37.8562 9.62699 37.8506C9.63457 37.845 9.64318 37.8409 9.65233 37.8387C9.66148 37.8364 9.67099 37.8359 9.68031 37.8373C11.1003 38.0603 14.6603 40.0341 15.0465 43.5954C15.0475 43.6048 15.0466 43.6142 15.0439 43.6232C15.0412 43.6322 15.0368 43.6406 15.0308 43.6478C15.0249 43.6551 15.0176 43.6611 15.0093 43.6655C15.001 43.6699 14.9919 43.6727 14.9826 43.6735L14.9755 43.675Z" fill="white"/>
<path d="M14.2981 42.8755C13.8395 41.8304 13.3212 41.3618 11.8302 41.6117C10.3392 41.8616 10.5522 41.8233 8.72749 41.3561C7.95785 41.1602 7.09307 41.1289 6.35467 41.4612C5.73129 41.7452 5.26553 42.3132 5.86903 42.9181C6.54779 43.594 7.56025 43.8255 8.31001 44.4205C8.48009 44.5407 8.61531 44.7039 8.70193 44.8933C8.89931 45.396 8.50455 45.9626 8.61957 46.4894C8.73459 47.0162 9.28839 47.2974 9.80811 47.3315C10.3278 47.3656 10.8404 47.2094 11.3587 47.1497C11.877 47.0901 12.4592 47.1497 12.8171 47.5345C13.2005 47.9421 13.2104 48.5939 13.5668 49.027C14.1008 49.6759 15.4128 49.8562 16.1228 49.453L17.9816 48.3809C19.2099 46.7251 17.2716 45.4131 16.2563 44.128C15.7636 43.5017 14.5736 43.5046 14.2981 42.8755Z" fill="#407BFF"/>
<path d="M16.83 47.3812C16.8179 47.3815 16.806 47.3784 16.7955 47.3724C16.785 47.3664 16.7763 47.3577 16.7704 47.3471C14.6503 43.9122 8.87801 42.1741 6.83605 42.0321C6.81746 42.0306 6.80019 42.0219 6.78796 42.0078C6.77574 41.9938 6.76955 41.9754 6.77073 41.9568C6.77218 41.9381 6.78084 41.9207 6.79488 41.9082C6.80892 41.8958 6.82724 41.8893 6.84599 41.8901C8.91493 42.0321 14.7426 43.7957 16.8911 47.2761C16.9006 47.2924 16.9034 47.3117 16.8989 47.33C16.8944 47.3483 16.8829 47.3641 16.8669 47.3741C16.8553 47.3793 16.8427 47.3817 16.83 47.3812Z" fill="white"/>
<path d="M10.1148 45.7624C10.1038 45.7627 10.0928 45.7602 10.0829 45.7552C10.073 45.7503 10.0645 45.743 10.058 45.734C10.0467 45.719 10.0419 45.7 10.0445 45.6814C10.0472 45.6627 10.0572 45.6459 10.0722 45.6346C10.1461 45.5792 11.9069 44.287 13.6222 44.2615C13.6315 44.2613 13.6407 44.263 13.6493 44.2664C13.6579 44.2698 13.6657 44.2749 13.6723 44.2814C13.679 44.2878 13.6842 44.2956 13.6878 44.3041C13.6914 44.3126 13.6932 44.3218 13.6932 44.3311C13.6934 44.3404 13.6918 44.3497 13.6884 44.3583C13.685 44.367 13.6799 44.375 13.6734 44.3817C13.667 44.3884 13.6593 44.3938 13.6507 44.3975C13.6422 44.4013 13.633 44.4033 13.6236 44.4035C11.958 44.4276 10.1787 45.7354 10.1603 45.7482C10.1474 45.7585 10.1312 45.7636 10.1148 45.7624Z" fill="white"/>
<path d="M16.698 48.5882C16.7131 48.7947 16.7767 48.9947 16.8835 49.172C16.9903 49.3494 17.1374 49.4992 17.3128 49.6091L34.5417 59.5562C34.7322 59.6529 34.9429 59.7033 35.1565 59.7033C35.3702 59.7033 35.5809 59.6529 35.7714 59.5562L59.3434 45.9455C59.5292 45.8475 59.6847 45.7006 59.7932 45.5207C59.9017 45.3408 59.959 45.1347 59.959 44.9246C59.959 44.7145 59.9017 44.5084 59.7932 44.3285C59.6847 44.1485 59.5292 44.0016 59.3434 43.9036L42.116 33.9636C41.9254 33.8669 41.7148 33.8165 41.5011 33.8165C41.2874 33.8165 41.0768 33.8669 40.8862 33.9636L17.3128 47.57C17.1378 47.6797 16.9909 47.829 16.8841 48.0059C16.7773 48.1827 16.7136 48.3822 16.698 48.5882Z" fill="#37474F"/>
<path d="M23.8065 43.8184L17.3128 47.57C17.127 47.6681 16.9715 47.815 16.863 47.9949C16.7545 48.1748 16.6972 48.3809 16.6972 48.591C16.6972 48.8011 16.7545 49.0072 16.863 49.1871C16.9715 49.367 17.127 49.5139 17.3128 49.612L34.5417 59.5591C34.7312 59.658 34.9428 59.7069 35.1565 59.7011V43.8184H23.8065Z" fill="#263238"/>
<path d="M16.12 47.5899C15.9489 47.4733 15.8075 47.3181 15.7074 47.1368C15.6073 46.9555 15.5511 46.7532 15.5435 46.5462V25.9861C15.5549 25.7727 15.6166 25.565 15.7234 25.3799C15.8303 25.1949 15.9793 25.0377 16.1583 24.9211L39.7303 11.3104C39.9083 11.1987 40.1133 11.1377 40.3233 11.1339C40.5333 11.13 40.7403 11.1834 40.9223 11.2884C41.1042 11.3934 41.2541 11.5459 41.3558 11.7297C41.4575 11.9134 41.5073 12.1214 41.4997 12.3313V32.8929C41.488 33.1063 41.4263 33.3139 41.3194 33.4989C41.2126 33.6839 41.0637 33.8412 40.8848 33.9579L17.3128 47.5701C17.1295 47.6667 16.926 47.7189 16.7188 47.7224C16.5116 47.7258 16.3064 47.6805 16.12 47.5899Z" fill="#455A64"/>
<path d="M18.4289 26.9418L15.7238 25.3798C15.6161 25.564 15.557 25.7727 15.552 25.9861V46.5463C15.5596 46.7533 15.6158 46.9555 15.7159 47.1368C15.8161 47.3181 15.9574 47.4733 16.1285 47.59C16.315 47.6798 16.52 47.7246 16.7269 47.7206C16.9339 47.7167 17.137 47.6642 17.3199 47.5673L20.0094 46.0152L18.4289 26.9418Z" fill="#263238"/>
<path d="M16.698 26.6534V47.2122C16.698 47.6041 16.9734 47.7631 17.3128 47.5672L40.8848 33.9579C41.0637 33.8411 41.2126 33.6838 41.3195 33.4988C41.4263 33.3138 41.488 33.1062 41.4997 32.8929V12.3327C41.4997 11.9408 41.2242 11.7817 40.8848 11.9777L17.3128 25.5884C17.1337 25.705 16.9847 25.8622 16.8779 26.0473C16.771 26.2323 16.7094 26.44 16.698 26.6534Z" fill="#37474F"/>
<path d="M17.3128 48.28L34.5417 58.22C34.7322 58.3167 34.9429 58.3671 35.1565 58.3671C35.3702 58.3671 35.5808 58.3167 35.7714 58.22L59.3434 44.6093C59.6842 44.4134 59.6842 44.0953 59.3434 43.8993L42.1159 33.9593C41.9254 33.8626 41.7147 33.8123 41.5011 33.8123C41.2874 33.8123 41.0768 33.8626 40.8862 33.9593L17.3128 47.57C16.972 47.7631 16.972 48.0812 17.3128 48.28Z" fill="#455A64"/>
<path d="M17.6437 26.7287L40.5554 13.5014C40.7584 13.3835 40.9246 13.4787 40.9246 13.7144V31.5112C40.9174 31.6392 40.8803 31.7637 40.8161 31.8747C40.752 31.9857 40.6627 32.0801 40.5554 32.1502L17.6437 45.3775C17.4392 45.4954 17.2745 45.4003 17.2745 45.1645V27.3677C17.2813 27.2396 17.3183 27.115 17.3824 27.0039C17.4466 26.8929 17.5361 26.7985 17.6437 26.7287Z" fill="white"/>
<path d="M19.3122 47.7448L41.1929 35.1068C41.2882 35.0585 41.3935 35.0333 41.5004 35.0333C41.6072 35.0333 41.7125 35.0585 41.8078 35.1068L42.9282 35.7529C42.9653 35.7655 42.9975 35.7893 43.0203 35.8212C43.0431 35.853 43.0554 35.8912 43.0554 35.9304C43.0554 35.9695 43.0431 36.0077 43.0203 36.0396C42.9975 36.0714 42.9653 36.0953 42.9282 36.1079L21.0431 48.7444C20.9479 48.7927 20.8425 48.8179 20.7357 48.8179C20.6289 48.8179 20.5236 48.7927 20.4283 48.7444L19.3122 48.0998C19.2751 48.0872 19.2429 48.0633 19.22 48.0315C19.1972 47.9996 19.185 47.9614 19.185 47.9223C19.185 47.8831 19.1972 47.8449 19.22 47.8131C19.2429 47.7812 19.2751 47.7574 19.3122 47.7448Z" fill="#263238"/>
<path d="M22.1976 49.416L44.077 36.778C44.1725 36.7298 44.2781 36.7046 44.3851 36.7046C44.4922 36.7046 44.5977 36.7298 44.6932 36.778L51.576 40.754C51.6131 40.7666 51.6453 40.7905 51.6681 40.8224C51.6909 40.8542 51.7032 40.8924 51.7032 40.9315C51.7032 40.9707 51.6909 41.0089 51.6681 41.0407C51.6453 41.0726 51.6131 41.0965 51.576 41.109L29.7208 53.7215C29.6252 53.7698 29.5197 53.7949 29.4126 53.7949C29.3056 53.7949 29.2 53.7698 29.1045 53.7215L22.1976 49.7639C22.1623 49.7506 22.1319 49.7268 22.1104 49.6957C22.089 49.6646 22.0775 49.6278 22.0775 49.59C22.0775 49.5522 22.089 49.5154 22.1104 49.4843C22.1319 49.4532 22.1623 49.4294 22.1976 49.416Z" fill="#263238"/>
<path d="M41.8107 42.4581L42.4965 42.0619C42.5249 42.0449 42.5235 42.0179 42.4965 41.9994L41.7042 41.5422C41.6873 41.5335 41.6685 41.5289 41.6495 41.5289C41.6305 41.5289 41.6117 41.5335 41.5948 41.5422L40.9104 41.9384C40.8806 41.9554 40.882 41.9824 40.9104 42.0008L41.7027 42.4581C41.7195 42.4666 41.7379 42.471 41.7567 42.471C41.7754 42.471 41.7939 42.4666 41.8107 42.4581ZM40.4588 40.8961L39.7744 41.2923C39.7446 41.3079 39.746 41.3363 39.7744 41.3547L40.5667 41.812C40.5836 41.8207 40.6024 41.8252 40.6214 41.8252C40.6404 41.8252 40.6592 41.8207 40.6761 41.812L41.3619 41.4158C41.3903 41.3988 41.3889 41.3704 41.3619 41.3533L40.5682 40.8961C40.5513 40.8874 40.5325 40.8828 40.5135 40.8828C40.4945 40.8828 40.4757 40.8874 40.4588 40.8961ZM38.2465 42.1741L37.0863 42.8429C37.0579 42.8599 37.0593 42.8883 37.0863 42.9068L37.8787 43.364C37.8956 43.3728 37.9143 43.3773 37.9333 43.3773C37.9524 43.3773 37.9711 43.3728 37.988 43.364L39.1467 42.6952C39.1766 42.6782 39.1737 42.6498 39.1467 42.6327L38.3544 42.1741C38.3377 42.1654 38.3192 42.1608 38.3004 42.1608C38.2816 42.1608 38.2631 42.1654 38.2465 42.1741ZM39.4577 41.474L38.7733 41.8702C38.7435 41.8872 38.7449 41.9156 38.7733 41.9327L39.5656 42.3899C39.5825 42.3986 39.6013 42.4032 39.6203 42.4032C39.6393 42.4032 39.6581 42.3986 39.675 42.3899L40.3608 41.9937C40.3892 41.9767 40.3878 41.9497 40.3608 41.9313L39.5671 41.4641C39.5501 41.4554 39.5314 41.4508 39.5124 41.4508C39.4934 41.4508 39.4746 41.4554 39.4577 41.4641V41.474ZM36.7697 43.0261L36.0852 43.4208C36.0554 43.4379 36.0582 43.4663 36.0852 43.4847L36.8776 43.942C36.8943 43.9504 36.9128 43.9547 36.9315 43.9547C36.9503 43.9547 36.9687 43.9504 36.9855 43.942L37.6714 43.5458C37.6998 43.5288 37.6983 43.5004 37.6714 43.4833L36.879 43.0261C36.8621 43.0174 36.8433 43.0128 36.8243 43.0128C36.8053 43.0128 36.7866 43.0174 36.7697 43.0261ZM35.7757 43.604L35.0912 44.0002C35.0614 44.0158 35.0642 44.0442 35.0912 44.0627L35.8836 44.5199C35.9005 44.5286 35.9192 44.5332 35.9382 44.5332C35.9573 44.5332 35.976 44.5286 35.9929 44.5199L36.6788 44.1237C36.7072 44.1067 36.7058 44.0783 36.6788 44.0613L35.8779 43.5941C35.861 43.5854 35.8422 43.5808 35.8232 43.5808C35.8042 43.5808 35.7855 43.5854 35.7686 43.5941L35.7757 43.604ZM38.8926 45.4642L39.577 45.068C39.6068 45.051 39.604 45.024 39.577 45.0056L38.7846 44.5483C38.768 44.5396 38.7495 44.5351 38.7307 44.5351C38.7119 44.5351 38.6934 44.5396 38.6767 44.5483L37.9909 44.9445C37.9625 44.9615 37.9639 44.9885 37.9909 45.007L38.7832 45.4642C38.7997 45.4707 38.8174 45.4734 38.8351 45.4722C38.8528 45.471 38.87 45.4658 38.8855 45.4571L38.8926 45.4642ZM37.89 46.0422L38.5759 45.646C38.6043 45.6304 38.6029 45.602 38.5759 45.5835L37.7835 45.1263C37.7666 45.1175 37.7479 45.113 37.7289 45.113C37.7098 45.113 37.6911 45.1175 37.6742 45.1263L36.9898 45.5224C36.9599 45.5395 36.9628 45.5679 36.9898 45.5849L37.7821 46.0422C37.7984 46.0486 37.8159 46.0513 37.8333 46.0501C37.8508 46.0489 37.8677 46.0437 37.8829 46.0351L37.89 46.0422ZM36.8889 46.6201L37.5748 46.2253C37.6032 46.2083 37.6018 46.1799 37.5748 46.1614L36.7824 45.7042C36.7654 45.6958 36.7467 45.6914 36.7278 45.6914C36.7088 45.6914 36.6901 45.6958 36.6731 45.7042L35.9887 46.1004C35.9588 46.1174 35.9617 46.1458 35.9887 46.1629L36.7796 46.6201C36.7961 46.6266 36.8138 46.6293 36.8315 46.6281C36.8492 46.6269 36.8664 46.6217 36.8818 46.613L36.8889 46.6201ZM35.8949 47.198L36.5808 46.8033C36.6092 46.7862 36.6078 46.7578 36.5808 46.7394L35.7884 46.2821C35.7715 46.2734 35.7528 46.2689 35.7338 46.2689C35.7147 46.2689 35.696 46.2734 35.6791 46.2821L34.9947 46.6769C34.9648 46.6939 34.9663 46.7223 34.9947 46.7408L35.787 47.198C35.818 47.2081 35.8516 47.2056 35.8807 47.1909L35.8949 47.198ZM40.8238 43.046L41.5096 42.6498C41.538 42.6342 41.5366 42.6058 41.5096 42.5873L40.7173 42.1301C40.7003 42.1217 40.6815 42.1173 40.6626 42.1173C40.6436 42.1173 40.6249 42.1217 40.6079 42.1301L39.9235 42.5262C39.8937 42.5433 39.8951 42.5717 39.9235 42.5887L40.7158 43.046C40.7311 43.0512 40.7473 43.0532 40.7634 43.052C40.7795 43.0508 40.7952 43.0463 40.8096 43.0389L40.8238 43.046ZM39.9008 44.892L41.4287 44.0087C41.4571 43.9931 41.4557 43.9647 41.4287 43.9462L39.5046 42.8358C39.4877 42.8271 39.4689 42.8225 39.4499 42.8225C39.4309 42.8225 39.4121 42.8271 39.3952 42.8358L38.6057 43.293C38.5759 43.3087 38.5787 43.3371 38.6057 43.3555L39.6253 43.9434C39.6565 43.9619 39.6579 43.9903 39.6253 44.0073L38.982 44.3566C38.9536 44.3722 38.955 44.4006 38.982 44.4191L39.7772 44.8721C39.7935 44.8819 39.812 44.8877 39.831 44.8889C39.85 44.8902 39.8691 44.8868 39.8866 44.8792L39.9008 44.892ZM34.7817 44.182L34.0972 44.5781C34.0674 44.5952 34.0688 44.6222 34.0972 44.6406L34.8896 45.0979C34.9065 45.1066 34.9252 45.1111 34.9442 45.1111C34.9633 45.1111 34.982 45.1066 34.9989 45.0979L35.6848 44.7017C35.7132 44.6846 35.7118 44.6577 35.6848 44.6392L34.8924 44.182C34.8743 44.1693 34.853 44.162 34.8309 44.1607C34.8089 44.1594 34.7869 44.1643 34.7675 44.1749L34.7817 44.182ZM33.7877 44.7599L33.0805 45.1561C33.0521 45.1731 33.0535 45.2015 33.0805 45.2186L33.8729 45.6758C33.8898 45.6845 33.9085 45.6891 33.9275 45.6891C33.9465 45.6891 33.9653 45.6845 33.9822 45.6758L34.6681 45.2796C34.6965 45.264 34.695 45.2356 34.6681 45.2171L33.87 44.7556C33.8541 44.7474 33.8365 44.7429 33.8185 44.7424C33.8006 44.7419 33.7827 44.7454 33.7664 44.7528L33.7877 44.7599ZM28.758 51.2351C28.7749 51.2438 28.7937 51.2484 28.8127 51.2484C28.8317 51.2484 28.8504 51.2438 28.8674 51.2351L29.5532 50.8389C29.5816 50.8233 29.5802 50.7949 29.5532 50.7764L28.758 50.322C28.7411 50.3133 28.7224 50.3088 28.7033 50.3088C28.6843 50.3088 28.6656 50.3133 28.6487 50.322L27.9642 50.7182C27.9344 50.7353 27.9358 50.7637 27.9642 50.7807L28.758 51.2351ZM25.7519 49.3777L25.066 49.7739C25.0376 49.791 25.039 49.8179 25.066 49.8364L25.8584 50.2936C25.8753 50.3024 25.894 50.3069 25.913 50.3069C25.9321 50.3069 25.9508 50.3024 25.9677 50.2936L26.6536 49.8975C26.682 49.8804 26.6806 49.8534 26.6536 49.835L25.8612 49.3777C25.8449 49.3697 25.8269 49.3655 25.8087 49.3655C25.7905 49.3655 25.7725 49.3697 25.7561 49.3777H25.7519ZM27.3636 50.7338C27.3805 50.7426 27.3992 50.7471 27.4182 50.7471C27.4373 50.7471 27.456 50.7426 27.4729 50.7338L28.1574 50.3377C28.1872 50.322 28.1843 50.2936 28.1574 50.2752L27.3664 49.8179C27.3495 49.8092 27.3308 49.8047 27.3117 49.8047C27.2927 49.8047 27.274 49.8092 27.2571 49.8179L26.5712 50.2141C26.5428 50.2312 26.5442 50.2596 26.5712 50.2766L27.3636 50.7338ZM30.5259 51.5858L31.2118 51.1897C31.2402 51.1726 31.2388 51.1456 31.2118 51.1272L30.4194 50.6699C30.4025 50.6612 30.3838 50.6567 30.3647 50.6567C30.3457 50.6567 30.327 50.6612 30.3101 50.6699L29.6256 51.0661C29.5958 51.0817 29.5987 51.1101 29.6256 51.1286L30.4166 51.5858C30.4339 51.5955 30.4534 51.6007 30.4732 51.6009C30.493 51.6012 30.5126 51.5965 30.5302 51.5873L30.5259 51.5858ZM29.4155 52.1538C29.4324 52.1626 29.4511 52.1671 29.4701 52.1671C29.4892 52.1671 29.5079 52.1626 29.5248 52.1538L30.2107 51.7577C30.2391 51.742 30.2377 51.7136 30.2107 51.6952L29.4183 51.2379C29.4014 51.2292 29.3827 51.2247 29.3636 51.2247C29.3446 51.2247 29.3259 51.2292 29.309 51.2379L28.6245 51.6341C28.5947 51.6512 28.5961 51.6796 28.6245 51.6966L29.4155 52.1538ZM26.753 48.7913L26.0685 49.1875C26.0387 49.2031 26.0401 49.2315 26.0685 49.2499L26.8609 49.7072C26.8778 49.7159 26.8965 49.7204 26.9156 49.7204C26.9346 49.7204 26.9533 49.7159 26.9702 49.7072L27.6561 49.311C27.6845 49.294 27.6831 49.2656 27.6561 49.2485L26.8637 48.7913C26.8465 48.7843 26.828 48.7815 26.8095 48.7829C26.791 48.7844 26.7731 48.7902 26.7572 48.7998L26.753 48.7913ZM31.7599 45.9016L31.074 46.2963C31.0456 46.3134 31.0471 46.3418 31.074 46.3588L31.8664 46.8175C31.8834 46.8259 31.9021 46.8302 31.9211 46.8302C31.94 46.8302 31.9587 46.8259 31.9757 46.8175L32.6602 46.4227C32.69 46.4057 32.6886 46.3773 32.6602 46.3588L31.8678 45.9016C31.851 45.8951 31.833 45.8925 31.815 45.8939C31.7971 45.8954 31.7797 45.9009 31.7642 45.9101L31.7599 45.9016ZM27.764 48.2219L27.0796 48.6166C27.0498 48.6337 27.0512 48.6621 27.0796 48.6805L27.8719 49.1378C27.8889 49.1461 27.9076 49.1505 27.9266 49.1505C27.9456 49.1505 27.9643 49.1461 27.9813 49.1378L28.6671 48.7416C28.6955 48.7245 28.6941 48.6961 28.6671 48.6791L27.8748 48.2204C27.8575 48.212 27.8385 48.2078 27.8192 48.208C27.8 48.2083 27.7811 48.213 27.764 48.2219ZM32.7709 45.3307L32.0794 45.7241C32.051 45.7411 32.0524 45.7695 32.0794 45.7866L32.8718 46.2438C32.8887 46.2525 32.9074 46.2571 32.9264 46.2571C32.9454 46.2571 32.9642 46.2525 32.9811 46.2438L33.6655 45.849C33.6954 45.832 33.6939 45.8036 33.6655 45.7851L32.876 45.3336C32.859 45.3245 32.8402 45.3195 32.821 45.319C32.8017 45.3186 32.7827 45.3226 32.7653 45.3307H32.7709ZM30.7687 46.488L30.0829 46.8828C30.0545 46.8998 30.0559 46.9282 30.0829 46.9467L30.8752 47.4039C30.8922 47.4123 30.9109 47.4167 30.9299 47.4167C30.9489 47.4167 30.9676 47.4123 30.9846 47.4039L31.669 47.0092C31.6988 46.9921 31.696 46.9637 31.669 46.9453L30.8781 46.488C30.8603 46.4787 30.8406 46.4738 30.8206 46.4738C30.8005 46.4738 30.7808 46.4787 30.7631 46.488H30.7687ZM29.7662 47.066L29.0818 47.4607C29.052 47.4778 29.0548 47.5062 29.0818 47.5246L29.8741 47.9819C29.8911 47.9903 29.9098 47.9946 29.9288 47.9946C29.9478 47.9946 29.9665 47.9903 29.9835 47.9819L30.6679 47.5871C30.6963 47.5701 30.6949 47.5417 30.6679 47.5232L29.8756 47.066C29.8578 47.0567 29.8381 47.0518 29.818 47.0518C29.798 47.0518 29.7783 47.0567 29.7605 47.066H29.7662ZM28.758 47.6439L28.0736 48.0387C28.0438 48.0557 28.0466 48.0841 28.0736 48.1026L28.8645 48.5598C28.8814 48.5685 28.9002 48.5731 28.9192 48.5731C28.9382 48.5731 28.9569 48.5685 28.9739 48.5598L29.6597 48.1651C29.6881 48.148 29.6867 48.1196 29.6597 48.1012L28.8674 47.6439C28.8504 47.6355 28.8316 47.6312 28.8127 47.6312C28.7937 47.6312 28.775 47.6355 28.758 47.6439ZM33.8771 48.3539L34.5616 47.9592C34.5914 47.9421 34.59 47.9137 34.5616 47.8953L33.7678 47.4281C33.7508 47.4197 33.7321 47.4153 33.7131 47.4153C33.6941 47.4153 33.6754 47.4197 33.6584 47.4281L32.9726 47.8228C32.9442 47.8399 32.9456 47.8683 32.9726 47.8867L33.7649 48.344C33.7821 48.3539 33.8015 48.3593 33.8214 48.3598C33.8412 48.3603 33.8609 48.3558 33.8785 48.3468L33.8771 48.3539ZM42.674 39.6181L41.9882 40.0143C41.9598 40.0313 41.9612 40.0583 41.9882 40.0767L42.7805 40.534C42.7974 40.5427 42.8162 40.5472 42.8352 40.5472C42.8542 40.5472 42.8729 40.5427 42.8899 40.534L43.5743 40.1378C43.6041 40.1208 43.6027 40.0938 43.5743 40.0753L42.7819 39.6181C42.7652 39.6096 42.7467 39.6052 42.728 39.6052C42.7092 39.6052 42.6907 39.6096 42.674 39.6181ZM41.4613 40.3181L40.7769 40.7143C40.7471 40.7299 40.7499 40.7583 40.7769 40.7768L41.5678 41.234C41.5848 41.2424 41.6035 41.2468 41.6225 41.2468C41.6415 41.2468 41.6602 41.2424 41.6772 41.234L42.363 40.8379C42.3914 40.8208 42.39 40.7924 42.363 40.7754L41.5707 40.3181C41.5542 40.3081 41.5355 40.3022 41.5162 40.3009C41.4969 40.2997 41.4776 40.3032 41.4599 40.311L41.4613 40.3181ZM43.6751 39.0401L42.9907 39.4363C42.9609 39.4519 42.9623 39.4803 42.9907 39.4988L43.783 39.956C43.7999 39.9648 43.8187 39.9693 43.8377 39.9693C43.8567 39.9693 43.8755 39.9648 43.8924 39.956L44.5782 39.5599C44.6066 39.5428 44.6052 39.5144 44.5782 39.4974L43.7859 39.0401C43.7685 39.0288 43.7486 39.0222 43.7279 39.021C43.7072 39.0197 43.6866 39.0239 43.668 39.033L43.6751 39.0401ZM38.4921 44.385L39.178 43.9888C39.2064 43.9718 39.205 43.9434 39.178 43.9264L38.3856 43.4691C38.3687 43.4604 38.35 43.4559 38.3309 43.4559C38.3119 43.4559 38.2932 43.4604 38.2763 43.4691L37.5918 43.8653C37.562 43.8809 37.5634 43.9093 37.5918 43.9278L38.3842 44.385C38.4013 44.3922 38.4198 44.3953 38.4383 44.394C38.4568 44.3928 38.4747 44.3873 38.4907 44.3779L38.4921 44.385ZM44.7856 38.465C44.7686 38.4563 44.7499 38.4518 44.7309 38.4518C44.7119 38.4518 44.6931 38.4563 44.6762 38.465L43.9918 38.8612C43.962 38.8768 43.9634 38.9052 43.9918 38.9237L44.7841 39.3809C44.8011 39.3893 44.8198 39.3937 44.8388 39.3937C44.8578 39.3937 44.8765 39.3893 44.8935 39.3809L45.5793 38.9848C45.6077 38.9677 45.6063 38.9393 45.5793 38.9223L44.7856 38.465ZM34.8796 47.7689L35.5655 47.3741C35.5939 47.3571 35.5925 47.3287 35.5655 47.3102L34.7689 46.8601C34.752 46.8514 34.7332 46.8468 34.7142 46.8468C34.6952 46.8468 34.6764 46.8514 34.6595 46.8601L33.9751 47.2548C33.9453 47.2719 33.9467 47.3003 33.9751 47.3187L34.7675 47.776C34.7854 47.7838 34.8049 47.7872 34.8244 47.7859C34.8439 47.7847 34.8628 47.7788 34.8796 47.7689ZM47.1584 40.6802L47.8442 40.2841C47.8726 40.2684 47.8712 40.24 47.8442 40.2216L47.0476 39.7601C47.0307 39.7514 47.012 39.7468 46.9929 39.7468C46.9739 39.7468 46.9552 39.7514 46.9383 39.7601L46.2538 40.1563C46.224 40.1733 46.2254 40.2017 46.2538 40.2187L47.0462 40.676C47.0631 40.6858 47.0822 40.6914 47.1018 40.6921C47.1213 40.6929 47.1408 40.6888 47.1584 40.6802ZM45.0284 40.605L45.7142 40.2088C45.7426 40.1918 45.7412 40.1648 45.7142 40.1463L44.9219 39.6891C44.905 39.6804 44.8862 39.6758 44.8672 39.6758C44.8482 39.6758 44.8294 39.6804 44.8125 39.6891L44.1281 40.0853C44.0983 40.1023 44.0997 40.1293 44.1281 40.1477L44.9205 40.605C44.9363 40.6141 44.9539 40.6195 44.9722 40.6208C44.9904 40.622 45.0086 40.619 45.0255 40.6121L45.0284 40.605ZM45.9187 39.1111C45.9018 39.1024 45.8831 39.0979 45.864 39.0979C45.845 39.0979 45.8263 39.1024 45.8094 39.1111L45.1249 39.5073C45.0951 39.5229 45.0965 39.5513 45.1249 39.5698L45.9173 40.027C45.9342 40.0358 45.9529 40.0403 45.972 40.0403C45.991 40.0403 46.0097 40.0358 46.0266 40.027L46.7125 39.6309C46.7409 39.6138 46.7395 39.5854 46.7125 39.5684L45.9187 39.1111ZM46.1303 38.989L48.053 40.0995C48.0699 40.1082 48.0886 40.1127 48.1076 40.1127C48.1267 40.1127 48.1454 40.1082 48.1623 40.0995L48.8482 39.7033C48.8766 39.6862 48.8752 39.6593 48.8482 39.6408L46.9241 38.5304C46.9072 38.5216 46.8884 38.5171 46.8694 38.5171C46.8504 38.5171 46.8316 38.5216 46.8147 38.5304L46.1303 38.9265C46.0934 38.9422 46.0962 38.9706 46.1275 38.989H46.1303ZM43.8072 40.267L43.1213 40.6632C43.0929 40.6802 43.0943 40.7086 43.1213 40.7257L43.9137 41.1829C43.9306 41.1916 43.9493 41.1962 43.9683 41.1962C43.9874 41.1962 44.0061 41.1916 44.023 41.1829L44.7075 40.7867C44.7373 40.7711 44.7359 40.7427 44.7075 40.7243L43.9151 40.267C43.899 40.2586 43.8811 40.2539 43.8629 40.2534C43.8447 40.2529 43.8266 40.2566 43.81 40.2642L43.8072 40.267ZM36.2712 44.6179L35.5825 45.0141C35.5541 45.0311 35.5556 45.0595 35.5825 45.0766L36.3749 45.5338C36.3918 45.5425 36.4105 45.5471 36.4296 45.5471C36.4486 45.5471 36.4673 45.5425 36.4842 45.5338L37.1687 45.1376C37.1985 45.122 37.1971 45.0936 37.1687 45.0751L36.3763 44.6179C36.3598 44.609 36.3414 44.6041 36.3227 44.6036C36.3039 44.6031 36.2853 44.607 36.2684 44.6151L36.2712 44.6179ZM46.0508 41.2582C46.0677 41.2669 46.0864 41.2714 46.1054 41.2714C46.1245 41.2714 46.1432 41.2669 46.1601 41.2582L46.846 40.862C46.8744 40.8464 46.873 40.818 46.846 40.7995L46.0536 40.3423C46.0366 40.3339 46.0179 40.3295 45.9989 40.3295C45.98 40.3295 45.9613 40.3339 45.9443 40.3423L45.2598 40.7385C45.23 40.7555 45.2314 40.7839 45.2598 40.8009L46.0508 41.2582ZM37.2723 44.04L36.5879 44.4361C36.5581 44.4532 36.5595 44.4802 36.5879 44.4986L37.3803 44.9559C37.3972 44.9646 37.4159 44.9691 37.4349 44.9691C37.4539 44.9691 37.4727 44.9646 37.4896 44.9559L38.1755 44.5597C38.2039 44.5426 38.2024 44.5157 38.1755 44.4972L37.3831 44.04C37.3659 44.0301 37.3465 44.0246 37.3267 44.0241C37.3068 44.0236 37.2872 44.0281 37.2695 44.0371L37.2723 44.04ZM29.7662 50.66C29.7831 50.6687 29.8019 50.6733 29.8209 50.6733C29.8399 50.6733 29.8586 50.6687 29.8756 50.66L30.5614 50.2638C30.5898 50.2468 30.5884 50.2198 30.5614 50.2013L29.7691 49.7441C29.7521 49.7354 29.7334 49.7308 29.7144 49.7308C29.6954 49.7308 29.6766 49.7354 29.6597 49.7441L28.9753 50.1403C28.9455 50.1573 28.9483 50.1843 28.9753 50.2028L29.7662 50.66ZM28.261 49.24L27.5752 49.6362C27.5468 49.6532 27.5482 49.6802 27.5752 49.6987L28.3675 50.1559C28.3844 50.1646 28.4032 50.1692 28.4222 50.1692C28.4412 50.1692 28.4599 50.1646 28.4769 50.1559L29.1613 49.7597C29.1911 49.7427 29.1897 49.7157 29.1613 49.6972L28.3689 49.24C28.3518 49.231 28.3328 49.2264 28.3136 49.2264C28.2943 49.2264 28.2753 49.231 28.2582 49.24H28.261ZM30.8781 50.0821L31.5625 49.6859C31.5909 49.6688 31.5895 49.6404 31.5625 49.6234L30.7702 49.1662C30.7532 49.1574 30.7345 49.1529 30.7155 49.1529C30.6965 49.1529 30.6777 49.1574 30.6608 49.1662L29.9693 49.5581C29.9409 49.5737 29.9423 49.6021 29.9693 49.6206L30.7616 50.0778C30.7787 50.0879 30.7981 50.0936 30.8179 50.0943C30.8377 50.0951 30.8574 50.0909 30.8752 50.0821H30.8781ZM31.8792 49.5041L32.5636 49.1079C32.5934 49.0909 32.5906 49.0625 32.5636 49.0455L31.7727 48.5882C31.7558 48.5795 31.737 48.575 31.718 48.575C31.699 48.575 31.6802 48.5795 31.6633 48.5882L30.9775 48.983C30.9491 49 30.9505 49.0284 30.9775 49.0469L31.7698 49.5041C31.7872 49.513 31.8064 49.5176 31.8259 49.5176C31.8454 49.5176 31.8646 49.513 31.882 49.5041H31.8792ZM32.8732 48.9248L33.5576 48.53C33.5874 48.513 33.586 48.4846 33.5576 48.4675L32.7653 48.0089C32.7483 48.0005 32.7295 47.9961 32.7106 47.9961C32.6916 47.9961 32.6729 48.0005 32.6559 48.0089L31.9701 48.4036C31.9417 48.4207 31.9431 48.4491 31.9701 48.4675L32.7624 48.9248C32.7799 48.9342 32.7994 48.9392 32.8192 48.9392C32.8391 48.9392 32.8586 48.9342 32.876 48.9248H32.8732ZM29.255 48.6621L28.5692 49.0582C28.5408 49.0739 28.5422 49.1023 28.5692 49.1207L29.3615 49.578C29.3784 49.5867 29.3972 49.5912 29.4162 49.5912C29.4352 49.5912 29.4539 49.5867 29.4709 49.578L30.1567 49.1818C30.1851 49.1647 30.1837 49.1363 30.1567 49.1193L29.3644 48.6621C29.348 48.654 29.33 48.6499 29.3118 48.6499C29.2936 48.6499 29.2756 48.654 29.2593 48.6621H29.255ZM30.2561 48.0841L29.5717 48.4789C29.5419 48.4959 29.5433 48.5243 29.5717 48.5428L30.364 49C30.381 49.0084 30.3997 49.0128 30.4187 49.0128C30.4377 49.0128 30.4564 49.0084 30.4734 49L31.172 48.6067C31.2004 48.5896 31.199 48.5612 31.172 48.5442L30.3797 48.087C30.3618 48.0761 30.3413 48.0701 30.3204 48.0696C30.2995 48.0691 30.2788 48.0741 30.2604 48.0841H30.2561ZM34.2619 45.7724L33.586 46.1671C33.5576 46.1842 33.559 46.2126 33.586 46.231L34.3784 46.6883C34.3954 46.6966 34.4141 46.701 34.433 46.701C34.452 46.701 34.4707 46.6966 34.4877 46.6883L35.1722 46.2935C35.202 46.2765 35.1991 46.2481 35.1722 46.2296L34.3812 45.7724C34.3636 45.7627 34.3438 45.7576 34.3237 45.7576C34.3036 45.7576 34.2838 45.7627 34.2662 45.7724H34.2619ZM33.2594 46.3503L32.575 46.7451C32.5466 46.7621 32.548 46.7905 32.575 46.809L33.3673 47.2662C33.3843 47.2746 33.403 47.279 33.422 47.279C33.441 47.279 33.4597 47.2746 33.4767 47.2662L34.1611 46.8714C34.1909 46.8544 34.1881 46.826 34.1611 46.8075L33.3688 46.3503C33.3523 46.3426 33.3344 46.3386 33.3162 46.3386C33.2981 46.3386 33.2801 46.3426 33.2637 46.3503H33.2594ZM35.263 45.193L34.58 45.5892C34.5516 45.6062 34.553 45.6346 34.58 45.6517L35.3724 46.1103C35.3894 46.1187 35.4081 46.1231 35.427 46.1231C35.446 46.1231 35.4647 46.1187 35.4817 46.1103L36.1662 45.7141C36.196 45.6985 36.1946 45.6701 36.1662 45.6517L35.3738 45.1944C35.3573 45.1863 35.3391 45.1819 35.3207 45.1816C35.3023 45.1814 35.284 45.1853 35.2673 45.193H35.263ZM31.2572 47.5062L30.5728 47.9009C30.543 47.918 30.5444 47.9464 30.5728 47.9648L31.3651 48.4221C31.3821 48.4305 31.4008 48.4348 31.4198 48.4348C31.4388 48.4348 31.4575 48.4305 31.4745 48.4221L32.1603 48.0259C32.1887 48.0089 32.1873 47.9805 32.1603 47.9634L31.368 47.5048C31.3512 47.497 31.333 47.4932 31.3146 47.4934C31.2961 47.4936 31.278 47.498 31.2615 47.5062H31.2572ZM32.2583 46.9282L31.5739 47.323C31.5441 47.34 31.5469 47.3684 31.5739 47.3869L32.3662 47.8441C32.3829 47.8528 32.4014 47.8574 32.4202 47.8574C32.439 47.8574 32.4575 47.8528 32.4742 47.8441L33.16 47.4494C33.1884 47.4323 33.187 47.4039 33.16 47.3855L32.3677 46.9282C32.3512 46.9205 32.3333 46.9165 32.3151 46.9165C32.297 46.9165 32.279 46.9205 32.2626 46.9282H32.2583ZM31.5284 51.0093L32.2129 50.6131C32.2413 50.5961 32.2399 50.5677 32.2129 50.5507L31.4205 50.0934C31.4036 50.0847 31.3849 50.0802 31.3658 50.0802C31.3468 50.0802 31.3281 50.0847 31.3112 50.0934L30.6267 50.4896C30.5969 50.5052 30.5998 50.5336 30.6267 50.5521L31.4191 51.0093C31.4365 51.0188 31.4561 51.0237 31.4759 51.0237C31.4957 51.0237 31.5153 51.0188 31.5327 51.0093H31.5284ZM25.6567 50.4101L24.8644 49.9528C24.8475 49.9441 24.8287 49.9396 24.8097 49.9396C24.7907 49.9396 24.7719 49.9441 24.755 49.9528L24.072 50.3519C24.0436 50.3689 24.045 50.3959 24.072 50.4143L24.8644 50.8716C24.8813 50.8803 24.9 50.8848 24.919 50.8848C24.9381 50.8848 24.9568 50.8803 24.9737 50.8716L25.6582 50.4754C25.6894 50.4626 25.688 50.4342 25.6567 50.4101ZM27.1563 50.8503L26.3639 50.393C26.3471 50.3847 26.3287 50.3803 26.3099 50.3803C26.2912 50.3803 26.2727 50.3847 26.256 50.393L25.208 51.0051C25.1796 51.0221 25.181 51.0505 25.208 51.0675L26.0004 51.5248C26.0173 51.5335 26.036 51.538 26.055 51.538C26.0741 51.538 26.0928 51.5335 26.1097 51.5248L27.1634 50.917C27.196 50.9028 27.1875 50.8744 27.1563 50.856V50.8503ZM24.4412 49.5254L23.646 49.0739C23.6291 49.0651 23.6104 49.0606 23.5913 49.0606C23.5723 49.0606 23.5536 49.0651 23.5367 49.0739L22.696 49.5581C22.6676 49.5751 22.6691 49.6035 22.696 49.622L23.4884 50.0792C23.5053 50.0879 23.524 50.0925 23.5431 50.0925C23.5621 50.0925 23.5808 50.0879 23.5977 50.0792L24.4398 49.5936C24.4739 49.578 24.4725 49.5496 24.4412 49.5311V49.5254ZM25.0873 49.152C25.1042 49.1607 25.123 49.1652 25.142 49.1652C25.161 49.1652 25.1797 49.1607 25.1967 49.152L25.8811 48.7558C25.9109 48.7402 25.9095 48.7118 25.8811 48.6933L25.0887 48.2361C25.0718 48.2273 25.0531 48.2228 25.0341 48.2228C25.015 48.2228 24.9963 48.2273 24.9794 48.2361L24.2935 48.6322C24.2651 48.6493 24.2666 48.6777 24.2935 48.6947L25.0873 49.152ZM28.5521 51.3515L27.764 50.9C27.747 50.8916 27.7283 50.8872 27.7093 50.8872C27.6904 50.8872 27.6717 50.8916 27.6547 50.9L26.3369 51.6611C26.3085 51.6781 26.3099 51.7065 26.3369 51.7236L27.1293 52.1822C27.1463 52.1906 27.165 52.195 27.1839 52.195C27.2029 52.195 27.2216 52.1906 27.2386 52.1822L28.5564 51.4211C28.5848 51.4041 28.5834 51.3757 28.5521 51.3572V51.3515ZM29.2096 52.2788L28.4172 51.8301C28.4003 51.8214 28.3816 51.8168 28.3625 51.8168C28.3435 51.8168 28.3248 51.8214 28.3079 51.8301L27.4644 52.3171C27.436 52.3342 27.4374 52.3626 27.4644 52.381L28.2568 52.8383C28.2738 52.8467 28.2925 52.851 28.3114 52.851C28.3304 52.851 28.3491 52.8467 28.3661 52.8383L29.2096 52.3512C29.2422 52.3313 29.2408 52.3029 29.2096 52.2845V52.2788ZM32.5324 44.8536C32.5493 44.8623 32.568 44.8669 32.587 44.8669C32.6061 44.8669 32.6248 44.8623 32.6417 44.8536L33.3262 44.4589C33.356 44.4418 33.3531 44.4134 33.3262 44.395L32.5338 43.9377C32.5168 43.9293 32.4981 43.925 32.4791 43.925C32.4602 43.925 32.4415 43.9293 32.4245 43.9377L31.74 44.3396C31.7116 44.3566 31.713 44.385 31.74 44.4021L32.5324 44.8536ZM30.5288 46.0109C30.5458 46.0193 30.5645 46.0237 30.5834 46.0237C30.6024 46.0237 30.6211 46.0193 30.6381 46.0109L31.324 45.6162C31.3524 45.5991 31.3509 45.5707 31.324 45.5523L30.5316 45.095C30.5146 45.0866 30.4959 45.0823 30.4769 45.0823C30.458 45.0823 30.4393 45.0866 30.4223 45.095L29.7378 45.4898C29.708 45.5068 29.7108 45.5352 29.7378 45.5537L30.5288 46.0109ZM26.0884 48.5797C26.1053 48.5884 26.1241 48.593 26.1431 48.593C26.1621 48.593 26.1808 48.5884 26.1978 48.5797L26.8822 48.1835C26.912 48.1665 26.9106 48.1395 26.8822 48.121L26.0898 47.6638C26.0729 47.6551 26.0542 47.6505 26.0352 47.6505C26.0161 47.6505 25.9974 47.6551 25.9805 47.6638L25.2946 48.06C25.2662 48.077 25.2677 48.104 25.2946 48.1225L26.0884 48.5797ZM31.5313 45.4401C31.548 45.4485 31.5665 45.4528 31.5852 45.4528C31.604 45.4528 31.6224 45.4485 31.6392 45.4401L32.3251 45.0453C32.3535 45.0283 32.352 44.9999 32.3251 44.9814L31.5327 44.5242C31.5158 44.5155 31.497 44.5109 31.478 44.5109C31.459 44.5109 31.4403 44.5155 31.4234 44.5242L30.7389 44.9189C30.7091 44.936 30.7119 44.9644 30.7389 44.9828L31.5313 45.4401ZM29.5277 46.596C29.5446 46.6047 29.5633 46.6092 29.5823 46.6092C29.6013 46.6092 29.6201 46.6047 29.637 46.596L30.3229 46.2012C30.3513 46.1842 30.3498 46.1558 30.3229 46.1373L29.5305 45.6801C29.5135 45.6717 29.4948 45.6673 29.4758 45.6673C29.4569 45.6673 29.4382 45.6717 29.4212 45.6801L28.7367 46.0748C28.7069 46.0919 28.7083 46.1203 28.7367 46.1387L29.5277 46.596ZM29.7591 52.3597C29.7421 52.3513 29.7234 52.347 29.7044 52.347C29.6855 52.347 29.6668 52.3513 29.6498 52.3597L28.5961 52.9661C28.5677 52.9831 28.5692 53.0115 28.5961 53.03L29.3885 53.4872C29.4054 53.4959 29.4241 53.5005 29.4432 53.5005C29.4622 53.5005 29.4809 53.4959 29.4978 53.4872L30.5515 52.8795C30.5813 52.8624 30.5785 52.834 30.5515 52.8156L29.7591 52.3597ZM28.0906 47.4281C28.1076 47.4365 28.1263 47.4408 28.1453 47.4408C28.1642 47.4408 28.183 47.4365 28.2 47.4281L28.8858 47.0319C28.9142 47.0149 28.9128 46.9865 28.8858 46.9694L28.0935 46.5122C28.0766 46.5035 28.0578 46.4989 28.0388 46.4989C28.0198 46.4989 28.001 46.5035 27.9841 46.5122L27.2997 46.9084C27.2699 46.924 27.2713 46.9524 27.2997 46.9708L28.0906 47.4281ZM27.0895 47.9961C27.1064 48.0048 27.1252 48.0093 27.1442 48.0093C27.1632 48.0093 27.1819 48.0048 27.1989 47.9961L27.8847 47.5999C27.9131 47.5829 27.9117 47.5545 27.8847 47.5374L27.0924 47.0802C27.0754 47.0715 27.0567 47.0669 27.0377 47.0669C27.0187 47.0669 26.9999 47.0715 26.983 47.0802L26.2986 47.4764C26.2688 47.492 26.2702 47.5204 26.2986 47.5388L27.0895 47.9961ZM48.31 41.6487C48.2931 41.64 48.2743 41.6354 48.2553 41.6354C48.2363 41.6354 48.2176 41.64 48.2007 41.6487L46.508 42.62C46.4796 42.637 46.481 42.6654 46.508 42.6839L47.3004 43.1411C47.3174 43.1495 47.3361 43.1539 47.355 43.1539C47.374 43.1539 47.3927 43.1495 47.4097 43.1411L49.1052 42.1741C49.135 42.157 49.1336 42.1286 49.1052 42.1102L48.31 41.6487ZM46.0962 42.9267C46.0793 42.918 46.0606 42.9134 46.0415 42.9134C46.0225 42.9134 46.0038 42.918 45.9869 42.9267L45.3024 43.3214C45.2726 43.3385 45.274 43.3669 45.3024 43.3853L46.0948 43.8426C46.1118 43.851 46.1305 43.8553 46.1495 43.8553C46.1684 43.8553 46.1871 43.851 46.2041 43.8426L46.89 43.4478C46.9184 43.4308 46.917 43.4024 46.89 43.3839L46.0962 42.9267ZM32.5338 50.4314L33.2182 50.0352C33.2481 50.0182 33.2452 49.9898 33.2182 49.9727L32.4273 49.5141C32.4103 49.5057 32.3916 49.5013 32.3726 49.5013C32.3537 49.5013 32.335 49.5057 32.318 49.5141L31.6321 49.9088C31.6037 49.9259 31.6051 49.9543 31.6321 49.9727L32.4245 50.43C32.4413 50.4386 32.46 50.4432 32.479 50.4434C32.4979 50.4437 32.5167 50.4395 32.5338 50.4314ZM44.094 44.0826C44.077 44.0742 44.0583 44.0698 44.0393 44.0698C44.0204 44.0698 44.0017 44.0742 43.9847 44.0826L43.2988 44.4773C43.2704 44.4944 43.2718 44.5228 43.2988 44.5412L44.0912 44.9985C44.1081 45.0072 44.1268 45.0117 44.1458 45.0117C44.1649 45.0117 44.1836 45.0072 44.2005 44.9985L44.885 44.6037C44.9148 44.5867 44.9134 44.5583 44.885 44.5398L44.094 44.0826ZM49.3111 41.0707C49.2941 41.0623 49.2754 41.058 49.2564 41.058C49.2375 41.058 49.2188 41.0623 49.2018 41.0707L48.5173 41.4641C48.4875 41.4811 48.4889 41.5095 48.5173 41.5266L49.3097 41.9852C49.3267 41.9936 49.3454 41.998 49.3643 41.998C49.3833 41.998 49.402 41.9936 49.419 41.9852L50.1049 41.5905C50.1333 41.5734 50.1319 41.545 50.1049 41.5266L49.3111 41.0707ZM51.1046 40.95L49.1805 39.8396C49.1635 39.8309 49.1448 39.8263 49.1258 39.8263C49.1068 39.8263 49.088 39.8309 49.0711 39.8396L48.3867 40.2358C48.3569 40.2528 48.3583 40.2812 48.3867 40.2983L50.3108 41.4087C50.3277 41.4174 50.3464 41.422 50.3654 41.422C50.3845 41.422 50.4032 41.4174 50.4201 41.4087L51.106 41.0125C51.1372 40.9969 51.1358 40.9685 51.1046 40.95ZM40.3523 46.2438C40.3354 46.2351 40.3167 46.2305 40.2976 46.2305C40.2786 46.2305 40.2599 46.2351 40.243 46.2438L39.3995 46.7309C39.3711 46.7479 39.3725 46.7763 39.3995 46.7933L40.1919 47.2506C40.2088 47.2593 40.2275 47.2638 40.2465 47.2638C40.2655 47.2638 40.2843 47.2593 40.3012 47.2506L41.1447 46.7635C41.1731 46.7465 41.1717 46.7181 41.1447 46.701L40.3523 46.2438ZM42.8813 44.7826C42.8644 44.7739 42.8457 44.7694 42.8267 44.7694C42.8076 44.7694 42.7889 44.7739 42.772 44.7826L41.7184 45.3904C41.69 45.4074 41.6914 45.4358 41.7184 45.4529L42.5107 45.9115C42.5277 45.9199 42.5464 45.9243 42.5654 45.9243C42.5843 45.9243 42.6031 45.9199 42.6201 45.9115L43.6737 45.3038C43.7021 45.2867 43.7007 45.2583 43.6737 45.2399L42.8813 44.7826ZM38.0335 47.5814C38.0165 47.573 37.9977 47.5687 37.9788 47.5687C37.9598 47.5687 37.9411 47.573 37.9241 47.5814L32.2853 50.8361C32.2569 50.8531 32.2583 50.8815 32.2853 50.9L33.0777 51.3572C33.0947 51.3656 33.1134 51.37 33.1323 51.37C33.1513 51.37 33.17 51.3656 33.187 51.3572L38.8258 48.1012C38.8542 48.0841 38.8528 48.0557 38.8258 48.0373L38.0335 47.5814ZM32.078 51.0207C32.0611 51.012 32.0423 51.0074 32.0233 51.0074C32.0043 51.0074 31.9855 51.012 31.9686 51.0207L31.1266 51.5077C31.0968 51.5248 31.0982 51.5532 31.1266 51.5702L31.9189 52.0275C31.9358 52.0362 31.9546 52.0407 31.9736 52.0407C31.9926 52.0407 32.0114 52.0362 32.0283 52.0275L32.876 51.5461C32.9044 51.529 32.903 51.5006 32.876 51.4836L32.078 51.0207ZM39.1922 46.9126C39.1752 46.9042 39.1565 46.8999 39.1375 46.8999C39.1185 46.8999 39.0998 46.9042 39.0828 46.9126L38.2408 47.3997C38.211 47.4167 38.2124 47.4451 38.2408 47.4636L39.0331 47.9208C39.0501 47.9292 39.0688 47.9336 39.0878 47.9336C39.1068 47.9336 39.1255 47.9292 39.1425 47.9208L39.986 47.4338C40.0158 47.4181 40.0129 47.3897 39.986 47.3713L39.1922 46.9126ZM30.9193 51.6881C30.9023 51.6797 30.8835 51.6753 30.8646 51.6753C30.8456 51.6753 30.8269 51.6797 30.8099 51.6881L29.9664 52.1751C29.938 52.1922 29.9395 52.2206 29.9664 52.239L30.7588 52.6963C30.7758 52.7047 30.7945 52.709 30.8135 52.709C30.8324 52.709 30.8511 52.7047 30.8681 52.6963L31.7102 52.2106C31.74 52.1936 31.7386 52.1652 31.7102 52.1467L30.9193 51.6881ZM41.511 45.5721C41.494 45.5637 41.4753 45.5594 41.4564 45.5594C41.4374 45.5594 41.4187 45.5637 41.4017 45.5721L40.5596 46.0578C40.5298 46.0748 40.5312 46.1032 40.5596 46.1217L41.352 46.5789C41.369 46.5873 41.3877 46.5917 41.4067 46.5917C41.4256 46.5917 41.4443 46.5873 41.4613 46.5789L42.3048 46.0919C42.3346 46.0748 42.3318 46.0464 42.3048 46.028L41.511 45.5721ZM45.0951 43.5032C45.0782 43.4945 45.0595 43.4899 45.0404 43.4899C45.0214 43.4899 45.0027 43.4945 44.9858 43.5032L44.3013 43.898C44.2715 43.915 44.2729 43.9434 44.3013 43.9619L45.0937 44.4191C45.1107 44.4275 45.1294 44.4319 45.1484 44.4319C45.1673 44.4319 45.186 44.4275 45.203 44.4191L45.8889 44.0243C45.9173 44.0073 45.9159 43.9789 45.8889 43.9604L45.0951 43.5032ZM47.289 41.91L47.9735 41.5152C48.0033 41.4982 48.0019 41.4698 47.9735 41.4513L47.1811 40.9941C47.1641 40.9857 47.1454 40.9813 47.1264 40.9813C47.1075 40.9813 47.0888 40.9857 47.0718 40.9941L46.3859 41.3902C46.3575 41.4073 46.3589 41.4357 46.3859 41.4527L47.1783 41.9114C47.1954 41.92 47.2144 41.9245 47.2336 41.9245C47.2529 41.9245 47.2718 41.92 47.289 41.9114V41.91ZM42.816 41.8901L43.5019 41.4939C43.5303 41.4769 43.5289 41.4485 43.5019 41.4314L42.7095 40.9742C42.6926 40.9655 42.6739 40.9609 42.6548 40.9609C42.6358 40.9609 42.6171 40.9655 42.6002 40.9742L41.9157 41.3704C41.8859 41.3874 41.8888 41.4144 41.9157 41.4328L42.7067 41.8901C42.7236 41.8988 42.7423 41.9033 42.7613 41.9033C42.7804 41.9033 42.7991 41.8988 42.816 41.8901ZM40.544 45.8135L42.5462 44.6577C42.5746 44.6406 42.5732 44.6122 42.5462 44.5938L41.7539 44.1365C41.7368 44.1281 41.7181 44.1238 41.6992 44.1238C41.6802 44.1238 41.6615 44.1281 41.6445 44.1365L39.6423 45.2938C39.6139 45.3094 39.6153 45.3378 39.6423 45.3563L40.4347 45.8135C40.4521 45.8212 40.4712 45.8245 40.4902 45.8233C40.5092 45.822 40.5277 45.8163 40.544 45.8064V45.8135ZM46.1786 42.495C46.1956 42.5034 46.2143 42.5078 46.2332 42.5078C46.2522 42.5078 46.2709 42.5034 46.2879 42.495L46.9724 42.1002C47.0022 42.0832 47.0008 42.0548 46.9724 42.0363L46.18 41.5791C46.1631 41.5704 46.1443 41.5658 46.1253 41.5658C46.1063 41.5658 46.0876 41.5704 46.0707 41.5791L45.3848 41.9739C45.3564 41.9909 45.3578 42.0193 45.3848 42.0378L46.1786 42.495ZM45.1562 41.8432L45.8406 41.4485C45.8704 41.4314 45.869 41.403 45.8406 41.3846L45.0483 40.9273C45.0313 40.9189 45.0125 40.9146 44.9936 40.9146C44.9746 40.9146 44.9559 40.9189 44.9389 40.9273L44.2531 41.3235C44.2247 41.3405 44.2261 41.3689 44.2531 41.386L45.0454 41.8446C45.0633 41.852 45.0826 41.855 45.1018 41.8535C45.121 41.852 45.1397 41.8461 45.1562 41.8361V41.8432ZM39.5429 46.3872L40.2274 45.991C40.2572 45.974 40.2543 45.947 40.2274 45.9286L39.435 45.4713C39.4181 45.4626 39.3993 45.4581 39.3803 45.4581C39.3613 45.4581 39.3426 45.4626 39.3257 45.4713L38.637 45.8661C38.6071 45.8831 38.61 45.9101 38.637 45.9286L39.4293 46.3858C39.4477 46.3963 39.4686 46.4017 39.4899 46.4015C39.5111 46.4012 39.5318 46.3953 39.55 46.3844L39.5429 46.3872ZM43.9648 43.7687C43.9818 43.7771 44.0005 43.7815 44.0195 43.7815C44.0384 43.7815 44.0571 43.7771 44.0741 43.7687L44.76 43.374C44.7884 43.3569 44.787 43.3285 44.76 43.3101L43.9676 42.8528C43.9506 42.8444 43.9319 42.8401 43.913 42.8401C43.894 42.8401 43.8753 42.8444 43.8583 42.8528L43.1739 43.249C43.144 43.2661 43.1455 43.2945 43.1739 43.3115L43.9648 43.7687ZM34.536 49.2741L35.2204 48.8793C35.2503 48.8623 35.2488 48.8339 35.2204 48.8154L34.4281 48.3582C34.4111 48.3498 34.3924 48.3454 34.3734 48.3454C34.3544 48.3454 34.3357 48.3498 34.3187 48.3582L33.6329 48.7529C33.6045 48.77 33.6059 48.7984 33.6329 48.8168L34.4252 49.2741C34.4424 49.2827 34.4614 49.2872 34.4806 49.2872C34.4998 49.2872 34.5188 49.2827 34.536 49.2741ZM35.5371 48.6961L36.223 48.3014C36.2514 48.2843 36.2499 48.2559 36.223 48.2375L35.432 47.7802C35.4151 47.7715 35.3964 47.767 35.3773 47.767C35.3583 47.767 35.3396 47.7715 35.3227 47.7802L34.6368 48.175C34.6084 48.192 34.6098 48.2204 34.6368 48.2389L35.4292 48.6961C35.446 48.7043 35.4644 48.7085 35.4831 48.7085C35.5018 48.7085 35.5203 48.7043 35.5371 48.6961ZM33.5349 49.852L34.2193 49.4573C34.2492 49.4402 34.2477 49.4118 34.2193 49.3934L33.4284 48.9361C33.4114 48.9277 33.3927 48.9234 33.3737 48.9234C33.3548 48.9234 33.3361 48.9277 33.3191 48.9361L32.6332 49.3309C32.6048 49.3479 32.6062 49.3763 32.6332 49.3948L33.4256 49.852C33.4425 49.8607 33.4612 49.8653 33.4802 49.8653C33.4992 49.8653 33.518 49.8607 33.5349 49.852ZM37.5393 47.5403L38.2252 47.1455C38.2536 47.1285 38.2521 47.1001 38.2252 47.0816L37.4328 46.6244C37.4158 46.616 37.3971 46.6116 37.3781 46.6116C37.3592 46.6116 37.3405 46.616 37.3235 46.6244L36.639 47.0205C36.6092 47.0376 36.6106 47.066 36.639 47.083L37.4314 47.5403C37.4481 47.5487 37.4666 47.5532 37.4853 47.5532C37.5041 47.5532 37.5226 47.5487 37.5393 47.5403ZM36.5453 48.1182L37.2312 47.7234C37.2596 47.7064 37.2581 47.678 37.2312 47.6595L36.426 47.2023C36.4091 47.1936 36.3904 47.189 36.3713 47.189C36.3523 47.189 36.3336 47.1936 36.3167 47.2023L35.6322 47.5971C35.6024 47.6141 35.6038 47.6425 35.6322 47.6595L36.4246 48.1182C36.4421 48.1273 36.4616 48.132 36.4814 48.132C36.5012 48.132 36.5206 48.1273 36.5382 48.1182H36.5453ZM38.5475 46.9623L39.2334 46.5661C39.2618 46.5505 39.2603 46.5221 39.2334 46.5037L38.441 46.0464C38.4241 46.0377 38.4053 46.0332 38.3863 46.0332C38.3673 46.0332 38.3486 46.0377 38.3317 46.0464L37.6359 46.4341C37.606 46.4511 37.6089 46.4795 37.6359 46.4966L38.4268 46.9538C38.4435 46.9646 38.4627 46.971 38.4825 46.9725C38.5023 46.974 38.5223 46.9705 38.5404 46.9623H38.5475ZM43.1284 38.4097C43.1453 38.4184 43.1641 38.4229 43.1831 38.4229C43.2021 38.4229 43.2208 38.4184 43.2378 38.4097L43.9236 38.0135C43.952 37.9979 43.9506 37.9695 43.9236 37.951L43.7135 37.8289C43.6965 37.8205 43.6777 37.8161 43.6588 37.8161C43.6398 37.8161 43.6211 37.8205 43.6041 37.8289L42.9183 38.2236C42.8899 38.2407 42.8913 38.2691 42.9183 38.2875L43.1284 38.4097ZM38.2024 41.5905C38.2193 41.5992 38.2381 41.6037 38.2571 41.6037C38.2761 41.6037 38.2949 41.5992 38.3118 41.5905L38.9962 41.1957C39.026 41.1787 39.0246 41.1503 38.9962 41.1318L38.2039 40.6746C38.1868 40.6662 38.1681 40.6618 38.1492 40.6618C38.1302 40.6618 38.1115 40.6662 38.0945 40.6746L37.4087 41.0693C37.3803 41.0864 37.3817 41.1148 37.4087 41.1332L38.2024 41.5905ZM40.2046 40.4346C40.2216 40.443 40.2403 40.4473 40.2593 40.4473C40.2783 40.4473 40.297 40.443 40.314 40.4346L40.9998 40.0398C41.0282 40.0228 41.0268 39.9944 40.9998 39.9759L40.2075 39.5187C40.1906 39.51 40.1718 39.5054 40.1528 39.5054C40.1338 39.5054 40.115 39.51 40.0981 39.5187L39.408 39.9134C39.3782 39.9305 39.3796 39.9589 39.408 39.9773L40.2046 40.4346ZM36.9798 42.2962C36.9968 42.3046 37.0155 42.309 37.0345 42.309C37.0534 42.309 37.0722 42.3046 37.0892 42.2962L37.7736 41.9C37.8034 41.883 37.802 41.8546 37.7736 41.8375L36.9812 41.3789C36.9642 41.3705 36.9455 41.3661 36.9266 41.3661C36.9076 41.3661 36.8889 41.3705 36.8719 41.3789L36.186 41.7736C36.1576 41.7907 36.1591 41.8191 36.186 41.8375L36.9798 42.2962ZM39.2035 41.0182C39.2205 41.0266 39.2392 41.031 39.2582 41.031C39.2772 41.031 39.2959 41.0266 39.3129 41.0182L39.9987 40.6234C40.0271 40.6064 40.0257 40.578 39.9987 40.5595L39.2064 40.1023C39.1894 40.0939 39.1707 40.0895 39.1517 40.0895C39.1327 40.0895 39.114 40.0939 39.097 40.1023L38.4126 40.4971C38.3828 40.5141 38.3842 40.5425 38.4126 40.561L39.2035 41.0182ZM34.9705 43.4521C34.9874 43.4608 35.0062 43.4653 35.0252 43.4653C35.0442 43.4653 35.0629 43.4608 35.0799 43.4521L35.7643 43.0559C35.7941 43.0389 35.7913 43.0105 35.7643 42.9934L34.9734 42.5362C34.9564 42.5275 34.9377 42.5229 34.9187 42.5229C34.8997 42.5229 34.8809 42.5275 34.864 42.5362L34.1782 42.9324C34.1498 42.948 34.1512 42.9764 34.1782 42.9948L34.9705 43.4521ZM35.9716 42.8741C35.9886 42.8825 36.0073 42.8869 36.0263 42.8869C36.0452 42.8869 36.064 42.8825 36.081 42.8741L36.7654 42.478C36.7952 42.4609 36.7938 42.4325 36.7654 42.4155L35.9745 41.9582C35.9576 41.9495 35.9388 41.945 35.9198 41.945C35.9008 41.945 35.882 41.9495 35.8651 41.9582L35.1793 42.3544C35.1509 42.37 35.1523 42.3984 35.1793 42.4169L35.9716 42.8741ZM41.1191 39.567C41.1361 39.5754 41.1548 39.5797 41.1738 39.5797C41.1927 39.5797 41.2115 39.5754 41.2285 39.567L41.9143 39.1722C41.9427 39.1552 41.9413 39.1268 41.9143 39.1083L41.7027 38.9862C41.6857 38.9778 41.667 38.9734 41.6481 38.9734C41.6291 38.9734 41.6104 38.9778 41.5934 38.9862L40.909 39.3809C40.8791 39.398 40.882 39.4264 40.909 39.4448L41.1191 39.567ZM44.1238 37.8317C44.1405 37.8404 44.159 37.845 44.1778 37.845C44.1966 37.845 44.2151 37.8404 44.2318 37.8317L44.9176 37.4355C44.946 37.4185 44.9446 37.3915 44.9176 37.3731L44.7075 37.2509C44.6905 37.2422 44.6718 37.2377 44.6528 37.2377C44.6338 37.2377 44.615 37.2422 44.5981 37.2509L43.9123 37.6457C43.8839 37.6627 43.8853 37.6911 43.9123 37.7096L44.1238 37.8317ZM45.7867 38.7931C45.8037 38.8014 45.8224 38.8058 45.8413 38.8058C45.8603 38.8058 45.879 38.8014 45.896 38.7931L46.5819 38.3969C46.6103 38.3798 46.6088 38.3514 46.5819 38.3344L45.7895 37.8757C45.7725 37.8673 45.7538 37.863 45.7348 37.863C45.7159 37.863 45.6972 37.8673 45.6802 37.8757L44.9957 38.2705C44.9659 38.2875 44.9687 38.3159 44.9957 38.3344L45.7867 38.7931ZM48.2901 41.3334L48.976 40.9373C49.0044 40.9216 49.003 40.8932 48.976 40.8748L48.1836 40.4175C48.1666 40.4091 48.1479 40.4048 48.1289 40.4048C48.11 40.4048 48.0913 40.4091 48.0743 40.4175L47.3898 40.8137C47.36 40.8308 47.3614 40.8592 47.3898 40.8762L48.1822 41.3334C48.1989 41.3419 48.2174 41.3463 48.2362 41.3463C48.2549 41.3463 48.2734 41.3419 48.2901 41.3334ZM42.1202 38.989C42.1372 38.9974 42.1559 39.0018 42.1749 39.0018C42.1938 39.0018 42.2125 38.9974 42.2296 38.989L42.9154 38.5943C42.9438 38.5772 42.9424 38.5488 42.9154 38.5304L42.7038 38.4082C42.6868 38.3998 42.6681 38.3955 42.6492 38.3955C42.6302 38.3955 42.6115 38.3998 42.5945 38.4082L41.9101 38.803C41.8817 38.82 41.8831 38.8484 41.9101 38.8669L42.1202 38.989ZM33.9694 44.03C33.9863 44.0387 34.0051 44.0433 34.0241 44.0433C34.0431 44.0433 34.0618 44.0387 34.0788 44.03L34.7632 43.6338C34.7916 43.6168 34.7902 43.5898 34.7632 43.5714L33.9708 43.1141C33.9539 43.1054 33.9352 43.1009 33.9162 43.1009C33.8971 43.1009 33.8784 43.1054 33.8615 43.1141L33.1771 43.5103C33.1487 43.5273 33.1501 43.5543 33.1771 43.5728L33.9694 44.03Z" fill="#455A64"/>
<path d="M38.0405 50.2539L45.5381 45.9243L50.1531 48.5882L42.6541 52.9178L38.0405 50.2539Z" fill="#263238"/>
<path d="M21.374 28.437L43.7191 15.5363C44.1551 15.2835 44.5129 15.4908 44.5129 15.9949V33.3005C44.5057 33.4285 44.4686 33.553 44.4045 33.664C44.3403 33.775 44.251 33.8693 44.1437 33.9395L21.232 47.1682C21.0289 47.2846 20.8628 47.1895 20.8628 46.9552V29.3216C20.873 29.1445 20.9245 28.9722 21.0133 28.8186C21.1021 28.665 21.2256 28.5343 21.374 28.437Z" fill="#F5F5F5"/>
<path d="M44.52 16.4098V15.9952C44.52 15.4911 44.1622 15.2852 43.7262 15.5365L21.374 28.4372C21.2256 28.5345 21.1021 28.6652 21.0133 28.8188C20.9245 28.9724 20.873 29.1447 20.8628 29.3219V30.0645L44.52 16.4098Z" fill="#407BFF"/>
<path d="M41.1858 17.3539C41.1061 17.4058 41.0397 17.4759 40.992 17.5583C40.9444 17.6407 40.9169 17.7332 40.9118 17.8282C40.9118 18.0029 41.0339 18.0739 41.1858 17.9858C41.2653 17.9341 41.3314 17.8642 41.3788 17.7821C41.4262 17.6999 41.4535 17.6077 41.4585 17.513C41.4585 17.3383 41.3364 17.2673 41.1858 17.3539Z" fill="white"/>
<path d="M42.2707 16.7276C42.1912 16.7797 42.1251 16.8498 42.0777 16.9322C42.0304 17.0146 42.0031 17.107 41.9981 17.2019C41.9981 17.3766 42.1202 17.4462 42.2707 17.3595C42.3505 17.3076 42.4169 17.2376 42.4645 17.1552C42.5121 17.0728 42.5396 16.9803 42.5448 16.8853C42.5448 16.7106 42.4227 16.6396 42.2707 16.7276Z" fill="white"/>
<path d="M43.357 16.1C43.2775 16.1522 43.2113 16.2223 43.1637 16.3046C43.1161 16.387 43.0884 16.4793 43.0829 16.5743C43.0829 16.749 43.2065 16.82 43.357 16.7319C43.4367 16.6802 43.503 16.6105 43.5506 16.5283C43.5983 16.4461 43.6258 16.3539 43.6311 16.2591C43.6311 16.0844 43.5075 16.0134 43.357 16.1Z" fill="white"/>
<path d="M26.3805 38.537L25.5111 38.035L23.3818 41.7231L24.2512 42.225L26.3805 38.537Z" fill="#37474F"/>
<path d="M26.3823 38.5358L25.9482 38.2852L23.8189 41.9732L24.253 42.2238L26.3823 38.5358Z" fill="#263238"/>
<path d="M21.0474 48.9247C20.6512 49.6134 18.7754 48.52 19.1702 47.8413L24.0621 40.2116C24.0752 40.1909 24.0959 40.1761 24.1197 40.1703C24.1435 40.1645 24.1686 40.1681 24.1899 40.1804L25.1725 40.7484C25.1937 40.7603 25.2093 40.7801 25.2162 40.8034C25.2231 40.8267 25.2207 40.8518 25.2094 40.8733L21.0474 48.9247Z" fill="#407BFF"/>
<path opacity="0.1" d="M21.0474 48.9247L25.208 40.8733C25.2193 40.8517 25.2217 40.8266 25.2148 40.8033C25.2079 40.78 25.1922 40.7603 25.1711 40.7483L24.7238 40.4899L19.954 48.9687C20.3885 49.1831 20.8685 49.2356 21.0474 48.9247Z" fill="black"/>
<path d="M35.432 30.9631C35.432 30.9049 35.432 30.8481 35.4235 30.7913C35.415 30.7345 35.4235 30.6791 35.4107 30.6237C35.3979 30.5683 35.4107 30.5499 35.3993 30.5129C35.3894 30.4164 35.3752 30.3212 35.3596 30.2289C35.3525 30.1878 35.3454 30.1452 35.3369 30.104C35.3283 30.0628 35.3212 30.0259 35.3127 29.9875C35.2886 29.8825 35.263 29.7802 35.2332 29.6822C35.2176 29.6354 35.2034 29.5885 35.1878 29.5402C35.1848 29.5334 35.1824 29.5262 35.1807 29.5189C35.1636 29.4735 35.148 29.4295 35.131 29.3869C35.1139 29.3443 35.0912 29.2875 35.0685 29.2449C35.0458 29.2023 35.0372 29.1753 35.0188 29.1412C35.0085 29.1157 34.9961 29.091 34.9819 29.0674C34.9677 29.0376 34.952 29.0077 34.935 28.9793C34.918 28.9509 34.9279 28.9651 34.9236 28.9595C34.9194 28.9538 34.8938 28.9083 34.8782 28.8828C34.8626 28.8572 34.8569 28.8501 34.847 28.8345C34.7742 28.7199 34.6925 28.6112 34.6027 28.5093L34.5573 28.4582L34.5189 28.4184C34.5033 28.4014 34.4863 28.3858 34.4692 28.3687C34.4246 28.3219 34.3772 28.2778 34.3272 28.2367C34.3031 28.2154 34.2775 28.1955 34.252 28.177L34.1739 28.1202C34.1333 28.0905 34.0911 28.063 34.0475 28.0379L34.0134 28.0166H34.0063L31.9942 26.855L31.9828 26.8479C31.5968 26.6326 31.161 26.5225 30.719 26.5284C30.0601 26.5284 29.3161 26.7443 28.528 27.1987C25.8214 28.7607 23.6261 32.5634 23.6261 35.6903C23.6261 37.2523 24.1714 38.3457 25.0532 38.8597H25.0617L27.0753 40.0198H27.0838L27.108 40.0326C27.1457 40.0549 27.1846 40.0753 27.2244 40.0937C27.2727 40.1178 27.3224 40.1391 27.3664 40.159C27.4104 40.1789 27.4559 40.1945 27.5013 40.2087L27.5737 40.23C27.5991 40.2397 27.6252 40.2473 27.6518 40.2527C27.678 40.2607 27.7045 40.2673 27.7313 40.2726C27.7504 40.2782 27.7699 40.2825 27.7896 40.2854C27.8236 40.2925 27.8606 40.2996 27.8961 40.3038C27.904 40.3052 27.9122 40.3052 27.9202 40.3038C27.9628 40.3114 28.0054 40.3171 28.048 40.3209C28.7779 40.3976 29.627 40.1917 30.5358 39.6677C33.2438 38.1057 35.4391 34.3015 35.4391 31.1761C35.432 31.1108 35.432 31.0369 35.432 30.9631ZM32.1475 28.7521C32.2539 29.1407 32.306 29.5421 32.3023 29.9449C32.3023 32.7026 30.2845 36.1929 27.9003 37.576C27.5518 37.7832 27.1755 37.9396 26.7828 38.0404C26.677 37.6512 26.625 37.2494 26.628 36.8461C26.628 34.0885 28.6458 30.5981 31.03 29.2151C31.3772 29.0087 31.7521 28.8528 32.1433 28.7521H32.1475Z" fill="#407BFF"/>
<path opacity="0.1" d="M26.9929 39.9801L25.0376 38.8526C24.1558 38.3371 23.6105 37.2409 23.6105 35.6846C23.6105 34.2901 24.0478 32.7622 24.7706 31.3593L26.7842 32.518C26.06 33.9209 25.624 35.4489 25.624 36.8433C25.624 38.3712 26.1438 39.4518 26.9929 39.9801Z" fill="black"/>
<path opacity="0.4" d="M35.432 30.9631C35.432 30.9048 35.432 30.848 35.4235 30.7912C35.415 30.7344 35.4235 30.6791 35.4107 30.6237C35.3979 30.5683 35.4107 30.5498 35.3993 30.5129C35.3894 30.4164 35.3752 30.3212 35.3596 30.2289C35.3525 30.1877 35.3454 30.1451 35.3369 30.104C35.3283 30.0628 35.3212 30.0259 35.3127 29.9875C35.2886 29.8824 35.263 29.7802 35.2332 29.6822C35.2176 29.6354 35.2034 29.5885 35.1878 29.5402C35.1848 29.5334 35.1824 29.5262 35.1807 29.5189C35.1636 29.4735 35.148 29.4295 35.131 29.3869C35.1139 29.3443 35.0912 29.2875 35.0685 29.2449C35.0458 29.2023 35.0372 29.1753 35.0188 29.1412C35.0085 29.1156 34.9961 29.0909 34.9819 29.0674C34.9677 29.0375 34.952 29.0077 34.935 28.9793C34.918 28.9509 34.9279 28.9651 34.9236 28.9594C34.9194 28.9538 34.8938 28.9083 34.8782 28.8828C34.8626 28.8572 34.8569 28.8501 34.847 28.8345C34.7742 28.7199 34.6925 28.6111 34.6027 28.5093L34.5573 28.4582L34.5189 28.4184C34.5033 28.4014 34.4863 28.3858 34.4692 28.3687C34.4246 28.3219 34.3772 28.2777 34.3272 28.2367C34.3031 28.2154 34.2775 28.1955 34.252 28.177L34.1739 28.1202C34.1333 28.0905 34.0911 28.063 34.0475 28.0379C33.1572 27.4968 31.9175 27.5607 30.5387 28.3545C27.8307 29.9165 25.6354 33.7193 25.6354 36.8461C25.6354 38.4294 26.2034 39.5356 27.1051 40.0383C27.1429 40.0606 27.1817 40.081 27.2216 40.0993C27.2698 40.1235 27.3195 40.1448 27.3636 40.1647C27.4076 40.1845 27.453 40.2002 27.4985 40.2144L27.5709 40.2357C27.5962 40.2454 27.6224 40.253 27.649 40.2584C27.6751 40.2663 27.7017 40.273 27.7285 40.2783C27.7476 40.2839 27.767 40.2881 27.7867 40.291C27.8208 40.2981 27.8577 40.3052 27.8932 40.3095C27.9012 40.3109 27.9094 40.3109 27.9174 40.3095C27.96 40.3171 28.0026 40.3228 28.0452 40.3265C28.775 40.4032 29.6242 40.1973 30.533 39.6733C33.2409 38.1113 35.4363 34.3072 35.4363 31.1817C35.432 31.1107 35.432 31.0369 35.432 30.9631ZM30.036 38.8171C29.4282 39.1678 28.8432 39.3524 28.3434 39.3524C27.4047 39.3524 26.9731 38.712 26.7814 38.0403C26.6756 37.6512 26.6235 37.2494 26.6266 36.8461C26.6266 34.0885 28.6444 30.5981 31.0286 29.215C31.3771 29.0083 31.7534 28.8524 32.1461 28.7521C32.332 28.7061 32.5226 28.6818 32.7141 28.6797C34.2662 28.6797 34.4323 30.432 34.4323 31.186C34.438 33.938 32.4202 37.4383 30.036 38.8171Z" fill="white"/>
<path opacity="0.1" d="M34.438 31.186C34.438 33.9436 32.4216 37.434 30.036 38.8171C29.4282 39.1678 28.8432 39.3524 28.3434 39.3524C27.4047 39.3524 26.9731 38.712 26.7814 38.0403C27.1741 37.9395 27.5504 37.7832 27.8989 37.576C30.2873 36.1972 32.3009 32.7025 32.3009 29.9449C32.3046 29.5421 32.2525 29.1407 32.1461 28.7521C32.332 28.706 32.5226 28.6817 32.7141 28.6797C34.2704 28.6839 34.438 30.432 34.438 31.186Z" fill="black"/>
<path opacity="0.7" d="M33.586 30.7046C33.586 33.4623 31.5696 36.9526 29.184 38.3357C28.5762 38.6864 27.9912 38.871 27.4914 38.871C27.3919 38.8713 27.2927 38.8632 27.1946 38.8469C27.0027 38.6098 26.8629 38.335 26.7842 38.0403C26.6785 37.6512 26.6264 37.2494 26.6294 36.8461C26.6294 34.0885 28.6472 30.5981 31.0314 29.215C31.38 29.0083 31.7563 28.8524 32.149 28.7521C32.3348 28.7061 32.5255 28.6818 32.717 28.6797C32.8169 28.6794 32.9166 28.6875 33.0152 28.7038C33.5065 29.2818 33.586 30.209 33.586 30.7046Z" fill="white"/>
<path d="M37.0181 27.832V30.9758C37.0181 31.2116 37.1843 31.3067 37.3873 31.1888L57.9915 19.2935C58.0989 19.2234 58.1882 19.129 58.2523 19.018C58.3164 18.907 58.3536 18.7825 58.3607 18.6545V15.5064C58.3607 15.2706 58.1946 15.1755 57.9915 15.2934L37.3873 27.1887C37.2795 27.2593 37.1899 27.3544 37.1258 27.4662C37.0616 27.5779 37.0248 27.7033 37.0181 27.832Z" fill="#E6E6E6"/>
<path d="M37.3873 27.1888L41.0566 25.0715V29.0674L37.3873 31.1846C37.1843 31.3025 37.0181 31.2074 37.0181 30.9716V27.832C37.0248 27.7033 37.0616 27.578 37.1258 27.4662C37.1899 27.3544 37.2795 27.2594 37.3873 27.1888Z" fill="#407BFF"/>
<path d="M39.8425 26.8152C39.6111 26.6817 39.3185 26.703 39.0189 26.8763C38.7342 27.0587 38.4973 27.3066 38.3281 27.5994C38.1588 27.8922 38.0622 28.2212 38.0462 28.559C38.0362 28.7779 38.1052 28.9931 38.2408 29.1653L37.846 29.8412C37.8203 29.8896 37.814 29.9459 37.8286 29.9988C37.8431 30.0516 37.8773 30.0968 37.9241 30.1252C37.9566 30.1435 37.9933 30.1533 38.0306 30.1536C38.068 30.1536 38.1048 30.1438 38.1372 30.1251C38.1696 30.1064 38.1965 30.0795 38.2152 30.0471L38.6057 29.3712C38.6479 29.3791 38.6906 29.3834 38.7335 29.384C38.9078 29.3808 39.0782 29.3318 39.2277 29.242C39.5119 29.0591 39.7483 28.811 39.9172 28.5184C40.0862 28.2257 40.1828 27.8968 40.1989 27.5593C40.2032 27.2142 40.0754 26.9501 39.8425 26.8152ZM39.0189 28.8742C38.969 28.9279 38.9024 28.963 38.83 28.9739C38.7575 28.9848 38.6835 28.9708 38.6201 28.9342C38.5566 28.8976 38.5074 28.8406 38.4806 28.7724C38.4537 28.7043 38.4508 28.629 38.4722 28.559C38.4888 28.2962 38.566 28.0409 38.6978 27.813C38.8296 27.5851 39.0124 27.3908 39.2319 27.2455C39.3171 27.1912 39.415 27.1604 39.5159 27.156C39.5575 27.1544 39.5988 27.1642 39.6352 27.1844C39.6886 27.2301 39.7297 27.2885 39.7545 27.3543C39.7793 27.4201 39.7871 27.4911 39.7772 27.5607C39.7608 27.8233 39.6838 28.0786 39.5523 28.3065C39.4207 28.5343 39.2381 28.7287 39.0189 28.8742Z" fill="white"/>
</svg>
