<svg width="90" height="90" viewBox="0 0 90 90" fill="none" xmlns="http://www.w3.org/2000/svg">
<path d="M59.409 8.25114C51.3738 3.80334 41.6106 3.39114 32.4882 6.81114C24.5358 9.79194 15.4242 27.0215 11.448 31.6601C7.4718 36.2987 0.5148 47.2337 3.9924 55.0187C7.47 62.8037 18 63.3599 23.1714 72.3599C28.3428 81.3599 47.2338 87.4799 58.6638 81.6893C70.0938 75.8987 69.2676 64.7909 77.7168 60.8093C86.166 56.8277 85.6692 43.7453 82.6866 35.6273C80.7516 30.3587 76.7286 25.7453 73.1898 21.4883C71.3232 19.2599 69.4008 17.0585 67.5 14.8481C65.2021 12.2006 62.465 9.96891 59.409 8.25114Z" fill="#ECEFF1"/>
<path opacity="0.7" d="M59.409 8.25114C51.3738 3.80334 41.6106 3.39114 32.4882 6.81114C24.5358 9.79194 15.4242 27.0215 11.448 31.6601C7.4718 36.2987 0.5148 47.2337 3.9924 55.0187C7.47 62.8037 18 63.3599 23.1714 72.3599C28.3428 81.3599 47.2338 87.4799 58.6638 81.6893C70.0938 75.8987 69.2676 64.7909 77.7168 60.8093C86.166 56.8277 85.6692 43.7453 82.6866 35.6273C80.7516 30.3587 76.7286 25.7453 73.1898 21.4883C71.3232 19.2599 69.4008 17.0585 67.5 14.8481C65.2021 12.2006 62.465 9.96891 59.409 8.25114Z" fill="white"/>
<path d="M67.23 65.52C67.6774 65.52 68.04 65.1574 68.04 64.71C68.04 64.2627 67.6774 63.9 67.23 63.9C66.7827 63.9 66.42 64.2627 66.42 64.71C66.42 65.1574 66.7827 65.52 67.23 65.52Z" stroke="#263238" stroke-linejoin="round"/>
<path d="M77.76 73.62C78.2074 73.62 78.57 73.2574 78.57 72.81C78.57 72.3626 78.2074 72 77.76 72C77.3127 72 76.95 72.3626 76.95 72.81C76.95 73.2574 77.3127 73.62 77.76 73.62Z" stroke="#263238" stroke-linejoin="round"/>
<path d="M63.36 73.08C63.8074 73.08 64.17 72.7173 64.17 72.27C64.17 71.8226 63.8074 71.46 63.36 71.46C62.9127 71.46 62.55 71.8226 62.55 72.27C62.55 72.7173 62.9127 73.08 63.36 73.08Z" stroke="#263238" stroke-miterlimit="10"/>
<path d="M68.13 72.54C68.8756 72.54 69.48 71.9356 69.48 71.19C69.48 70.4444 68.8756 69.84 68.13 69.84C67.3844 69.84 66.78 70.4444 66.78 71.19C66.78 71.9356 67.3844 72.54 68.13 72.54Z" stroke="#263238" stroke-linejoin="round"/>
<path d="M66.51 78.03C66.9574 78.03 67.32 77.6674 67.32 77.22C67.32 76.7727 66.9574 76.41 66.51 76.41C66.0627 76.41 65.7 76.7727 65.7 77.22C65.7 77.6674 66.0627 78.03 66.51 78.03Z" stroke="#263238" stroke-linejoin="round"/>
<path d="M83.61 79.47C84.0574 79.47 84.42 79.1073 84.42 78.66C84.42 78.2126 84.0574 77.85 83.61 77.85C83.1627 77.85 82.8 78.2126 82.8 78.66C82.8 79.1073 83.1627 79.47 83.61 79.47Z" stroke="#263238" stroke-linejoin="round"/>
<path d="M84.42 65.7C84.8674 65.7 85.23 65.3373 85.23 64.89C85.23 64.4426 84.8674 64.08 84.42 64.08C83.9726 64.08 83.61 64.4426 83.61 64.89C83.61 65.3373 83.9726 65.7 84.42 65.7Z" stroke="#263238" stroke-linejoin="round"/>
<path d="M77.85 63.63C78.2974 63.63 78.66 63.2674 78.66 62.82C78.66 62.3727 78.2974 62.01 77.85 62.01C77.4027 62.01 77.04 62.3727 77.04 62.82C77.04 63.2674 77.4027 63.63 77.85 63.63Z" stroke="#263238" stroke-linejoin="round"/>
<path d="M80.55 67.95C81.2956 67.95 81.9 67.3456 81.9 66.6C81.9 65.8544 81.2956 65.25 80.55 65.25C79.8044 65.25 79.2 65.8544 79.2 66.6C79.2 67.3456 79.8044 67.95 80.55 67.95Z" stroke="#263238" stroke-linejoin="round"/>
<path d="M67.86 65.0701L77.13 72.2701" stroke="#263238" stroke-linejoin="round"/>
<path d="M78.12 72.18L80.1 67.95" stroke="#263238" stroke-linejoin="round"/>
<path d="M81 67.95L83.61 77.85L84.42 65.7" stroke="#263238" stroke-linejoin="round"/>
<path d="M76.95 73.26L67.32 77.22" stroke="#263238" stroke-linejoin="round"/>
<path d="M69.48 71.19L79.29 67.05" stroke="#263238" stroke-linejoin="round"/>
<path d="M67.77 69.84L67.23 65.52" stroke="#263238" stroke-linejoin="round"/>
<path d="M81.9 66.15L83.7 65.34" stroke="#263238" stroke-linejoin="round"/>
<path d="M63.81 72.99L65.97 76.5" stroke="#263238" stroke-linejoin="round"/>
<path d="M63.36 71.46L66.69 65.34" stroke="#263238" stroke-linejoin="round"/>
<path d="M69.12 72.1801L82.8 78.6601" stroke="#263238" stroke-linejoin="round"/>
<path d="M77.76 73.62L83.16 78.12" stroke="#263238" stroke-linejoin="round"/>
<path d="M68.04 64.71L79.2 66.6" stroke="#263238" stroke-linejoin="round"/>
<path d="M83.61 64.89L67.86 64.35" stroke="#263238" stroke-linejoin="round"/>
<path d="M83.7 64.53L78.66 63.27" stroke="#263238" stroke-linejoin="round"/>
<path d="M77.04 63.1801L67.05 76.5901" stroke="#263238" stroke-linejoin="round"/>
<path d="M66.78 71.64L64.17 72.27" stroke="#263238" stroke-linejoin="round"/>
<path d="M72.5076 65.3904C72.5076 65.3152 72.4853 65.2417 72.4435 65.1792C72.4017 65.1167 72.3422 65.0681 72.2727 65.0394C72.2032 65.0107 72.1268 65.0032 72.053 65.0181C71.9793 65.0329 71.9116 65.0692 71.8586 65.1225C71.8056 65.1758 71.7695 65.2436 71.7551 65.3174C71.7406 65.3912 71.7484 65.4676 71.7774 65.537C71.8065 65.6064 71.8554 65.6656 71.9181 65.7071C71.9808 65.7486 72.0544 65.7706 72.1296 65.7702C72.1794 65.7702 72.2287 65.7604 72.2747 65.7413C72.3206 65.7222 72.3624 65.6942 72.3975 65.6589C72.4326 65.6236 72.4605 65.5817 72.4793 65.5356C72.4982 65.4896 72.5078 65.4402 72.5076 65.3904Z" fill="#263238"/>
<path d="M68.7258 74.808C68.7262 74.7328 68.7042 74.6592 68.6627 74.5965C68.6212 74.5338 68.562 74.4848 68.4926 74.4558C68.4232 74.4268 68.3468 74.419 68.273 74.4335C68.1992 74.4479 68.1314 74.484 68.0781 74.537C68.0248 74.59 67.9884 74.6577 67.9736 74.7314C67.9588 74.8052 67.9663 74.8816 67.9949 74.9511C68.0236 75.0206 68.0723 75.08 68.1348 75.1219C68.1973 75.1637 68.2708 75.186 68.346 75.186C68.3958 75.1862 68.4451 75.1766 68.4912 75.1577C68.5373 75.1388 68.5792 75.111 68.6145 75.0759C68.6497 75.0408 68.6778 74.999 68.6969 74.9531C68.716 74.9071 68.7258 74.8578 68.7258 74.808Z" fill="#263238"/>
<path d="M79.3386 70.3693C79.339 70.294 79.3169 70.2203 79.2753 70.1576C79.2338 70.0949 79.1745 70.0459 79.105 70.0169C79.0355 69.988 78.959 69.9803 78.8852 69.9949C78.8113 70.0095 78.7435 70.0457 78.6903 70.0989C78.637 70.1521 78.6008 70.22 78.5862 70.2938C78.5716 70.3677 78.5793 70.4442 78.6083 70.5136C78.6372 70.5831 78.6862 70.6424 78.7489 70.684C78.8117 70.7256 78.8853 70.7476 78.9606 70.7473C79.0609 70.7473 79.157 70.7074 79.2279 70.6366C79.2988 70.5657 79.3386 70.4695 79.3386 70.3693Z" fill="#263238"/>
<path d="M79.2396 76.7628C79.24 76.6876 79.218 76.614 79.1765 76.5513C79.135 76.4886 79.0758 76.4397 79.0064 76.4107C78.937 76.3816 78.8606 76.3739 78.7868 76.3883C78.713 76.4028 78.6452 76.4388 78.5919 76.4918C78.5386 76.5449 78.5022 76.6125 78.4874 76.6863C78.4726 76.76 78.48 76.8364 78.5087 76.9059C78.5374 76.9755 78.5861 77.0349 78.6486 77.0767C78.7111 77.1185 78.7846 77.1408 78.8598 77.1408C78.9601 77.1404 79.0561 77.1004 79.1272 77.0297C79.1983 76.959 79.2387 76.8631 79.2396 76.7628Z" fill="#263238"/>
<path d="M65.7 67.9626C65.7 67.8874 65.6777 67.8139 65.6359 67.7514C65.5941 67.6889 65.5346 67.6402 65.4651 67.6115C65.3956 67.5828 65.3192 67.5754 65.2454 67.5902C65.1717 67.605 65.1041 67.6413 65.051 67.6946C64.998 67.7479 64.9619 67.8158 64.9475 67.8896C64.933 67.9634 64.9408 68.0398 64.9698 68.1092C64.9989 68.1785 65.0478 68.2377 65.1105 68.2792C65.1732 68.3207 65.2468 68.3427 65.322 68.3424C65.3718 68.3424 65.4211 68.3325 65.4671 68.3134C65.5131 68.2943 65.5548 68.2663 65.5899 68.231C65.6251 68.1957 65.6529 68.1538 65.6717 68.1078C65.6906 68.0617 65.7002 68.0124 65.7 67.9626Z" fill="#263238"/>
<path d="M84.2274 67.7322C84.4362 67.7322 84.6054 67.563 84.6054 67.3542C84.6054 67.1454 84.4362 66.9762 84.2274 66.9762C84.0186 66.9762 83.8494 67.1454 83.8494 67.3542C83.8494 67.563 84.0186 67.7322 84.2274 67.7322Z" fill="#263238"/>
<path d="M70.524 52.5097V43.2811C70.5238 43.22 70.5356 43.1595 70.5589 43.1031C70.5821 43.0466 70.6163 42.9953 70.6595 42.9521C70.7027 42.909 70.7539 42.8748 70.8104 42.8515C70.8669 42.8283 70.9273 42.8164 70.9884 42.8167H80.6778C80.7389 42.8164 80.7995 42.8283 80.8561 42.8515C80.9126 42.8747 80.964 42.9089 81.0073 42.952C81.0507 42.9952 81.085 43.0465 81.1085 43.1029C81.1319 43.1594 81.144 43.2199 81.144 43.2811V43.6411" stroke="#263238" stroke-miterlimit="10"/>
<path d="M71.3448 53.6166H70.9848C70.9237 53.6166 70.8631 53.6045 70.8067 53.5811C70.7502 53.5576 70.6989 53.5233 70.6558 53.4799C70.6126 53.4366 70.5785 53.3852 70.5552 53.3287C70.532 53.2721 70.5202 53.2115 70.5204 53.1504" stroke="#263238" stroke-miterlimit="10"/>
<path d="M81.144 44.2638V53.1504C81.144 53.274 81.0949 53.3926 81.0075 53.48C80.92 53.5675 80.8014 53.6166 80.6778 53.6166H72.0108" stroke="#263238" stroke-miterlimit="10"/>
<path d="M73.5318 46.8954V45.8766H78.1344V50.5566H76.7124" stroke="#263238" stroke-miterlimit="10"/>
<path d="M73.5318 48.2292V47.5272" stroke="#263238" stroke-miterlimit="10"/>
<path d="M76.1508 50.5567H73.5318V48.8611" stroke="#263238" stroke-miterlimit="10"/>
<path d="M72.7038 42.8994V39.978" stroke="#263238" stroke-miterlimit="10"/>
<path d="M74.79 42.8994V39.978" stroke="#263238" stroke-miterlimit="10"/>
<path d="M76.8762 42.8994V39.978" stroke="#263238" stroke-miterlimit="10"/>
<path d="M78.9624 42.8994V39.978" stroke="#263238" stroke-miterlimit="10"/>
<path d="M72.7038 56.565V53.6454" stroke="#263238" stroke-miterlimit="10"/>
<path d="M74.79 56.565V53.6454" stroke="#263238" stroke-miterlimit="10"/>
<path d="M76.8762 56.565V53.6454" stroke="#263238" stroke-miterlimit="10"/>
<path d="M78.9624 56.565V53.6454" stroke="#263238" stroke-miterlimit="10"/>
<path d="M81.2052 45.1422H84.1266" stroke="#263238" stroke-miterlimit="10"/>
<path d="M81.2052 47.2284H84.1266" stroke="#263238" stroke-miterlimit="10"/>
<path d="M81.2052 49.3146H84.1266" stroke="#263238" stroke-miterlimit="10"/>
<path d="M81.2052 51.4009H84.1266" stroke="#263238" stroke-miterlimit="10"/>
<path d="M67.5396 45.1422H70.461" stroke="#263238" stroke-miterlimit="10"/>
<path d="M67.5396 47.2284H70.461" stroke="#263238" stroke-miterlimit="10"/>
<path d="M67.5396 49.3146H70.461" stroke="#263238" stroke-miterlimit="10"/>
<path d="M67.5396 51.4009H70.461" stroke="#263238" stroke-miterlimit="10"/>
<path d="M84.5064 49.32C84.5064 49.2449 84.4841 49.1714 84.4424 49.109C84.4007 49.0465 84.3413 48.9978 84.2719 48.9691C84.2025 48.9404 84.1262 48.9328 84.0525 48.9475C83.9788 48.9621 83.9112 48.9983 83.858 49.0514C83.8049 49.1045 83.7688 49.1722 83.7541 49.2459C83.7394 49.3196 83.747 49.3959 83.7757 49.4653C83.8045 49.5347 83.8531 49.594 83.9156 49.6358C83.9781 49.6775 84.0515 49.6998 84.1266 49.6998C84.2273 49.6998 84.3239 49.6598 84.3952 49.5885C84.4664 49.5173 84.5064 49.4207 84.5064 49.32Z" fill="#263238"/>
<path d="M71.9046 42.8995C71.9046 42.8247 71.8824 42.7516 71.8409 42.6895C71.7994 42.6273 71.7403 42.5789 71.6713 42.5503C71.6022 42.5216 71.5262 42.5142 71.4529 42.5287C71.3795 42.5433 71.3122 42.5793 71.2593 42.6322C71.2065 42.6851 71.1705 42.7524 71.1559 42.8257C71.1413 42.8991 71.1488 42.9751 71.1774 43.0441C71.206 43.1132 71.2544 43.1722 71.3166 43.2138C71.3788 43.2553 71.4518 43.2775 71.5266 43.2775C71.6269 43.2775 71.723 43.2377 71.7939 43.1668C71.8648 43.0959 71.9046 42.9997 71.9046 42.8995Z" fill="#263238"/>
<path d="M69.2892 51.3162C69.2892 51.2415 69.267 51.1684 69.2255 51.1062C69.184 51.0441 69.1249 50.9956 69.0559 50.967C68.9868 50.9384 68.9108 50.9309 68.8375 50.9455C68.7641 50.9601 68.6968 50.9961 68.6439 51.0489C68.5911 51.1018 68.5551 51.1692 68.5405 51.2425C68.5259 51.3158 68.5334 51.3918 68.562 51.4609C68.5906 51.53 68.639 51.589 68.7012 51.6305C68.7634 51.6721 68.8364 51.6942 68.9112 51.6942C68.9608 51.6942 69.01 51.6845 69.0559 51.6655C69.1017 51.6465 69.1434 51.6186 69.1785 51.5835C69.2136 51.5484 69.2414 51.5067 69.2604 51.4609C69.2794 51.415 69.2892 51.3659 69.2892 51.3162Z" fill="#263238"/>
<path d="M76.8762 41.2992C77.085 41.2992 77.2542 41.13 77.2542 40.9212C77.2542 40.7124 77.085 40.5432 76.8762 40.5432C76.6674 40.5432 76.4982 40.7124 76.4982 40.9212C76.4982 41.13 76.6674 41.2992 76.8762 41.2992Z" fill="#263238"/>
<path d="M76.14 53.6401C76.14 53.5653 76.1178 53.4922 76.0763 53.4301C76.0348 53.3679 75.9757 53.3195 75.9067 53.2909C75.8376 53.2622 75.7616 53.2548 75.6883 53.2693C75.6149 53.2839 75.5476 53.3199 75.4947 53.3728C75.4419 53.4257 75.4059 53.493 75.3913 53.5663C75.3767 53.6397 75.3842 53.7157 75.4128 53.7847C75.4414 53.8538 75.4898 53.9128 75.552 53.9544C75.6142 53.9959 75.6872 54.0181 75.762 54.0181C75.8621 54.0176 75.958 53.9776 76.0288 53.9069C76.0996 53.8361 76.1395 53.7402 76.14 53.6401Z" fill="#263238"/>
<path d="M79.3458 55.6669C79.3462 55.5916 79.3241 55.5179 79.2825 55.4552C79.2409 55.3925 79.1816 55.3435 79.1122 55.3145C79.0427 55.2856 78.9662 55.2779 78.8923 55.2925C78.8185 55.3071 78.7507 55.3433 78.6974 55.3965C78.6442 55.4497 78.608 55.5176 78.5934 55.5914C78.5788 55.6653 78.5865 55.7418 78.6155 55.8113C78.6444 55.8807 78.6934 55.94 78.7561 55.9816C78.8189 56.0232 78.8925 56.0452 78.9678 56.0449C79.068 56.0449 79.1642 56.0051 79.2351 55.9342C79.306 55.8633 79.3458 55.7671 79.3458 55.6669Z" fill="#263238"/>
<path d="M62.7948 13.8097C62.7948 13.8097 62.0388 13.9897 61.8048 14.5675C61.5708 15.1453 59.94 19.0549 59.94 19.5211C59.9563 19.8262 60.08 20.1156 60.2892 20.3383L64.1358 21.9115C64.1358 21.9115 64.9512 21.6775 65.592 21.7945C66.2328 21.9115 66.6414 23.0185 67.2822 23.1355C67.923 23.2525 70.605 23.0761 71.8866 22.4929C73.1682 21.9097 73.5768 20.1043 73.5768 18.8803C73.5768 17.6563 73.1682 16.4323 72.819 16.2001L72.2952 15.8509" stroke="#263238" stroke-miterlimit="10"/>
<path d="M71.4204 15.2676C71.4204 15.2676 71.0118 14.9184 72.0612 15.0876C73.1106 15.2568 75.7332 18.7002 76.608 19.8072C77.4828 20.9142 78.3558 20.9736 79.0542 20.2734C79.7526 19.5732 79.2342 18.7002 78.9966 18.234C78.759 17.7678 77.7726 16.6014 77.4234 15.786C77.0742 14.9706 76.0824 12.8718 75.2634 12.348C74.4444 11.8242 73.224 11.7072 71.3592 12.465C69.4944 13.2228 68.6196 13.8636 68.6196 13.8636" stroke="#263238" stroke-miterlimit="10"/>
<path d="M63.495 13.7521L67.167 13.5199" stroke="#263238" stroke-miterlimit="10"/>
<path d="M65.4174 20.7451C66.1176 20.5129 66.0582 20.1619 66.7584 19.2295C67.4586 18.2971 68.274 15.1507 68.3316 14.7421C68.3634 14.4948 68.2989 14.2448 68.1516 14.0437L71.649 15.8023" stroke="#263238" stroke-miterlimit="10"/>
<path d="M61.164 20.34H64.3698C64.9398 19.9248 65.3834 19.3596 65.6514 18.7074C66.0582 17.658 66.8754 15.2694 67.1076 14.7474C67.179 14.613 67.2163 14.4631 67.2163 14.3109C67.2163 14.1587 67.179 14.0088 67.1076 13.8744" stroke="#263238" stroke-miterlimit="10"/>
<path d="M64.719 21.7368C64.719 21.7368 63.0864 20.862 63.8442 20.979C64.602 21.096 66.2922 22.1436 67.5162 22.1436C68.7402 22.1436 69.2064 21.4452 69.7896 20.5128C70.3728 19.5804 71.7696 17.073 71.7696 16.317" stroke="#263238" stroke-miterlimit="10"/>
<path d="M76.9572 22.0266C76.9572 22.0266 77.9472 20.745 78.8796 21.9114C79.812 23.0778 78.5304 24.8832 78.0066 25.407C77.4828 25.9308 76.0266 25.9326 75.7908 25.8156C75.6421 25.738 75.5052 25.6399 75.384 25.524" stroke="#263238" stroke-miterlimit="10"/>
<path d="M77.94 20.7451L80.9712 24.2425C80.9712 24.2425 81.0288 23.3101 81.5544 22.9015C81.7908 22.7054 82.0438 22.5302 82.3104 22.3777L79.5132 19.4635" stroke="#263238" stroke-miterlimit="10"/>
<path d="M82.6686 22.5H83.0754C83.0754 22.5 84.1248 23.7834 84.1248 24.1326C84.1248 24.4818 82.494 26.8128 81.9648 26.8128C81.4356 26.8128 80.6832 26.406 80.6832 26.406C80.6832 26.406 80.9748 25.9974 81.207 25.5888C81.4392 25.1802 81.207 24.5988 81.207 24.5988C81.207 24.5988 82.2564 25.3566 82.0818 26.3466" stroke="#263238" stroke-miterlimit="10"/>
<path d="M65.4858 29.6676C66.5442 29.9016 68.472 29.9358 68.8572 30.1284C69.3234 30.3606 70.371 33.2748 70.371 33.2748" stroke="#263238" stroke-miterlimit="10"/>
<path d="M64.602 22.0861C64.602 22.0861 64.0782 22.4353 64.3698 22.9015C64.6614 23.3677 65.3022 23.6593 65.3022 23.6593C65.3022 23.6593 64.4274 24.5917 64.602 25.0003C64.7031 25.2627 64.7031 25.5533 64.602 25.8157C64.602 25.8157 64.422 26.3395 64.485 26.6311C64.548 26.9227 64.602 27.3889 64.602 27.3889C64.602 27.3889 64.2528 29.0791 64.9512 29.4877" stroke="#263238" stroke-miterlimit="10"/>
<path d="M80.6868 26.3988C80.6868 26.3988 79.5798 27.3888 79.5204 28.6128C79.461 29.8368 79.3404 30.186 79.3404 30.186" stroke="#263238" stroke-miterlimit="10"/>
<path d="M83.6748 20.8314C83.6 21.3181 83.4795 21.7966 83.3148 22.2606" stroke="#263238" stroke-miterlimit="10"/>
<path d="M83.7828 19.0801C83.7936 19.3321 83.7918 19.5769 83.7828 19.8127" stroke="#263238" stroke-miterlimit="10"/>
<path d="M75.033 11.8296C75.033 11.8296 78.588 11.187 81.6768 14.2758C82.8011 15.3797 83.5213 16.8297 83.7216 18.3924" stroke="#263238" stroke-miterlimit="10"/>
<path d="M61.1064 16.5978C61.338 16.5978 61.5258 16.4101 61.5258 16.1784C61.5258 15.9468 61.338 15.759 61.1064 15.759C60.8748 15.759 60.687 15.9468 60.687 16.1784C60.687 16.4101 60.8748 16.5978 61.1064 16.5978Z" fill="#263238"/>
<path d="M69.7014 23.3587C69.933 23.3587 70.1208 23.1709 70.1208 22.9393C70.1208 22.7077 69.933 22.5199 69.7014 22.5199C69.4698 22.5199 69.282 22.7077 69.282 22.9393C69.282 23.1709 69.4698 23.3587 69.7014 23.3587Z" fill="#263238"/>
<path d="M69.021 30.4866C69.2526 30.4866 69.4404 30.2989 69.4404 30.0672C69.4404 29.8356 69.2526 29.6478 69.021 29.6478C68.7894 29.6478 68.6016 29.8356 68.6016 30.0672C68.6016 30.2989 68.7894 30.4866 69.021 30.4866Z" fill="#263238"/>
<path d="M77.0256 19.8127C77.0256 19.7297 77.001 19.6485 76.9548 19.5795C76.9086 19.5105 76.843 19.4568 76.7663 19.4251C76.6895 19.3934 76.6051 19.3852 76.5237 19.4015C76.4423 19.4178 76.3676 19.458 76.309 19.5168C76.2504 19.5756 76.2106 19.6505 76.1946 19.732C76.1787 19.8135 76.1872 19.8979 76.2193 19.9745C76.2513 20.0511 76.3053 20.1164 76.3745 20.1623C76.4437 20.2082 76.525 20.2325 76.608 20.2321C76.663 20.2321 76.7174 20.2212 76.7682 20.2001C76.819 20.179 76.8651 20.1481 76.9039 20.1092C76.9427 20.0702 76.9735 20.0239 76.9943 19.9731C77.0152 19.9222 77.0258 19.8677 77.0256 19.8127Z" fill="#263238"/>
<path d="M76.0446 13.662C76.2762 13.662 76.464 13.4743 76.464 13.2426C76.464 13.011 76.2762 12.8232 76.0446 12.8232C75.813 12.8232 75.6252 13.011 75.6252 13.2426C75.6252 13.4743 75.813 13.662 76.0446 13.662Z" fill="#263238"/>
<path d="M68.832 14.184C69.0636 14.184 69.2514 13.9962 69.2514 13.7646C69.2514 13.533 69.0636 13.3452 68.832 13.3452C68.6004 13.3452 68.4126 13.533 68.4126 13.7646C68.4126 13.9962 68.6004 14.184 68.832 14.184Z" fill="#263238"/>
<path d="M82.8576 22.9393C83.0892 22.9393 83.277 22.7515 83.277 22.5199C83.277 22.2882 83.0892 22.1005 82.8576 22.1005C82.626 22.1005 82.4382 22.2882 82.4382 22.5199C82.4382 22.7515 82.626 22.9393 82.8576 22.9393Z" fill="#263238"/>
<path d="M13.3398 12.7134H12.6018" stroke="#263238" stroke-miterlimit="10"/>
<path d="M10.0332 21.1859H13.3398C13.4855 21.1868 13.6288 21.1491 13.7553 21.0767C13.8817 21.0044 13.9868 20.8998 14.0598 20.7737L16.02 17.3627C16.0925 17.2371 16.1307 17.0946 16.1307 16.9496C16.1307 16.8046 16.0925 16.6621 16.02 16.5365L14.0562 13.1273" stroke="#263238" stroke-miterlimit="10"/>
<path d="M11.9142 12.7134H9.39419C9.24835 12.7129 9.10496 12.7509 8.97853 12.8236C8.8521 12.8963 8.74711 13.0011 8.67419 13.1274L6.71759 16.5366C6.64508 16.6622 6.6069 16.8047 6.6069 16.9497C6.6069 17.0947 6.64508 17.2372 6.71759 17.3628L8.68679 20.7828C8.7598 20.9089 8.86486 21.0134 8.9913 21.0858C9.11775 21.1582 9.26109 21.1959 9.40679 21.195" stroke="#263238" stroke-miterlimit="10"/>
<path d="M15.9948 24.3306L16.56 25.3062C16.6329 25.4324 16.7379 25.5371 16.8644 25.6095C16.9908 25.6819 17.1343 25.7195 17.28 25.7184H21.2184C21.3641 25.7195 21.5075 25.6819 21.634 25.6095C21.7605 25.5371 21.8655 25.4324 21.9384 25.3062L23.9076 21.8862C23.9801 21.7609 24.0183 21.6188 24.0183 21.474C24.0183 21.3293 23.9801 21.1871 23.9076 21.0618L22.7448 19.0476" stroke="#263238" stroke-miterlimit="10"/>
<path d="M15.489 23.4521L15.7788 23.9543" stroke="#263238" stroke-miterlimit="10"/>
<path d="M22.3722 18.4301L21.9276 17.6597C21.8548 17.5333 21.7499 17.4284 21.6234 17.3557C21.4969 17.283 21.3535 17.245 21.2076 17.2457H17.28C17.1341 17.245 16.9907 17.283 16.8642 17.3557C16.7377 17.4284 16.6328 17.5333 16.56 17.6597L14.5908 21.0797C14.5183 21.205 14.4801 21.3472 14.4801 21.4919C14.4801 21.6367 14.5183 21.7789 14.5908 21.9041L15.1722 22.9139" stroke="#263238" stroke-miterlimit="10"/>
<path d="M15.8832 9.64612L14.5908 11.8799C14.5183 12.0055 14.4801 12.148 14.4801 12.293C14.4801 12.438 14.5183 12.5805 14.5908 12.7061L16.56 16.1225C16.6329 16.2487 16.7379 16.3534 16.8644 16.4258C16.9908 16.4982 17.1343 16.5358 17.28 16.5347H21.2184C21.3641 16.5358 21.5075 16.4982 21.634 16.4258C21.7605 16.3534 21.8655 16.2487 21.9384 16.1225L23.9076 12.7115C23.9801 12.5859 24.0183 12.4434 24.0183 12.2984C24.0183 12.1534 23.9801 12.0109 23.9076 11.8853L23.76 11.6567" stroke="#263238" stroke-miterlimit="10"/>
<path d="M16.56 8.47437L16.2504 9.01077" stroke="#263238" stroke-miterlimit="10"/>
<path d="M23.5494 11.2824L21.9294 8.47436C21.8565 8.34814 21.7515 8.24349 21.625 8.17108C21.4985 8.09868 21.3551 8.06109 21.2094 8.06216H17.28C17.2151 8.06183 17.1503 8.06969 17.0874 8.08556" stroke="#263238" stroke-miterlimit="10"/>
<path d="M29.0844 12.6H25.146C25.0003 12.5989 24.8568 12.6365 24.7304 12.7089C24.6039 12.7813 24.4989 12.886 24.426 13.0122L22.4622 16.4178C22.3897 16.5434 22.3515 16.6859 22.3515 16.8309C22.3515 16.9759 22.3897 17.1184 22.4622 17.244L24.4314 20.664C24.5043 20.7902 24.6093 20.8949 24.7358 20.9673C24.8622 21.0397 25.0057 21.0773 25.1514 21.0762H29.0898C29.2355 21.0771 29.3788 21.0394 29.5053 20.967C29.6317 20.8946 29.7368 20.7901 29.8098 20.664L31.7772 17.244C31.8497 17.1184 31.8879 16.9759 31.8879 16.8309C31.8879 16.6859 31.8497 16.5434 31.7772 16.4178L29.8008 13.0068C29.7274 12.8822 29.6226 12.7791 29.4969 12.7077C29.3712 12.6363 29.229 12.5992 29.0844 12.6V12.6Z" stroke="#263238" stroke-miterlimit="10"/>
<path d="M21.1644 26.6399H17.226C17.0803 26.6388 16.9368 26.6764 16.8104 26.7488C16.6839 26.8213 16.5789 26.9259 16.506 27.0521L14.5368 30.4721C14.4643 30.5977 14.4261 30.7402 14.4261 30.8852C14.4261 31.0302 14.4643 31.1727 14.5368 31.2983L16.506 34.7093C16.5789 34.8355 16.6839 34.9402 16.8104 35.0126C16.9368 35.085 17.0803 35.1226 17.226 35.1215H21.1644C21.3101 35.1224 21.4534 35.0847 21.5799 35.0123C21.7063 34.9399 21.8114 34.8354 21.8844 34.7093L23.8518 31.2983C23.9243 31.1727 23.9625 31.0302 23.9625 30.8852C23.9625 30.7402 23.9243 30.5977 23.8518 30.4721L21.8844 27.0521C21.8114 26.926 21.7063 26.8215 21.5799 26.7491C21.4534 26.6767 21.3101 26.639 21.1644 26.6399V26.6399Z" stroke="#263238" stroke-miterlimit="10"/>
<path d="M30.4434 29.0898L31.9464 26.4852C32.0189 26.3599 32.0571 26.2177 32.0571 26.073C32.0571 25.9282 32.0189 25.7861 31.9464 25.6608L29.9772 22.2408C29.9044 22.1144 29.7995 22.0095 29.673 21.9367C29.5465 21.864 29.4031 21.8261 29.2572 21.8268H25.3242C25.1783 21.8261 25.0349 21.864 24.9084 21.9367C24.7819 22.0095 24.677 22.1144 24.6042 22.2408L22.635 25.6608C22.5625 25.7861 22.5243 25.9282 22.5243 26.073C22.5243 26.2177 22.5625 26.3599 22.635 26.4852L24.6042 29.9052C24.677 30.0316 24.7819 30.1365 24.9084 30.2092C25.0349 30.282 25.1783 30.3199 25.3242 30.3192H28.4778" stroke="#263238" stroke-miterlimit="10"/>
<path d="M29.2626 30.3101C29.4085 30.3108 29.5519 30.2729 29.6784 30.2002C29.8049 30.1275 29.9098 30.0225 29.9826 29.8961L30.1014 29.6909" stroke="#263238" stroke-miterlimit="10"/>
<path d="M21.2058 22.7556L21.6864 22.8636L21.798 22.3776L21.3372 22.2732C21.3372 22.2588 21.3372 22.2444 21.3372 22.2318C21.3379 22.0838 21.3078 21.9373 21.249 21.8016L21.6234 21.5028L21.312 21.1122L20.952 21.3984C20.8275 21.2895 20.6797 21.2107 20.52 21.168V20.7H20.0196V21.1464C19.8557 21.1796 19.7013 21.2491 19.5678 21.3498L19.2078 21.0618L18.9 21.4542L19.26 21.7368C19.1851 21.8841 19.1451 22.0467 19.143 22.212L18.6822 22.3182L18.7938 22.8042L19.2474 22.6998C19.3156 22.8462 19.4151 22.9759 19.539 23.0796L19.3284 23.5169L19.7784 23.7348L19.9854 23.3028C20.0702 23.3237 20.1572 23.3346 20.2446 23.3352C20.3147 23.3345 20.3846 23.3272 20.4534 23.3136L20.6694 23.76L21.1194 23.544L20.9088 23.1102C21.032 23.0145 21.1332 22.8936 21.2058 22.7556ZM19.746 22.2318C19.746 22.1349 19.7747 22.0403 19.8285 21.9597C19.8823 21.8792 19.9588 21.8165 20.0482 21.7794C20.1377 21.7424 20.2361 21.7327 20.3311 21.7516C20.4261 21.7704 20.5133 21.8171 20.5818 21.8856C20.6503 21.954 20.6969 22.0413 20.7158 22.1362C20.7347 22.2312 20.725 22.3296 20.6879 22.4191C20.6509 22.5086 20.5881 22.585 20.5076 22.6388C20.4271 22.6926 20.3324 22.7214 20.2356 22.7214C20.1057 22.7214 19.9812 22.6698 19.8894 22.5779C19.7976 22.4861 19.746 22.3616 19.746 22.2318Z" stroke="#263238" stroke-miterlimit="10"/>
<path d="M18.8658 20.7864L19.3446 20.8962L19.4562 20.4102L18.9954 20.304C18.9954 20.2896 18.9954 20.277 18.9954 20.2626C18.9956 20.1148 18.9663 19.9686 18.909 19.8324L19.2816 19.5354L18.9702 19.1448L18.6102 19.4292C18.4846 19.321 18.3364 19.2422 18.1764 19.1988V18.7344H17.6814V19.1808C17.5173 19.2133 17.3627 19.2828 17.2296 19.3842L16.8696 19.0962L16.56 19.4868L16.92 19.7676C16.8452 19.9156 16.8052 20.0787 16.803 20.2446L16.3422 20.349L16.4538 20.835L16.9074 20.7324C16.9761 20.878 17.0756 21.007 17.199 21.1104L16.9884 21.5496L17.4384 21.7656L17.6454 21.3336C17.7301 21.3554 17.8172 21.3663 17.9046 21.366C17.9747 21.3659 18.0446 21.3593 18.1134 21.3462L18.3294 21.7926L18.7794 21.5766L18.5706 21.141C18.693 21.045 18.7936 20.9241 18.8658 20.7864V20.7864ZM17.4042 20.2626C17.4042 20.1657 17.4329 20.0711 17.4867 19.9906C17.5405 19.9101 17.617 19.8473 17.7064 19.8102C17.7959 19.7732 17.8943 19.7635 17.9893 19.7824C18.0843 19.8013 18.1715 19.8479 18.24 19.9164C18.3085 19.9848 18.3551 20.0721 18.374 20.1671C18.3929 20.262 18.3832 20.3605 18.3461 20.4499C18.3091 20.5394 18.2463 20.6159 18.1658 20.6697C18.0853 20.7235 17.9906 20.7522 17.8938 20.7522C17.7639 20.7522 17.6394 20.7006 17.5476 20.6088C17.4558 20.517 17.4042 20.3924 17.4042 20.2626V20.2626Z" stroke="#263238" stroke-miterlimit="10"/>
<path d="M28.0928 17.1102C28.4352 16.289 28.0469 15.3457 27.2257 15.0034C26.4045 14.661 25.4612 15.0492 25.1189 15.8705C24.7765 16.6917 25.1647 17.635 25.986 17.9773C26.8072 18.3197 27.7505 17.9314 28.0928 17.1102Z" stroke="#263238" stroke-miterlimit="10"/>
<path d="M26.6058 17.8595C27.3613 17.8595 27.9738 17.2471 27.9738 16.4915C27.9738 15.736 27.3613 15.1235 26.6058 15.1235C25.8503 15.1235 25.2378 15.736 25.2378 16.4915C25.2378 17.2471 25.8503 17.8595 26.6058 17.8595Z" stroke="#263238" stroke-miterlimit="10"/>
<path d="M28.4184 18.1943L29.4858 19.0799" stroke="#263238" stroke-width="3" stroke-miterlimit="10"/>
<path d="M27.7776 17.6633L28.4184 18.1943" stroke="#263238" stroke-width="2" stroke-miterlimit="10"/>
<path d="M8.92259 15.8723H13.7106" stroke="#263238" stroke-miterlimit="10"/>
<path d="M9.9468 15.6078H9.4518V16.1028H9.9468V15.6078Z" fill="#263238"/>
<path d="M8.92259 16.9938H13.7106" stroke="#263238" stroke-miterlimit="10"/>
<path d="M12.5046 16.731H12.0096V17.226H12.5046V16.731Z" fill="#263238"/>
<path d="M8.92259 18.1169H13.7106" stroke="#263238" stroke-miterlimit="10"/>
<path d="M11.3652 17.8523H10.8702V18.3473H11.3652V17.8523Z" fill="#263238"/>
<path d="M27.18 30.6593C27.3888 30.6593 27.558 30.4901 27.558 30.2813C27.558 30.0726 27.3888 29.9033 27.18 29.9033C26.9712 29.9033 26.802 30.0726 26.802 30.2813C26.802 30.4901 26.9712 30.6593 27.18 30.6593Z" fill="#263238"/>
<path d="M30.1284 22.8905C30.3372 22.8905 30.5064 22.7213 30.5064 22.5125C30.5064 22.3038 30.3372 22.1345 30.1284 22.1345C29.9196 22.1345 29.7504 22.3038 29.7504 22.5125C29.7504 22.7213 29.9196 22.8905 30.1284 22.8905Z" fill="#263238"/>
<path d="M19.0368 17.3285C19.0371 17.2532 19.0151 17.1795 18.9735 17.1168C18.9319 17.0541 18.8726 17.0051 18.8032 16.9762C18.7337 16.9472 18.6572 16.9395 18.5833 16.9541C18.5095 16.9687 18.4417 17.0049 18.3884 17.0581C18.3352 17.1114 18.299 17.1792 18.2844 17.253C18.2698 17.3269 18.2775 17.4034 18.3064 17.4729C18.3354 17.5423 18.3844 17.6016 18.4471 17.6432C18.5098 17.6848 18.5835 17.7069 18.6588 17.7065C18.759 17.7065 18.8552 17.6667 18.9261 17.5958C18.997 17.5249 19.0368 17.4287 19.0368 17.3285Z" fill="#263238"/>
<path d="M23.0742 9.84956C23.0742 9.7748 23.052 9.70171 23.0105 9.63955C22.969 9.57739 22.9099 9.52894 22.8408 9.50033C22.7718 9.47172 22.6958 9.46424 22.6224 9.47882C22.5491 9.49341 22.4818 9.52941 22.4289 9.58227C22.376 9.63514 22.34 9.70249 22.3255 9.77581C22.3109 9.84914 22.3184 9.92514 22.347 9.99421C22.3756 10.0633 22.424 10.1223 22.4862 10.1639C22.5483 10.2054 22.6214 10.2276 22.6962 10.2276C22.7963 10.2271 22.8922 10.1871 22.963 10.1163C23.0337 10.0455 23.0737 9.94966 23.0742 9.84956Z" fill="#263238"/>
<path d="M8.53019 19.8971C8.53055 19.8218 8.50853 19.7482 8.46694 19.6854C8.42534 19.6227 8.36604 19.5737 8.29657 19.5448C8.2271 19.5158 8.15059 19.5081 8.07674 19.5227C8.0029 19.5373 7.93506 19.5735 7.88184 19.6267C7.82862 19.68 7.79241 19.7478 7.77781 19.8216C7.76321 19.8955 7.77089 19.972 7.79985 20.0415C7.82882 20.1109 7.87778 20.1702 7.94051 20.2118C8.00325 20.2534 8.07693 20.2755 8.1522 20.2751C8.25245 20.2751 8.34859 20.2353 8.41948 20.1644C8.49037 20.0935 8.53019 19.9974 8.53019 19.8971Z" fill="#263238"/>
<path d="M20.2752 25.6788C20.2752 25.604 20.253 25.5309 20.2115 25.4688C20.17 25.4066 20.1109 25.3582 20.0418 25.3296C19.9728 25.3009 19.8968 25.2935 19.8235 25.308C19.7501 25.3226 19.6828 25.3586 19.6299 25.4115C19.577 25.4644 19.541 25.5317 19.5265 25.605C19.5119 25.6784 19.5194 25.7544 19.548 25.8234C19.5766 25.8925 19.625 25.9515 19.6872 25.9931C19.7494 26.0346 19.8224 26.0568 19.8972 26.0568C19.9973 26.0563 20.0932 26.0163 20.164 25.9455C20.2347 25.8748 20.2747 25.7789 20.2752 25.6788Z" fill="#263238"/>
<path d="M15.354 31.9698C15.354 31.895 15.3318 31.822 15.2903 31.7598C15.2488 31.6976 15.1897 31.6492 15.1206 31.6206C15.0516 31.592 14.9756 31.5845 14.9022 31.5991C14.8289 31.6136 14.7616 31.6496 14.7087 31.7025C14.6558 31.7554 14.6198 31.8227 14.6053 31.8961C14.5907 31.9694 14.5982 32.0454 14.6268 32.1145C14.6554 32.1835 14.7038 32.2426 14.766 32.2841C14.8281 32.3256 14.9012 32.3478 14.976 32.3478C15.0762 32.3478 15.1724 32.308 15.2433 32.2371C15.3142 32.1662 15.354 32.07 15.354 31.9698Z" fill="#263238"/>
<path d="M23.013 29.403C23.2218 29.403 23.391 29.2337 23.391 29.025C23.391 28.8162 23.2218 28.647 23.013 28.647C22.8042 28.647 22.635 28.8162 22.635 29.025C22.635 29.2337 22.8042 29.403 23.013 29.403Z" fill="#263238"/>
<path d="M30.6792 14.9994C30.888 14.9994 31.0572 14.8302 31.0572 14.6214C31.0572 14.4126 30.888 14.2434 30.6792 14.2434C30.4704 14.2434 30.3012 14.4126 30.3012 14.6214C30.3012 14.8302 30.4704 14.9994 30.6792 14.9994Z" fill="#263238"/>
<path d="M26.0118 21.0438C26.0125 20.9685 25.9908 20.8948 25.9495 20.8318C25.9082 20.7689 25.8492 20.7197 25.7799 20.6904C25.7105 20.6611 25.634 20.653 25.5601 20.6673C25.4862 20.6815 25.4182 20.7174 25.3647 20.7704C25.3113 20.8233 25.2747 20.891 25.2598 20.9648C25.2448 21.0385 25.2521 21.1151 25.2808 21.1847C25.3094 21.2543 25.3581 21.3138 25.4206 21.3557C25.4832 21.3976 25.5567 21.42 25.632 21.42C25.6816 21.4202 25.7308 21.4107 25.7768 21.3919C25.8227 21.3731 25.8645 21.3455 25.8998 21.3106C25.9351 21.2756 25.9631 21.2341 25.9823 21.1883C26.0015 21.1425 26.0116 21.0934 26.0118 21.0438Z" fill="#263238"/>
<path d="M15.642 13.9319C15.642 13.8567 15.6197 13.7832 15.5779 13.7207C15.5361 13.6582 15.4766 13.6096 15.4071 13.5809C15.3376 13.5522 15.2612 13.5448 15.1874 13.5596C15.1137 13.5744 15.046 13.6107 14.993 13.664C14.94 13.7173 14.9039 13.7851 14.8895 13.8589C14.875 13.9327 14.8828 14.0091 14.9118 14.0785C14.9409 14.1479 14.9898 14.2071 15.0525 14.2486C15.1152 14.2901 15.1888 14.3121 15.264 14.3117C15.3138 14.3117 15.3631 14.3019 15.4091 14.2828C15.4551 14.2637 15.4968 14.2357 15.5319 14.2004C15.567 14.1651 15.5949 14.1232 15.6137 14.0771C15.6326 14.0311 15.6422 13.9817 15.642 13.9319Z" fill="#263238"/>
<path d="M5.6034 73.8631V63.9451C5.60316 63.8345 5.62473 63.725 5.66687 63.6228C5.709 63.5206 5.77088 63.4277 5.84896 63.3495C5.92704 63.2713 6.01979 63.2092 6.1219 63.1668C6.224 63.1245 6.33345 63.1027 6.444 63.1027H21.7062C21.9296 63.1027 22.1439 63.1914 22.3019 63.3494C22.4598 63.5074 22.5486 63.7216 22.5486 63.9451V73.9063" stroke="#263238" stroke-miterlimit="10"/>
<path d="M11.9484 74.9989H11.1528" stroke="#263238" stroke-miterlimit="10"/>
<path d="M10.1484 74.9988H4.914C4.81253 74.9993 4.71196 74.9797 4.61807 74.9412C4.52419 74.9027 4.43884 74.846 4.36692 74.7744C4.295 74.7029 4.23793 74.6178 4.19898 74.5241C4.16004 74.4304 4.14 74.3299 4.14 74.2284V73.8684H24.0066V74.2284C24.0066 74.4324 23.9257 74.6281 23.7816 74.7725C23.6375 74.917 23.442 74.9983 23.238 74.9988H12.7026" stroke="#263238" stroke-miterlimit="10"/>
<path d="M12.87 63.7273H13.707" stroke="#263238" stroke-miterlimit="10"/>
<path d="M14.3352 63.7273H22.0014V73.7389H6.16859V63.7273H11.7396" stroke="#263238" stroke-miterlimit="10"/>
<path d="M8.9154 63.045C8.91576 62.9698 8.89374 62.8961 8.85215 62.8334C8.81055 62.7706 8.75125 62.7217 8.68178 62.6927C8.61231 62.6637 8.53579 62.6561 8.46195 62.6707C8.38811 62.6853 8.32027 62.7215 8.26705 62.7747C8.21382 62.8279 8.17762 62.8958 8.16302 62.9696C8.14842 63.0434 8.15609 63.12 8.18506 63.1894C8.21403 63.2589 8.26299 63.3182 8.32572 63.3598C8.38846 63.4014 8.46213 63.4234 8.5374 63.4231C8.63751 63.4226 8.73338 63.3826 8.80417 63.3118C8.87495 63.241 8.91493 63.1452 8.9154 63.045Z" fill="#263238"/>
<path d="M23.868 73.8919C23.868 73.8167 23.8457 73.7432 23.8039 73.6807C23.7621 73.6182 23.7026 73.5695 23.6331 73.5408C23.5636 73.5121 23.4872 73.5047 23.4134 73.5195C23.3397 73.5343 23.272 73.5707 23.219 73.624C23.166 73.6773 23.1299 73.7451 23.1155 73.8189C23.101 73.8927 23.1088 73.9691 23.1378 74.0385C23.1669 74.1078 23.2158 74.167 23.2785 74.2086C23.3412 74.2501 23.4148 74.272 23.49 74.2717C23.5398 74.2717 23.5891 74.2618 23.6351 74.2427C23.681 74.2236 23.7228 74.1956 23.7579 74.1603C23.793 74.125 23.8209 74.0832 23.8397 74.0371C23.8586 73.991 23.8682 73.9417 23.868 73.8919Z" fill="#263238"/>
<path d="M21.0816 63.7704C21.082 63.6952 21.06 63.6216 21.0185 63.5589C20.977 63.4962 20.9178 63.4472 20.8484 63.4182C20.779 63.3892 20.7026 63.3814 20.6288 63.3959C20.555 63.4103 20.4872 63.4464 20.4339 63.4994C20.3806 63.5524 20.3442 63.6201 20.3294 63.6938C20.3146 63.7676 20.3221 63.844 20.3507 63.9135C20.3794 63.983 20.4281 64.0424 20.4906 64.0843C20.5531 64.1261 20.6266 64.1484 20.7018 64.1484C20.8022 64.1484 20.8986 64.1086 20.9697 64.0378C21.0409 63.967 21.0811 63.8708 21.0816 63.7704Z" fill="#263238"/>
<path d="M7.37999 74.9521C7.37999 74.8769 7.35772 74.8035 7.31598 74.7411C7.27425 74.6786 7.21493 74.6299 7.14554 74.6012C7.07614 74.5724 6.99977 74.5649 6.9261 74.5796C6.85242 74.5942 6.78475 74.6304 6.73163 74.6835C6.67852 74.7366 6.64234 74.8043 6.62769 74.878C6.61304 74.9516 6.62056 75.028 6.6493 75.0974C6.67805 75.1668 6.72673 75.2261 6.78919 75.2679C6.85164 75.3096 6.92507 75.3319 7.00019 75.3319C7.05013 75.3321 7.09963 75.3224 7.14582 75.3034C7.192 75.2844 7.23397 75.2565 7.26928 75.2212C7.3046 75.1858 7.33256 75.1439 7.35157 75.0977C7.37057 75.0515 7.38023 75.002 7.37999 74.9521Z" fill="#263238"/>
<path d="M18.6228 56.8386C18.6228 56.9685 18.5712 57.093 18.4794 57.1848C18.3876 57.2766 18.263 57.3282 18.1332 57.3282H9.8838C9.75395 57.3282 9.62941 57.2766 9.5376 57.1848C9.44578 57.093 9.3942 56.9685 9.3942 56.8386V41.4576C9.3942 41.3278 9.44578 41.2032 9.5376 41.1114C9.62941 41.0196 9.75395 40.968 9.8838 40.968H18.1332C18.263 40.968 18.3876 41.0196 18.4794 41.1114C18.5712 41.2032 18.6228 41.3278 18.6228 41.4576V55.3338" stroke="#263238" stroke-miterlimit="10"/>
<path d="M16.2396 42.453H18.072V55.8432H9.94319V53.8236" stroke="#263238" stroke-miterlimit="10"/>
<path d="M14.5404 42.453H15.4836" stroke="#263238" stroke-miterlimit="10"/>
<path d="M9.94319 52.8804V42.453H13.7844" stroke="#263238" stroke-miterlimit="10"/>
<path d="M14.2956 56.448C14.2956 56.3882 14.2779 56.3298 14.2446 56.28C14.2114 56.2303 14.1642 56.1915 14.1089 56.1687C14.0537 56.1458 13.9929 56.1398 13.9342 56.1514C13.8755 56.1631 13.8217 56.1919 13.7794 56.2342C13.7371 56.2765 13.7083 56.3304 13.6966 56.389C13.6849 56.4477 13.6909 56.5085 13.7138 56.5638C13.7367 56.619 13.7755 56.6662 13.8252 56.6995C13.8749 56.7327 13.9334 56.7504 13.9932 56.7504C14.0734 56.7504 14.1503 56.7186 14.207 56.6619C14.2637 56.6051 14.2956 56.5282 14.2956 56.448V56.448Z" stroke="#263238" stroke-miterlimit="10"/>
<path d="M14.1354 41.04C14.1357 40.9648 14.1137 40.8911 14.0721 40.8284C14.0305 40.7656 13.9712 40.7167 13.9018 40.6877C13.8323 40.6587 13.7558 40.6511 13.6819 40.6657C13.6081 40.6803 13.5403 40.7165 13.487 40.7697C13.4338 40.8229 13.3976 40.8908 13.383 40.9646C13.3684 41.0384 13.3761 41.1149 13.405 41.1844C13.434 41.2539 13.483 41.3132 13.5457 41.3548C13.6084 41.3964 13.6821 41.4184 13.7574 41.418C13.8576 41.418 13.9538 41.3782 14.0247 41.3073C14.0956 41.2364 14.1354 41.1403 14.1354 41.04Z" fill="#263238"/>
<path d="M16.8066 55.7748C16.8069 55.6996 16.785 55.626 16.7435 55.5633C16.7019 55.5006 16.6428 55.4516 16.5734 55.4226C16.504 55.3936 16.4276 55.3858 16.3538 55.4003C16.28 55.4147 16.2122 55.4507 16.1589 55.5038C16.1056 55.5568 16.0692 55.6245 16.0544 55.6982C16.0396 55.772 16.047 55.8484 16.0757 55.9179C16.1044 55.9874 16.1531 56.0468 16.2156 56.0887C16.2781 56.1305 16.3516 56.1528 16.4268 56.1528C16.5272 56.1528 16.6235 56.113 16.6947 56.0422C16.7659 55.9713 16.8061 55.8752 16.8066 55.7748Z" fill="#263238"/>
<path d="M18.6282 48.9816C18.837 48.9816 19.0062 48.8123 19.0062 48.6036C19.0062 48.3948 18.837 48.2256 18.6282 48.2256C18.4194 48.2256 18.2502 48.3948 18.2502 48.6036C18.2502 48.8123 18.4194 48.9816 18.6282 48.9816Z" fill="#263238"/>
<path d="M11.5848 57.2203C11.5848 57.1451 11.5625 57.0716 11.5207 57.0091C11.4788 56.9466 11.4194 56.8979 11.3499 56.8692C11.2804 56.8405 11.204 56.8331 11.1302 56.8479C11.0565 56.8627 10.9888 56.899 10.9358 56.9523C10.8828 57.0056 10.8467 57.0735 10.8323 57.1473C10.8178 57.2211 10.8256 57.2975 10.8546 57.3668C10.8836 57.4362 10.9326 57.4954 10.9953 57.5369C11.058 57.5784 11.1316 57.6004 11.2068 57.6C11.2566 57.6 11.3059 57.5902 11.3519 57.5711C11.3978 57.552 11.4396 57.524 11.4747 57.4887C11.5098 57.4534 11.5376 57.4115 11.5565 57.3655C11.5754 57.3194 11.585 57.27 11.5848 57.2203Z" fill="#263238"/>
<path d="M11.3958 42.3756C11.3962 42.3003 11.3741 42.2267 11.3325 42.1639C11.2909 42.1012 11.2316 42.0522 11.1622 42.0233C11.0927 41.9943 11.0162 41.9866 10.9423 42.0012C10.8685 42.0158 10.8007 42.052 10.7474 42.1053C10.6942 42.1585 10.658 42.2263 10.6434 42.3002C10.6288 42.374 10.6365 42.4505 10.6655 42.52C10.6944 42.5895 10.7434 42.6488 10.8061 42.6904C10.8688 42.732 10.9425 42.754 11.0178 42.7536C11.118 42.7536 11.2142 42.7138 11.2851 42.6429C11.356 42.572 11.3958 42.4759 11.3958 42.3756Z" fill="#263238"/>
<path d="M57.0906 7.03442H46.4598C46.3833 7.03442 46.3076 7.04952 46.2369 7.07885C46.1662 7.10818 46.1021 7.15117 46.0481 7.20535C45.994 7.25953 45.9513 7.32383 45.9221 7.39458C45.893 7.46532 45.8782 7.54112 45.8784 7.61762V13.0572C45.8782 13.1336 45.893 13.2094 45.9222 13.28C45.9513 13.3506 45.9941 13.4148 46.0482 13.4689C46.1022 13.5229 46.1664 13.5657 46.237 13.5949C46.3077 13.624 46.3834 13.6389 46.4598 13.6386H52.2738L51.3738 16.3134L53.6472 13.6386H57.0834C57.2376 13.6386 57.3855 13.5774 57.4945 13.4683C57.6035 13.3593 57.6648 13.2114 57.6648 13.0572V7.61762C57.6648 7.4645 57.6046 7.3175 57.4972 7.20839C57.3898 7.09927 57.2437 7.03679 57.0906 7.03442V7.03442Z" stroke="#263238" stroke-miterlimit="10"/>
<path d="M54.2088 8.91357H56.2986" stroke="#263238" stroke-miterlimit="10"/>
<path d="M52.7904 8.91357H53.649" stroke="#263238" stroke-miterlimit="10"/>
<path d="M49.3218 8.91357H51.9696" stroke="#263238" stroke-miterlimit="10"/>
<path d="M47.6136 8.91357H48.6504" stroke="#263238" stroke-miterlimit="10"/>
<path d="M55.6632 10.2853H56.2986" stroke="#263238" stroke-miterlimit="10"/>
<path d="M50.1048 10.2853H55.215" stroke="#263238" stroke-miterlimit="10"/>
<path d="M47.6136 10.2853H49.5828" stroke="#263238" stroke-miterlimit="10"/>
<path d="M55.5138 11.6569H56.2986" stroke="#263238" stroke-miterlimit="10"/>
<path d="M53.8722 11.6569H54.693" stroke="#263238" stroke-miterlimit="10"/>
<path d="M49.284 11.6569H53.163" stroke="#263238" stroke-miterlimit="10"/>
<path d="M47.6136 11.6569H48.8376" stroke="#263238" stroke-miterlimit="10"/>
<path d="M55.0098 61.3296H34.6212V70.3728H55.0098V61.3296Z" fill="#263238" stroke="#263238" stroke-miterlimit="10"/>
<path d="M46.3788 61.6338H43.2954V62.8128H46.3788V61.6338Z" fill="white" stroke="#263238" stroke-miterlimit="10"/>
<path d="M58.6926 37.6343C58.6926 37.4201 58.2066 37.0943 57.4524 36.6641C56.6982 36.2339 49.581 32.9975 49.581 32.9975L45.3744 32.7797V32.7275L44.8884 32.7545L44.4042 32.7275V32.7797L40.1976 32.9975C40.1976 32.9975 33.0804 36.2375 32.3262 36.6641C31.572 37.0907 31.086 37.4201 31.086 37.6343C31.086 37.8485 34.245 58.1399 34.3026 58.7087C34.3602 59.2775 34.3026 60.9173 34.3026 61.3133C34.3026 61.7093 35.1522 61.9361 35.1522 61.9361H54.6264C54.6264 61.9361 55.476 61.7093 55.476 61.3133C55.476 60.9173 55.4202 59.2757 55.476 58.7087C55.5318 58.1417 58.6926 37.8503 58.6926 37.6343Z" fill="#ECEFF1" stroke="#263238" stroke-miterlimit="10"/>
<path d="M57.4524 36.6641C56.6982 36.2339 49.581 32.9975 49.581 32.9975L45.3744 32.7797V32.7275L44.8884 32.7545L44.4042 32.7275V32.7797L40.1976 32.9975C40.1976 32.9975 33.0804 36.2375 32.3262 36.6641C31.572 37.0907 31.086 37.4201 31.086 37.6343C31.086 37.7081 31.446 40.0445 31.9176 43.1387L32.1426 43.3187C32.1426 43.3187 33.4134 38.9987 37.2258 37.2203C41.0382 35.4419 42.561 34.9325 46.2456 34.9325C49.7016 34.9325 55.9476 39.9581 57.8664 43.0991C58.338 40.0229 58.6926 37.6991 58.6926 37.6289C58.6926 37.4201 58.2066 37.0961 57.4524 36.6641Z" fill="#263238" stroke="#263238" stroke-miterlimit="10"/>
<path d="M42.678 36.9342L44.7282 38.9286L42.0318 57.4236L44.7678 61.6212L47.9196 57.3732L45.8604 38.8746L47.8008 36.8262L45.3204 34.1838L42.678 36.9342Z" fill="#263238" stroke="#263238" stroke-miterlimit="10"/>
<path d="M49.0176 17.3916C48.429 17.2656 47.1186 16.9992 46.0692 16.7886V16.4844L45.3132 16.6356L44.559 16.4844V16.7886C43.5096 16.9992 42.1974 17.2656 41.6106 17.3916C40.5522 17.6184 39.9096 17.6184 39.9096 18.6768C39.9096 18.6768 40.212 26.2728 40.3632 26.991C40.5144 27.7092 40.6278 28.6524 41.1192 29.0682C41.6106 29.484 41.6484 29.6352 41.6484 29.6352V31.9032C41.6484 31.9032 43.4628 35.7948 43.8084 36.0612C44.2308 36.4185 44.7662 36.6145 45.3195 36.6145C45.8728 36.6145 46.4081 36.4185 46.8306 36.0612C47.1708 35.7966 48.9906 31.9032 48.9906 31.9032V29.6352C48.9906 29.6352 49.0284 29.484 49.5198 29.0682C50.0112 28.6524 50.1246 27.7092 50.2758 26.991C50.427 26.2728 50.7294 18.6768 50.7294 18.6768C50.7186 17.6184 50.076 17.6184 49.0176 17.3916Z" fill="white" stroke="#263238" stroke-miterlimit="10"/>
<path d="M42.0642 18.6012C42.0642 18.6012 45.8046 20.1492 46.863 20.1492C47.9214 20.1492 46.7496 19.6596 46.7496 19.6596C46.7496 19.6596 48.2238 20.1492 48.7908 20.1492H49.3578C49.3578 20.1492 49.4334 21.2076 49.509 21.321C49.5846 21.4344 49.5468 21.5856 49.6602 21.6612C49.7541 21.7299 49.8426 21.8057 49.9248 21.888C49.9248 21.888 50.1894 26.0082 50.3406 26.424C50.4918 26.8398 50.76 20.34 50.76 20.34C50.9436 20.1381 51.0796 19.8977 51.1581 19.6363C51.2366 19.375 51.2556 19.0994 51.2136 18.8298C51.1002 17.847 48.9834 16.2216 46.7532 15.4656C45.964 15.1827 45.1133 15.1169 44.2901 15.2753C43.4668 15.4336 42.7012 15.8101 42.0732 16.3656C41.3172 17.046 41.2038 17.3484 41.2038 17.3484C41.2038 17.3484 40.032 17.2728 39.843 17.7264C39.654 18.18 40.4478 26.2296 40.4478 26.2296L40.6368 21.8826C40.6368 21.8826 41.2416 21.24 41.2794 20.8998C41.3172 20.5596 41.6952 19.0494 41.6952 19.0494C41.6952 19.0494 42.2622 19.3896 42.4152 19.2762C42.5682 19.1628 42.0642 18.6012 42.0642 18.6012Z" fill="#263238" stroke="#263238" stroke-miterlimit="10"/>
<path d="M40.212 23.8914C40.212 23.8914 39.9852 23.5512 39.7206 23.778C39.456 24.0048 39.2292 25.5168 39.3804 25.8948C39.5316 26.2728 39.7584 26.8398 39.9474 26.8776C40.0879 26.9082 40.2267 26.9461 40.3632 26.991L40.212 23.8914Z" fill="#263238" stroke="#263238" stroke-miterlimit="10"/>
<path d="M50.4432 23.8914C50.4432 23.8914 50.67 23.5512 50.9346 23.778C51.1992 24.0048 51.426 25.5168 51.2748 25.8948C51.1236 26.2728 50.8968 26.8398 50.7078 26.8776C50.5673 26.9082 50.4285 26.9461 50.292 26.991L50.4432 23.8914Z" fill="#263238" stroke="#263238" stroke-miterlimit="10"/>
<path d="M41.2704 21.6234C41.2704 21.6234 41.6484 20.9034 42.291 20.8296C42.9336 20.7558 44.451 21.132 44.3322 21.6234C44.2134 22.1148 41.2704 21.6234 41.2704 21.6234Z" fill="#263238" stroke="#263238" stroke-miterlimit="10"/>
<path d="M49.3632 21.6234C49.3632 21.6234 48.9852 20.9034 48.3426 20.8296C47.7 20.7558 46.1826 21.132 46.3032 21.6234C46.4238 22.1148 49.3632 21.6234 49.3632 21.6234Z" fill="#263238" stroke="#263238" stroke-miterlimit="10"/>
<path d="M44.3862 23.8914H41.22C41.1148 23.8914 41.0139 23.8497 40.9393 23.7755C40.8648 23.7013 40.8227 23.6006 40.8222 23.4954L40.6692 21.9078C40.6692 21.8026 40.7109 21.7017 40.7851 21.6272C40.8593 21.5526 40.96 21.5105 41.0652 21.51H44.5428C44.5949 21.51 44.6466 21.5203 44.6947 21.5403C44.7429 21.5603 44.7866 21.5897 44.8234 21.6266C44.8602 21.6636 44.8894 21.7075 44.9092 21.7557C44.929 21.804 44.939 21.8557 44.9388 21.9078L44.7858 23.4954C44.7858 23.5477 44.7754 23.5995 44.7553 23.6478C44.7352 23.6961 44.7057 23.7399 44.6685 23.7767C44.6314 23.8135 44.5873 23.8426 44.5388 23.8623C44.4904 23.882 44.4385 23.8919 44.3862 23.8914Z" fill="white" stroke="#263238" stroke-miterlimit="10"/>
<path d="M49.2984 23.8914H46.1286C46.0236 23.8914 45.9228 23.8497 45.8486 23.7754C45.7743 23.7012 45.7326 23.6004 45.7326 23.4954L45.5778 21.9078C45.5778 21.8023 45.6197 21.7011 45.6943 21.6265C45.7689 21.5519 45.8701 21.51 45.9756 21.51H49.4514C49.5569 21.51 49.6581 21.5519 49.7327 21.6265C49.8073 21.7011 49.8492 21.8023 49.8492 21.9078L49.6962 23.4954C49.6957 23.6006 49.6536 23.7013 49.579 23.7755C49.5045 23.8497 49.4036 23.8914 49.2984 23.8914Z" fill="white" stroke="#263238" stroke-miterlimit="10"/>
<path d="M45.9756 21.51H44.5392" stroke="#263238" stroke-miterlimit="10"/>
<path d="M44.9352 21.9078H45.5778" stroke="#263238" stroke-miterlimit="10"/>
<path d="M44.8974 22.2282C44.8974 22.2282 44.37 24.1182 44.37 24.345C44.3687 24.4084 44.3859 24.4707 44.4194 24.5244C44.453 24.5781 44.5015 24.6209 44.559 24.6474C44.559 24.6474 44.739 24.0048 44.9352 23.9274C45.1314 23.85 45.729 23.8896 45.729 23.8896L46.107 24.6456C46.1543 24.6012 46.1922 24.5477 46.2185 24.4883C46.2447 24.429 46.2589 24.3649 46.26 24.3C46.2978 24.0354 45.6174 22.1832 45.6174 22.1832C45.6174 22.1832 45.0864 22.0392 44.8974 22.2282Z" fill="#263238" stroke="#263238" stroke-miterlimit="10"/>
<path d="M43.4376 30.4631C43.5326 30.495 43.6294 30.5214 43.7274 30.5423" stroke="#263238" stroke-miterlimit="10"/>
<path d="M41.6484 29.6351C42.1162 29.8913 42.5968 30.1232 43.0884 30.3299" stroke="#263238" stroke-miterlimit="10"/>
<path d="M48.9798 29.52C48.9798 29.52 48.1104 30.276 47.3166 30.3894" stroke="#263238" stroke-miterlimit="10"/>
<path d="M43.5006 27.0288C44.1602 26.8907 44.8293 26.8022 45.5022 26.7642C46.0458 26.7947 46.5814 26.9095 47.0898 27.1044C47.0898 27.1044 46.296 26.0082 45.9936 25.8948C45.6912 25.7814 44.8596 25.8948 44.5968 25.8948C44.334 25.8948 43.5006 27.0288 43.5006 27.0288Z" fill="#263238" stroke="#263238" stroke-linejoin="round"/>
<path d="M46.4094 27.7775C46.4094 27.7775 45.0108 27.7397 44.5212 27.7775C44.0316 27.8153 43.9542 28.4201 43.9542 28.4201C44.4234 28.281 44.9061 28.1923 45.3942 28.1555C45.8648 28.1804 46.3325 28.2436 46.7928 28.3445C46.7928 28.3445 46.863 28.0421 46.4094 27.7775Z" fill="#263238" stroke="#263238" stroke-linejoin="round"/>
<path d="M31.086 37.6344L25.4772 52.4628L30.492 54.7812L33.2424 49.4982L31.086 37.6344Z" fill="#ECEFF1" stroke="#263238" stroke-miterlimit="10"/>
<path d="M32.3568 51.201C32.1642 50.8626 31.878 50.3892 31.4568 49.761C30.883 48.8975 30.2133 48.1016 29.4606 47.3886C29.862 47.537 30.2425 47.7367 30.5928 47.9826C31.3488 48.4668 31.779 48.7368 31.617 48.0906C31.455 47.4444 29.8926 45.3402 29.7846 44.9622C29.6766 44.5842 30.3246 44.532 30.4848 43.8822C30.6144 43.3656 31.0896 40.0194 31.2732 38.7018L31.0788 37.6218L25.4718 52.4502L26.8704 53.0982H28.6524L31.869 52.1118L32.3568 51.201Z" fill="#263238" stroke="#263238" stroke-miterlimit="10"/>
<path d="M31.5702 50.7384C31.5702 50.7384 29.3058 50.58 28.44 50.58C27.5742 50.58 26.28 50.688 25.7976 51.4962C25.3152 52.3044 25.1514 54.8388 25.7976 56.241C26.4438 57.6432 28.278 58.0212 29.3022 57.9672C30.3264 57.9132 32.2686 56.403 32.5422 55.6488C32.8158 54.8946 32.4882 53.1684 32.2182 52.2504C32.0675 51.7208 31.8498 51.2127 31.5702 50.7384Z" fill="#ECEFF1" stroke="#263238" stroke-miterlimit="10"/>
<path d="M31.5702 50.7384C31.5702 50.7384 29.6838 51.1146 29.6838 52.3008C29.6838 53.487 30.2778 54.6732 30.978 54.8892C31.6782 55.1052 32.6502 54.459 32.6502 54.459C32.6502 54.459 33.2964 54.027 33.0264 52.7328C32.7564 51.4386 32.0562 50.7924 31.5702 50.7384Z" fill="#ECEFF1" stroke="#263238" stroke-miterlimit="10"/>
<path d="M32.8644 48.5262C32.8644 48.5262 33.4584 47.61 33.6204 47.394C33.7824 47.178 34.3746 46.5858 34.7004 46.0458C35.0262 45.5058 35.4006 44.9658 35.5086 45.7236C35.6166 46.4814 34.8624 47.286 34.7004 47.502L33.8922 48.582C33.8922 48.582 32.8104 49.1742 32.8644 48.5262Z" fill="white" stroke="#263238" stroke-miterlimit="10"/>
<path d="M31.356 51.7085C31.356 51.7085 31.7322 49.5485 32.0562 49.1201C32.3802 48.6917 34.6986 47.1797 35.1846 46.9097C35.6706 46.6397 38.7432 46.6937 38.7432 46.6937C38.7432 46.6937 39.5514 46.9097 39.0654 47.2337C38.5794 47.5577 37.395 47.4479 37.395 47.4479L35.5608 48.3659L37.395 47.9879L39.2274 48.2579C39.2274 48.2579 39.6054 48.5801 39.4434 48.8501C39.2814 49.1201 38.1492 49.1201 38.1492 49.1201H37.287L35.2908 50.0399L37.503 49.7159C37.503 49.7159 38.9034 49.4477 38.9574 49.8239C39.0114 50.2001 38.5812 50.5259 38.3112 50.5259C37.9818 50.568 37.6571 50.6403 37.341 50.7419L36 51.2225L38.0484 50.8985C38.0484 50.8985 38.1564 51.2225 37.9944 51.3845C37.8324 51.5465 35.8344 52.3007 35.8344 52.3007C35.8344 52.3007 33.948 53.0567 33.6744 53.2727C33.4008 53.4887 32.9184 54.0809 32.0022 53.9729C31.086 53.8649 31.14 52.0325 31.356 51.7085Z" fill="white" stroke="#263238" stroke-miterlimit="10"/>
<path d="M35.9928 51.2225L35.2908 51.4925" stroke="#263238" stroke-miterlimit="10"/>
<path d="M35.5608 48.366L34.8066 48.6342" stroke="#263238" stroke-miterlimit="10"/>
<path d="M58.6836 37.6344L64.2906 52.4628L59.2758 54.7812L56.5272 49.4982L58.6836 37.6344Z" fill="#ECEFF1" stroke="#263238" stroke-miterlimit="10"/>
<path d="M57.42 51.201C57.6126 50.8626 57.8988 50.3892 58.32 49.761C58.889 48.9002 59.5532 48.1062 60.3 47.394C59.8986 47.5424 59.518 47.7421 59.1678 47.988C58.4118 48.4722 57.9816 48.7422 58.1418 48.096C58.302 47.4498 59.868 45.3456 59.976 44.9676C60.084 44.5896 59.436 44.5374 59.2758 43.8876C59.1462 43.371 58.671 40.0248 58.4874 38.7072L58.6818 37.6272L64.2888 52.4556L62.8902 53.1036H61.1082L57.8916 52.1172L57.42 51.201Z" fill="#263238" stroke="#263238" stroke-miterlimit="10"/>
<path d="M41.5458 30.9492L44.1882 35.532L41.9778 38.7684L39.9294 32.9436L41.5458 30.9492Z" fill="#ECEFF1" stroke="#263238" stroke-miterlimit="10"/>
<path d="M49.041 30.9492L46.3986 35.532L48.609 38.7684L50.6592 32.9436L49.041 30.9492Z" fill="#ECEFF1" stroke="#263238" stroke-miterlimit="10"/>
<path d="M58.1976 50.7384C58.1976 50.7384 60.4638 50.5764 61.326 50.5764C62.1882 50.5764 63.486 50.6844 63.9684 51.4926C64.4508 52.3008 64.6146 54.8352 63.9684 56.2374C63.3222 57.6396 61.488 58.0176 60.4638 57.9636C59.4396 57.9096 57.4974 56.3994 57.2238 55.6452C56.9502 54.891 57.2778 53.1648 57.5478 52.2468C57.6998 51.7186 57.9181 51.2117 58.1976 50.7384Z" fill="#ECEFF1" stroke="#263238" stroke-miterlimit="10"/>
<path d="M58.1976 50.7384C58.1976 50.7384 60.0858 51.1146 60.0858 52.3008C60.0858 53.487 59.4918 54.6732 58.7916 54.8892C58.0914 55.1052 57.1194 54.459 57.1194 54.459C57.1194 54.459 56.4732 54.027 56.7432 52.7328C57.0132 51.4386 57.7134 50.7924 58.1976 50.7384Z" fill="#ECEFF1" stroke="#263238" stroke-miterlimit="10"/>
<path d="M56.9052 48.5262C56.9052 48.5262 56.3112 47.61 56.1492 47.394C55.9872 47.178 55.395 46.5858 55.0692 46.0458C54.7434 45.5058 54.369 44.9658 54.261 45.7236C54.153 46.4814 54.9072 47.286 55.0692 47.502L55.8774 48.582C55.8774 48.582 56.9574 49.1742 56.9052 48.5262Z" fill="white" stroke="#263238" stroke-miterlimit="10"/>
<path d="M58.4136 51.7085C58.4136 51.7085 58.0374 49.5485 57.7134 49.1201C57.3894 48.6917 55.08 47.1797 54.585 46.9097C54.09 46.6397 51.0264 46.6937 51.0264 46.6937C51.0264 46.6937 50.2182 46.9097 50.7042 47.2337C51.1902 47.5577 52.38 47.4479 52.38 47.4479L54.2142 48.3659L52.38 47.9879L50.5476 48.2579C50.5476 48.2579 50.1696 48.5801 50.3316 48.8501C50.4936 49.1201 51.6258 49.1201 51.6258 49.1201H52.488L54.4788 50.0399L52.2666 49.7159C52.2666 49.7159 50.8662 49.4477 50.8122 49.8239C50.7582 50.2001 51.1884 50.5259 51.4584 50.5259C51.7877 50.568 52.1125 50.6403 52.4286 50.7419L53.7768 51.2261L51.7284 50.9021C51.7284 50.9021 51.6204 51.2261 51.7824 51.3881C51.9444 51.5501 53.9424 52.3043 53.9424 52.3043C53.9424 52.3043 55.8288 53.0603 56.1024 53.2763C56.376 53.4923 56.8584 54.0845 57.7746 53.9765C58.6908 53.8685 58.6296 52.0325 58.4136 51.7085Z" fill="white" stroke="#263238" stroke-miterlimit="10"/>
<path d="M53.7768 51.2225L54.4788 51.4925" stroke="#263238" stroke-miterlimit="10"/>
<path d="M54.2088 48.366L54.963 48.6342" stroke="#263238" stroke-miterlimit="10"/>
<path d="M36.3132 69.9786V70.9758H47.1042V71.7012H40.7556V72.2448H49.5522V71.3376H48.1014V70.794H54.0864V69.4332" fill="#263238"/>
<path d="M36.3132 69.9786V70.9758H47.1042V71.7012H40.7556V72.2448H49.5522V71.3376H48.1014V70.794H54.0864V69.4332" stroke="#263238" stroke-miterlimit="10"/>
<path d="M39.6684 71.8829H37.5822V72.3365H39.6684V71.8829Z" fill="#263238" stroke="#263238" stroke-miterlimit="10"/>
<path d="M38.8494 74.1816H37.4238V75.2256H38.8494V74.1816Z" stroke="#263238" stroke-miterlimit="10"/>
<path d="M42.9336 75.321H41.9832V75.8916H42.9336V75.321Z" stroke="#263238" stroke-miterlimit="10"/>
<path d="M47.1114 75.0366H45.5922V75.5118H47.1114V75.0366Z" stroke="#263238" stroke-miterlimit="10"/>
<path d="M44.6436 77.697H43.6932V78.2676H44.6436V77.697Z" stroke="#263238" stroke-miterlimit="10"/>
<path d="M48.3462 76.176H47.682V76.5558H48.3462V76.176Z" stroke="#263238" stroke-miterlimit="10"/>
<path d="M52.0506 73.9926H48.9168V74.943H52.0506V73.9926Z" stroke="#263238" stroke-miterlimit="10"/>
<path d="M41.4126 77.5062H39.8934V78.2658H41.4126V77.5062Z" stroke="#263238" stroke-miterlimit="10"/>
<path d="M45.117 80.1648H44.3574V80.5446H45.117V80.1648Z" stroke="#263238" stroke-miterlimit="10"/>
<path d="M44.2026 73.062H41.1192V73.6056H44.2026V73.062Z" fill="#263238" stroke="#263238" stroke-miterlimit="10"/>
<path d="M48.8268 72.6984H46.9224V72.9702H48.8268V72.6984Z" fill="#263238" stroke="#263238" stroke-miterlimit="10"/>
<path d="M52.092 71.2476H50.1876V71.6112H52.092V71.2476Z" fill="#263238" stroke="#263238" stroke-miterlimit="10"/>
<path d="M36.0414 71.2476H35.1342V72.1548H36.0414V71.2476Z" fill="#263238" stroke="#263238" stroke-miterlimit="10"/>
<path d="M53.9964 71.8829H53.0892V72.7901H53.9964V71.8829Z" fill="#263238" stroke="#263238" stroke-miterlimit="10"/>
<path d="M33.9804 79.7219L35.82 85.3199" stroke="#263238" stroke-miterlimit="10"/>
<path d="M33.4746 78.1812L33.75 79.02" stroke="#263238" stroke-miterlimit="10"/>
<path d="M27.72 60.66L33.1902 77.3154" stroke="#263238" stroke-miterlimit="10"/>
<path d="M38.88 79.2L39.78 83.88" stroke="#263238" stroke-miterlimit="10"/>
<path d="M60.6564 65.601L54.18 85.32" stroke="#263238" stroke-miterlimit="10"/>
<path d="M61.2684 63.7416L60.8778 64.9296" stroke="#263238" stroke-miterlimit="10"/>
<path d="M62.28 60.66L61.7112 62.3916" stroke="#263238" stroke-miterlimit="10"/>
<path d="M51.12 79.2L50.22 83.88" stroke="#263238" stroke-miterlimit="10"/>
</svg>
