<svg width="99" height="79" viewBox="0 0 99 79" fill="none" xmlns="http://www.w3.org/2000/svg">
<g clip-path="url(#clip0_49_31)">
<path d="M65.5 35.25V33.2917C67.7 33.2917 69.48 31.5292 69.48 29.375L69.5 9.79167C69.5 7.6375 67.7 5.875 65.5 5.875H33.5C31.3 5.875 29.5 7.6375 29.5 9.79167V29.375C29.5 31.5292 31.3 33.2917 33.5 33.2917V35.25H25.5V39.1667H73.5V35.25H65.5ZM33.5 9.79167H65.5V29.375H33.5V9.79167Z" fill="black"/>
<path d="M46.1276 24.9787L40.8931 19.8533L46.1276 14.7279L44.5345 13.168L37.7069 19.8533L44.5345 26.5387L46.1276 24.9787ZM52.0448 24.9787L57.2793 19.8533L52.0448 14.7279L53.6379 13.168L60.4655 19.8533L53.6379 26.5387L52.0448 24.9787V24.9787Z" fill="black"/>
</g>
<path d="M14.7759 59L11.9023 48.8182H13.886L15.7205 56.3004H15.815L17.7738 48.8182H19.5785L21.5423 56.3054H21.6317L23.4663 48.8182H25.4499L22.5763 59H20.7567L18.7184 51.8558H18.6388L16.5955 59H14.7759ZM29.2507 59.1491C28.4851 59.1491 27.8239 58.9901 27.267 58.6719C26.7135 58.3504 26.2876 57.8963 25.9893 57.3097C25.6911 56.7197 25.5419 56.0253 25.5419 55.2266C25.5419 54.4411 25.6911 53.7517 25.9893 53.1584C26.291 52.5618 26.7119 52.0978 27.2521 51.7663C27.7924 51.4316 28.4271 51.2642 29.1562 51.2642C29.6269 51.2642 30.071 51.3404 30.4886 51.4929C30.9096 51.642 31.2808 51.8741 31.6023 52.1889C31.9271 52.5038 32.1823 52.9048 32.3679 53.392C32.5535 53.8759 32.6463 54.4527 32.6463 55.1222V55.674H26.3871V54.4609H30.9212C30.9179 54.1162 30.8433 53.8097 30.6974 53.5412C30.5516 53.2694 30.3478 53.0556 30.0859 52.8999C29.8274 52.7441 29.5258 52.6662 29.1811 52.6662C28.8132 52.6662 28.4901 52.7557 28.2116 52.9347C27.9332 53.1103 27.7161 53.3423 27.5604 53.6307C27.4079 53.9157 27.33 54.2289 27.3267 54.5703V55.6293C27.3267 56.0734 27.4079 56.4545 27.5703 56.7727C27.7327 57.0876 27.9598 57.3295 28.2514 57.4986C28.5431 57.6643 28.8845 57.7472 29.2756 57.7472C29.5374 57.7472 29.7744 57.7107 29.9865 57.6378C30.1986 57.5616 30.3826 57.4505 30.5384 57.3047C30.6941 57.1589 30.8118 56.9782 30.8913 56.7628L32.5717 56.9517C32.4657 57.3958 32.2635 57.7836 31.9652 58.1151C31.6702 58.4432 31.2924 58.6984 30.8317 58.8807C30.371 59.0597 29.844 59.1491 29.2507 59.1491ZM34.2484 59V48.8182H36.0481V52.6264H36.1227C36.2155 52.4408 36.3464 52.2436 36.5154 52.0348C36.6845 51.8227 36.9132 51.642 37.2015 51.4929C37.4899 51.3404 37.8578 51.2642 38.3052 51.2642C38.8952 51.2642 39.4271 51.415 39.9011 51.7166C40.3784 52.0149 40.7562 52.4574 41.0346 53.044C41.3163 53.6274 41.4572 54.3433 41.4572 55.1918C41.4572 56.0303 41.3197 56.7429 41.0446 57.3295C40.7695 57.9162 40.3949 58.3636 39.921 58.6719C39.447 58.9801 38.9101 59.1342 38.3102 59.1342C37.8727 59.1342 37.5098 59.0613 37.2214 58.9155C36.9331 58.7696 36.7011 58.594 36.5254 58.3885C36.353 58.1797 36.2188 57.9825 36.1227 57.7969H36.0183V59H34.2484ZM36.0133 55.1818C36.0133 55.6757 36.0829 56.1082 36.2221 56.4794C36.3646 56.8506 36.5685 57.1406 36.8336 57.3494C37.1021 57.5549 37.4269 57.6577 37.8081 57.6577C38.2058 57.6577 38.5389 57.5516 38.8074 57.3395C39.0758 57.1241 39.278 56.8307 39.4139 56.4595C39.5531 56.085 39.6227 55.6591 39.6227 55.1818C39.6227 54.7079 39.5547 54.2869 39.4189 53.919C39.283 53.5511 39.0808 53.2628 38.8123 53.054C38.5439 52.8452 38.2091 52.7408 37.8081 52.7408C37.4236 52.7408 37.0971 52.8419 36.8287 53.044C36.5602 53.2462 36.3564 53.5296 36.2172 53.8942C36.0813 54.2588 36.0133 54.688 36.0133 55.1818ZM49.0227 53.3821L47.3821 53.5611C47.3357 53.3954 47.2545 53.2396 47.1385 53.0938C47.0258 52.9479 46.8733 52.8303 46.6811 52.7408C46.4889 52.6513 46.2536 52.6065 45.9751 52.6065C45.6006 52.6065 45.2857 52.6877 45.0305 52.8501C44.7786 53.0125 44.6544 53.223 44.6577 53.4815C44.6544 53.7036 44.7356 53.8842 44.9013 54.0234C45.0703 54.1626 45.3487 54.277 45.7365 54.3665L47.0391 54.6449C47.7616 54.8007 48.2985 55.0476 48.6499 55.3857C49.0045 55.7237 49.1835 56.1662 49.1868 56.7131C49.1835 57.1937 49.0426 57.6179 48.7642 57.9858C48.4891 58.3504 48.1063 58.6354 47.6158 58.8409C47.1252 59.0464 46.5618 59.1491 45.9254 59.1491C44.9908 59.1491 44.2384 58.9536 43.6683 58.5625C43.0982 58.1681 42.7585 57.6196 42.6491 56.9169L44.4041 56.7479C44.4837 57.0926 44.6527 57.3527 44.9112 57.5284C45.1697 57.7041 45.5062 57.7919 45.9205 57.7919C46.348 57.7919 46.6911 57.7041 46.9496 57.5284C47.2114 57.3527 47.3423 57.1357 47.3423 56.8771C47.3423 56.6584 47.2578 56.4777 47.0888 56.3352C46.9231 56.1927 46.6645 56.0833 46.3132 56.0071L45.0107 55.7337C44.2782 55.5812 43.7363 55.3243 43.3849 54.9631C43.0336 54.5985 42.8596 54.1378 42.8629 53.581C42.8596 53.1103 42.9872 52.7027 43.2457 52.358C43.5076 52.0099 43.8705 51.7415 44.3345 51.5526C44.8018 51.3603 45.3404 51.2642 45.9503 51.2642C46.8452 51.2642 47.5495 51.4548 48.0632 51.8359C48.5803 52.2171 48.9001 52.7325 49.0227 53.3821ZM50.6708 59V51.3636H52.4705V59H50.6708ZM51.5756 50.2798C51.2906 50.2798 51.0453 50.1854 50.8398 49.9964C50.6344 49.8042 50.5316 49.5739 50.5316 49.3054C50.5316 49.0336 50.6344 48.8033 50.8398 48.6143C51.0453 48.4221 51.2906 48.326 51.5756 48.326C51.864 48.326 52.1093 48.4221 52.3114 48.6143C52.5169 48.8033 52.6197 49.0336 52.6197 49.3054C52.6197 49.5739 52.5169 49.8042 52.3114 49.9964C52.1093 50.1854 51.864 50.2798 51.5756 50.2798ZM58.1344 51.3636V52.7557H53.7445V51.3636H58.1344ZM54.8283 49.5341H56.628V56.7031C56.628 56.9451 56.6645 57.1307 56.7374 57.2599C56.8136 57.3859 56.9131 57.4721 57.0357 57.5185C57.1583 57.5649 57.2942 57.5881 57.4434 57.5881C57.556 57.5881 57.6588 57.5798 57.7516 57.5632C57.8477 57.5466 57.9206 57.5317 57.9703 57.5185L58.2736 58.9254C58.1775 58.9586 58.04 58.995 57.861 59.0348C57.6853 59.0746 57.4699 59.0978 57.2147 59.1044C56.7639 59.1177 56.3579 59.0497 55.9966 58.9006C55.6354 58.7481 55.3487 58.5128 55.1365 58.1946C54.9277 57.8764 54.825 57.4787 54.8283 57.0014V49.5341ZM62.9382 59.1491C62.1726 59.1491 61.5114 58.9901 60.9545 58.6719C60.401 58.3504 59.9751 57.8963 59.6768 57.3097C59.3786 56.7197 59.2294 56.0253 59.2294 55.2266C59.2294 54.4411 59.3786 53.7517 59.6768 53.1584C59.9785 52.5618 60.3994 52.0978 60.9396 51.7663C61.4799 51.4316 62.1146 51.2642 62.8438 51.2642C63.3144 51.2642 63.7585 51.3404 64.1761 51.4929C64.5971 51.642 64.9683 51.8741 65.2898 52.1889C65.6146 52.5038 65.8698 52.9048 66.0554 53.392C66.241 53.8759 66.3338 54.4527 66.3338 55.1222V55.674H60.0746V54.4609H64.6087C64.6054 54.1162 64.5308 53.8097 64.3849 53.5412C64.2391 53.2694 64.0353 53.0556 63.7734 52.8999C63.5149 52.7441 63.2133 52.6662 62.8686 52.6662C62.5007 52.6662 62.1776 52.7557 61.8991 52.9347C61.6207 53.1103 61.4036 53.3423 61.2479 53.6307C61.0954 53.9157 61.0175 54.2289 61.0142 54.5703V55.6293C61.0142 56.0734 61.0954 56.4545 61.2578 56.7727C61.4202 57.0876 61.6473 57.3295 61.9389 57.4986C62.2306 57.6643 62.572 57.7472 62.9631 57.7472C63.2249 57.7472 63.4619 57.7107 63.674 57.6378C63.8861 57.5616 64.0701 57.4505 64.2259 57.3047C64.3816 57.1589 64.4993 56.9782 64.5788 56.7628L66.2592 56.9517C66.1532 57.3958 65.951 57.7836 65.6527 58.1151C65.3577 58.4432 64.9799 58.6984 64.5192 58.8807C64.0585 59.0597 63.5315 59.1491 62.9382 59.1491ZM73.8919 53.3821L72.2512 53.5611C72.2048 53.3954 72.1236 53.2396 72.0076 53.0938C71.8949 52.9479 71.7425 52.8303 71.5502 52.7408C71.358 52.6513 71.1227 52.6065 70.8443 52.6065C70.4698 52.6065 70.1549 52.6877 69.8997 52.8501C69.6478 53.0125 69.5235 53.223 69.5268 53.4815C69.5235 53.7036 69.6047 53.8842 69.7704 54.0234C69.9395 54.1626 70.2179 54.277 70.6056 54.3665L71.9082 54.6449C72.6307 54.8007 73.1677 55.0476 73.519 55.3857C73.8736 55.7237 74.0526 56.1662 74.0559 56.7131C74.0526 57.1937 73.9118 57.6179 73.6333 57.9858C73.3583 58.3504 72.9754 58.6354 72.4849 58.8409C71.9944 59.0464 71.4309 59.1491 70.7946 59.1491C69.8599 59.1491 69.1075 58.9536 68.5375 58.5625C67.9674 58.1681 67.6277 57.6196 67.5183 56.9169L69.2733 56.7479C69.3528 57.0926 69.5218 57.3527 69.7804 57.5284C70.0389 57.7041 70.3753 57.7919 70.7896 57.7919C71.2172 57.7919 71.5602 57.7041 71.8187 57.5284C72.0806 57.3527 72.2115 57.1357 72.2115 56.8771C72.2115 56.6584 72.127 56.4777 71.9579 56.3352C71.7922 56.1927 71.5337 56.0833 71.1824 56.0071L69.8798 55.7337C69.1473 55.5812 68.6054 55.3243 68.2541 54.9631C67.9028 54.5985 67.7288 54.1378 67.7321 53.581C67.7288 53.1103 67.8564 52.7027 68.1149 52.358C68.3767 52.0099 68.7396 51.7415 69.2037 51.5526C69.671 51.3603 70.2096 51.2642 70.8194 51.2642C71.7143 51.2642 72.4186 51.4548 72.9324 51.8359C73.4494 52.2171 73.7692 52.7325 73.8919 53.3821ZM82.0552 59.1491C81.3592 59.1491 80.7609 59.0232 80.2605 58.7713C79.76 58.5194 79.3739 58.1797 79.1021 57.7521C78.8336 57.3213 78.6994 56.8357 78.6994 56.2955C78.6994 55.8878 78.7823 55.5265 78.948 55.2116C79.117 54.8968 79.349 54.6051 79.644 54.3366C79.9423 54.0682 80.287 53.8014 80.6781 53.5362L82.4828 52.3082C82.7479 52.1359 82.9484 51.9536 83.0843 51.7614C83.2235 51.5691 83.2931 51.3437 83.2931 51.0852C83.2931 50.8665 83.2003 50.6593 83.0147 50.4638C82.8324 50.2682 82.5806 50.1705 82.2591 50.1705C82.0436 50.1705 81.853 50.2218 81.6873 50.3246C81.5249 50.424 81.3973 50.5549 81.3045 50.7173C81.215 50.8797 81.1703 51.0521 81.1703 51.2344C81.1703 51.4564 81.2316 51.6818 81.3542 51.9105C81.4802 52.1392 81.6426 52.3762 81.8414 52.6214C82.0436 52.8667 82.2591 53.1269 82.4877 53.402L87.2654 59H85.3166L81.3493 54.456C81.0543 54.1113 80.7692 53.7715 80.4941 53.4368C80.2224 53.102 79.9986 52.754 79.823 52.3928C79.6506 52.0282 79.5645 51.6338 79.5645 51.2095C79.5645 50.7289 79.6755 50.2997 79.8975 49.9219C80.1196 49.5407 80.4295 49.2408 80.8272 49.022C81.2283 48.8033 81.6973 48.6939 82.2342 48.6939C82.7711 48.6939 83.2318 48.8 83.6163 49.0121C84.0008 49.2242 84.2974 49.5059 84.5062 49.8572C84.715 50.2086 84.8194 50.5914 84.8194 51.0057C84.8194 51.4863 84.7001 51.9171 84.4615 52.2983C84.2228 52.6761 83.8914 53.0192 83.4672 53.3274L81.4089 54.8338C81.0708 55.0791 80.8289 55.3277 80.6831 55.5795C80.5372 55.8281 80.4643 56.0402 80.4643 56.2159C80.4643 56.4844 80.5323 56.728 80.6681 56.9467C80.804 57.1655 80.9946 57.3411 81.2399 57.4737C81.4885 57.603 81.7785 57.6676 82.1099 57.6676C82.4745 57.6676 82.8341 57.5864 83.1887 57.424C83.5434 57.2583 83.8665 57.023 84.1582 56.718C84.4499 56.4131 84.6819 56.0485 84.8542 55.6243C85.0266 55.1967 85.1127 54.7228 85.1127 54.2024H86.6589C86.6589 54.8454 86.5877 55.4055 86.4451 55.8828C86.3026 56.3568 86.1187 56.7578 85.8933 57.0859C85.6679 57.4107 85.4293 57.6709 85.1774 57.8665C85.0978 57.9228 85.0216 57.9792 84.9487 58.0355C84.8758 58.0919 84.7995 58.1482 84.72 58.2045C84.362 58.5294 83.9428 58.768 83.4622 58.9205C82.9849 59.0729 82.5159 59.1491 82.0552 59.1491ZM18.0367 76L15.1631 65.8182H17.1468L18.9813 73.3004H19.0757L21.0345 65.8182H22.8392L24.803 73.3054H24.8925L26.727 65.8182H28.7107L25.8371 76H24.0175L21.9791 68.8558H21.8996L19.8563 76H18.0367ZM32.5115 76.1491C31.7458 76.1491 31.0846 75.9901 30.5278 75.6719C29.9743 75.3504 29.5484 74.8963 29.2501 74.3097C28.9518 73.7197 28.8026 73.0253 28.8026 72.2266C28.8026 71.4411 28.9518 70.7517 29.2501 70.1584C29.5517 69.5618 29.9726 69.0978 30.5129 68.7663C31.0531 68.4316 31.6878 68.2642 32.417 68.2642C32.8876 68.2642 33.3318 68.3404 33.7494 68.4929C34.1703 68.642 34.5415 68.8741 34.863 69.1889C35.1878 69.5038 35.443 69.9048 35.6286 70.392C35.8142 70.8759 35.907 71.4527 35.907 72.1222V72.674H29.6478V71.4609H34.1819C34.1786 71.1162 34.104 70.8097 33.9582 70.5412C33.8124 70.2694 33.6085 70.0556 33.3467 69.8999C33.0882 69.7441 32.7865 69.6662 32.4419 69.6662C32.074 69.6662 31.7508 69.7557 31.4724 69.9347C31.194 70.1103 30.9769 70.3423 30.8211 70.6307C30.6686 70.9157 30.5908 71.2289 30.5874 71.5703V72.6293C30.5874 73.0734 30.6686 73.4545 30.8311 73.7727C30.9935 74.0876 31.2205 74.3295 31.5122 74.4986C31.8038 74.6643 32.1452 74.7472 32.5363 74.7472C32.7981 74.7472 33.0351 74.7107 33.2472 74.6378C33.4594 74.5616 33.6433 74.4505 33.7991 74.3047C33.9549 74.1589 34.0725 73.9782 34.1521 73.7628L35.8325 73.9517C35.7264 74.3958 35.5242 74.7836 35.2259 75.1151C34.931 75.4432 34.5531 75.6984 34.0924 75.8807C33.6317 76.0597 33.1047 76.1491 32.5115 76.1491ZM37.5091 76V65.8182H39.3089V69.6264H39.3834C39.4762 69.4408 39.6072 69.2436 39.7762 69.0348C39.9452 68.8227 40.1739 68.642 40.4623 68.4929C40.7506 68.3404 41.1185 68.2642 41.566 68.2642C42.1559 68.2642 42.6879 68.415 43.1618 68.7166C43.6391 69.0149 44.017 69.4574 44.2954 70.044C44.5771 70.6274 44.718 71.3433 44.718 72.1918C44.718 73.0303 44.5804 73.7429 44.3053 74.3295C44.0302 74.9162 43.6557 75.3636 43.1817 75.6719C42.7078 75.9801 42.1708 76.1342 41.5709 76.1342C41.1334 76.1342 40.7705 76.0613 40.4822 75.9155C40.1938 75.7696 39.9618 75.594 39.7861 75.3885C39.6138 75.1797 39.4796 74.9825 39.3834 74.7969H39.279V76H37.5091ZM39.2741 72.1818C39.2741 72.6757 39.3437 73.1082 39.4829 73.4794C39.6254 73.8506 39.8292 74.1406 40.0944 74.3494C40.3628 74.5549 40.6876 74.6577 41.0688 74.6577C41.4665 74.6577 41.7996 74.5516 42.0681 74.3395C42.3366 74.1241 42.5387 73.8307 42.6746 73.4595C42.8138 73.085 42.8834 72.6591 42.8834 72.1818C42.8834 71.7079 42.8155 71.2869 42.6796 70.919C42.5437 70.5511 42.3415 70.2628 42.0731 70.054C41.8046 69.8452 41.4698 69.7408 41.0688 69.7408C40.6843 69.7408 40.3579 69.8419 40.0894 70.044C39.8209 70.2462 39.6171 70.5296 39.4779 70.8942C39.342 71.2588 39.2741 71.688 39.2741 72.1818ZM51.1077 76H49.1389L52.7235 65.8182H55.0004L58.5899 76H56.6212L53.9017 67.9062H53.8222L51.1077 76ZM51.1723 72.0078H56.5416V73.4893H51.1723V72.0078ZM59.8515 78.8636V68.3636H61.6214V69.6264H61.7258C61.8186 69.4408 61.9495 69.2436 62.1185 69.0348C62.2876 68.8227 62.5162 68.642 62.8046 68.4929C63.093 68.3404 63.4608 68.2642 63.9083 68.2642C64.4983 68.2642 65.0302 68.415 65.5042 68.7166C65.9814 69.0149 66.3593 69.4574 66.6377 70.044C66.9194 70.6274 67.0603 71.3433 67.0603 72.1918C67.0603 73.0303 66.9227 73.7429 66.6476 74.3295C66.3725 74.9162 65.998 75.3636 65.5241 75.6719C65.0501 75.9801 64.5132 76.1342 63.9133 76.1342C63.4758 76.1342 63.1128 76.0613 62.8245 75.9155C62.5361 75.7696 62.3041 75.594 62.1285 75.3885C61.9561 75.1797 61.8219 74.9825 61.7258 74.7969H61.6512V78.8636H59.8515ZM61.6164 72.1818C61.6164 72.6757 61.686 73.1082 61.8252 73.4794C61.9677 73.8506 62.1715 74.1406 62.4367 74.3494C62.7052 74.5549 63.03 74.6577 63.4111 74.6577C63.8089 74.6577 64.142 74.5516 64.4104 74.3395C64.6789 74.1241 64.8811 73.8307 65.017 73.4595C65.1562 73.085 65.2258 72.6591 65.2258 72.1818C65.2258 71.7079 65.1578 71.2869 65.0219 70.919C64.886 70.5511 64.6839 70.2628 64.4154 70.054C64.1469 69.8452 63.8122 69.7408 63.4111 69.7408C63.0267 69.7408 62.7002 69.8419 62.4317 70.044C62.1633 70.2462 61.9594 70.5296 61.8202 70.8942C61.6843 71.2588 61.6164 71.688 61.6164 72.1818ZM68.6015 78.8636V68.3636H70.3714V69.6264H70.4758C70.5686 69.4408 70.6995 69.2436 70.8685 69.0348C71.0376 68.8227 71.2662 68.642 71.5546 68.4929C71.843 68.3404 72.2108 68.2642 72.6583 68.2642C73.2483 68.2642 73.7802 68.415 74.2542 68.7166C74.7314 69.0149 75.1093 69.4574 75.3877 70.044C75.6694 70.6274 75.8103 71.3433 75.8103 72.1918C75.8103 73.0303 75.6727 73.7429 75.3976 74.3295C75.1225 74.9162 74.748 75.3636 74.2741 75.6719C73.8001 75.9801 73.2632 76.1342 72.6633 76.1342C72.2258 76.1342 71.8628 76.0613 71.5745 75.9155C71.2861 75.7696 71.0541 75.594 70.8785 75.3885C70.7061 75.1797 70.5719 74.9825 70.4758 74.7969H70.4012V78.8636H68.6015ZM70.3664 72.1818C70.3664 72.6757 70.436 73.1082 70.5752 73.4794C70.7177 73.8506 70.9215 74.1406 71.1867 74.3494C71.4552 74.5549 71.78 74.6577 72.1611 74.6577C72.5589 74.6577 72.892 74.5516 73.1604 74.3395C73.4289 74.1241 73.6311 73.8307 73.767 73.4595C73.9062 73.085 73.9758 72.6591 73.9758 72.1818C73.9758 71.7079 73.9078 71.2869 73.7719 70.919C73.636 70.5511 73.4339 70.2628 73.1654 70.054C72.8969 69.8452 72.5622 69.7408 72.1611 69.7408C71.7767 69.7408 71.4502 69.8419 71.1817 70.044C70.9133 70.2462 70.7094 70.5296 70.5702 70.8942C70.4343 71.2588 70.3664 71.688 70.3664 72.1818ZM83.387 70.3821L81.7464 70.5611C81.7 70.3954 81.6188 70.2396 81.5028 70.0938C81.3901 69.9479 81.2376 69.8303 81.0454 69.7408C80.8531 69.6513 80.6178 69.6065 80.3394 69.6065C79.9649 69.6065 79.65 69.6877 79.3948 69.8501C79.1429 70.0125 79.0186 70.223 79.0219 70.4815C79.0186 70.7036 79.0998 70.8842 79.2655 71.0234C79.4346 71.1626 79.713 71.277 80.1008 71.3665L81.4033 71.6449C82.1259 71.8007 82.6628 72.0476 83.0141 72.3857C83.3688 72.7237 83.5477 73.1662 83.551 73.7131C83.5477 74.1937 83.4069 74.6179 83.1285 74.9858C82.8534 75.3504 82.4706 75.6354 81.98 75.8409C81.4895 76.0464 80.926 76.1491 80.2897 76.1491C79.355 76.1491 78.6027 75.9536 78.0326 75.5625C77.4625 75.1681 77.1228 74.6196 77.0134 73.9169L78.7684 73.7479C78.8479 74.0926 79.017 74.3527 79.2755 74.5284C79.534 74.7041 79.8704 74.7919 80.2847 74.7919C80.7123 74.7919 81.0553 74.7041 81.3138 74.5284C81.5757 74.3527 81.7066 74.1357 81.7066 73.8771C81.7066 73.6584 81.6221 73.4777 81.453 73.3352C81.2873 73.1927 81.0288 73.0833 80.6775 73.0071L79.3749 72.7337C78.6424 72.5812 78.1005 72.3243 77.7492 71.9631C77.3979 71.5985 77.2239 71.1378 77.2272 70.581C77.2239 70.1103 77.3515 69.7027 77.61 69.358C77.8718 69.0099 78.2348 68.7415 78.6988 68.5526C79.1661 68.3603 79.7047 68.2642 80.3145 68.2642C81.2094 68.2642 81.9137 68.4548 82.4275 68.8359C82.9445 69.2171 83.2644 69.7325 83.387 70.3821Z" fill="black"/>
<defs>
<clipPath id="clip0_49_31">
<rect width="48" height="47" fill="white" transform="translate(25.5)"/>
</clipPath>
</defs>
</svg>
