<svg width="363" height="362" viewBox="0 0 363 362" fill="none" xmlns="http://www.w3.org/2000/svg">
<path d="M280.688 94.7426C280.688 94.7426 249.78 62.807 200.845 64.3346C151.91 65.8622 110.179 96.7915 75.6657 121.002C41.1526 145.213 31.8854 182.832 51.9764 212.19C72.0674 241.548 104.003 229.189 144.692 248.245C185.381 267.301 193.084 278.125 238.443 273.491C283.801 268.857 318.293 221.464 313.138 170.98C307.983 120.495 280.688 94.7426 280.688 94.7426Z" fill="#407BFF"/>
<path opacity="0.7" d="M280.688 94.7426C280.688 94.7426 249.78 62.807 200.845 64.3346C151.91 65.8622 110.179 96.7915 75.6657 121.002C41.1526 145.213 31.8854 182.832 51.9764 212.19C72.0674 241.548 104.003 229.189 144.692 248.245C185.381 267.301 193.084 278.125 238.443 273.491C283.801 268.857 318.293 221.464 313.138 170.98C307.983 120.495 280.688 94.7426 280.688 94.7426Z" fill="white"/>
<path d="M292.533 289.093C292.533 291.222 244.749 292.937 185.866 292.937C126.983 292.937 79.1916 291.222 79.1916 289.093C79.1916 286.964 126.976 285.256 185.866 285.256C244.756 285.256 292.533 286.972 292.533 289.093Z" fill="#407BFF"/>
<path opacity="0.6" d="M292.533 289.093C292.533 291.222 244.749 292.937 185.866 292.937C126.983 292.937 79.1916 291.222 79.1916 289.093C79.1916 286.964 126.976 285.256 185.866 285.256C244.756 285.256 292.533 286.972 292.533 289.093Z" fill="white"/>
<path d="M84.9691 169.257C85.0125 169.257 84.4695 166.556 84.4116 166.361C83.789 164.435 81.4504 161.075 79.1771 161.075C78.8 161.087 78.4295 161.178 78.0898 161.342C77.75 161.506 77.4485 161.74 77.2049 162.028C76.9612 162.316 76.7807 162.652 76.6752 163.014C76.5697 163.377 76.5415 163.757 76.5924 164.131C76.7589 165.724 78.1924 167.085 79.4884 167.867C81.0088 168.815 84.9691 169.257 84.9691 169.257Z" fill="#407BFF"/>
<path d="M89.3638 151.07C87.228 151.837 86.1709 155.79 86.2361 157.817C86.2361 157.991 86.6415 160.713 86.685 160.713H86.7284C86.5546 161.336 86.3736 162.002 86.1926 162.741C85.8741 164.102 85.5266 165.637 85.2587 167.345C84.9481 169.176 84.745 171.023 84.6505 172.877C84.5387 174.954 84.6089 177.038 84.8605 179.103C84.8632 179.127 84.8632 179.151 84.8605 179.175C84.5854 178.575 83.7455 176.917 83.6659 176.793C82.5509 175.099 79.4088 172.449 77.215 173.079C76.8555 173.19 76.5233 173.375 76.2398 173.623C75.9564 173.87 75.7282 174.174 75.5698 174.516C75.4114 174.857 75.3266 175.228 75.3206 175.604C75.3147 175.98 75.3878 176.353 75.5354 176.699C76.1146 178.198 77.8522 179.125 79.3074 179.545C80.9509 180.008 84.6143 179.458 84.9039 179.414C85.2178 181.507 85.6676 183.577 86.2506 185.612C86.5908 186.799 86.9746 187.987 87.351 189.167C87.0976 188.653 86.8587 188.196 86.8225 188.139C85.7076 186.444 82.5654 183.795 80.3717 184.424C80.0121 184.535 79.6799 184.72 79.3965 184.968C79.1131 185.215 78.8848 185.519 78.7264 185.861C78.5681 186.202 78.4832 186.573 78.4773 186.949C78.4713 187.325 78.5445 187.698 78.692 188.044C79.2712 189.536 81.0088 190.47 82.464 190.883C83.9193 191.295 87.0759 190.883 87.9013 190.781C88.0533 191.23 88.2054 191.686 88.3646 192.135C89.0886 194.307 89.8706 196.479 90.5366 198.608C90.7756 199.332 90.9783 200.114 91.1882 200.866C90.9638 200.41 90.7611 200.027 90.7249 199.976C89.6172 198.275 86.4678 195.632 84.2813 196.262C83.9211 196.372 83.5881 196.556 83.3039 196.804C83.0197 197.051 82.7906 197.355 82.6315 197.696C82.4724 198.037 82.3869 198.408 82.3805 198.785C82.3741 199.162 82.447 199.535 82.5944 199.882C83.1736 201.373 84.9184 202.307 86.3736 202.72C87.8289 203.133 90.6742 202.771 91.6588 202.633C91.8543 203.408 92.0498 204.19 92.2018 204.95C92.2887 205.471 92.4118 205.963 92.477 206.499L92.6942 208.049C92.7955 209.04 92.9114 210.061 92.9838 211.031C93.0417 211.712 93.0851 212.356 93.1286 213.001C92.9041 212.277 92.4046 210.778 92.4046 210.662C91.6031 209.069 90.4066 207.708 88.9294 206.709C88.8471 206.528 88.7503 206.353 88.6398 206.188C88.4333 205.872 88.1629 205.604 87.846 205.399C87.5291 205.195 87.1728 205.059 86.8001 205.001C86.4275 204.943 86.0468 204.964 85.6827 205.062C85.3187 205.161 84.9793 205.335 84.6867 205.572C82.9708 207.057 83.398 211.126 84.1872 212.993C84.2306 213.102 84.9112 214.246 85.2876 214.956L84.3682 213.812C83.731 213.037 83.0794 212.284 82.3844 211.473C82.0272 211.097 81.6725 210.713 81.3201 210.322C80.9726 209.931 80.5599 209.562 80.1762 209.171C79.264 208.295 78.301 207.448 77.2802 206.622C77.9608 206.065 80.3282 204.067 81.0088 202.705C81.6894 201.344 82.1744 199.44 81.4649 197.999C81.309 197.657 81.0827 197.351 80.8008 197.101C80.5188 196.851 80.1876 196.664 79.8285 196.55C79.4694 196.437 79.0904 196.4 78.7163 196.443C78.3421 196.486 77.9811 196.606 77.6567 196.798C75.7308 197.999 75.5354 202.09 76.0349 204.038C76.0349 204.161 76.5852 205.536 76.882 206.282C76.2811 205.782 75.6874 205.29 75.0648 204.834C73.2692 203.451 71.4448 202.105 69.5624 200.751L67.8754 199.498C68.1144 199.303 70.9814 196.986 71.7488 195.458C72.4294 194.104 72.9145 192.193 72.205 190.759C72.0498 190.415 71.8238 190.107 71.5416 189.856C71.2594 189.605 70.9275 189.416 70.5674 189.302C70.2073 189.188 69.8273 189.151 69.452 189.194C69.0767 189.237 68.7147 189.358 68.3895 189.55C66.4709 190.759 66.2754 194.843 66.775 196.79C66.8112 196.935 67.5569 198.904 67.7741 199.397C66.536 198.477 65.3125 197.551 64.1541 196.588C62.5697 195.29 61.0703 193.893 59.6653 192.403C59.7739 192.316 62.7785 189.905 63.5604 188.349C64.241 186.995 64.726 185.083 64.0165 183.643C63.8598 183.301 63.6332 182.997 63.3516 182.749C63.0699 182.501 62.7393 182.314 62.3812 182.202C62.023 182.089 61.6452 182.053 61.2722 182.095C60.8992 182.138 60.5392 182.258 60.2155 182.448C58.2897 183.657 58.1014 187.748 58.5938 189.688C58.63 189.818 59.1947 191.324 59.4843 192.026L59.3757 192.099C58.0003 190.561 56.7646 188.904 55.6833 187.147C55.0824 186.191 54.5538 185.235 54.0615 184.301C54.6697 183.91 57.4136 182.129 58.2752 180.768C59.1368 179.407 59.7956 177.648 59.2454 176.142C59.1276 175.788 58.9374 175.463 58.687 175.187C58.4366 174.91 58.1315 174.689 57.791 174.537C57.4504 174.385 57.082 174.306 56.7092 174.304C56.3364 174.303 55.9673 174.379 55.6254 174.527C53.5837 175.512 52.9393 179.595 53.2217 181.565C53.2217 181.673 53.5113 182.766 53.7285 183.556C53.5113 183.136 53.2796 182.694 53.0841 182.281C52.3601 180.739 51.7447 179.277 51.2379 177.981C50.9556 177.257 50.7094 176.533 50.5139 175.925C50.9049 175.237 52.4615 172.421 52.6063 170.857C52.7511 169.293 52.5194 167.389 51.3393 166.303C51.0699 166.038 50.748 165.833 50.3943 165.701C50.0406 165.569 49.6631 165.513 49.2862 165.536C48.9094 165.559 48.5416 165.661 48.2068 165.836C47.872 166.01 47.5776 166.253 47.3428 166.549C45.9889 168.366 47.2849 172.254 48.4578 173.905C48.5591 174.05 50.3981 176.077 50.4198 176.077V176.033C50.6225 176.649 50.8397 177.3 51.1004 178.017C51.5854 179.327 52.1429 180.804 52.8597 182.361C53.6118 184.06 54.4627 185.714 55.4082 187.313C56.4624 189.106 57.6739 190.802 59.0282 192.381L59.0788 192.432C58.5141 192.084 56.9068 191.165 56.7693 191.107C54.9086 190.303 50.8325 189.854 49.341 191.563C49.1013 191.854 48.9257 192.193 48.8255 192.556C48.7252 192.92 48.7028 193.301 48.7594 193.674C48.8161 194.047 48.9507 194.403 49.1545 194.721C49.3582 195.038 49.6265 195.309 49.942 195.516C51.2452 196.443 53.2144 196.24 54.6552 195.806C56.2842 195.292 58.9992 192.808 59.2526 192.613C60.6687 194.186 62.1876 195.664 63.7993 197.037C64.7333 197.84 65.6962 198.622 66.6953 199.397C66.1958 199.114 65.7469 198.861 65.6817 198.832C63.821 198.028 59.7522 197.58 58.2607 199.288C58.0196 199.578 57.8425 199.916 57.7411 200.28C57.6397 200.644 57.6162 201.024 57.6723 201.398C57.7283 201.771 57.8626 202.128 58.0663 202.446C58.2701 202.763 58.5386 203.035 58.8544 203.241C60.1648 204.168 62.1269 203.965 63.5749 203.531C65.0229 203.096 67.4193 200.997 68.0492 200.439L69.1786 201.323C71.0031 202.72 72.7986 204.103 74.5724 205.515C75.1878 206.014 75.7743 206.521 76.368 207.035C75.9263 206.782 75.5498 206.572 75.4847 206.543C73.624 205.746 69.5551 205.29 68.0637 207.006C67.8225 207.296 67.6455 207.634 67.544 207.998C67.4426 208.361 67.4192 208.742 67.4752 209.115C67.5313 209.489 67.6656 209.846 67.8693 210.164C68.073 210.481 68.3416 210.752 68.6574 210.959C69.9678 211.886 71.9298 211.683 73.3778 211.241C74.8258 210.8 76.9978 208.91 77.7218 208.259C78.3083 208.794 78.902 209.337 79.4522 209.888C79.8142 210.271 80.1762 210.612 80.5382 211.024L81.5735 212.204C82.2106 212.972 82.8622 213.761 83.4632 214.528C83.8831 215.064 84.274 215.578 84.6722 216.092C84.0641 215.593 82.855 214.644 82.7392 214.565C81.0233 213.486 77.0702 212.429 75.3326 213.891C75.0522 214.143 74.8279 214.451 74.6744 214.796C74.5209 215.14 74.4415 215.513 74.4415 215.889C74.4415 216.266 74.5209 216.639 74.6744 216.983C74.8279 217.328 75.0522 217.636 75.3326 217.888C76.4838 219.003 78.4531 219.118 79.9518 218.887C81.5952 218.633 84.5781 216.715 84.9474 216.447C85.599 217.301 86.2216 218.141 86.8008 218.938C88.8063 221.71 90.3701 224.1 91.4416 225.779L91.5502 225.953L92.9403 225.28L92.7231 224.947C91.6009 223.274 89.9719 220.9 87.8796 218.141C87.228 217.265 86.504 216.353 85.7582 215.412C86.5328 214.566 87.258 213.676 87.9302 212.747C89.523 213.37 92.8462 213.392 93.2734 213.392C93.3458 214.47 93.4037 215.513 93.4399 216.498C93.5847 219.922 93.5702 222.775 93.5412 224.766C93.5412 224.845 93.5412 224.918 93.5412 224.997L95.0689 224.273C95.0689 222.29 94.9892 219.611 94.7938 216.44C94.7214 215.354 94.6272 214.188 94.5259 212.993C94.9458 212.892 98.3993 212.002 99.7025 210.959C100.89 210.018 102.135 208.483 102.092 206.883C102.095 206.506 102.018 206.132 101.867 205.787C101.716 205.441 101.494 205.131 101.215 204.877C100.937 204.623 100.608 204.431 100.25 204.312C99.8919 204.194 99.513 204.152 99.1378 204.19C96.8789 204.479 94.9965 208.106 94.6272 210.105C94.6272 210.221 94.5042 211.553 94.4607 212.342C94.4173 211.857 94.3738 211.386 94.3232 210.894C94.2218 209.902 94.0915 208.917 93.9612 207.853C93.8743 207.346 93.7874 206.825 93.7078 206.304C93.6281 205.782 93.4906 205.247 93.382 204.718C93.1068 203.48 92.7738 202.242 92.4046 201.004C93.2734 200.917 96.3576 200.555 97.6753 199.795C98.993 199.035 100.448 197.717 100.651 196.124C100.71 195.752 100.691 195.372 100.594 195.008C100.496 194.644 100.324 194.304 100.087 194.011C99.8499 193.719 99.5541 193.479 99.2184 193.308C98.8828 193.137 98.5149 193.038 98.1386 193.018C95.8653 192.96 93.4471 196.262 92.781 198.18C92.7376 198.296 92.4118 199.723 92.2525 200.512C92.0208 199.788 91.8036 199.028 91.5285 198.282C90.8045 196.11 89.9864 193.988 89.19 191.838L88.466 189.862C88.7773 189.862 92.448 189.485 93.925 188.631C95.2354 187.907 96.6979 186.553 96.9006 184.96C96.9612 184.588 96.9425 184.207 96.8458 183.843C96.7491 183.478 96.5765 183.138 96.3394 182.845C96.1022 182.552 95.8058 182.312 95.4696 182.141C95.1334 181.971 94.7649 181.873 94.3883 181.854C92.115 181.796 89.6968 185.105 89.0307 187.016C88.98 187.161 88.5167 189.188 88.4226 189.746C87.9013 188.298 87.3945 186.85 86.9746 185.402C86.3699 183.445 85.8863 181.452 85.5266 179.436C85.6714 179.436 89.5086 179.074 91.0217 178.205C92.3322 177.445 93.7946 176.12 93.9974 174.527C94.0568 174.155 94.0371 173.774 93.9395 173.409C93.8419 173.045 93.6686 172.705 93.4309 172.412C93.1932 172.119 92.8964 171.879 92.5599 171.709C92.2234 171.538 91.8547 171.44 91.4778 171.421C89.2117 171.363 86.7936 174.672 86.1275 176.584C86.084 176.707 85.7293 178.278 85.5772 179.023H85.4469C85.1479 176.984 85.0316 174.922 85.0994 172.862C85.0994 171.733 85.208 170.647 85.3166 169.597C86.0406 169.597 89.3348 169.597 90.7828 168.974C92.2308 168.352 93.7657 167.208 94.1422 165.651C94.2426 165.286 94.2649 164.905 94.2076 164.531C94.1503 164.157 94.0147 163.8 93.8096 163.482C93.6046 163.164 93.3347 162.893 93.0177 162.687C92.7008 162.48 92.3438 162.343 91.9702 162.285C89.7185 161.98 86.9528 165 86.084 166.824C86.0334 166.925 85.6641 167.99 85.4035 168.772C85.4542 168.294 85.5048 167.809 85.57 167.324C85.8017 165.622 86.113 164.08 86.4026 162.712C86.5764 161.937 86.7429 161.264 86.9094 160.59C87.6334 160.228 90.4715 158.744 91.4489 157.535C92.4263 156.326 93.2806 154.596 92.8969 153.039C92.8171 152.664 92.6581 152.311 92.4305 152.003C92.2029 151.695 91.9121 151.439 91.5774 151.252C91.2428 151.066 90.8722 150.953 90.4903 150.921C90.1085 150.89 89.7244 150.941 89.3638 151.07Z" fill="#407BFF"/>
<path d="M48.3274 186.068C50.1012 185.996 53.6488 184.171 53.6561 184.171C53.6633 184.171 51.7447 182.202 51.6072 182.086C50.0216 180.826 46.2134 179.313 44.3237 180.573C44.0158 180.79 43.7569 181.069 43.564 181.393C43.3712 181.717 43.2486 182.077 43.2042 182.452C43.1598 182.826 43.1946 183.205 43.3064 183.565C43.4182 183.925 43.6045 184.257 43.8531 184.54C44.874 185.778 46.836 186.126 48.3274 186.068Z" fill="#407BFF"/>
<g opacity="0.5">
<path d="M84.9691 169.257C85.0125 169.257 84.4695 166.556 84.4116 166.361C83.789 164.435 81.4504 161.075 79.1771 161.075C78.8 161.087 78.4295 161.178 78.0898 161.342C77.75 161.506 77.4485 161.74 77.2049 162.028C76.9612 162.316 76.7807 162.652 76.6752 163.014C76.5697 163.377 76.5415 163.757 76.5924 164.131C76.7589 165.724 78.1924 167.085 79.4884 167.867C81.0088 168.815 84.9691 169.257 84.9691 169.257Z" fill="white"/>
<path d="M89.3638 151.07C87.228 151.837 86.1709 155.79 86.2361 157.817C86.2361 157.991 86.6415 160.713 86.685 160.713H86.7284C86.5546 161.336 86.3736 162.002 86.1926 162.741C85.8741 164.102 85.5266 165.637 85.2587 167.345C84.9481 169.176 84.745 171.023 84.6505 172.877C84.5387 174.954 84.6089 177.038 84.8605 179.103C84.8632 179.127 84.8632 179.151 84.8605 179.175C84.5854 178.575 83.7455 176.917 83.6659 176.793C82.5509 175.099 79.4088 172.449 77.215 173.079C76.8555 173.19 76.5233 173.375 76.2398 173.623C75.9564 173.87 75.7282 174.174 75.5698 174.516C75.4114 174.857 75.3266 175.228 75.3206 175.604C75.3147 175.98 75.3878 176.353 75.5354 176.699C76.1146 178.198 77.8522 179.125 79.3074 179.545C80.9509 180.008 84.6143 179.458 84.9039 179.414C85.2178 181.507 85.6676 183.577 86.2506 185.612C86.5908 186.799 86.9746 187.987 87.351 189.167C87.0976 188.653 86.8587 188.196 86.8225 188.139C85.7076 186.444 82.5654 183.795 80.3717 184.424C80.0121 184.535 79.6799 184.72 79.3965 184.968C79.1131 185.215 78.8848 185.519 78.7264 185.861C78.5681 186.202 78.4832 186.573 78.4773 186.949C78.4713 187.325 78.5445 187.698 78.692 188.044C79.2712 189.536 81.0088 190.47 82.464 190.883C83.9193 191.295 87.0759 190.883 87.9013 190.781C88.0533 191.23 88.2054 191.686 88.3646 192.135C89.0886 194.307 89.8706 196.479 90.5366 198.608C90.7756 199.332 90.9783 200.114 91.1882 200.866C90.9638 200.41 90.7611 200.027 90.7249 199.976C89.6172 198.275 86.4678 195.632 84.2813 196.262C83.9211 196.372 83.5881 196.556 83.3039 196.804C83.0197 197.051 82.7906 197.355 82.6315 197.696C82.4724 198.037 82.3869 198.408 82.3805 198.785C82.3741 199.162 82.447 199.535 82.5944 199.882C83.1736 201.373 84.9184 202.307 86.3736 202.72C87.8289 203.133 90.6742 202.771 91.6588 202.633C91.8543 203.408 92.0498 204.19 92.2018 204.95C92.2887 205.471 92.4118 205.963 92.477 206.499L92.6942 208.049C92.7955 209.04 92.9114 210.061 92.9838 211.031C93.0417 211.712 93.0851 212.356 93.1286 213.001C92.9041 212.277 92.4046 210.778 92.4046 210.662C91.6031 209.069 90.4066 207.708 88.9294 206.709C88.8471 206.528 88.7503 206.353 88.6398 206.188C88.4333 205.872 88.1629 205.604 87.846 205.399C87.5291 205.195 87.1728 205.059 86.8001 205.001C86.4275 204.943 86.0468 204.964 85.6827 205.062C85.3187 205.161 84.9793 205.335 84.6867 205.572C82.9708 207.057 83.398 211.126 84.1872 212.993C84.2306 213.102 84.9112 214.246 85.2876 214.956L84.3682 213.812C83.731 213.037 83.0794 212.284 82.3844 211.473C82.0272 211.097 81.6725 210.713 81.3201 210.322C80.9726 209.931 80.5599 209.562 80.1762 209.171C79.264 208.295 78.301 207.448 77.2802 206.622C77.9608 206.065 80.3282 204.067 81.0088 202.705C81.6894 201.344 82.1744 199.44 81.4649 197.999C81.309 197.657 81.0827 197.351 80.8008 197.101C80.5188 196.851 80.1876 196.664 79.8285 196.55C79.4694 196.437 79.0904 196.4 78.7163 196.443C78.3421 196.486 77.9811 196.606 77.6567 196.798C75.7308 197.999 75.5354 202.09 76.0349 204.038C76.0349 204.161 76.5852 205.536 76.882 206.282C76.2811 205.782 75.6874 205.29 75.0648 204.834C73.2692 203.451 71.4448 202.105 69.5624 200.751L67.8754 199.498C68.1144 199.303 70.9814 196.986 71.7488 195.458C72.4294 194.104 72.9145 192.193 72.205 190.759C72.0498 190.415 71.8238 190.107 71.5416 189.856C71.2594 189.605 70.9275 189.416 70.5674 189.302C70.2073 189.188 69.8273 189.151 69.452 189.194C69.0767 189.237 68.7147 189.358 68.3895 189.55C66.4709 190.759 66.2754 194.843 66.775 196.79C66.8112 196.935 67.5569 198.904 67.7741 199.397C66.536 198.477 65.3125 197.551 64.1541 196.588C62.5697 195.29 61.0703 193.893 59.6653 192.403C59.7739 192.316 62.7785 189.905 63.5604 188.349C64.241 186.995 64.726 185.083 64.0165 183.643C63.8598 183.301 63.6332 182.997 63.3516 182.749C63.0699 182.501 62.7393 182.314 62.3812 182.202C62.023 182.089 61.6452 182.053 61.2722 182.095C60.8992 182.138 60.5392 182.258 60.2155 182.448C58.2897 183.657 58.1014 187.748 58.5938 189.688C58.63 189.818 59.1947 191.324 59.4843 192.026L59.3757 192.099C58.0003 190.561 56.7646 188.904 55.6833 187.147C55.0824 186.191 54.5538 185.235 54.0615 184.301C54.6697 183.91 57.4136 182.129 58.2752 180.768C59.1368 179.407 59.7956 177.648 59.2454 176.142C59.1276 175.788 58.9374 175.463 58.687 175.187C58.4366 174.91 58.1315 174.689 57.791 174.537C57.4504 174.385 57.082 174.306 56.7092 174.304C56.3364 174.303 55.9673 174.379 55.6254 174.527C53.5837 175.512 52.9393 179.595 53.2217 181.565C53.2217 181.673 53.5113 182.766 53.7285 183.556C53.5113 183.136 53.2796 182.694 53.0841 182.281C52.3601 180.739 51.7447 179.277 51.2379 177.981C50.9556 177.257 50.7094 176.533 50.5139 175.925C50.9049 175.237 52.4615 172.421 52.6063 170.857C52.7511 169.293 52.5194 167.389 51.3393 166.303C51.0699 166.038 50.748 165.833 50.3943 165.701C50.0406 165.569 49.6631 165.513 49.2862 165.536C48.9094 165.559 48.5416 165.661 48.2068 165.836C47.872 166.01 47.5776 166.253 47.3428 166.549C45.9889 168.366 47.2849 172.254 48.4578 173.905C48.5591 174.05 50.3981 176.077 50.4198 176.077V176.033C50.6225 176.649 50.8397 177.3 51.1004 178.017C51.5854 179.327 52.1429 180.804 52.8597 182.361C53.6118 184.06 54.4627 185.714 55.4082 187.313C56.4624 189.106 57.6739 190.802 59.0282 192.381L59.0788 192.432C58.5141 192.084 56.9068 191.165 56.7693 191.107C54.9086 190.303 50.8325 189.854 49.341 191.563C49.1013 191.854 48.9257 192.193 48.8255 192.556C48.7252 192.92 48.7028 193.301 48.7594 193.674C48.8161 194.047 48.9507 194.403 49.1545 194.721C49.3582 195.038 49.6265 195.309 49.942 195.516C51.2452 196.443 53.2144 196.24 54.6552 195.806C56.2842 195.292 58.9992 192.808 59.2526 192.613C60.6687 194.186 62.1876 195.664 63.7993 197.037C64.7333 197.84 65.6962 198.622 66.6953 199.397C66.1958 199.114 65.7469 198.861 65.6817 198.832C63.821 198.028 59.7522 197.58 58.2607 199.288C58.0196 199.578 57.8425 199.916 57.7411 200.28C57.6397 200.644 57.6162 201.024 57.6723 201.398C57.7283 201.771 57.8626 202.128 58.0663 202.446C58.2701 202.763 58.5386 203.035 58.8544 203.241C60.1648 204.168 62.1269 203.965 63.5749 203.531C65.0229 203.096 67.4193 200.997 68.0492 200.439L69.1786 201.323C71.0031 202.72 72.7986 204.103 74.5724 205.515C75.1878 206.014 75.7743 206.521 76.368 207.035C75.9263 206.782 75.5498 206.572 75.4847 206.543C73.624 205.746 69.5551 205.29 68.0637 207.006C67.8225 207.296 67.6455 207.634 67.544 207.998C67.4426 208.361 67.4192 208.742 67.4752 209.115C67.5313 209.489 67.6656 209.846 67.8693 210.164C68.073 210.481 68.3416 210.752 68.6574 210.959C69.9678 211.886 71.9298 211.683 73.3778 211.241C74.8258 210.8 76.9978 208.91 77.7218 208.259C78.3083 208.794 78.902 209.337 79.4522 209.888C79.8142 210.271 80.1762 210.612 80.5382 211.024L81.5735 212.204C82.2106 212.972 82.8622 213.761 83.4632 214.528C83.8831 215.064 84.274 215.578 84.6722 216.092C84.0641 215.593 82.855 214.644 82.7392 214.565C81.0233 213.486 77.0702 212.429 75.3326 213.891C75.0522 214.143 74.8279 214.451 74.6744 214.796C74.5209 215.14 74.4415 215.513 74.4415 215.889C74.4415 216.266 74.5209 216.639 74.6744 216.983C74.8279 217.328 75.0522 217.636 75.3326 217.888C76.4838 219.003 78.4531 219.118 79.9518 218.887C81.5952 218.633 84.5781 216.715 84.9474 216.447C85.599 217.301 86.2216 218.141 86.8008 218.938C88.8063 221.71 90.3701 224.1 91.4416 225.779L91.5502 225.953L92.9403 225.28L92.7231 224.947C91.6009 223.274 89.9719 220.9 87.8796 218.141C87.228 217.265 86.504 216.353 85.7582 215.412C86.5328 214.566 87.258 213.676 87.9302 212.747C89.523 213.37 92.8462 213.392 93.2734 213.392C93.3458 214.47 93.4037 215.513 93.4399 216.498C93.5847 219.922 93.5702 222.775 93.5412 224.766C93.5412 224.845 93.5412 224.918 93.5412 224.997L95.0689 224.273C95.0689 222.29 94.9892 219.611 94.7938 216.44C94.7214 215.354 94.6272 214.188 94.5259 212.993C94.9458 212.892 98.3993 212.002 99.7025 210.959C100.89 210.018 102.135 208.483 102.092 206.883C102.095 206.506 102.018 206.132 101.867 205.787C101.716 205.441 101.494 205.131 101.215 204.877C100.937 204.623 100.608 204.431 100.25 204.312C99.8919 204.194 99.513 204.152 99.1378 204.19C96.8789 204.479 94.9965 208.106 94.6272 210.105C94.6272 210.221 94.5042 211.553 94.4607 212.342C94.4173 211.857 94.3738 211.386 94.3232 210.894C94.2218 209.902 94.0915 208.917 93.9612 207.853C93.8743 207.346 93.7874 206.825 93.7078 206.304C93.6281 205.782 93.4906 205.247 93.382 204.718C93.1068 203.48 92.7738 202.242 92.4046 201.004C93.2734 200.917 96.3576 200.555 97.6753 199.795C98.993 199.035 100.448 197.717 100.651 196.124C100.71 195.752 100.691 195.372 100.594 195.008C100.496 194.644 100.324 194.304 100.087 194.011C99.8499 193.719 99.5541 193.479 99.2184 193.308C98.8828 193.137 98.5149 193.038 98.1386 193.018C95.8653 192.96 93.4471 196.262 92.781 198.18C92.7376 198.296 92.4118 199.723 92.2525 200.512C92.0208 199.788 91.8036 199.028 91.5285 198.282C90.8045 196.11 89.9864 193.988 89.19 191.838L88.466 189.862C88.7773 189.862 92.448 189.485 93.925 188.631C95.2354 187.907 96.6979 186.553 96.9006 184.96C96.9612 184.588 96.9425 184.207 96.8458 183.843C96.7491 183.478 96.5765 183.138 96.3394 182.845C96.1022 182.552 95.8058 182.312 95.4696 182.141C95.1334 181.971 94.7649 181.873 94.3883 181.854C92.115 181.796 89.6968 185.105 89.0307 187.016C88.98 187.161 88.5167 189.188 88.4226 189.746C87.9013 188.298 87.3945 186.85 86.9746 185.402C86.3699 183.445 85.8863 181.452 85.5266 179.436C85.6714 179.436 89.5086 179.074 91.0217 178.205C92.3322 177.445 93.7946 176.12 93.9974 174.527C94.0568 174.155 94.0371 173.774 93.9395 173.409C93.8419 173.045 93.6686 172.705 93.4309 172.412C93.1932 172.119 92.8964 171.879 92.5599 171.709C92.2234 171.538 91.8547 171.44 91.4778 171.421C89.2117 171.363 86.7936 174.672 86.1275 176.584C86.084 176.707 85.7293 178.278 85.5772 179.023H85.4469C85.1479 176.984 85.0316 174.922 85.0994 172.862C85.0994 171.733 85.208 170.647 85.3166 169.597C86.0406 169.597 89.3348 169.597 90.7828 168.974C92.2308 168.352 93.7657 167.208 94.1422 165.651C94.2426 165.286 94.2649 164.905 94.2076 164.531C94.1503 164.157 94.0147 163.8 93.8096 163.482C93.6046 163.164 93.3347 162.893 93.0177 162.687C92.7008 162.48 92.3438 162.343 91.9702 162.285C89.7185 161.98 86.9528 165 86.084 166.824C86.0334 166.925 85.6641 167.99 85.4035 168.772C85.4542 168.294 85.5048 167.809 85.57 167.324C85.8017 165.622 86.113 164.08 86.4026 162.712C86.5764 161.937 86.7429 161.264 86.9094 160.59C87.6334 160.228 90.4715 158.744 91.4489 157.535C92.4263 156.326 93.2806 154.596 92.8969 153.039C92.8171 152.664 92.6581 152.311 92.4305 152.003C92.2029 151.695 91.9121 151.439 91.5774 151.252C91.2428 151.066 90.8722 150.953 90.4903 150.921C90.1085 150.89 89.7244 150.941 89.3638 151.07Z" fill="white"/>
<path d="M48.3274 186.068C50.1012 185.996 53.6488 184.171 53.6561 184.171C53.6633 184.171 51.7447 182.202 51.6072 182.086C50.0216 180.826 46.2134 179.313 44.3237 180.573C44.0158 180.79 43.7569 181.069 43.564 181.393C43.3712 181.717 43.2486 182.077 43.2042 182.452C43.1598 182.826 43.1946 183.205 43.3064 183.565C43.4182 183.925 43.6045 184.257 43.8531 184.54C44.874 185.778 46.836 186.126 48.3274 186.068Z" fill="white"/>
</g>
<path d="M69.0411 230.485C69.0411 230.485 79.807 204.537 85.8306 205.667C91.8543 206.796 75.4992 247.036 75.4992 247.036C75.4992 247.036 94.439 211.307 107.355 211.307C120.271 211.307 102.62 250.794 86.265 263.956C86.265 263.956 112.09 236.125 127.164 242.149C142.237 248.173 97.0237 276.373 97.0237 276.373C97.0237 276.373 123.283 268.097 120.271 274.49C117.259 280.883 109.1 282.012 109.1 282.012L138.784 283.518H35.462L58.7096 281.26C58.7096 281.26 34.6004 269.227 41.044 264.332C47.4876 259.438 61.707 269.972 61.707 269.972C61.707 269.972 37.1706 242.895 41.9056 232.744C46.6405 222.594 67.7379 251.17 67.7379 251.17C67.7379 251.17 50.5139 214.695 53.9819 208.295C57.4498 201.895 69.0411 230.485 69.0411 230.485Z" fill="#407BFF"/>
<path opacity="0.4" d="M69.0411 230.485C69.0411 230.485 79.807 204.537 85.8306 205.667C91.8543 206.796 75.4992 247.036 75.4992 247.036C75.4992 247.036 94.439 211.307 107.355 211.307C120.271 211.307 102.62 250.794 86.265 263.956C86.265 263.956 112.09 236.125 127.164 242.149C142.237 248.173 97.0237 276.373 97.0237 276.373C97.0237 276.373 123.283 268.097 120.271 274.49C117.259 280.883 109.1 282.012 109.1 282.012L138.784 283.518H35.462L58.7096 281.26C58.7096 281.26 34.6004 269.227 41.044 264.332C47.4876 259.438 61.707 269.972 61.707 269.972C61.707 269.972 37.1706 242.895 41.9056 232.744C46.6405 222.594 67.7379 251.17 67.7379 251.17C67.7379 251.17 50.5139 214.695 53.9819 208.295C57.4498 201.895 69.0411 230.485 69.0411 230.485Z" fill="white"/>
<path d="M65.6021 231.854C75.072 259.836 75.072 279.638 75.072 279.638C75.072 279.638 63.879 280.072 52.2515 271.464" stroke="#263238" stroke-linecap="round" stroke-linejoin="round"/>
<path d="M70.337 246.92C72.2861 238.555 74.8761 230.352 78.0838 222.384" stroke="#263238" stroke-linecap="round" stroke-linejoin="round"/>
<path d="M98.3196 230.565L74.2104 266.294C74.2104 266.294 57.848 252.538 52.2515 244.77" stroke="#263238" stroke-linecap="round" stroke-linejoin="round"/>
<path d="M74.6376 274.903C74.6376 274.903 100.036 262.848 110.374 255.963" stroke="#263238" stroke-linecap="round" stroke-linejoin="round"/>
<path d="M286.205 169.257C286.161 169.257 286.712 166.556 286.762 166.361C287.385 164.435 289.731 161.075 291.997 161.075C292.374 161.087 292.744 161.178 293.084 161.342C293.424 161.506 293.725 161.74 293.969 162.028C294.213 162.316 294.393 162.652 294.499 163.014C294.604 163.377 294.632 163.757 294.582 164.131C294.415 165.724 292.982 167.085 291.686 167.867C290.165 168.815 286.205 169.257 286.205 169.257Z" fill="#407BFF"/>
<path d="M281.81 151.07C283.946 151.837 285.01 155.79 284.938 157.818C284.938 157.991 284.532 160.714 284.496 160.714H284.453C284.619 161.336 284.8 162.002 284.981 162.741C285.3 164.102 285.647 165.637 285.915 167.345C286.226 169.176 286.429 171.023 286.523 172.877C286.639 174.954 286.569 177.038 286.313 179.103C286.311 179.127 286.311 179.151 286.313 179.176C286.596 178.575 287.436 176.917 287.508 176.794C288.623 175.099 291.765 172.45 293.959 173.079C294.319 173.189 294.652 173.374 294.936 173.621C295.22 173.868 295.449 174.173 295.607 174.514C295.766 174.856 295.851 175.227 295.856 175.604C295.861 175.98 295.787 176.353 295.639 176.699C295.059 178.198 293.322 179.125 291.867 179.545C290.223 180.008 286.56 179.458 286.27 179.414C285.96 181.508 285.51 183.578 284.923 185.612C284.586 186.799 284.219 187.984 283.823 189.167C284.076 188.653 284.315 188.197 284.351 188.139C285.466 186.444 288.616 183.795 290.802 184.425C291.162 184.534 291.495 184.719 291.78 184.966C292.064 185.213 292.292 185.518 292.451 185.859C292.609 186.201 292.694 186.572 292.699 186.949C292.705 187.325 292.631 187.699 292.482 188.045C291.903 189.536 290.165 190.47 288.71 190.883C287.255 191.295 284.098 190.883 283.273 190.781L282.817 192.135C282.093 194.307 281.303 196.479 280.645 198.608C280.406 199.332 280.196 200.114 279.986 200.867C280.217 200.41 280.413 200.027 280.449 199.976C281.564 198.275 284.706 195.632 286.893 196.262C287.253 196.372 287.586 196.557 287.87 196.804C288.154 197.051 288.383 197.355 288.542 197.696C288.702 198.038 288.787 198.409 288.793 198.785C288.8 199.162 288.727 199.535 288.58 199.882C288 201.373 286.256 202.307 284.8 202.72C283.345 203.133 280.5 202.771 279.515 202.633C279.32 203.408 279.131 204.19 278.979 204.95C278.885 205.471 278.762 205.964 278.697 206.499L278.48 208.049C278.378 209.041 278.263 210.061 278.19 211.032C278.132 211.712 278.089 212.356 278.045 213.001C278.277 212.277 278.769 210.778 278.806 210.662C279.61 209.071 280.806 207.71 282.281 206.709C282.363 206.526 282.462 206.352 282.578 206.188C282.783 205.872 283.052 205.602 283.368 205.397C283.685 205.192 284.041 205.056 284.413 204.998C284.785 204.94 285.166 204.961 285.53 205.06C285.893 205.159 286.232 205.334 286.523 205.573C288.247 207.057 287.812 211.126 287.023 212.994C286.98 213.102 286.335 214.246 285.923 214.956C286.234 214.572 286.523 214.232 286.849 213.812C287.479 213.037 288.131 212.284 288.826 211.473L289.89 210.322C290.238 209.931 290.657 209.562 291.041 209.171C291.946 208.295 292.909 207.448 293.901 206.622C293.228 206.065 290.853 204.067 290.172 202.706C289.492 201.344 289.007 199.44 289.716 198C289.872 197.656 290.099 197.349 290.381 197.098C290.664 196.848 290.996 196.66 291.356 196.547C291.716 196.433 292.096 196.397 292.47 196.44C292.845 196.484 293.207 196.605 293.532 196.798C295.45 198 295.646 202.09 295.146 204.038C295.146 204.161 294.596 205.536 294.299 206.282C294.9 205.783 295.494 205.29 296.116 204.834C297.912 203.451 299.773 202.105 301.619 200.751L303.306 199.498C303.067 199.303 300.2 196.986 299.432 195.458C298.759 194.104 298.267 192.193 298.976 190.76C299.131 190.415 299.357 190.107 299.64 189.856C299.922 189.605 300.254 189.416 300.614 189.302C300.974 189.188 301.354 189.151 301.729 189.194C302.104 189.237 302.467 189.358 302.792 189.55C304.718 190.76 304.906 194.843 304.406 196.79C304.37 196.935 303.624 198.905 303.414 199.397C304.645 198.477 305.869 197.551 307.034 196.588C308.619 195.29 310.118 193.893 311.523 192.403C311.415 192.316 308.41 189.905 307.628 188.349C306.947 186.995 306.462 185.083 307.172 183.643C307.327 183.299 307.553 182.992 307.835 182.742C308.116 182.492 308.447 182.303 308.807 182.189C309.166 182.075 309.545 182.038 309.919 182.08C310.294 182.122 310.655 182.243 310.98 182.434C312.906 183.643 313.101 187.733 312.602 189.674C312.566 189.804 312.001 191.31 311.719 192.012C311.752 192.04 311.788 192.065 311.827 192.084C313.2 190.547 314.434 188.889 315.512 187.132C316.121 186.177 316.642 185.221 317.134 184.287C316.526 183.896 313.782 182.115 312.92 180.754C312.059 179.393 311.407 177.633 311.95 176.128C312.067 175.769 312.259 175.439 312.512 175.16C312.765 174.88 313.074 174.657 313.418 174.505C313.763 174.353 314.136 174.275 314.513 174.276C314.89 174.277 315.263 174.358 315.607 174.513C317.655 175.498 318.293 179.581 318.01 181.55C318.01 181.659 317.721 182.752 317.511 183.541C317.721 183.121 317.952 182.68 318.148 182.267C318.872 180.725 319.487 179.262 319.994 177.966C320.284 177.242 320.522 176.518 320.718 175.91C320.32 175.223 318.77 172.406 318.618 170.842C318.466 169.278 318.712 167.374 319.893 166.288C320.161 166.024 320.483 165.819 320.836 165.687C321.189 165.555 321.566 165.499 321.942 165.522C322.318 165.545 322.686 165.647 323.02 165.822C323.354 165.996 323.648 166.239 323.882 166.535C325.243 168.352 323.947 172.24 322.774 173.89C322.673 174.035 320.827 176.062 320.805 176.062V176.019C320.602 176.634 320.385 177.286 320.124 178.003C319.646 179.313 319.089 180.79 318.372 182.347C317.615 184.044 316.761 185.698 315.816 187.299C314.762 189.092 313.551 190.788 312.196 192.367L312.146 192.417C312.711 192.07 314.318 191.151 314.455 191.093C316.323 190.289 320.392 189.84 321.884 191.549C322.124 191.839 322.3 192.178 322.401 192.541C322.501 192.904 322.524 193.285 322.468 193.658C322.412 194.031 322.279 194.387 322.076 194.705C321.872 195.023 321.605 195.294 321.29 195.502C319.979 196.428 318.017 196.226 316.569 195.791C314.94 195.277 312.225 192.794 311.979 192.598C310.563 194.172 309.044 195.65 307.433 197.022C306.499 197.826 305.528 198.608 304.537 199.382C305.036 199.1 305.485 198.847 305.55 198.818C307.411 198.014 311.48 197.565 312.971 199.274C313.212 199.564 313.389 199.902 313.491 200.266C313.592 200.629 313.616 201.01 313.56 201.383C313.504 201.756 313.369 202.114 313.166 202.431C312.962 202.749 312.693 203.02 312.377 203.227C311.074 204.154 309.105 203.951 307.664 203.516C306.223 203.082 303.813 200.982 303.19 200.425C302.806 200.722 302.466 201.019 302.053 201.308C300.236 202.706 298.433 204.088 296.659 205.5C296.044 206 295.458 206.507 294.864 207.021L295.747 206.528C297.608 205.732 301.677 205.276 303.168 206.992C303.409 207.282 303.586 207.62 303.688 207.983C303.789 208.347 303.813 208.728 303.757 209.101C303.701 209.474 303.566 209.831 303.363 210.149C303.159 210.467 302.89 210.738 302.575 210.945C301.264 211.871 299.302 211.669 297.861 211.227C296.421 210.785 294.241 208.896 293.517 208.244C292.931 208.78 292.337 209.323 291.794 209.873C291.425 210.257 291.07 210.597 290.708 211.01L289.666 212.19C289.036 212.957 288.377 213.747 287.776 214.514C287.356 215.05 286.965 215.564 286.574 216.078C287.175 215.578 288.391 214.63 288.5 214.55C290.216 213.471 294.176 212.414 295.906 213.877C296.187 214.129 296.411 214.437 296.565 214.781C296.718 215.125 296.798 215.498 296.798 215.875C296.798 216.252 296.718 216.625 296.565 216.969C296.411 217.313 296.187 217.621 295.906 217.873C294.748 218.988 292.779 219.104 291.287 218.872C289.637 218.619 286.654 216.7 286.285 216.433C285.633 217.287 285.01 218.127 284.431 218.923C282.426 221.696 280.862 224.085 279.79 225.765C279.79 225.83 279.718 225.881 279.682 225.939L278.292 225.265L278.509 224.932C279.631 223.26 281.267 220.885 283.352 218.127C284.011 217.251 284.728 216.338 285.474 215.397C284.698 214.553 283.972 213.663 283.302 212.733C281.702 213.356 278.386 213.377 277.951 213.377C277.886 214.456 277.828 215.499 277.785 216.483C277.64 219.908 277.654 222.76 277.691 224.751V224.983L276.163 224.259C276.163 222.275 276.243 219.596 276.445 216.425C276.511 215.339 276.605 214.174 276.713 212.979C276.286 212.878 272.833 211.987 271.529 210.945C270.349 210.003 269.104 208.469 269.147 206.869C269.143 206.491 269.219 206.117 269.37 205.771C269.52 205.425 269.742 205.115 270.021 204.86C270.3 204.606 270.63 204.414 270.988 204.296C271.347 204.177 271.726 204.136 272.101 204.175C274.353 204.465 276.243 208.092 276.612 210.09C276.612 210.206 276.728 211.538 276.771 212.327C276.822 211.842 276.858 211.372 276.916 210.88C277.01 209.888 277.14 208.903 277.278 207.839C277.358 207.332 277.444 206.811 277.524 206.289C277.604 205.768 277.741 205.232 277.85 204.704C278.125 203.466 278.458 202.228 278.827 200.99C277.959 200.903 274.882 200.541 273.557 199.781C272.232 199.02 270.784 197.703 270.588 196.11C270.528 195.738 270.546 195.357 270.643 194.992C270.74 194.628 270.912 194.288 271.149 193.995C271.387 193.702 271.683 193.462 272.019 193.291C272.355 193.12 272.724 193.022 273.1 193.004C275.367 192.946 277.785 196.247 278.451 198.166C278.494 198.282 278.82 199.708 278.979 200.497C279.211 199.773 279.428 199.013 279.703 198.267C280.427 196.095 281.245 193.974 282.042 191.824C282.288 191.165 282.52 190.506 282.766 189.847C282.455 189.847 278.784 189.471 277.307 188.616C275.996 187.892 274.534 186.539 274.331 184.946C274.272 184.574 274.291 184.193 274.389 183.829C274.486 183.465 274.658 183.126 274.895 182.833C275.132 182.54 275.428 182.3 275.764 182.129C276.099 181.958 276.467 181.86 276.844 181.84C279.117 181.782 281.535 185.091 282.201 187.002C282.252 187.147 282.715 189.174 282.809 189.731C283.331 188.283 283.845 186.835 284.257 185.387C284.869 183.432 285.352 181.44 285.705 179.422C285.561 179.422 281.731 179.06 280.217 178.191C278.9 177.431 277.437 176.106 277.242 174.513C277.181 174.141 277.2 173.76 277.297 173.396C277.393 173.031 277.566 172.691 277.803 172.398C278.04 172.105 278.337 171.865 278.673 171.694C279.009 171.523 279.377 171.426 279.754 171.407C282.02 171.349 284.438 174.658 285.104 176.569C285.148 176.692 285.51 178.263 285.662 179.009H285.785C286.084 176.97 286.2 174.908 286.132 172.848C286.132 171.718 286.024 170.632 285.915 169.583C285.191 169.583 281.904 169.583 280.456 168.96C279.008 168.337 277.466 167.193 277.09 165.637C276.989 165.272 276.967 164.89 277.024 164.517C277.082 164.143 277.217 163.785 277.422 163.467C277.627 163.15 277.897 162.879 278.214 162.672C278.531 162.466 278.888 162.329 279.262 162.27C281.513 161.966 284.279 164.985 285.155 166.81C285.199 166.911 285.575 167.975 285.828 168.757C285.778 168.279 285.727 167.794 285.662 167.309C285.437 165.608 285.119 164.066 284.829 162.697C284.656 161.923 284.489 161.249 284.322 160.576C283.598 160.214 280.76 158.73 279.79 157.521C278.82 156.312 277.951 154.581 278.342 153.025C278.425 152.659 278.584 152.315 278.808 152.014C279.032 151.713 279.316 151.463 279.643 151.278C279.97 151.094 280.331 150.981 280.704 150.945C281.078 150.909 281.454 150.951 281.81 151.07Z" fill="#407BFF"/>
<path d="M322.847 186.068C321.073 185.996 317.525 184.171 317.525 184.171C317.525 184.171 319.429 182.202 319.567 182.086C321.152 180.826 324.961 179.313 326.85 180.573C327.159 180.789 327.419 181.068 327.612 181.392C327.806 181.716 327.929 182.077 327.973 182.451C328.018 182.826 327.983 183.205 327.87 183.565C327.758 183.925 327.571 184.258 327.321 184.54C326.3 185.778 324.36 186.126 322.847 186.068Z" fill="#407BFF"/>
<g opacity="0.5">
<path d="M286.205 169.257C286.161 169.257 286.712 166.556 286.762 166.361C287.385 164.435 289.731 161.075 291.997 161.075C292.374 161.087 292.744 161.178 293.084 161.342C293.424 161.506 293.725 161.74 293.969 162.028C294.213 162.316 294.393 162.652 294.499 163.014C294.604 163.377 294.632 163.757 294.582 164.131C294.415 165.724 292.982 167.085 291.686 167.867C290.165 168.815 286.205 169.257 286.205 169.257Z" fill="white"/>
<path d="M281.81 151.07C283.946 151.837 285.01 155.79 284.938 157.818C284.938 157.991 284.532 160.714 284.496 160.714H284.453C284.619 161.336 284.8 162.002 284.981 162.741C285.3 164.102 285.647 165.637 285.915 167.345C286.226 169.176 286.429 171.023 286.523 172.877C286.639 174.954 286.569 177.038 286.313 179.103C286.311 179.127 286.311 179.151 286.313 179.176C286.596 178.575 287.436 176.917 287.508 176.794C288.623 175.099 291.765 172.45 293.959 173.079C294.319 173.189 294.652 173.374 294.936 173.621C295.22 173.868 295.449 174.173 295.607 174.514C295.766 174.856 295.851 175.227 295.856 175.604C295.861 175.98 295.787 176.353 295.639 176.699C295.059 178.198 293.322 179.125 291.867 179.545C290.223 180.008 286.56 179.458 286.27 179.414C285.96 181.508 285.51 183.578 284.923 185.612C284.586 186.799 284.219 187.984 283.823 189.167C284.076 188.653 284.315 188.197 284.351 188.139C285.466 186.444 288.616 183.795 290.802 184.425C291.162 184.534 291.495 184.719 291.78 184.966C292.064 185.213 292.292 185.518 292.451 185.859C292.609 186.201 292.694 186.572 292.699 186.949C292.705 187.325 292.631 187.699 292.482 188.045C291.903 189.536 290.165 190.47 288.71 190.883C287.255 191.295 284.098 190.883 283.273 190.781L282.817 192.135C282.093 194.307 281.303 196.479 280.645 198.608C280.406 199.332 280.196 200.114 279.986 200.867C280.217 200.41 280.413 200.027 280.449 199.976C281.564 198.275 284.706 195.632 286.893 196.262C287.253 196.372 287.586 196.557 287.87 196.804C288.154 197.051 288.383 197.355 288.542 197.696C288.702 198.038 288.787 198.409 288.793 198.785C288.8 199.162 288.727 199.535 288.58 199.882C288 201.373 286.256 202.307 284.8 202.72C283.345 203.133 280.5 202.771 279.515 202.633C279.32 203.408 279.131 204.19 278.979 204.95C278.885 205.471 278.762 205.964 278.697 206.499L278.48 208.049C278.378 209.041 278.263 210.061 278.19 211.032C278.132 211.712 278.089 212.356 278.045 213.001C278.277 212.277 278.769 210.778 278.806 210.662C279.61 209.071 280.806 207.71 282.281 206.709C282.363 206.526 282.462 206.352 282.578 206.188C282.783 205.872 283.052 205.602 283.368 205.397C283.685 205.192 284.041 205.056 284.413 204.998C284.785 204.94 285.166 204.961 285.53 205.06C285.893 205.159 286.232 205.334 286.523 205.573C288.247 207.057 287.812 211.126 287.023 212.994C286.98 213.102 286.335 214.246 285.923 214.956C286.234 214.572 286.523 214.232 286.849 213.812C287.479 213.037 288.131 212.284 288.826 211.473L289.89 210.322C290.238 209.931 290.657 209.562 291.041 209.171C291.946 208.295 292.909 207.448 293.901 206.622C293.228 206.065 290.853 204.067 290.172 202.706C289.492 201.344 289.007 199.44 289.716 198C289.872 197.656 290.099 197.349 290.381 197.098C290.664 196.848 290.996 196.66 291.356 196.547C291.716 196.433 292.096 196.397 292.47 196.44C292.845 196.484 293.207 196.605 293.532 196.798C295.45 198 295.646 202.09 295.146 204.038C295.146 204.161 294.596 205.536 294.299 206.282C294.9 205.783 295.494 205.29 296.116 204.834C297.912 203.451 299.773 202.105 301.619 200.751L303.306 199.498C303.067 199.303 300.2 196.986 299.432 195.458C298.759 194.104 298.267 192.193 298.976 190.76C299.131 190.415 299.357 190.107 299.64 189.856C299.922 189.605 300.254 189.416 300.614 189.302C300.974 189.188 301.354 189.151 301.729 189.194C302.104 189.237 302.467 189.358 302.792 189.55C304.718 190.76 304.906 194.843 304.406 196.79C304.37 196.935 303.624 198.905 303.414 199.397C304.645 198.477 305.869 197.551 307.034 196.588C308.619 195.29 310.118 193.893 311.523 192.403C311.415 192.316 308.41 189.905 307.628 188.349C306.947 186.995 306.462 185.083 307.172 183.643C307.327 183.299 307.553 182.992 307.835 182.742C308.116 182.492 308.447 182.303 308.807 182.189C309.166 182.075 309.545 182.038 309.919 182.08C310.294 182.122 310.655 182.243 310.98 182.434C312.906 183.643 313.101 187.733 312.602 189.674C312.566 189.804 312.001 191.31 311.719 192.012C311.752 192.04 311.788 192.065 311.827 192.084C313.2 190.547 314.434 188.889 315.512 187.132C316.121 186.177 316.642 185.221 317.134 184.287C316.526 183.896 313.782 182.115 312.92 180.754C312.059 179.393 311.407 177.633 311.95 176.128C312.067 175.769 312.259 175.439 312.512 175.16C312.765 174.88 313.074 174.657 313.418 174.505C313.763 174.353 314.136 174.275 314.513 174.276C314.89 174.277 315.263 174.358 315.607 174.513C317.655 175.498 318.293 179.581 318.01 181.55C318.01 181.659 317.721 182.752 317.511 183.541C317.721 183.121 317.952 182.68 318.148 182.267C318.872 180.725 319.487 179.262 319.994 177.966C320.284 177.242 320.522 176.518 320.718 175.91C320.32 175.223 318.77 172.406 318.618 170.842C318.466 169.278 318.712 167.374 319.893 166.288C320.161 166.024 320.483 165.819 320.836 165.687C321.189 165.555 321.566 165.499 321.942 165.522C322.318 165.545 322.686 165.647 323.02 165.822C323.354 165.996 323.648 166.239 323.882 166.535C325.243 168.352 323.947 172.24 322.774 173.89C322.673 174.035 320.827 176.062 320.805 176.062V176.019C320.602 176.634 320.385 177.286 320.124 178.003C319.646 179.313 319.089 180.79 318.372 182.347C317.615 184.044 316.761 185.698 315.816 187.299C314.762 189.092 313.551 190.788 312.196 192.367L312.146 192.417C312.711 192.07 314.318 191.151 314.455 191.093C316.323 190.289 320.392 189.84 321.884 191.549C322.124 191.839 322.3 192.178 322.401 192.541C322.501 192.904 322.524 193.285 322.468 193.658C322.412 194.031 322.279 194.387 322.076 194.705C321.872 195.023 321.605 195.294 321.29 195.502C319.979 196.428 318.017 196.226 316.569 195.791C314.94 195.277 312.225 192.794 311.979 192.598C310.563 194.172 309.044 195.65 307.433 197.022C306.499 197.826 305.528 198.608 304.537 199.382C305.036 199.1 305.485 198.847 305.55 198.818C307.411 198.014 311.48 197.565 312.971 199.274C313.212 199.564 313.389 199.902 313.491 200.266C313.592 200.629 313.616 201.01 313.56 201.383C313.504 201.756 313.369 202.114 313.166 202.431C312.962 202.749 312.693 203.02 312.377 203.227C311.074 204.154 309.105 203.951 307.664 203.516C306.223 203.082 303.813 200.982 303.19 200.425C302.806 200.722 302.466 201.019 302.053 201.308C300.236 202.706 298.433 204.088 296.659 205.5C296.044 206 295.458 206.507 294.864 207.021L295.747 206.528C297.608 205.732 301.677 205.276 303.168 206.992C303.409 207.282 303.586 207.62 303.688 207.983C303.789 208.347 303.813 208.728 303.757 209.101C303.701 209.474 303.566 209.831 303.363 210.149C303.159 210.467 302.89 210.738 302.575 210.945C301.264 211.871 299.302 211.669 297.861 211.227C296.421 210.785 294.241 208.896 293.517 208.244C292.931 208.78 292.337 209.323 291.794 209.873C291.425 210.257 291.07 210.597 290.708 211.01L289.666 212.19C289.036 212.957 288.377 213.747 287.776 214.514C287.356 215.05 286.965 215.564 286.574 216.078C287.175 215.578 288.391 214.63 288.5 214.55C290.216 213.471 294.176 212.414 295.906 213.877C296.187 214.129 296.411 214.437 296.565 214.781C296.718 215.125 296.798 215.498 296.798 215.875C296.798 216.252 296.718 216.625 296.565 216.969C296.411 217.313 296.187 217.621 295.906 217.873C294.748 218.988 292.779 219.104 291.287 218.872C289.637 218.619 286.654 216.7 286.285 216.433C285.633 217.287 285.01 218.127 284.431 218.923C282.426 221.696 280.862 224.085 279.79 225.765C279.79 225.83 279.718 225.881 279.682 225.939L278.292 225.265L278.509 224.932C279.631 223.26 281.267 220.885 283.352 218.127C284.011 217.251 284.728 216.338 285.474 215.397C284.698 214.553 283.972 213.663 283.302 212.733C281.702 213.356 278.386 213.377 277.951 213.377C277.886 214.456 277.828 215.499 277.785 216.483C277.64 219.908 277.654 222.76 277.691 224.751V224.983L276.163 224.259C276.163 222.275 276.243 219.596 276.445 216.425C276.511 215.339 276.605 214.174 276.713 212.979C276.286 212.878 272.833 211.987 271.529 210.945C270.349 210.003 269.104 208.469 269.147 206.869C269.143 206.491 269.219 206.117 269.37 205.771C269.52 205.425 269.742 205.115 270.021 204.86C270.3 204.606 270.63 204.414 270.988 204.296C271.347 204.177 271.726 204.136 272.101 204.175C274.353 204.465 276.243 208.092 276.612 210.09C276.612 210.206 276.728 211.538 276.771 212.327C276.822 211.842 276.858 211.372 276.916 210.88C277.01 209.888 277.14 208.903 277.278 207.839C277.358 207.332 277.444 206.811 277.524 206.289C277.604 205.768 277.741 205.232 277.85 204.704C278.125 203.466 278.458 202.228 278.827 200.99C277.959 200.903 274.882 200.541 273.557 199.781C272.232 199.02 270.784 197.703 270.588 196.11C270.528 195.738 270.546 195.357 270.643 194.992C270.74 194.628 270.912 194.288 271.149 193.995C271.387 193.702 271.683 193.462 272.019 193.291C272.355 193.12 272.724 193.022 273.1 193.004C275.367 192.946 277.785 196.247 278.451 198.166C278.494 198.282 278.82 199.708 278.979 200.497C279.211 199.773 279.428 199.013 279.703 198.267C280.427 196.095 281.245 193.974 282.042 191.824C282.288 191.165 282.52 190.506 282.766 189.847C282.455 189.847 278.784 189.471 277.307 188.616C275.996 187.892 274.534 186.539 274.331 184.946C274.272 184.574 274.291 184.193 274.389 183.829C274.486 183.465 274.658 183.126 274.895 182.833C275.132 182.54 275.428 182.3 275.764 182.129C276.099 181.958 276.467 181.86 276.844 181.84C279.117 181.782 281.535 185.091 282.201 187.002C282.252 187.147 282.715 189.174 282.809 189.731C283.331 188.283 283.845 186.835 284.257 185.387C284.869 183.432 285.352 181.44 285.705 179.422C285.561 179.422 281.731 179.06 280.217 178.191C278.9 177.431 277.437 176.106 277.242 174.513C277.181 174.141 277.2 173.76 277.297 173.396C277.393 173.031 277.566 172.691 277.803 172.398C278.04 172.105 278.337 171.865 278.673 171.694C279.009 171.523 279.377 171.426 279.754 171.407C282.02 171.349 284.438 174.658 285.104 176.569C285.148 176.692 285.51 178.263 285.662 179.009H285.785C286.084 176.97 286.2 174.908 286.132 172.848C286.132 171.718 286.024 170.632 285.915 169.583C285.191 169.583 281.904 169.583 280.456 168.96C279.008 168.337 277.466 167.193 277.09 165.637C276.989 165.272 276.967 164.89 277.024 164.517C277.082 164.143 277.217 163.785 277.422 163.467C277.627 163.15 277.897 162.879 278.214 162.672C278.531 162.466 278.888 162.329 279.262 162.27C281.513 161.966 284.279 164.985 285.155 166.81C285.199 166.911 285.575 167.975 285.828 168.757C285.778 168.279 285.727 167.794 285.662 167.309C285.437 165.608 285.119 164.066 284.829 162.697C284.656 161.923 284.489 161.249 284.322 160.576C283.598 160.214 280.76 158.73 279.79 157.521C278.82 156.312 277.951 154.581 278.342 153.025C278.425 152.659 278.584 152.315 278.808 152.014C279.032 151.713 279.316 151.463 279.643 151.278C279.97 151.094 280.331 150.981 280.704 150.945C281.078 150.909 281.454 150.951 281.81 151.07Z" fill="white"/>
<path d="M322.847 186.068C321.073 185.996 317.525 184.171 317.525 184.171C317.525 184.171 319.429 182.202 319.567 182.086C321.152 180.826 324.961 179.313 326.85 180.573C327.159 180.789 327.419 181.068 327.612 181.392C327.806 181.716 327.929 182.077 327.973 182.451C328.018 182.826 327.983 183.205 327.87 183.565C327.758 183.925 327.571 184.258 327.321 184.54C326.3 185.778 324.36 186.126 322.847 186.068Z" fill="white"/>
</g>
<path d="M302.133 230.485C302.133 230.485 291.367 204.537 285.343 205.667C279.32 206.796 295.675 247.036 295.675 247.036C295.675 247.036 276.735 211.307 263.819 211.307C250.903 211.307 268.554 250.794 284.916 263.956C284.916 263.956 259.084 236.125 244.017 242.149C228.951 248.173 274.172 276.373 274.172 276.373C274.172 276.373 247.913 268.097 250.924 274.49C253.936 280.883 262.117 282.012 262.117 282.012L232.433 283.518H335.712L312.464 281.26C312.464 281.26 336.574 269.227 330.115 264.332C323.657 259.438 309.453 269.972 309.453 269.972C309.453 269.972 333.989 242.895 329.254 232.744C324.519 222.594 303.422 251.17 303.422 251.17C303.422 251.17 320.646 214.695 317.178 208.295C313.71 201.895 302.133 230.485 302.133 230.485Z" fill="#407BFF"/>
<path opacity="0.4" d="M302.133 230.485C302.133 230.485 291.367 204.537 285.343 205.667C279.32 206.796 295.675 247.036 295.675 247.036C295.675 247.036 276.735 211.307 263.819 211.307C250.903 211.307 268.554 250.794 284.916 263.956C284.916 263.956 259.084 236.125 244.017 242.149C228.951 248.173 274.172 276.373 274.172 276.373C274.172 276.373 247.913 268.097 250.924 274.49C253.936 280.883 262.117 282.012 262.117 282.012L232.433 283.518H335.712L312.464 281.26C312.464 281.26 336.574 269.227 330.115 264.332C323.657 259.438 309.453 269.972 309.453 269.972C309.453 269.972 333.989 242.895 329.254 232.744C324.519 222.594 303.422 251.17 303.422 251.17C303.422 251.17 320.646 214.695 317.178 208.295C313.71 201.895 302.133 230.485 302.133 230.485Z" fill="white"/>
<path d="M305.579 231.854C296.109 259.836 296.109 279.638 296.109 279.638C296.109 279.638 307.302 280.072 318.922 271.464" stroke="#263238" stroke-linecap="round" stroke-linejoin="round"/>
<path d="M300.844 246.92C298.89 238.555 296.298 230.352 293.09 222.384" stroke="#263238" stroke-linecap="round" stroke-linejoin="round"/>
<path d="M272.862 230.565L296.964 266.294C296.964 266.294 313.326 252.538 318.922 244.77" stroke="#263238" stroke-linecap="round" stroke-linejoin="round"/>
<path d="M296.536 274.903C296.536 274.903 271.138 262.848 260.807 255.963" stroke="#263238" stroke-linecap="round" stroke-linejoin="round"/>
<path d="M135.671 100.665L129.756 91.2241H77.6567V100.665V104.061V261.125H292.105V100.665H135.671Z" fill="#263238"/>
<path d="M290.694 104.995H79.2495V257.701H290.694V104.995Z" fill="white"/>
<path opacity="0.17" d="M291.729 103.684H286.82V258.859H291.729V103.684Z" fill="black"/>
<path opacity="0.17" d="M291.729 197.507H286.82V257.599H291.729V197.507Z" fill="black"/>
<path d="M290.969 102.931H78.4096V111.235H290.969V102.931Z" fill="#FF4040" stroke="#263238" stroke-miterlimit="10"/>
<path d="M290.694 104.995H79.2495V257.701H290.694V104.995Z" stroke="#263238" stroke-linecap="round" stroke-linejoin="round"/>
<g opacity="0.17">
<path d="M189.413 119.243H174.622C174.451 119.243 174.281 119.209 174.123 119.144C173.965 119.078 173.822 118.982 173.701 118.861C173.579 118.74 173.484 118.597 173.418 118.439C173.353 118.28 173.319 118.111 173.319 117.94C173.318 117.768 173.351 117.598 173.416 117.439C173.481 117.28 173.577 117.135 173.698 117.014C173.819 116.892 173.963 116.795 174.122 116.729C174.28 116.663 174.45 116.629 174.622 116.629H189.413C189.585 116.629 189.755 116.663 189.914 116.729C190.072 116.795 190.216 116.892 190.337 117.014C190.458 117.135 190.554 117.28 190.619 117.439C190.684 117.598 190.717 117.768 190.717 117.94C190.717 118.111 190.683 118.28 190.617 118.439C190.552 118.597 190.456 118.74 190.335 118.861C190.214 118.982 190.07 119.078 189.912 119.144C189.754 119.209 189.584 119.243 189.413 119.243Z" fill="black"/>
<path d="M218.996 119.243H204.205C203.86 119.241 203.529 119.103 203.285 118.859C203.041 118.615 202.903 118.285 202.901 117.94C202.901 117.594 203.039 117.261 203.283 117.016C203.527 116.77 203.858 116.631 204.205 116.629H218.996C219.344 116.629 219.677 116.767 219.923 117.013C220.168 117.259 220.306 117.592 220.306 117.94C220.304 118.286 220.166 118.618 219.92 118.862C219.674 119.106 219.342 119.243 218.996 119.243Z" fill="black"/>
<path d="M248.586 119.243H233.795C233.448 119.243 233.116 119.106 232.87 118.862C232.625 118.618 232.486 118.286 232.484 117.94C232.484 117.592 232.622 117.259 232.868 117.013C233.114 116.767 233.447 116.629 233.795 116.629H248.586C248.932 116.631 249.264 116.77 249.508 117.016C249.752 117.261 249.889 117.594 249.889 117.94C249.887 118.285 249.749 118.615 249.505 118.859C249.261 119.103 248.931 119.241 248.586 119.243Z" fill="black"/>
<path d="M278.168 119.243H263.377C263.206 119.243 263.037 119.209 262.878 119.144C262.72 119.078 262.577 118.982 262.456 118.861C262.335 118.74 262.239 118.597 262.173 118.439C262.108 118.28 262.074 118.111 262.074 117.94C262.073 117.768 262.106 117.598 262.171 117.439C262.236 117.28 262.332 117.135 262.453 117.014C262.574 116.892 262.718 116.795 262.877 116.729C263.035 116.663 263.205 116.629 263.377 116.629H278.168C278.515 116.631 278.846 116.77 279.09 117.016C279.335 117.261 279.472 117.594 279.472 117.94C279.47 118.285 279.332 118.615 279.088 118.859C278.844 119.103 278.514 119.241 278.168 119.243Z" fill="black"/>
</g>
<path d="M99.2319 181.572H121.582" stroke="#263238" stroke-width="3" stroke-linecap="round" stroke-linejoin="round"/>
<path d="M121.184 185.054H123.623" stroke="#263238" stroke-linecap="round" stroke-linejoin="round"/>
<path d="M107.189 185.054H119.707" stroke="#263238" stroke-linecap="round" stroke-linejoin="round"/>
<path d="M97.5232 185.054H105.864" stroke="#263238" stroke-linecap="round" stroke-linejoin="round"/>
<path d="M113.372 188.537H123.623" stroke="#263238" stroke-linecap="round" stroke-linejoin="round"/>
<path d="M107.775 188.537H111.757" stroke="#263238" stroke-linecap="round" stroke-linejoin="round"/>
<path d="M97.5232 188.537H106.009" stroke="#263238" stroke-linecap="round" stroke-linejoin="round"/>
<path d="M103.062 192.012H123.623" stroke="#263238" stroke-linecap="round" stroke-linejoin="round"/>
<path d="M97.5232 192.012H101.15" stroke="#263238" stroke-linecap="round" stroke-linejoin="round"/>
<path d="M118.534 195.495H123.623" stroke="#263238" stroke-linecap="round" stroke-linejoin="round"/>
<path d="M108.81 195.495H116.76" stroke="#263238" stroke-linecap="round" stroke-linejoin="round"/>
<path d="M97.5232 195.495H107.189" stroke="#263238" stroke-linecap="round" stroke-linejoin="round"/>
<path d="M106.009 198.977H123.623" stroke="#263238" stroke-linecap="round" stroke-linejoin="round"/>
<path d="M97.5232 198.977H104.387" stroke="#263238" stroke-linecap="round" stroke-linejoin="round"/>
<path d="M150.201 181.572H172.551" stroke="#263238" stroke-width="3" stroke-linecap="round" stroke-linejoin="round"/>
<path d="M172.153 185.054H174.593" stroke="#263238" stroke-linecap="round" stroke-linejoin="round"/>
<path d="M158.158 185.054H170.676" stroke="#263238" stroke-linecap="round" stroke-linejoin="round"/>
<path d="M148.493 185.054H156.833" stroke="#263238" stroke-linecap="round" stroke-linejoin="round"/>
<path d="M164.341 188.537H174.593" stroke="#263238" stroke-linecap="round" stroke-linejoin="round"/>
<path d="M158.745 188.537H162.727" stroke="#263238" stroke-linecap="round" stroke-linejoin="round"/>
<path d="M148.493 188.537H156.978" stroke="#263238" stroke-linecap="round" stroke-linejoin="round"/>
<path d="M154.031 192.012H174.593" stroke="#263238" stroke-linecap="round" stroke-linejoin="round"/>
<path d="M148.493 192.012H152.12" stroke="#263238" stroke-linecap="round" stroke-linejoin="round"/>
<path d="M169.503 195.495H174.593" stroke="#263238" stroke-linecap="round" stroke-linejoin="round"/>
<path d="M159.78 195.495H167.73" stroke="#263238" stroke-linecap="round" stroke-linejoin="round"/>
<path d="M148.493 195.495H158.158" stroke="#263238" stroke-linecap="round" stroke-linejoin="round"/>
<path d="M156.978 198.977H174.593" stroke="#263238" stroke-linecap="round" stroke-linejoin="round"/>
<path d="M148.493 198.977H155.356" stroke="#263238" stroke-linecap="round" stroke-linejoin="round"/>
<path d="M201.171 181.572H223.521" stroke="#263238" stroke-width="3" stroke-linecap="round" stroke-linejoin="round"/>
<path d="M223.123 185.054H225.563" stroke="#263238" stroke-linecap="round" stroke-linejoin="round"/>
<path d="M209.128 185.054H221.646" stroke="#263238" stroke-linecap="round" stroke-linejoin="round"/>
<path d="M199.462 185.054H207.803" stroke="#263238" stroke-linecap="round" stroke-linejoin="round"/>
<path d="M215.311 188.537H225.563" stroke="#263238" stroke-linecap="round" stroke-linejoin="round"/>
<path d="M209.714 188.537H213.696" stroke="#263238" stroke-linecap="round" stroke-linejoin="round"/>
<path d="M199.462 188.537H207.948" stroke="#263238" stroke-linecap="round" stroke-linejoin="round"/>
<path d="M205.001 192.012H225.563" stroke="#263238" stroke-linecap="round" stroke-linejoin="round"/>
<path d="M199.462 192.012H203.09" stroke="#263238" stroke-linecap="round" stroke-linejoin="round"/>
<path d="M220.473 195.495H225.563" stroke="#263238" stroke-linecap="round" stroke-linejoin="round"/>
<path d="M210.75 195.495H218.699" stroke="#263238" stroke-linecap="round" stroke-linejoin="round"/>
<path d="M199.462 195.495H209.128" stroke="#263238" stroke-linecap="round" stroke-linejoin="round"/>
<path d="M207.948 198.977H225.563" stroke="#263238" stroke-linecap="round" stroke-linejoin="round"/>
<path d="M199.462 198.977H206.326" stroke="#263238" stroke-linecap="round" stroke-linejoin="round"/>
<path d="M252.141 181.572H274.491" stroke="#263238" stroke-width="3" stroke-linecap="round" stroke-linejoin="round"/>
<path d="M274.092 185.054H276.532" stroke="#263238" stroke-linecap="round" stroke-linejoin="round"/>
<path d="M260.097 185.054H272.615" stroke="#263238" stroke-linecap="round" stroke-linejoin="round"/>
<path d="M250.432 185.054H258.773" stroke="#263238" stroke-linecap="round" stroke-linejoin="round"/>
<path d="M266.28 188.537H276.532" stroke="#263238" stroke-linecap="round" stroke-linejoin="round"/>
<path d="M260.684 188.537H264.666" stroke="#263238" stroke-linecap="round" stroke-linejoin="round"/>
<path d="M250.432 188.537H258.917" stroke="#263238" stroke-linecap="round" stroke-linejoin="round"/>
<path d="M255.971 192.012H276.532" stroke="#263238" stroke-linecap="round" stroke-linejoin="round"/>
<path d="M250.432 192.012H254.059" stroke="#263238" stroke-linecap="round" stroke-linejoin="round"/>
<path d="M271.443 195.495H276.532" stroke="#263238" stroke-linecap="round" stroke-linejoin="round"/>
<path d="M261.719 195.495H269.669" stroke="#263238" stroke-linecap="round" stroke-linejoin="round"/>
<path d="M250.432 195.495H260.097" stroke="#263238" stroke-linecap="round" stroke-linejoin="round"/>
<path d="M258.917 198.977H276.532" stroke="#263238" stroke-linecap="round" stroke-linejoin="round"/>
<path d="M250.432 198.977H257.296" stroke="#263238" stroke-linecap="round" stroke-linejoin="round"/>
<path d="M283.417 170.357H86.4895V129.734H283.417V170.357Z" fill="#407BFF"/>
<path opacity="0.7" d="M283.417 170.357H86.4895V129.734H283.417V170.357Z" fill="white"/>
<path d="M233.585 170.357H136.359V129.734H233.585V170.357Z" fill="#407BFF"/>
<path opacity="0.92" d="M233.585 170.357H136.359V129.734H233.585V170.357Z" fill="white"/>
<path d="M213.718 141.506H220.343" stroke="#263238" stroke-linecap="round" stroke-linejoin="round"/>
<path d="M175.795 141.506H209.729" stroke="#263238" stroke-linecap="round" stroke-linejoin="round"/>
<path d="M149.601 141.506H172.197" stroke="#263238" stroke-linecap="round" stroke-linejoin="round"/>
<path d="M192.563 144.988H220.343" stroke="#263238" stroke-linecap="round" stroke-linejoin="round"/>
<path d="M177.388 144.988H188.168" stroke="#263238" stroke-linecap="round" stroke-linejoin="round"/>
<path d="M149.601 144.988H172.602" stroke="#263238" stroke-linecap="round" stroke-linejoin="round"/>
<path d="M164.616 148.471H220.343" stroke="#263238" stroke-linecap="round" stroke-linejoin="round"/>
<path d="M149.601 148.471H159.425" stroke="#263238" stroke-linecap="round" stroke-linejoin="round"/>
<path d="M206.536 151.953H220.343" stroke="#263238" stroke-linecap="round" stroke-linejoin="round"/>
<path d="M180.182 151.953H201.743" stroke="#263238" stroke-linecap="round" stroke-linejoin="round"/>
<path d="M149.601 151.953H175.795" stroke="#263238" stroke-linecap="round" stroke-linejoin="round"/>
<path d="M172.602 155.428H220.343" stroke="#263238" stroke-linecap="round" stroke-linejoin="round"/>
<path d="M149.601 155.428H168.207" stroke="#263238" stroke-linecap="round" stroke-linejoin="round"/>
<path d="M283.417 257.194H86.4895V216.57H283.417V257.194Z" fill="#407BFF"/>
<path opacity="0.7" d="M283.417 257.194H86.4895V216.57H283.417V257.194Z" fill="white"/>
<path d="M260.112 232.028C260.112 232.028 248.579 236.661 246.769 237.233C244.959 237.805 244.85 238.587 244.85 241.07C244.85 243.554 245.19 254.754 245.19 255.659C245.19 256.564 245.074 258.258 245.074 258.258H282.86C282.86 258.258 280.369 248.122 278.9 243.336C277.43 238.551 278.111 238.131 275.511 236.553C272.912 234.974 266.099 232.708 264.651 232.368C263.15 232.132 261.632 232.018 260.112 232.028Z" fill="#263238" stroke="#263238" stroke-linecap="round" stroke-linejoin="round"/>
<path d="M260.677 230.782C260.677 230.782 257.962 230.558 256.832 232.824C255.703 235.09 252.988 240.368 252.988 240.368L256.267 242.403L252.452 244.35C253.089 247.143 253.882 249.899 254.827 252.604C255.484 254.379 256.238 256.117 257.086 257.809C257.086 257.809 262.588 251.59 264.76 249.664C266.192 248.294 267.377 246.687 268.264 244.915L265.441 242.316L270.306 241.751C270.306 241.751 269.061 235.423 267.475 232.824C265.889 230.225 260.677 230.782 260.677 230.782Z" fill="#263238" stroke="#263238" stroke-linecap="round" stroke-linejoin="round"/>
<path d="M255.124 252.676C255.326 253.241 255.543 253.777 255.753 254.247" stroke="white" stroke-width="0.5" stroke-linecap="round" stroke-linejoin="round"/>
<path d="M255.536 235.64L252.988 240.368L256.267 242.403L252.756 244.394C252.756 244.394 253.574 247.963 254.602 251.163" stroke="white" stroke-width="0.5" stroke-linecap="round" stroke-linejoin="round"/>
<path d="M268.38 233.497L270.284 241.751L265.419 242.316L268.242 244.915C268.242 244.915 262.812 251.279 260.561 253.849" stroke="white" stroke-width="0.5" stroke-linecap="round" stroke-linejoin="round"/>
<path d="M275.49 246.16L273.455 258.714" stroke="white" stroke-width="0.5" stroke-linecap="round" stroke-linejoin="round"/>
<path d="M247.565 243.901C247.565 243.901 247.341 251.474 247.449 253.849C247.539 255.354 247.844 256.839 248.354 258.258" stroke="white" stroke-width="0.5" stroke-linecap="round" stroke-linejoin="round"/>
<path d="M268.481 249.215L270.4 246.616L271.986 249.215H268.481Z" fill="white" stroke="#263238" stroke-miterlimit="10"/>
<path d="M270.74 224.339C270.74 224.339 272.659 224.114 273.115 226.945C273.571 229.776 272.21 233.389 267.685 233.389C263.16 233.389 263.507 229.993 263.616 227.51C263.725 225.026 270.74 224.339 270.74 224.339Z" fill="#263238" stroke="#263238" stroke-miterlimit="10"/>
<path d="M259.547 228.98C259.547 228.98 259.431 232.252 259.207 235.988C258.982 239.724 257.172 244.806 257.172 249.1C257.157 251.479 257.271 253.857 257.513 256.224C257.513 256.224 261.241 248.984 262.936 244.806C264.63 240.629 266.556 228.523 266.556 228.523L259.547 228.98Z" fill="white" stroke="#263238" stroke-miterlimit="10"/>
<path d="M270.624 221.544C271.466 219.895 271.931 218.08 271.986 216.23C271.986 213.406 271.421 209.562 268.141 207.86C264.861 206.159 258.526 207.296 256.948 210.575C255.883 212.672 255.383 215.011 255.5 217.359C255.614 218.629 255.879 219.881 256.289 221.088C256.289 221.088 256.745 218.916 259.793 217.815C262.841 216.715 266.128 215.549 267.707 216.367C269.285 217.186 270.624 221.544 270.624 221.544Z" fill="#263238" stroke="#263238" stroke-linecap="round" stroke-linejoin="round"/>
<path d="M256.383 220.386C256.383 220.386 255.022 218.351 254.457 219.821C253.893 221.291 254.689 223.441 255.587 223.89C256.485 224.339 256.948 224.114 256.948 224.114L256.383 220.386Z" fill="white" stroke="#263238" stroke-linecap="round" stroke-linejoin="round"/>
<path d="M270.624 220.726C270.624 220.726 272.21 219.14 272.21 220.61C272.13 221.974 271.624 223.278 270.762 224.339C270.081 225.244 269.741 224.795 269.741 224.795L270.624 220.726Z" fill="white" stroke="#263238" stroke-linecap="round" stroke-linejoin="round"/>
<path d="M267.938 214.217L269.061 211.053C269.105 210.93 269.098 210.793 269.042 210.674C268.985 210.556 268.884 210.464 268.76 210.42C268.636 210.376 268.5 210.383 268.381 210.439C268.262 210.495 268.171 210.597 268.127 210.72L267.185 213.363C266.195 213.129 265.167 213.099 264.165 213.276C263.163 213.453 262.208 213.832 261.357 214.391C258.418 216.317 256.043 218.011 256.043 218.011C256.043 218.011 256.159 224.455 257.397 226.829C258.635 229.204 260.792 232.028 262.602 232.028C264.412 232.028 267.576 228.075 268.822 226.829C270.067 225.584 270.856 220.726 270.856 219.14C270.856 218.004 268.988 215.528 267.938 214.217Z" fill="white" stroke="#263238" stroke-miterlimit="10"/>
<path d="M263.486 243.264C261.649 243.43 259.799 243.183 258.07 242.54C257.552 244.708 257.252 246.922 257.172 249.15C257.157 251.529 257.271 253.907 257.513 256.274C257.513 256.274 261.241 249.034 262.936 244.857C263.117 244.365 263.312 243.822 263.486 243.264Z" fill="#FF4040" stroke="#263238" stroke-miterlimit="10"/>
<path d="M210.047 226.025C207.163 226.353 204.299 226.836 201.468 227.473C198.159 228.328 196.566 228.697 196.566 230.29C196.566 231.883 196.197 238.746 195.118 241.816C194.04 244.886 192.787 249.295 192.787 250.888C192.787 252.48 195.118 259.221 195.118 259.221H199.405C199.405 259.221 197.812 251.373 197.812 250.641C197.812 249.91 200.02 243.401 200.02 243.401L200.143 259.46H222.587L222.348 244.133C222.348 244.133 224.303 250.388 224.303 251.489C224.303 252.589 223.579 259.829 223.579 259.829H227.836C227.836 259.829 229.921 251.865 229.798 249.041C229.675 246.218 227.626 237.269 227.351 234.561C227.076 231.854 228.698 230.391 225.758 228.552C222.819 226.713 216.071 225.613 214.601 225.49C213.07 225.52 211.544 225.699 210.047 226.025Z" fill="#407BFF" stroke="#263238" stroke-miterlimit="10"/>
<path d="M199.998 243.438L200.367 237.305L199.014 232.65" stroke="#263238" stroke-linecap="round" stroke-linejoin="round"/>
<path d="M222.312 236.328V244.169" stroke="#263238" stroke-linecap="round" stroke-linejoin="round"/>
<path d="M222.428 238.536L224.39 235.59" stroke="#263238" stroke-linecap="round" stroke-linejoin="round"/>
<path d="M212.132 234.366L211.401 259.25" stroke="#263238" stroke-linecap="round" stroke-linejoin="round"/>
<path d="M211.763 223.086C210.672 223.146 209.635 223.578 208.824 224.31C207.477 225.54 206.985 230.319 206.985 230.319C206.985 230.319 211.278 229.095 212.009 228.871C212.741 228.646 219.249 230.094 219.249 230.094C219.249 230.094 218.641 225.808 216.925 223.969C215.209 222.13 211.763 223.086 211.763 223.086Z" fill="#263238" stroke="#263238" stroke-linecap="round" stroke-linejoin="round"/>
<path d="M210.047 219.162C210.047 219.162 211.032 220.61 211.032 224.954C211.032 229.298 211.517 233.78 212.132 234.366C212.748 234.952 215.318 228.574 215.318 225.678C215.367 223.763 215.829 221.881 216.672 220.161C216.672 220.161 213.602 218.076 212.009 217.83C211.574 217.762 211.13 217.862 210.766 218.109C210.402 218.356 210.145 218.733 210.047 219.162Z" fill="white" stroke="#263238" stroke-linecap="round" stroke-linejoin="round"/>
<path d="M211.227 229.732C211.423 232.114 211.756 233.99 212.132 234.366C212.509 234.742 213.689 232.353 214.5 229.79C213.413 229.944 212.308 229.925 211.227 229.732Z" fill="#263238" stroke="#263238" stroke-linecap="round" stroke-linejoin="round"/>
<path d="M217.526 207.397C217.526 207.397 218.25 207.643 219.611 206.412C220.972 205.182 220.335 202.858 219.734 203.35C219.351 203.663 219.019 204.034 218.75 204.45C218.512 203.733 218.074 203.098 217.488 202.621C216.902 202.144 216.192 201.844 215.441 201.757C212.871 201.511 209.801 205.066 209.801 205.066C209.801 205.066 204.168 209.236 204.777 212.545C205.385 215.853 208.578 218.793 210.047 219.162C211.517 219.531 214.218 216.838 213.725 214.507C213.233 212.175 212.871 208.715 213.725 208.374C214.973 207.977 216.242 207.651 217.526 207.397Z" fill="#263238" stroke="#263238" stroke-linecap="round" stroke-linejoin="round"/>
<path d="M209.801 217.2C209.801 217.2 207.723 215.752 207.231 216.838C206.739 217.924 207.846 219.901 209.193 220.509C210.54 221.117 211.763 219.162 211.763 219.162C211.763 219.162 216.057 222.594 219.003 222.717C221.95 222.84 222.073 220.509 221.581 216.1C221.088 211.69 219.619 208.251 218.518 207.028C217.418 205.804 213.124 206.905 211.77 208.005C210.417 209.106 209.598 210.09 210.916 210.337C212.234 210.583 213.486 211.061 212.263 212.422C211.039 213.783 210.424 213.276 210.815 214.261C211.206 215.245 212.777 216.223 211.307 216.715L209.801 217.2Z" fill="white" stroke="#263238" stroke-linecap="round" stroke-linejoin="round"/>
<path d="M155.928 223.716C155.928 223.716 140.478 225.555 140 226.902C139.522 228.248 133.875 241.382 134.73 242.591C135.584 243.8 137.307 244.039 138.654 244.039C139.608 243.953 140.51 243.568 141.231 242.938L137.307 259.59H165.746L166.607 247.941C166.607 247.941 169.916 249.389 172.124 249.172C174.332 248.955 173.84 247.21 173.348 243.901C172.855 240.593 172.624 232.129 171.755 230.536C170.886 228.943 160.475 224.527 160.475 224.527L155.928 223.716Z" fill="#263238" stroke="#263238" stroke-linecap="round" stroke-linejoin="round"/>
<path d="M166.839 243.684V236.082L167.447 234.612" stroke="white" stroke-linecap="round" stroke-linejoin="round"/>
<path d="M142.071 237.305L143.302 232.158L143.056 231.057" stroke="white" stroke-linecap="round" stroke-linejoin="round"/>
<path d="M145.3 260.112C145.3 260.112 147.624 250.055 148.732 243.807C149.839 237.559 154.451 223.716 154.451 223.716L161.568 225.678C161.568 225.678 156.783 239.651 155.559 245.66C154.336 251.67 153.307 260.184 153.307 260.184L145.3 260.112Z" fill="#FF4040" stroke="#263238" stroke-miterlimit="10"/>
<path d="M155.436 222.268C155.436 222.268 153.351 222.268 152.612 223.716C151.874 225.164 150.897 230.826 150.897 230.826C150.897 230.826 155.313 228.864 155.682 228.864C156.051 228.864 157.767 228.987 158.622 229.964C159.476 230.942 161.322 233.273 161.322 233.273C161.322 233.273 164.138 228.741 163.407 225.801C163.157 224.832 162.607 223.967 161.836 223.329C161.065 222.691 160.113 222.312 159.114 222.246L155.436 222.268Z" fill="#FF4040" stroke="#263238" stroke-miterlimit="10"/>
<path d="M154.712 219.039C154.712 219.039 154.466 227.626 154.712 230.073C154.958 232.52 155.327 233.135 155.327 233.135C155.327 233.135 157.413 229.704 158.021 228.48C158.629 227.256 160.475 225.903 161.337 224.802C162.198 223.702 162.785 219.531 162.785 219.531C162.785 219.531 159.599 221.986 157.883 221.37C156.669 220.833 155.587 220.038 154.712 219.039Z" fill="white" stroke="#263238" stroke-linecap="round" stroke-linejoin="round"/>
<path d="M159.78 203.524C157.695 203.828 155.66 204.87 155.074 206.905C154.582 208.621 154.35 214.261 154.22 217.077C154.089 219.893 155.566 223.455 156.79 223.825C157.811 224.187 158.911 224.272 159.975 224.071C160.591 223.825 163.414 220.024 164.146 219.285C164.877 218.547 167.085 211.683 167.085 209.236C167.139 208.029 166.798 206.837 166.113 205.841C165.429 204.846 164.438 204.101 163.291 203.719C162.148 203.408 160.951 203.342 159.78 203.524Z" fill="white" stroke="#263238" stroke-linecap="round" stroke-linejoin="round"/>
<path d="M165.854 215.028C165.854 215.028 167.816 213.305 167.302 215.513C167.145 216.173 166.843 216.79 166.421 217.32C165.998 217.851 165.463 218.282 164.855 218.583L165.854 215.028Z" fill="white" stroke="#263238" stroke-linecap="round" stroke-linejoin="round"/>
<path d="M154.451 212.668C154.451 212.668 153.003 211.321 153.003 213.16C153.059 214.364 153.49 215.521 154.234 216.469L154.451 212.668Z" fill="white" stroke="#263238" stroke-linecap="round" stroke-linejoin="round"/>
<path d="M165.854 215.028C166.49 213.153 166.901 211.208 167.078 209.236C167.132 208.029 166.791 206.837 166.106 205.841C165.421 204.846 164.431 204.101 163.284 203.719C162.14 203.408 160.944 203.342 159.773 203.524C157.688 203.828 155.653 204.87 155.067 206.905C154.689 208.934 154.469 210.989 154.408 213.051C155.031 212.566 156.327 211.379 156.051 209.967C155.682 208.128 154.944 207.274 156.29 206.412C157.637 205.551 159.237 206.782 161.445 207.52C163.653 208.259 165.854 207.274 166.47 207.882C167.085 208.49 164.508 211.075 164.877 212.052C165.246 213.03 166.101 214.137 165.854 214.999V215.028Z" fill="#263238" stroke="#263238" stroke-linecap="round" stroke-linejoin="round"/>
<path d="M148.196 238.536C148.196 238.536 146.357 235.959 145.133 235.836C143.91 235.713 140.963 238.536 140.963 238.536H148.196Z" fill="white" stroke="#263238" stroke-linecap="round" stroke-linejoin="round"/>
<path d="M159.845 238.775H161.568L161.93 242.214L160.091 241.722L159.845 238.775Z" fill="white" stroke="#263238" stroke-linecap="round" stroke-linejoin="round"/>
<path d="M161.568 238.775L164.631 240.129L165.362 243.93L161.93 242.214L161.568 238.775Z" fill="white" stroke="#263238" stroke-linecap="round" stroke-linejoin="round"/>
<path d="M171.364 245.436L153.836 238.573C152.826 239.069 151.878 239.684 151.012 240.404C150.501 240.918 150.123 241.55 149.912 242.243C149.912 242.243 158.245 248.252 162.292 250.091C166.339 251.93 172.226 252.546 173.203 251.539C174.18 250.533 173.927 246.761 173.326 246.146C173.001 245.811 172.631 245.523 172.226 245.291" fill="#263238"/>
<path d="M171.364 245.436L153.836 238.573C152.826 239.069 151.878 239.684 151.012 240.404C150.501 240.918 150.123 241.55 149.912 242.243C149.912 242.243 158.245 248.252 162.292 250.091C166.339 251.93 172.226 252.546 173.203 251.539C174.18 250.533 173.927 246.761 173.326 246.146C173.001 245.811 172.631 245.523 172.226 245.291" stroke="#263238" stroke-linecap="round" stroke-linejoin="round"/>
<path d="M159.845 238.196L160.091 241.751C160.091 241.751 147.219 244.69 142.44 245.552C137.662 246.413 135.084 245.791 134.353 243.59C133.622 241.389 136.069 238.681 137.169 238.073C138.27 237.465 159.845 238.196 159.845 238.196Z" fill="#263238" stroke="#263238" stroke-linecap="round" stroke-linejoin="round"/>
<path d="M112.496 229.79C112.496 229.79 117.404 231.014 119.366 231.629C121.328 232.245 121.937 232.976 121.937 234.446C121.937 235.915 120.836 242.41 120.836 243.394V250.019C120.836 251.858 122.675 258.598 122.675 258.598H98.783C98.783 258.598 96.0897 248.303 94.2508 242.67C92.4118 237.038 92.1656 235.068 94.0046 234.207C98.376 232.605 102.836 231.256 107.362 230.167C109.063 229.922 110.778 229.796 112.496 229.79Z" fill="#407BFF" stroke="#263238" stroke-miterlimit="10"/>
<path d="M119.612 237.877C119.612 237.877 121.06 244.625 120.59 247.072C120.119 249.519 116.789 258.844 116.789 258.844" stroke="#263238" stroke-linecap="round" stroke-linejoin="round"/>
<path d="M93.9901 234.199C93.9901 234.199 91.8181 234.569 92.3973 237.392C92.9765 240.216 90.1891 258.468 90.1891 258.468H95.5829C95.5829 258.468 99.2608 248.781 99.869 246.457C100.477 244.133 100.977 242.287 99.869 240.324" fill="#407BFF"/>
<path d="M93.9901 234.199C93.9901 234.199 91.8181 234.569 92.3973 237.392C92.9765 240.216 90.1891 258.468 90.1891 258.468H95.5829C95.5829 258.468 99.2608 248.781 99.869 246.457C100.477 244.133 100.977 242.287 99.869 240.324" stroke="#263238" stroke-miterlimit="10"/>
<path d="M116.832 217.852L117.636 242.822H110.389V220.002L116.832 217.852Z" fill="#263238" stroke="#263238" stroke-linecap="round" stroke-linejoin="round"/>
<path d="M107.471 235.8C107.471 235.8 109.556 245.212 110.418 248.057C111.279 250.902 111.395 257.469 111.142 258.352C110.888 259.235 114.204 258.352 114.204 258.352C114.204 258.352 115.066 251.836 115.558 248.057C116.05 244.278 114.573 237.146 114.573 237.146L112.981 230.891L106.971 231.999L107.471 235.8Z" fill="white" stroke="#263238" stroke-linecap="round" stroke-linejoin="round"/>
<path d="M112.72 225.497C112.378 227.448 112.42 229.448 112.843 231.383C113.567 234.084 115.544 238.985 113.828 240.332C112.112 241.678 109.781 240.947 108.557 238.493C107.333 236.038 106.226 229.913 106.226 224.889C106.226 219.864 106.718 219.003 108.434 219.003C110.15 219.003 112.72 225.497 112.72 225.497Z" fill="white" stroke="#263238" stroke-linecap="round" stroke-linejoin="round"/>
<path d="M109.187 223.173C108.084 224.131 106.788 224.84 105.386 225.251C103.547 225.62 102.57 220.719 102.323 215.839C102.077 210.959 103.308 208.237 105.878 207.013C108.448 205.79 114.704 206.398 117.158 207.375C119.612 208.353 122.552 209.953 122.552 212.523C122.552 215.093 119.236 217.2 118.259 217.779C117.281 218.358 114.95 219.227 113.48 220.719C112.21 221.791 110.755 222.623 109.187 223.173Z" fill="#263238" stroke="#263238" stroke-linecap="round" stroke-linejoin="round"/>
<path d="M109.187 223.173C109.187 223.173 110.635 226.851 113.357 226.967C116.079 227.083 119.149 220.842 119.243 218.141C119.337 215.441 116.543 210.785 116.543 210.785C116.543 210.785 111.764 221.696 109.187 223.173Z" fill="white" stroke="#263238" stroke-linecap="round" stroke-linejoin="round"/>
<path d="M108.456 217.656L108.695 244.133H100.484L102.323 213.363" fill="#263238"/>
<path d="M108.456 217.656L108.695 244.133H100.484L102.323 213.363" stroke="#263238" stroke-linecap="round" stroke-linejoin="round"/>
</svg>
